<?xml version="1.0" encoding="utf-8"?>
<!-- Generator: Adobe Illustrator 16.0.0, SVG Export Plug-In . SVG Version: 6.00 Build 0)  -->
<!DOCTYPE svg PUBLIC "-//W3C//DTD SVG 1.1//EN" "http://www.w3.org/Graphics/SVG/1.1/DTD/svg11.dtd">
<svg version="1.1" xmlns="http://www.w3.org/2000/svg" xmlns:xlink="http://www.w3.org/1999/xlink" x="0px" y="0px"
	 width="993.909px" height="979.063px" viewBox="0 0 993.909 979.063" enable-background="new 0 0 993.909 979.063"
	 xml:space="preserve">
<symbol  id="__15" viewBox="-3.501 -3.333 7.003 6.667">
	<path fill="#FF9983" d="M3.502,0c0-1.841-1.568-3.333-3.501-3.333S-3.501-1.841-3.501,0c0,1.841,1.568,3.333,3.501,3.333
		S3.502,1.841,3.502,0z"/>
</symbol>
<symbol  id="__21" viewBox="-3.501 -3.333 7.003 6.667">
	<path fill="#F29583" d="M3.502,0C3.502-1.84,1.934-3.333,0-3.333S-3.501-1.84-3.501,0S-1.934,3.333,0,3.333S3.502,1.841,3.502,0z"
		/>
</symbol>
<symbol  id="New_Symbol_23" viewBox="-1.631 -2.36 3.264 4.72">
	<g>
		<g>
			<g>
				<path fill="#67413A" d="M0-2.36L0-2.36c-0.897,0-1.632,0.734-1.632,1.632v1.456C-1.631,1.626-0.897,2.36,0,2.36l0,0
					c0.898,0,1.632-0.734,1.632-1.632v-1.456C1.633-1.625,0.898-2.36,0-2.36z"/>
			</g>
		</g>
	</g>
</symbol>
<symbol  id="New_Symbol_247" viewBox="-20.839 -29.917 41.679 59.834">
	<g id="XMLID_3609_">
		<path fill="#A56052" d="M8.627-12.937l-16.859-0.278c-4.123-0.068-7.899,2.945-8.388,6.901l-2.401,19.427
			c-0.68,5.5,3.101,10.226,8.4,10.139l21.553-0.355c5.047-0.083,8.591-4.761,7.957-10.06L16.64-5.976
			C16.179-9.826,12.596-12.871,8.627-12.937z"/>
		<g>
			<path fill="#F6B297" d="M14.885,11.606v-22.521c0-0.348-0.027-1.037-0.096-1.865c-0.165-2.125-0.538-5.202-1.103-5.899
				l-8.517-9.171c-1.047-1.306-2.632-2.068-4.314-2.068h-1.55c-1.654,0-3.225,0.733-4.272,2.002l-8.8,9.222
				c-0.682,0.827-1.103,4.934-1.22,6.951c-0.021,0.37-0.028,0.675-0.028,0.871v22.347c0,2.264,1.406,4.295,3.535,5.108l8.917,3.417
				c0.455,0.174,0.93,0.29,1.413,0.341c0.772,0.08,1.564,0,2.315-0.254l9.944-3.287C13.369,16.054,14.885,13.965,14.885,11.606z"/>
		</g>
		<g>
			
				<use xlink:href="#__21"  width="7.003" height="6.667" x="-3.501" y="-3.333" transform="matrix(0.6891 0 0 0.6891 -10.2893 -7.1016)" overflow="visible"/>
			
				<use xlink:href="#__21"  width="7.003" height="6.667" x="-3.501" y="-3.333" transform="matrix(0.6891 0 0 0.6891 10.1541 -7.1016)" overflow="visible"/>
		</g>
		<path fill="#A56052" d="M20.792,26.539c-0.079,1.107-0.21,2.238-0.361,3.378l-29.693-2.57c-1.42-0.205-2.756-0.625-3.981-1.223
			c-1.965-0.958-3.022-3.184-2.656-5.362c2.057-1.116,4.456-0.93,6.756-1.048c0.028-0.001,0.056-0.004,0.084-0.005
			c-0.174,0.009,2.017-2.556,2.244-2.739C3.007,9.081,21.923,10.729,20.792,26.539z"/>
		<g>
			<path fill="#F6B297" d="M-14.641-10.27h-1.957c-2.343,0-4.241,2.221-4.241,4.96v1.526c0,2.318,1.607,4.197,3.589,4.197h2.61
				C-14.641,0.414-14.641-11.033-14.641-10.27z"/>
			<path fill="#F6B297" d="M14.504-10.27h1.958c2.342,0,4.241,2.221,4.241,4.96v1.526c0,2.318-1.607,4.197-3.589,4.197h-2.61
				C14.504,0.414,14.504-11.033,14.504-10.27z"/>
		</g>
		<path fill="#C3958C" d="M15.226,1.251v-13.12c0-0.331-0.028-0.985-0.104-1.772c-0.579-6.518-6.034-10.136-10.481-14.312
			c-1.089-1.178-2.701-1.881-4.438-1.964c0,0-0.537,0-0.537,0.014c-1.737,0.069-3.349,0.771-4.438,1.95
			c-4.749,4.456-9.879,7.525-10.481,14.313c-0.007,0.041-0.007,0.083-0.014,0.124c-0.069,0.73-0.097,1.337-0.097,1.647v13.12
			c0,0.296,0.434,0.324,0.476,0.028l1.302-9.985l0.393-3.011c0.062-0.489,0.6-0.772,1.041-0.544l3.08,1.599
			c1.42,0.737,3.073,0.896,4.603,0.44l2.66-1.46c1.137-0.338,2.35-0.338,3.487,0l2.66,1.46c1.53,0.456,3.184,0.296,4.604-0.44
			l3.08-1.599c0.441-0.228,0.979,0.055,1.041,0.544l0.276,2.102l1.42,10.895C14.799,1.575,15.226,1.547,15.226,1.251z"/>
	</g>
	<g>
		<g>
			<path fill="#75463E" d="M-6.322-3.116L-6.322-3.116c-0.751,0-1.366,0.615-1.366,1.367v1.279c0,0.751,0.615,1.367,1.366,1.367l0,0
				c0.752,0,1.367-0.615,1.367-1.367v-1.279C-4.955-2.5-5.57-3.116-6.322-3.116z"/>
		</g>
		<g>
			<path fill="#75463E" d="M-9.496,6.088l0.518-1.813c0,0,2.85,1.813,4.405,0.518l0.259,2.591C-4.313,7.383-8.2,8.42-9.496,6.088z"
				/>
		</g>
		<g id="XMLID_3608_">
			<g>
				<path fill="#75463E" d="M6.186-3.116L6.186-3.116c0.751,0,1.367,0.615,1.367,1.367v1.278c0,0.752-0.615,1.367-1.367,1.367l0,0
					c-0.752,0-1.367-0.615-1.367-1.367v-1.278C4.819-2.501,5.434-3.116,6.186-3.116z"/>
			</g>
			<g>
				<path fill="#75463E" d="M9.36,6.088L8.842,4.274c0,0-2.851,1.813-4.405,0.518L4.177,7.383C4.177,7.383,8.064,8.42,9.36,6.088z"
					/>
			</g>
		</g>
	</g>
</symbol>
<symbol  id="New_Symbol_32" viewBox="-1.893 -0.728 3.787 1.455">
	<g>
		<g>
			<g>
				<path fill="#B0593C" d="M-1.643-0.469l-0.25,1.021c1.284,0.314,2.594,0.205,3.787-0.315l-0.42-0.964
					C0.493-0.299-0.585-0.21-1.643-0.469z"/>
			</g>
		</g>
	</g>
</symbol>
<symbol  id="ÕÓ_x201A__x2DA_È_ÒËÏ_x201A_ÓÎ_10" viewBox="-29.393 -30.29 58.788 60.582">
	<g>
		<path fill="#A56052" d="M5.156,30.291h-10.31c-4.646,0-8.426-3.78-8.426-8.425V16.39c0-0.23,0.187-0.417,0.417-0.417h3.13
			c0.23,0,0.417,0.187,0.417,0.417v5.476c0,2.46,2.002,4.462,4.462,4.462h10.31c2.46,0,4.462-2.002,4.462-4.462V16.39
			c0-0.23,0.187-0.417,0.417-0.417h3.13c0.23,0,0.417,0.187,0.417,0.417v5.476C13.581,26.512,9.802,30.291,5.156,30.291z"/>
	</g>
	<path fill="#A56052" d="M24.689-30.291h-48.941c-1.639,0-2.979,1.341-2.979,2.98V8.511c0,4.005,3.277,7.282,7.283,7.282h41.458
		c4.005,0,7.283-3.277,7.283-7.282v-34.699C28.792-28.444,26.946-30.291,24.689-30.291z"/>
	<path fill="#A56052" d="M26.523-29.989L26.523-29.989c-1.579,0-2.871,1.292-2.871,2.871v40.422c0,1.579,1.292,2.871,2.871,2.871
		l0,0c1.579,0,2.871-1.292,2.871-2.871v-40.422C29.394-28.697,28.102-29.989,26.523-29.989z"/>
	<polygon opacity="0.61" fill="#75372E" points="27.921,-8.526 27.921,-14.429 -26.828,-14.429 -26.828,-8.526 	"/>
	<path fill="#A56052" d="M29.08,14.89c0,1.442-1.235,2.61-2.76,2.61h-1.062H24.41h-47.859c-3.283,0-5.944-2.518-5.944-5.622V-6.194
		c0-2.883,2.471-5.22,5.519-5.22h42.881c3.048,0,5.519,2.337,5.519,5.22V8.866c0,2.904-1.832,5.336,1.012,6.024H29.08L29.08,14.89z"
		/>
	<path fill="#75372E" d="M26.523-29.989L26.523-29.989c-1.579,0-2.871,1.292-2.871,2.871v40.422c0,1.579,1.292,2.871,2.871,2.871
		l0,0c1.579,0,2.871-1.292,2.871-2.871v-40.422C29.394-28.697,28.102-29.989,26.523-29.989z"/>
	<g>
		<path fill="#714247" d="M-0.396-18.243h-7.22c-1.41,0-2.564,1.154-2.564,2.565v2.1c0,1.411,1.154,2.564,2.564,2.564h7.22
			c1.411,0,2.564-1.154,2.564-2.564v-2.1C2.169-17.088,1.015-18.243-0.396-18.243z"/>
		<path fill="#EAD25E" d="M-0.65-16.736h-6.711c-1.551,0-2.819,1.269-2.819,2.819v3.097c0,1.55,1.269,2.818,2.819,2.818h6.711
			c1.551,0,2.819-1.268,2.819-2.818v-3.097C2.169-15.468,0.9-16.736-0.65-16.736z"/>
	</g>
</symbol>
<g id="Layer_22">
	<g id="ÕÓ_x201A__x2DA_È_x5F_ÒËÏ_x201A_ÓÎ_x5F_7">
	</g>
	<g id="New_Symbol_10">
	</g>
	<g id="New_Symbol_10_1_">
	</g>
	<g id="New_Symbol_100">
		<g id="New_Symbol_122_2_">
		</g>
		<g id="New_Symbol_122_1_">
		</g>
		<g id="New_Symbol_177">
			<g id="New_Symbol_138_1_">
			</g>
			<g id="New_Symbol_138">
				<g id="New_Symbol_125">
				</g>
			</g>
		</g>
	</g>
	<g id="New_Symbol_109_5_">
	</g>
	<g id="New_Symbol_112_5_">
	</g>
	<g id="New_Symbol_109_4_">
	</g>
	<g id="New_Symbol_112_4_">
	</g>
	<g id="New_Symbol_109_3_">
	</g>
	<g id="New_Symbol_112_3_">
	</g>
	<g id="New_Symbol_109_2_">
	</g>
	<g id="New_Symbol_112_2_">
	</g>
	<g id="New_Symbol_109_1_">
	</g>
	<g id="New_Symbol_112_1_">
	</g>
	<g id="New_Symbol_109">
	</g>
	<g id="New_Symbol_112">
	</g>
	<g id="New_Symbol_126">
	</g>
	<g id="New_Symbol_126_1_">
	</g>
	<g id="New_Symbol_1">
	</g>
	<g id="ÕÓ_x201A__x2DA_È_x5F_ÒËÏ_x201A_ÓÎ_x5F_26_x5F_2_x5F_">
	</g>
	<g id="ÕÓ_x201A__x2DA_È_x5F_ÒËÏ_x201A_ÓÎ_x5F_48">
		<g id="ÕÓ_x201A__x2DA_È_x5F_ÒËÏ_x201A_ÓÎ_x5F_47">
		</g>
		<g id="ÕÓ_x201A__x2DA_È_x5F_ÒËÏ_x201A_ÓÎ_x5F_26_x5F_1_x5F_">
		</g>
		<g id="ÕÓ_x201A__x2DA_È_x5F_ÒËÏ_x201A_ÓÎ_x5F_26">
		</g>
		<g id="ÕÓ_x201A__x2DA_È_x5F_ÒËÏ_x201A_ÓÎ_x5F_27_x5F_1_x5F_">
		</g>
	</g>
	<g id="ÕÓ_x201A__x2DA_È_x5F_ÒËÏ_x201A_ÓÎ_x5F_26_x5F_3_x5F_">
	</g>
	<g id="ÕÓ_x201A__x2DA_È_x5F_ÒËÏ_x201A_ÓÎ_x5F_48_x5F_2_x5F_">
		<g id="ÕÓ_x201A__x2DA_È_x5F_ÒËÏ_x201A_ÓÎ_x5F_47_x5F_2_x5F_">
		</g>
	</g>
	<g id="ÕÓ_x201A__x2DA_È_x5F_ÒËÏ_x201A_ÓÎ_x5F_27">
	</g>
	<g id="ÕÓ_x201A__x2DA_È_x5F_ÒËÏ_x201A_ÓÎ_x5F_48_x5F_1_x5F_">
		<g id="ÕÓ_x201A__x2DA_È_x5F_ÒËÏ_x201A_ÓÎ_x5F_47_x5F_1_x5F_">
		</g>
	</g>
	<g id="ÕÓ_x201A__x2DA_È_x5F_ÒËÏ_x201A_ÓÎ">
	</g>
	<g id="New_Symbol_5">
	</g>
	<g id="ÕÓ_x201A__x2DA_È_x5F_ÒËÏ_x201A_ÓÎ_x5F_46">
	</g>
	<g id="New_Symbol_4_1_">
	</g>
	<g id="New_Symbol_4">
	</g>
	<g id="New_Symbol_96">
	</g>
	<g id="New_Symbol_99">
	</g>
	<g id="New_Symbol_141">
	</g>
	<g id="New_Symbol_4_2_">
	</g>
	<g id="New_Symbol_112_7_">
	</g>
	<g id="New_Symbol_112_6_">
	</g>
	<g>
		<g>
			<g>
				<g>
					<g>
						<g>
							<g>
								<g>
									<g>
										<g>
											<rect x="428.223" y="551.714" fill="#484689" width="0.693" height="19.483"/>
										</g>
									</g>
								</g>
							</g>
						</g>
					</g>
				</g>
			</g>
		</g>
	</g>
	<g>
		<g>
			<g>
				<g>
					<g>
						<g>
							<g>
								<g>
									<g>
										<path fill="#DFECFE" d="M152.115,512.229L134.763,646.42l-79.325-0.271L37.383,512.242
											c-0.121-0.675,0.204-1.351,0.798-1.702l26.568-15.446l2.365-1.378c1.229-0.717,2.458-1.379,3.701-2
											c0.406-0.189,0.797-0.379,1.204-0.568c7.242-3.354,14.794-4.997,22.338-4.971c0.027,0,0.055-0.002,0.081-0.002h0.622
											c0.432,0,0.865,0.014,1.283,0.027c0.337,0,0.663,0.013,0.986,0.04c7.108,0.433,14.164,2.379,20.934,5.812
											c0.149,0.08,0.296,0.148,0.446,0.229c0.514,0.258,1.014,0.527,1.514,0.812c0.135,0.067,0.257,0.135,0.378,0.202
											l5.393,3.027l25.296,14.244C151.872,510.905,152.21,511.553,152.115,512.229z"/>
									</g>
								</g>
							</g>
						</g>
					</g>
				</g>
			</g>
		</g>
	</g>
	<g>
		<g>
			<g>
				<g>
					<g>
						<g>
							<g>
								<g>
									<g>
										<polygon fill="#319499" points="95.738,591.772 112.11,585.951 98.077,523.115 105.094,512.98 101.586,498.792 
											94.744,499.92 87.903,498.792 84.396,512.98 91.411,523.115 77.379,585.951 93.75,591.772 93.75,592.479 94.744,592.125 
											95.738,592.479 										"/>
									</g>
								</g>
							</g>
						</g>
					</g>
				</g>
			</g>
		</g>
	</g>
	<g>
		<g>
			<g>
				<g>
					<g>
						<g>
							<g>
								<g>
									<g>
										<path fill="#D0DCEF" d="M118.263,492.053l-8.987,26.892l-14.527-13.892l-14.527,13.892l-9.094-27.229
											c0.405-0.189,0.797-0.379,1.202-0.568c3.582-1.662,7.243-2.893,10.933-3.716c3.703-0.838,7.433-1.243,11.175-1.257h0.622
											c0.432,0,0.865,0.014,1.283,0.027c0.337,0,0.663,0.013,0.986,0.04C104.438,486.674,111.493,488.621,118.263,492.053z"/>
									</g>
								</g>
							</g>
						</g>
					</g>
				</g>
			</g>
		</g>
	</g>
	<g id="XMLID_4624_">
		<g>
			<g>
				<g>
					<g>
						<g>
							<g>
								<g>
									<g>
										<path fill="#F6B297" d="M112.263,494.618l-1.905,1.915c-4.232,4.242-10.064,6.492-16.05,6.187l-2.662-0.135
											c-5.592-0.297-10.84-2.787-14.595-6.943c-0.89-0.986-1.35-2.24-1.35-3.523c0-0.613,0.105-1.235,0.326-1.839
											c0.536-1.475,1.168-4.692,1.733-8.964c0.747-5.726,1.37-13.367,1.465-21.249c0.039-2.969,2.452-5.372,5.421-5.401
											l5.984-0.057l13.792-0.145c3.131-0.038,5.64,2.548,5.534,5.68c-0.257,7.239-0.066,19.813,3.458,28.805
											C114.179,490.901,113.749,493.124,112.263,494.618z"/>
									</g>
								</g>
							</g>
						</g>
					</g>
				</g>
			</g>
		</g>
		<g>
			<g>
				<g>
					<g>
						<g>
							<g>
								<g>
									<g>
										<path fill="#F29583" d="M102.755,476.173l-25.54,14.039l0.545-8.897c0.747-5.726,1.37-13.367,1.465-21.249
											c0.039-2.969,2.452-5.372,5.421-5.401l5.984-0.057L102.755,476.173z"/>
									</g>
								</g>
							</g>
						</g>
					</g>
				</g>
			</g>
		</g>
	</g>
	<g>
		<g id="XMLID_4623_">
			<g>
				<g>
					<g>
						<g>
							<g>
								<g>
									<g>
										<g>
											<path fill="#57729F" d="M86.903,867.501H71.995l-16.485,7.831l-13.397,5.727l-1.52,0.406
												c-0.272,0.116,1.103,1.918,1.407,1.899l46.599-3.887L86.903,867.501z"/>
										</g>
									</g>
								</g>
							</g>
						</g>
					</g>
				</g>
			</g>
			<g>
				<g>
					<g>
						<g>
							<g>
								<g>
									<g>
										<g>
											<path fill="#312B6B" d="M89.424,645.946l-4.419-4.375c-5.629-5.572-14.799-5.422-20.236,0.332l-3.373,3.483l-0.037,0.053
												c-2.187,2.885-3.189,6.488-2.8,10.077l2.164,20.754l4.394,85.289c-0.101,0.143-0.189,0.286-0.268,0.43l0.546,8.214
												l0.702,10.289l0.413,6.104l5.575,81.697l0.034,0.452h15.207v-0.452l0.881-81.697l0.067-6.48l0.123-11.205l0.033-2.518
												v-0.011v-0.01c0.173-0.663,0.283-1.352,0.306-2.063l2.737-88.887l0.697-22.602
												C92.254,650.254,91.259,647.763,89.424,645.946z"/>
										</g>
									</g>
								</g>
							</g>
						</g>
					</g>
				</g>
			</g>
			<g>
				<g>
					<g>
						<g>
							<g>
								<g>
									<g>
										<g>
											<polygon fill="#312B6B" points="87.412,786.596 86.354,868.293 73.462,868.293 66.768,786.596 											"/>
										</g>
									</g>
								</g>
							</g>
						</g>
					</g>
				</g>
			</g>
		</g>
		<g id="XMLID_4622_">
			<g>
				<g>
					<g>
						<g>
							<g>
								<g>
									<g>
										<g>
											<path fill="#57729F" d="M102.586,867.501h14.907l16.486,7.831l13.396,5.726l1.521,0.406
												c0.274,0.117-1.101,1.919-1.407,1.899l-46.598-3.886L102.586,867.501z"/>
										</g>
									</g>
								</g>
							</g>
						</g>
					</g>
				</g>
			</g>
			<g>
				<g>
					<g>
						<g>
							<g>
								<g>
									<g>
										<g>
											<path fill="#312B6B" d="M100.064,645.946l4.421-4.376c5.628-5.572,14.798-5.421,20.236,0.333l3.372,3.482l0.038,0.054
												c2.188,2.885,3.19,6.488,2.8,10.077l-2.165,20.754l-4.392,85.288c0.099,0.144,0.189,0.287,0.267,0.43l-0.546,8.214
												l-0.703,10.289l-0.412,6.105l-5.576,81.697l-0.034,0.451h-15.208v-0.451l-0.881-81.697l-0.066-6.48l-0.123-11.205
												l-0.033-2.518v-0.011v-0.011c-0.174-0.662-0.282-1.352-0.305-2.063l-2.738-88.887l-0.696-22.601
												C97.235,650.254,98.229,647.763,100.064,645.946z"/>
										</g>
									</g>
								</g>
							</g>
						</g>
					</g>
				</g>
			</g>
			<g>
				<g>
					<g>
						<g>
							<g>
								<g>
									<g>
										<g>
											<polygon fill="#312B6B" points="102.077,786.596 103.135,868.293 116.026,868.293 122.719,786.596 											"/>
										</g>
									</g>
								</g>
							</g>
						</g>
					</g>
				</g>
			</g>
		</g>
	</g>
	<g>
		<g>
			<g>
				<g>
					<g>
						<g>
							<g>
								<g>
									<g>
										<path fill="#FAC1B1" d="M206.897,592.569c1.912,0.365,3.24,2.235,3.196,4.538l-0.034,1.927
											c-0.048,2.693-1.936,5.059-4.253,5.311l-8.699,0.929l0.947-14.367L206.897,592.569z"/>
									</g>
								</g>
							</g>
						</g>
					</g>
				</g>
			</g>
		</g>
		<g>
			<g>
				<g>
					<g>
						<g>
							<g>
								<g>
									<g>
										<path fill="#312B6B" d="M197.945,588.358l-1.792,17.166l-14.956,1.604l-31.139,3.343
											c-10.999,1.31-19.541-8.977-18.092-21.803c0.082-0.72,0.222-1.416,0.41-2.088c1.546-5.545,6.453-9.354,11.367-8.452
											l40.557,7.657L197.945,588.358z"/>
									</g>
								</g>
							</g>
						</g>
					</g>
				</g>
			</g>
		</g>
		<g>
			<g>
				<g>
					<g>
						<g>
							<g>
								<g>
									<g>
										<polygon fill="#DFECFE" points="203.015,604.787 202.875,606.302 181.073,607.981 181.196,607.128 184.3,585.786 
											197.945,588.358 196.152,605.524 										"/>
									</g>
								</g>
							</g>
						</g>
					</g>
				</g>
			</g>
		</g>
	</g>
	<g id="ÕÓ_x201A__x2DA_È_x5F_ÒËÏ_x201A_ÓÎ_x5F_36_x5F_106_x5F_">
		<g>
			<g>
				<g>
					<g>
						<g>
							<g>
								<g>
									<g>
										<path fill="#312B6B" d="M123.979,529.125l5.59,36.705l0.097,0.645l4.858,31.869c1.132,7.425,7.791,12.711,15.28,12.128
											l1.182-0.095c10.427-0.816,18.118-10.08,17.004-20.479l-2.947-27.455l-0.018-0.159l-4.213-39.301
											c-0.577-5.418-3.529-10.042-7.722-12.901c-3.102-2.125-6.882-3.29-10.902-3.117
											C130.738,507.479,122.248,517.803,123.979,529.125z"/>
									</g>
								</g>
							</g>
						</g>
					</g>
				</g>
			</g>
		</g>
	</g>
	<g id="ÕÓ_x201A__x2DA_È_x5F_ÒËÏ_x201A_ÓÎ_x5F_37_x5F_99_x5F_">
		<g>
			<g>
				<g>
					<g>
						<g>
							<g>
								<g>
									<g>
										<g>
											<polygon fill="#F6B297" points="34.166,664.709 13.327,601.924 30.464,653.547 											"/>
										</g>
									</g>
								</g>
							</g>
						</g>
					</g>
				</g>
			</g>
			<g>
				<g>
					<g>
						<g>
							<g>
								<g>
									<g>
										<g>
											<path fill="#F6B297" d="M49.031,671.926c0.162,2.324-1.284,4.459-3.512,5.148l-1.866,0.581
												c-2.608,0.812-5.392-0.608-6.257-3.203l-3.229-9.743l14.095-3.527L49.031,671.926z"/>
										</g>
									</g>
								</g>
							</g>
						</g>
					</g>
				</g>
			</g>
			<g>
				<g>
					<g>
						<g>
							<g>
								<g>
									<g>
										<g>
											<path fill="#312B6B" d="M29.476,574.033c0.716-0.136,1.419-0.203,2.123-0.203c5.757,0,10.743,4.446,11.189,10.405
												l4.688,65.866l-17.012,3.446l-17.137-51.623C9.112,589.655,16.733,576.479,29.476,574.033z"/>
										</g>
									</g>
								</g>
							</g>
						</g>
					</g>
				</g>
			</g>
			<g>
				<g>
					<g>
						<g>
							<g>
								<g>
									<g>
										<g>
											<polygon fill="#DFECFE" points="47.476,650.101 48.261,661.182 34.166,664.709 30.464,653.547 											"/>
										</g>
									</g>
								</g>
							</g>
						</g>
					</g>
				</g>
			</g>
		</g>
	</g>
	<g id="ÕÓ_x201A__x2DA_È_x5F_ÒËÏ_x201A_ÓÎ_x5F_36_x5F_105_x5F_">
		<g>
			<g>
				<g>
					<g>
						<g>
							<g>
								<g>
									<g>
										<path fill="#312B6B" d="M67.201,532.575l-12.68,34.896l-0.22,0.613l-11.013,30.3c-2.567,7.057-10.132,10.936-17.362,8.896
											l-1.14-0.325c-10.064-2.845-15.791-13.436-12.659-23.414l8.273-26.345l0.048-0.153l11.836-37.711
											c1.628-5.2,5.431-9.155,10.104-11.138c3.457-1.475,7.392-1.877,11.299-0.919
											C64.816,510.022,71.118,521.811,67.201,532.575z"/>
									</g>
								</g>
							</g>
						</g>
					</g>
				</g>
			</g>
		</g>
	</g>
	<g id="XMLID_4621_">
		<g>
			<g>
				<g>
					<g>
						<g>
							<g>
								<g>
									<g>
										<path fill="#312B6B" d="M55.641,622.523v20.908c0,7.493,6.074,13.565,13.567,13.565h51.393
											c7.492,0,13.566-6.072,13.566-13.565v-22.505H55.322C55.322,620.926,56.12,622.043,55.641,622.523z"/>
									</g>
								</g>
							</g>
						</g>
					</g>
				</g>
			</g>
		</g>
	</g>
	<g>
		<g>
			<g>
				<g>
					<g>
						<g>
							<g>
								<g>
									<g>
										<path fill="#383772" d="M152.777,512.323l-17.419,134.772h-0.594l-79.92-0.27l-0.081-0.581L36.708,512.336
											c-0.163-0.918,0.283-1.878,1.122-2.378l15.04-8.743l2.528-1.473l9.689-5.623l0.283,0.717l30.542,75.258l0.474,1.176
											l0.918-2.379v-0.013l28.339-73.528l8.311,4.676l2.649,1.5l15.013,8.445C152.466,510.458,152.912,511.377,152.777,512.323z
											"/>
									</g>
								</g>
							</g>
						</g>
					</g>
				</g>
			</g>
		</g>
	</g>
	<g>
		<g>
			<g>
				<g>
					<g>
						<g>
							<g>
								<g>
									<g>
										<g>
											<g>
												<g>
													<polygon fill="#484689" points="95.898,572.081 94.749,573.418 94.127,574.135 60.734,545.297 65.992,527.756 
														53.763,524.256 52.87,501.215 55.397,499.743 55.519,499.743 56.384,522.188 69.37,525.905 63.829,544.391 
														94.749,571.094 													"/>
												</g>
											</g>
										</g>
									</g>
								</g>
							</g>
						</g>
					</g>
				</g>
			</g>
		</g>
		<g>
			<g>
				<g>
					<g>
						<g>
							<g>
								<g>
									<g>
										<g>
											<g>
												<g>
													<polygon fill="#484689" points="135.735,524.256 123.493,527.756 128.749,545.297 95.357,574.135 94.749,573.418 
														93.601,572.081 94.749,571.094 95.911,570.094 97.303,568.891 97.303,568.878 125.669,544.391 120.114,525.905 
														133.102,522.188 133.952,500.026 136.602,501.526 													"/>
												</g>
											</g>
										</g>
									</g>
								</g>
							</g>
						</g>
					</g>
				</g>
			</g>
		</g>
	</g>
	<g>
		<g>
			<g>
				<g>
					<g>
						<g>
							<g>
								<g>
									<g>
										<g>
											<rect x="93.398" y="570.973" fill="#484689" width="2.703" height="75.986"/>
										</g>
									</g>
								</g>
							</g>
						</g>
					</g>
				</g>
			</g>
		</g>
	</g>
	<g>
		<g>
			<g>
				
					<use xlink:href="#New_Symbol_247"  width="41.679" height="59.834" id="XMLID_4620_" x="-20.839" y="-29.917" transform="matrix(1.6905 0 0 -1.6905 94.3105 437.9995)" overflow="visible"/>
			</g>
			<g>
				<g>
					<g>
						<path fill="#67413A" d="M83.774,450.27h-7.691c-4.724,0-8.566-3.843-8.566-8.565v-7.683c0-0.02,0.017-2.107,0.138-2.747
							l2.978,0.555c-0.045,0.291-0.086,1.684-0.086,2.192v7.683c0,3.053,2.482,5.536,5.537,5.536h7.691
							c3.053,0,5.538-2.483,5.538-5.536v-7.683c0-0.583-0.093-1.164-0.277-1.73c-0.061-0.18-0.137-0.362-0.211-0.543l2.799-1.156
							c0.103,0.245,0.201,0.488,0.288,0.749c0.287,0.882,0.431,1.78,0.431,2.681v7.683C92.342,446.427,88.499,450.27,83.774,450.27z
							"/>
					</g>
					<g>
						<polygon fill="#67413A" points="64.308,439.278 62.029,437.284 68.335,430.075 91.766,429.615 92.328,434.981 89.316,435.295 
							89.044,432.699 69.734,433.078 						"/>
					</g>
				</g>
				<g id="XMLID_4619_">
					<g>
						<path fill="#67413A" d="M111.7,450.135h-7.694c-4.723,0-8.566-3.844-8.566-8.566v-7.681c0-0.907,0.146-1.806,0.428-2.671
							c0.091-0.27,0.189-0.516,0.291-0.761l2.8,1.156c-0.075,0.182-0.15,0.366-0.217,0.559c-0.18,0.549-0.272,1.131-0.272,1.717
							v7.681c0,3.053,2.484,5.537,5.537,5.537h7.694c3.053,0,5.537-2.484,5.537-5.537v-7.681c0-0.509-0.042-1.899-0.089-2.188
							l2.976-0.564c0.127,0.647,0.142,2.733,0.142,2.753v7.681C120.266,446.292,116.424,450.135,111.7,450.135z"/>
					</g>
					<g>
						<polygon fill="#67413A" points="123.475,439.143 118.048,432.942 98.738,432.565 98.464,435.162 95.452,434.844 
							96.017,429.481 119.448,429.94 125.754,437.148 						"/>
					</g>
				</g>
			</g>
			<g>
				<rect x="91.273" y="429.582" fill="#67413A" width="8.656" height="3.028"/>
			</g>
		</g>
		<path fill="#FFFFFF" d="M87.405,463.399c-0.407,0-0.67,0.611-0.472,1.105c1.366,3.397,4.22,5.735,7.521,5.735
			c3.302,0,6.158-2.338,7.522-5.735c0.199-0.494-0.065-1.105-0.473-1.105H87.405z"/>
	</g>
	<g>
		<g>
			<path fill="#383772" d="M249.759,553.725l-3.323-2.717l-0.202,0.096c-0.155-0.043-0.314-0.072-0.485-0.072h-58.106
				c-0.818,0-1.534,0.553-1.742,1.345l-9.234,35.259c-0.206,0.792-0.922,1.345-1.74,1.345h-30.23c-0.995,0-1.8,0.806-1.8,1.8v0.846
				c0,0.995,0.805,1.801,1.8,1.801h89.288c0.792,0,1.493-0.52,1.723-1.277l11.413-37.632L249.759,553.725z"/>
			<g>
				<path fill="#97DFFF" d="M142.896,592.732v0.847c0,0.994,0.806,1.8,1.8,1.8h91.893c0.792,0,1.492-0.519,1.723-1.277
					l11.765-38.794c0.351-1.156-0.515-2.322-1.723-2.322h-58.106c-0.819,0-1.533,0.553-1.741,1.344l-9.234,35.26
					c-0.207,0.791-0.923,1.344-1.742,1.344h-32.833C143.701,590.932,142.896,591.738,142.896,592.732z"/>
				<circle fill="#F3FDFF" cx="214.619" cy="574.325" r="4.037"/>
			</g>
		</g>
		<g id="XMLID_4618_">
			<path fill="#F6B297" d="M215.867,588.004l-5.389-0.42l-1.506-0.105l-5.299-0.418l-1.474-0.115l5.47,0.182
				c-0.895-0.062-9.198-3.207-9.319-2.323l-2.399,18.072c-0.275,2.08,1.589,3.808,3.642,3.373l23.826-5.045l-0.777-12.681
				l-5.301-0.405L215.867,588.004z"/>
			<g>
				<g>
					<g>
						<polygon fill="#FC8883" points="202.2,586.946 203.674,587.061 204.218,598.292 202.736,598.312 						"/>
					</g>
				</g>
				<g>
					<g>
						<polygon fill="#FC8883" points="208.973,587.479 210.479,587.584 211.015,599.042 209.515,599.073 						"/>
					</g>
				</g>
				<g>
					<g>
						<polygon fill="#FC8883" points="215.867,588.004 217.342,588.119 217.886,599.26 216.404,599.28 						"/>
					</g>
				</g>
			</g>
		</g>
	</g>
	<g>
		
			<use xlink:href="#ÕÓ_x201A__x2DA_È_ÒËÏ_x201A_ÓÎ_10"  width="58.788" height="60.582" id="XMLID_4617_" x="-29.393" y="-30.29" transform="matrix(1.4581 0 0 -1.4581 42.8584 728.9263)" overflow="visible"/>
		<path fill="#F6B297" d="M50.4,693.313l-0.418-8.774l6.663,0.581c0.81-0.74,0.958-1.955,0.346-2.864l-6.815-10.232
			c-0.968-1.452-2.559-2.371-4.295-2.479l-5.769-0.118c-0.128-0.02-0.247-0.03-0.376-0.03c-0.898,0-1.738,0.523-2.123,1.363
			l-7.793,17.186l5.293,11.765l2.609,0.247l1.333,0.118l3.299,0.307l1.541,0.148h0.009l3.853,0.355l2.647-2.351l0.382-5.281
			L50.4,693.313z"/>
		<g>
			
				<rect x="40.347" y="695.001" transform="matrix(0.3676 0.93 -0.93 0.3676 675.7878 397.2921)" fill="#FC8883" width="10.837" height="1.101"/>
		</g>
		<g>
			<polygon fill="#FC8883" points="43.895,700.529 42.354,700.38 38.501,691.441 39.519,690.997 			"/>
		</g>
		<g>
			<polygon fill="#FC8883" points="39.055,700.074 37.722,699.956 33.869,691.006 34.886,690.572 			"/>
		</g>
		<polygon fill="#F29583" points="49.982,699.581 55.833,692.478 52.071,689.552 49.565,689.552 		"/>
	</g>
</g>
<g id="Layer_50">
	<path fill="#DDA38A" d="M443.931,822.463c35.984-19.913,57.97-36.078,57.97-36.078l15.112-46.637
		c-24.45,16.643-71.179,47.123-121.592,73.022C413.65,816.113,430.312,819.523,443.931,822.463z"/>
	<g>
		<path fill="#33536D" d="M859.911,978.879l-596.358-79.525c-11.304-1.508-19.245-11.893-17.739-23.195L356.431,46.643
			c1.509-11.304,11.894-19.245,23.198-17.738l596.359,79.526c11.303,1.508,19.243,11.893,17.737,23.197L883.107,961.142
			C881.599,972.448,871.216,980.388,859.911,978.879z"/>
		<path fill="#DDDDDD" d="M839.824,926.096l-534.783-71.314c-6.729-0.897-11.456-7.079-10.56-13.81l98.595-739.349
			c0.897-6.729,7.079-11.457,13.809-10.56l534.78,71.314c6.73,0.897,11.459,7.08,10.563,13.809l-98.596,739.351
			C852.734,922.267,846.553,926.995,839.824,926.096z"/>
		<path fill="#FFFFFF" d="M836.239,921.409l-534.784-71.313c-6.728-0.897-11.455-7.082-10.56-13.809l98.596-739.351
			c0.897-6.729,7.079-11.457,13.81-10.56l534.782,71.314c6.728,0.897,11.457,7.08,10.558,13.809L850.048,910.85
			C849.15,917.58,842.968,922.307,836.239,921.409z"/>
		
			<linearGradient id="SVGID_1_" gradientUnits="userSpaceOnUse" x1="628.9961" y1="110.5342" x2="628.9961" y2="-31.2246" gradientTransform="matrix(0.9912 0.1322 -0.1322 0.9912 59.2988 -51.6104)">
			<stop  offset="0" style="stop-color:#E8922A"/>
			<stop  offset="0.0374" style="stop-color:#EC9A2A"/>
			<stop  offset="0.1463" style="stop-color:#F3AB2B"/>
			<stop  offset="0.2819" style="stop-color:#F9B62C"/>
			<stop  offset="0.472" style="stop-color:#FCBD2C"/>
			<stop  offset="1" style="stop-color:#FDBF2C"/>
		</linearGradient>
		<path fill="url(#SVGID_1_)" d="M776.022,55.489l-39.252-5.234c0.382-24.094-20.941-45.801-49.884-49.661
			c-28.944-3.859-55.209,11.502-61.153,34.854l-39.255-5.234c-50.614-6.75-97.118,28.81-103.868,79.426l-0.879,6.603l372.835,49.718
			l0.88-6.604C862.196,108.743,826.636,62.24,776.022,55.489z M683.305,27.448c9.474,1.263,16.517,8.894,17.442,18.003
			c0.157,1.546,0.158,3.128-0.055,4.734c-1.479,11.08-11.658,18.864-22.738,17.387s-18.864-11.658-17.388-22.737
			c0.216-1.606,0.63-3.133,1.188-4.583C665.036,31.702,673.831,26.184,683.305,27.448z"/>
	</g>
	
		<rect x="393.377" y="233.618" transform="matrix(0.9912 0.1323 -0.1323 0.9912 37.7518 -52.9526)" fill="#E3E4E5" width="48.074" height="48.075"/>
	
		<rect x="467.859" y="269.586" transform="matrix(0.9912 0.1323 -0.1323 0.9912 44.8815 -88.291)" fill="#E3E4E5" width="438.084" height="48.075"/>
	
		<rect x="384.601" y="299.381" transform="matrix(0.9912 0.1323 -0.1323 0.9912 46.375 -51.2147)" fill="#E3E4E5" width="48.073" height="48.074"/>
	
		<rect x="457.134" y="335.219" transform="matrix(0.9912 0.1323 -0.1323 0.9912 55.4189 -86.1659)" fill="#E3E4E5" width="438.083" height="77.537"/>
	
		<rect x="454.307" y="378.226" transform="matrix(0.9912 0.1323 -0.1323 0.9912 59.1358 -85.5446)" fill="#E3E4E5" width="438.083" height="48.075"/>
	
		<rect x="371.046" y="400.904" transform="matrix(0.9912 0.1323 -0.1323 0.9912 59.674 -48.5209)" fill="#E3E4E5" width="48.075" height="48.076"/>
	
		<rect x="443.197" y="440.776" transform="matrix(0.9912 0.1323 -0.1323 0.9912 68.9805 -83.4143)" fill="#E3E4E5" width="438.083" height="73.283"/>
	
		<rect x="358.269" y="496.668" transform="matrix(0.9912 0.1323 -0.1323 0.9912 72.229 -45.9905)" fill="#E3E4E5" width="48.074" height="48.075"/>
	
		<rect x="432.752" y="532.635" transform="matrix(0.9912 0.1323 -0.1323 0.9912 79.3723 -81.3347)" fill="#E3E4E5" width="438.083" height="48.074"/>
	
		<rect x="349.492" y="562.428" transform="matrix(0.9912 0.1323 -0.1323 0.9912 80.8488 -44.2516)" fill="#E3E4E5" width="48.074" height="48.075"/>
	
		<rect x="422.026" y="598.266" transform="matrix(0.9912 0.1323 -0.1323 0.9912 89.9091 -79.2092)" fill="#E3E4E5" width="438.085" height="77.539"/>
	
		<rect x="414.46" y="664.112" transform="matrix(0.9912 0.1323 -0.1323 0.9912 97.3417 -77.7101)" fill="#E3E4E5" width="438.084" height="59.214"/>
	
		<rect x="331.938" y="707.954" transform="matrix(0.9912 0.1323 -0.1323 0.9912 99.9763 -40.6626)" fill="#E3E4E5" width="48.073" height="48.075"/>
	
		<rect x="403.981" y="744.41" transform="matrix(0.9912 0.1323 -0.1323 0.9912 107.6288 -75.6293)" fill="#E3E4E5" width="438.082" height="55.642"/>
	
		<rect x="323.16" y="777.716" transform="matrix(0.9912 0.1323 -0.1323 0.9912 109.1268 -38.8874)" fill="#E3E4E5" width="48.074" height="48.075"/>
	
		<rect x="393.98" y="810.186" transform="matrix(0.9912 0.1323 -0.1323 0.9912 117.4621 -73.6522)" fill="#E3E4E5" width="438.082" height="73.961"/>
	<g>
		<path fill="#60BF79" d="M400.113,346.363L400.113,346.363c3.392-18.364-14.296-42.325-14.474-42.564l6.269-4.681
			c0.588,0.787,10.687,14.479,14.765,30.191c6.495-14.16,17.703-32.527,32.789-34.74l1.133,7.742
			c-13.594,1.993-24.939,24.476-30.406,38.748C408.634,345.113,404.33,347.391,400.113,346.363z"/>
	</g>
	<g>
		<path fill="#60BF79" d="M386.543,448.003L386.543,448.003c3.392-18.363-14.296-42.324-14.475-42.564l6.27-4.68
			c0.588,0.787,10.687,14.479,14.765,30.19c6.496-14.159,17.702-32.527,32.788-34.74l1.135,7.743
			c-13.596,1.994-24.94,24.477-30.409,38.748C395.066,446.755,390.759,449.034,386.543,448.003z"/>
	</g>
	<g>
		<path fill="#60BF79" d="M373.768,543.765L373.768,543.765c3.389-18.363-14.298-42.324-14.473-42.564l6.267-4.68
			c0.588,0.788,10.686,14.48,14.764,30.19c6.496-14.159,17.705-32.528,32.789-34.738l1.136,7.741
			c-13.596,1.993-24.941,24.476-30.408,38.748C382.288,542.517,377.982,544.795,373.768,543.765z"/>
	</g>
	<g>
		<path fill="#60BF79" d="M408.874,280.716L408.874,280.716c3.393-18.363-14.295-42.324-14.474-42.563l6.27-4.681
			c0.585,0.788,10.686,14.479,14.764,30.189c6.496-14.158,17.702-32.525,32.787-34.738l1.136,7.741
			c-13.595,1.994-24.94,24.477-30.407,38.749C417.397,279.467,413.092,281.746,408.874,280.716z"/>
	</g>
	<g>
		<path fill="#60BF79" d="M361.199,613.777L361.199,613.777c3.389-18.363-14.298-42.324-14.474-42.564l6.268-4.68
			c0.588,0.788,10.686,14.48,14.763,30.19c6.497-14.159,17.706-32.528,32.79-34.738l1.135,7.741
			c-13.595,1.993-24.941,24.476-30.408,38.748C369.719,612.529,365.414,614.807,361.199,613.777z"/>
	</g>
	<g>
		<path fill="#60BF79" d="M346.289,755.452L346.289,755.452c3.39-18.363-14.298-42.324-14.474-42.564l6.268-4.68
			c0.588,0.788,10.687,14.48,14.764,30.19c6.496-14.159,17.705-32.528,32.789-34.738l1.136,7.741
			c-13.596,1.993-24.942,24.476-30.408,38.748C354.81,754.204,350.504,756.482,346.289,755.452z"/>
	</g>
	<g>
		<path fill="#60BF79" d="M333.518,833.326L333.518,833.326c3.389-18.363-14.298-42.324-14.473-42.564l6.267-4.68
			c0.588,0.788,10.686,14.48,14.764,30.19c6.496-14.159,17.705-32.528,32.789-34.738l1.136,7.741
			c-13.596,1.993-24.941,24.476-30.408,38.748C342.038,832.078,337.732,834.356,333.518,833.326z"/>
	</g>
</g>
<g id="Layer_51">
	<text transform="matrix(0.99 0.1413 -0.1413 0.99 444.5479 171.7427)" font-family="'ArialRoundedMTBold'" font-size="60">succesfactoren</text>
	<text transform="matrix(0.99 0.1413 -0.1413 0.99 478.5957 259.7134)"><tspan x="0" y="0" font-family="'ArialRoundedMTBold'" font-size="20">Vroegtijdig samenwerken met overheden en  </tspan><tspan x="0" y="24.001" font-family="'ArialRoundedMTBold'" font-size="20">bedrijfsleven is essentieel.</tspan><tspan x="0" y="48" font-family="'ArialRoundedMTBold'" font-size="20" letter-spacing="31">	</tspan><tspan x="0" y="72.001" font-family="'ArialRoundedMTBold'" font-size="20">Belangrijkste fietsroutes en fietsinfra  </tspan><tspan x="-0.001" y="96" font-family="'ArialRoundedMTBold'" font-size="20">rondom bedrijventerreinen moeten op orde  </tspan><tspan x="0" y="120" font-family="'ArialRoundedMTBold'" font-size="20">zijn of op orde worden gebracht.</tspan><tspan x="0" y="168" font-family="'ArialRoundedMTBold'" font-size="20">In de IJmond is een betrouwbare en snelle  </tspan><tspan x="0" y="192" font-family="'ArialRoundedMTBold'" font-size="20">oversteek over het Noordzeekanaal voor  </tspan><tspan x="0" y="216" font-family="'ArialRoundedMTBold'" font-size="20">fietsers noodzakelijk. </tspan><tspan x="0" y="264.001" font-family="'ArialRoundedMTBold'" font-size="20">De inzet van een 2e spitspont heeft voor  </tspan><tspan x="0" y="288" font-family="'ArialRoundedMTBold'" font-size="20">veel meer fietsende werknemers gezorgd.</tspan><tspan x="0" y="336" font-family="'ArialRoundedMTBold'" font-size="20">Laagdrempelige toegang tot een stimulerings- </tspan><tspan x="0" y="360" font-family="'ArialRoundedMTBold'" font-size="20">programma is voor zowel werkgevers  als hun </tspan><tspan x="-0.001" y="384" font-family="'ArialRoundedMTBold'" font-size="20">medewerkers een must.  </tspan><tspan x="0" y="408.001" font-family="'ArialRoundedMTBold'" font-size="20">Werkgevers laten graag goed werkgeverschap  </tspan><tspan x="0" y="432" font-family="'ArialRoundedMTBold'" font-size="20">zien en zijn gevoelig voor besparingen.</tspan><tspan x="0" y="456" font-family="'ArialRoundedMTBold'" font-size="20"> </tspan><tspan x="0" y="480" font-family="'ArialRoundedMTBold'" font-size="20">Kies voor diverse vormen van belonen: van  </tspan><tspan x="-0.001" y="504.001" font-family="'ArialRoundedMTBold'" font-size="20">fietskilometervergoeding tot challenges. </tspan><tspan x="0" y="552" font-family="'ArialRoundedMTBold'" font-size="20">Communicatie met directe lijnen naar de </tspan><tspan x="0" y="576" font-family="'ArialRoundedMTBold'" font-size="20">werkgevers en hun medewerkers zorgt  </tspan><tspan x="0" y="600" font-family="'ArialRoundedMTBold'" font-size="20">voor een breed draagvlak.</tspan></text>
</g>
</svg>
