<?xml version="1.0" encoding="utf-8"?>
<!-- Generator: Adobe Illustrator 16.0.0, SVG Export Plug-In . SVG Version: 6.00 Build 0)  -->
<!DOCTYPE svg PUBLIC "-//W3C//DTD SVG 1.1//EN" "http://www.w3.org/Graphics/SVG/1.1/DTD/svg11.dtd">
<svg version="1.1" id="Layer_1" xmlns="http://www.w3.org/2000/svg" xmlns:xlink="http://www.w3.org/1999/xlink" x="0px" y="0px"
	 width="419.28px" height="513.377px" viewBox="0 0 419.28 513.377" enable-background="new 0 0 419.28 513.377"
	 xml:space="preserve">
<g>
	<g>
		<path fill="#F99F00" d="M40.234,175.548c-17.542,0.076-32.596-7.101-38.907-17.35l38.832-0.165l1.938,9.764L40.234,175.548z"/>
		<path fill="#EF9900" d="M40.234,175.548c17.542-0.074,32.535-7.377,38.756-17.68l-38.831,0.166L40.234,175.548z"/>
		<path fill="#F99F00" d="M7.502,147.937l-2.772,0.012c-0.806,0.004-1.456,0.66-1.453,1.466l0.027,6.589l5.689-0.024l-0.026-6.59
			C8.963,148.583,8.308,147.934,7.502,147.937z M6.137,152.691c-1.024,0.004-1.858-0.823-1.862-1.847
			c-0.005-1.024,0.823-1.857,1.845-1.862c1.024-0.004,1.857,0.823,1.862,1.847C7.986,151.853,7.161,152.686,6.137,152.691z"/>
		<path fill="#FFAC27" d="M1.972,154.172c-1.094,0.005-1.978,0.896-1.972,1.99l0.003,1.241c0.005,1.093,0.896,1.978,1.99,1.973
			l38.171-0.164l1.885-2.609l-1.907-2.595L1.972,154.172z"/>
		<path fill="#EF9900" d="M71.277,149.125l0.028,6.59l5.689-0.025l-0.027-6.591c-0.004-0.806-0.661-1.456-1.467-1.453l-2.77,0.011
			C71.924,147.663,71.273,148.319,71.277,149.125z M72.272,150.554c-0.003-1.023,0.824-1.857,1.848-1.862
			c1.023-0.005,1.858,0.823,1.862,1.847c0.004,1.024-0.824,1.857-1.847,1.862C73.113,152.406,72.278,151.579,72.272,150.554z"/>
		<path fill="#F99F00" d="M78.312,153.846c1.094-0.004,1.985,0.879,1.99,1.974l0.006,1.242c0.004,1.093-0.88,1.985-1.974,1.989
			l-38.17,0.162l-0.021-5.204L78.312,153.846z"/>
		<path fill="#FFAC27" d="M6.132,151.867c-0.135,0.001-0.271-0.03-0.401-0.093c-0.446-0.219-0.632-0.76-0.411-1.207l33.708-68.685
			c0.218-0.447,0.759-0.631,1.206-0.413c0.447,0.221,0.632,0.76,0.413,1.208L6.938,151.363
			C6.784,151.68,6.464,151.865,6.132,151.867z"/>
		<path fill="#F99F00" d="M74.133,151.577c-0.332,0.001-0.652-0.181-0.813-0.497L39.03,82.684c-0.223-0.446-0.043-0.986,0.403-1.21
			c0.443-0.223,0.987-0.044,1.211,0.402l34.291,68.396c0.223,0.443,0.044,0.987-0.402,1.209
			C74.404,151.545,74.267,151.577,74.133,151.577z"/>
	</g>
	<g>
		<path fill="#F99F00" d="M379.206,331.699c-17.542,0.074-32.596-7.101-38.906-17.351l38.832-0.164l1.938,9.764L379.206,331.699z"/>
		<path fill="#EF9900" d="M379.206,331.699c17.541-0.074,32.534-7.378,38.757-17.68l-38.832,0.166L379.206,331.699z"/>
		<path fill="#F99F00" d="M346.474,304.086l-2.771,0.012c-0.808,0.002-1.458,0.659-1.454,1.466l0.028,6.591l5.69-0.024l-0.028-6.591
			C347.935,304.734,347.279,304.084,346.474,304.086z M345.108,308.839c-1.024,0.005-1.858-0.821-1.862-1.845
			c-0.005-1.024,0.822-1.856,1.846-1.862c1.024-0.004,1.857,0.823,1.862,1.845C346.96,308.001,346.133,308.836,345.108,308.839z"/>
		<path fill="#FFAC27" d="M340.944,310.321c-1.095,0.005-1.977,0.896-1.972,1.99l0.005,1.24c0.005,1.096,0.895,1.978,1.99,1.973
			l38.17-0.161l1.885-2.611l-1.908-2.592L340.944,310.321z"/>
		<path fill="#EF9900" d="M410.25,305.274l0.026,6.591l5.689-0.024l-0.027-6.59c-0.005-0.807-0.66-1.456-1.467-1.454l-2.77,0.012
			C410.896,303.813,410.247,304.468,410.25,305.274z M411.246,306.705c-0.004-1.025,0.823-1.857,1.847-1.861
			c1.024-0.005,1.858,0.823,1.861,1.844c0.005,1.025-0.821,1.86-1.846,1.865C412.083,308.554,411.25,307.729,411.246,306.705z"/>
		<path fill="#F99F00" d="M417.284,309.996c1.095-0.004,1.985,0.88,1.99,1.974l0.006,1.24c0.004,1.096-0.879,1.985-1.974,1.99
			l-38.169,0.164l-0.022-5.203L417.284,309.996z"/>
		<path fill="#FFAC27" d="M345.104,308.016c-0.134,0-0.271-0.028-0.401-0.092c-0.447-0.218-0.631-0.759-0.412-1.208L378,238.032
			c0.219-0.448,0.76-0.632,1.207-0.413c0.447,0.22,0.632,0.76,0.412,1.207l-33.708,68.685
			C345.754,307.829,345.436,308.016,345.104,308.016z"/>
		<path fill="#F99F00" d="M413.105,307.727c-0.331,0.003-0.651-0.18-0.81-0.498l-34.293-68.395
			c-0.222-0.446-0.043-0.988,0.401-1.211c0.446-0.224,0.988-0.043,1.212,0.402l34.289,68.395c0.227,0.446,0.046,0.989-0.4,1.212
			C413.376,307.696,413.241,307.727,413.105,307.727z"/>
	</g>
	<path fill="#FFC08D" d="M384.183,240.492c-0.691,1.463-1.116,2.485-2.478,2.298c-2.019-0.275-2.169-1.741-2.311-2.881l0.875-6.418
		l-1.757-2.654c-1.924-1.045-2.629-1.475-5.226-1.473c-1.175,0.001-2.104,0.256-2.83,0.662c-0.828,1.151-1.252,2.613-1.022,3.94
		c0.166,0.956,1.332,2.596,2.484,4.028l3.337,3.188c0.832,0.793,0.863,2.11,0.068,2.943c-0.792,0.83-2.11,0.861-2.943,0.066
		l-2.652-2.532l-5.119-3.738c-2.728-0.997-8.561-1.622-11.362-2.204c-2.78-0.579-18.701-15.167-18.701-15.167l8.484-9.173
		c0,0,10.839,11.019,14.733,10.731c3.791-0.279,15.145-2.585,18.701-0.904c0.003,0.001,0.007,0.003,0.011,0.006
		c0.093,0.045,0.186,0.09,0.266,0.14c0.286,0.174,0.61,0.386,0.96,0.628c6.108,3.995,7.937,8.415,8.042,9.363
		c0.001,0.01,0.001,0.022,0.003,0.031c0.076,0.176,0.134,0.359,0.159,0.552L384.183,240.492z"/>
	<path fill="#FFCB99" d="M33.248,85.212c0.705,1.458,1.138,2.476,2.498,2.277c2.016-0.292,2.155-1.759,2.286-2.901l-0.928-6.409
		l1.732-2.669c1.916-1.063,2.618-1.498,5.215-1.518c1.175-0.007,2.104,0.239,2.835,0.638c0.837,1.146,1.273,2.603,1.055,3.933
		c-0.157,0.957-1.31,2.606-2.45,4.049l-3.311,3.215c-0.824,0.8-0.844,2.117-0.044,2.943c0.802,0.823,2.119,0.844,2.944,0.043
		l2.631-2.555l5.087-3.781c2.718-1.021,6.304,0.058,9.1-0.547c2.775-0.602,12.496,6.411,12.496,6.411l4.03-11.177
		c0,0-15.019-10.303-18.916-10.556c-3.793-0.247-15.166-2.458-18.707-0.748c-0.003,0.002-0.008,0.005-0.011,0.007
		c-0.093,0.045-0.185,0.091-0.265,0.141c-0.285,0.177-0.607,0.393-0.957,0.637c-6.073,4.047-7.864,8.481-7.959,9.432
		c-0.002,0.01-0.002,0.021-0.005,0.031c-0.072,0.176-0.13,0.36-0.152,0.552L33.248,85.212z"/>
	<path fill="#0A7070" d="M171.256,128.028c-3.391,0.74-5.668,3.938-5.246,7.383c0.925,7.561,4.987,19.032,10.901,24.705
		c8.498,8.142,22.401,0,22.401,0l1.214-49.606C200.526,110.51,184.905,125.054,171.256,128.028z"/>
	<g>
		<g>
			<g>
				<path fill="#0A7070" d="M182.954,182.632c10.544,0.481,19.526-8.555,20.063-20.184c0.397-8.754-4.105-16.472-10.86-19.964
					l-53.887-33.026c-4.902-3.019-11.318-1.488-14.333,3.409c-3.1,5.035-1.527,11.628,3.507,14.735l33.279,21.868
					c2.769,1.899,9.837,11.168,9.676,19.703C170.237,177.732,174.685,182.252,182.954,182.632z"/>
				<path fill="#0A7070" d="M183.664,167.018c-3.002-0.133-5.323-2.684-5.188-5.685c0.139-3.007,2.683-5.333,5.688-5.194
					c3,0.138,5.326,2.682,5.188,5.685C189.216,164.833,186.667,167.153,183.664,167.018z"/>
			</g>
		</g>
		<g>
			<path fill="#EFEFEF" d="M82.994,79.491l-6.9,10.937l-5.774-3.562c-0.607-0.383-0.788-1.188-0.403-1.793l5.514-8.742
				c0.183-0.288,0.475-0.492,0.81-0.574c0.338-0.074,0.689-0.012,0.982,0.169L82.994,79.491z"/>
			<g>
				<g>
					<g>
						<path fill="#0A7070" d="M137.762,109.18c2.344,1.399,4.037,3.676,4.698,6.33c0.667,2.646,0.249,5.45-1.157,7.798l-0.064,0.095
							c-1.449,2.412-3.812,4.134-6.546,4.774c-2.739,0.644-5.888,0.233-8.258-1.278L75.058,91.511
							c-0.568-0.392-0.73-1.159-0.369-1.75l6.922-11.298c0.366-0.601,1.144-0.801,1.754-0.451L137.762,109.18z"/>
					</g>
					<g>
						<path fill="#0A7070" d="M130.009,122.427c-2.277-1.371-3.016-4.328-1.646-6.604c1.369-2.278,4.323-3.016,6.602-1.647
							c2.273,1.371,3.017,4.322,1.644,6.605C135.243,123.056,132.285,123.793,130.009,122.427z"/>
					</g>
				</g>
			</g>
		</g>
	</g>
	<path fill="#0C6666" d="M245.016,128.028c-13.653-2.975-29.271-17.519-29.271-17.519l1.213,49.606c0,0,13.902,8.144,22.398,0
		c5.916-5.67,9.979-17.142,10.907-24.705C250.685,131.968,248.406,128.769,245.016,128.028z"/>
	<g>
		<g>
			<path fill="#0C6666" d="M299.937,172.04l-48.91-40.03c-5.522-5.227-14.292-6.941-22.428-3.685
				c-10.805,4.326-16.386,15.78-12.463,25.58c3.078,7.687,8.813,10.397,16.84,7.433c8.008-2.955,19.079,0.669,21.787,2.66
				l31.599,24.236c4.588,3.732,11.33,3.05,15.068-1.534C305.063,182.241,304.397,175.679,299.937,172.04z"/>
			<path fill="#0C6666" d="M230.65,148.1c1.114,2.792,4.287,4.145,7.074,3.032c2.795-1.118,4.155-4.287,3.032-7.078
				c-1.116-2.791-4.285-4.15-7.073-3.031C230.888,142.138,229.536,145.307,230.65,148.1z"/>
		</g>
		<g>
			<path fill="#EFEFEF" d="M346.415,214.385l-8.063,10.117l5.269,4.281c0.56,0.446,1.378,0.351,1.825-0.208l6.44-8.083
				c0.213-0.267,0.311-0.612,0.273-0.954c-0.036-0.346-0.211-0.657-0.482-0.87L346.415,214.385z"/>
			<g>
				<path fill="#0C6666" d="M300.368,172.427c-2.095-1.755-4.802-2.601-7.522-2.355c-2.723,0.242-5.232,1.561-6.988,3.659
					l-0.068,0.095c-1.798,2.156-2.649,4.952-2.356,7.748c0.295,2.798,1.715,5.64,3.923,7.382l50.311,36.877
					c0.56,0.41,1.341,0.308,1.78-0.225l8.392-10.252c0.45-0.544,0.377-1.342-0.151-1.805L300.368,172.427z"/>
				<path fill="#0C6666" d="M290.406,184.105c2.043,1.703,5.078,1.428,6.773-0.617c1.708-2.041,1.431-5.075-0.612-6.778
					c-2.045-1.692-5.073-1.424-6.777,0.622C288.089,179.374,288.366,182.409,290.406,184.105z"/>
			</g>
		</g>
	</g>
	<g>
		<path fill="#FFC08D" d="M195.783,104.987v13.58c0,1.309-0.925,2.434-2.208,2.689c-2.911,0.581-13.056,4.264-14.113,7.037
			c-1.055,2.775-0.608,4.252,1.181,6.619c4.66,6.168,19.684,9.792,27.413,9.792l5.935-20.756H214l-5.935-18.96H195.783z"/>
		<path fill="#FFB680" d="M235.48,134.911c1.789-2.367,2.232-3.896,1.181-6.67c-1.054-2.771-11.203-6.405-14.113-6.986
			c-1.276-0.252-2.196-1.375-2.196-2.675v-13.593h-12.288v39.716C215.796,144.703,230.822,141.08,235.48,134.911z"/>
	</g>
	<g>
		<path fill="#F9F9F9" d="M208.083,131.419l-7.211-3.511l-5.281-8.407l-17.094,6.126v153.925l24.342,4.354
			c0.18,0.031,0.362-0.009,0.511-0.116c0.146-0.107,0.243-0.268,0.269-0.446l4.513-29.497l5.157-0.621l2.456-96.1L208.083,131.419z"
			/>
		<path fill="#EFEFEF" d="M220.606,119.501l-5.405,8.81l-7.087,3.108v122.42l4.463,29.515c0.024,0.178,0.123,0.339,0.269,0.441
			c0.144,0.106,0.325,0.149,0.501,0.118l26.011-4.359V126.061L220.606,119.501z"/>
		<g>
			<path fill="#E2E2E2" d="M226.579,178.341c0,0-6.334,2.717-11.221,3.444c-4.883,0.729-2.033,4.755,8.631,7.277
				C234.654,191.585,226.579,178.341,226.579,178.341z"/>
			<path fill="#E2E2E2" d="M227.347,166.985c0,0,0.158-1.632-2.778-3.938c-2.928-2.31,2.515-3.126,5.909-2.175
				C233.868,161.821,227.347,166.985,227.347,166.985z"/>
		</g>
		<path fill="#E2E2E2" d="M225.902,121.214c0.062-0.069,0.093-0.165,0.078-0.257c-0.017-0.094-0.069-0.178-0.149-0.226
			c-0.633-0.376-2.005-1.173-2.601-1.387c-1.759-0.641-2.832-3.173-2.832-3.173v0.005c-2.228,6.354-6.584,11.739-12.333,15.243
			l7.117,10.116c0.054,0.079,0.144,0.131,0.238,0.137c0.093,0.003,0.186-0.034,0.249-0.103L225.902,121.214z"/>
		<path fill="#EFEFEF" d="M190.278,121.214c-0.06-0.069-0.087-0.165-0.078-0.257c0.017-0.094,0.069-0.178,0.153-0.226
			c0.632-0.376,2.003-1.173,2.6-1.387c1.758-0.641,2.831-3.173,2.831-3.173v0.005c2.227,6.354,6.581,11.739,12.331,15.243
			l-7.113,10.116c-0.057,0.079-0.146,0.131-0.24,0.137c-0.093,0.003-0.188-0.034-0.251-0.103L190.278,121.214z"/>
		<g>
			<path fill="#EFEFEF" d="M189.692,178.341c0,0,6.332,2.717,11.22,3.444c4.883,0.729,2.031,4.755-8.633,7.277
				C181.615,191.585,189.692,178.341,189.692,178.341z"/>
			<path fill="#EFEFEF" d="M188.924,166.985c0,0-0.155-1.632,2.774-3.938c2.932-2.31-2.513-3.126-5.904-2.175
				C182.402,161.821,188.924,166.985,188.924,166.985z"/>
		</g>
	</g>
	<g>
		<polygon fill="#FFC08D" points="186.932,475.808 199.905,475.808 199.698,495.214 186.932,495.214 		"/>
		<polygon fill="#FFC08D" points="229.267,475.808 216.298,475.808 216.502,495.214 229.267,495.214 		"/>
		<path fill="#FC4129" d="M248.421,256.21c-0.137-0.8-0.354-1.615-0.601-2.428c-0.085-0.624-0.18-1.262-0.259-1.878l-4.161-25.365
			h-0.7h-0.94H208.06l-4.554,11.707l-0.042,45.654l0.004,0.002l4.539,7.38c3.01,0,3.871,2.277,4.063,5.332
			c-0.085,9.82-0.233,30.33-0.135,45.824c0.045,7.254,0.55,14.433,1.06,20.395c0.147,1.713,0.228,3.486,0.231,5.204
			c0.004,2.195,0.156,4.395,0.473,6.573c0.038,0.252,0.069,0.503,0.1,0.752c0.178,1.529,0.218,3.083,0.126,4.62l-0.595,9.812
			c-0.28,4.567-0.361,9.149-0.267,13.724c-0.154,6.43,0.057,12.864,0.636,19.27l0.09,2.468l0.448,48.872
			c0.002,0.417,0.344,0.752,0.759,0.752c0.338,0,0.619,0.271,0.63,0.609l0.238,6.529c0.005,0.14,0.117,0.246,0.256,0.246h13.255
			c0.133,0,0.244-0.1,0.256-0.234l0.548-6.199c0.049-0.539,0.498-0.951,1.04-0.951c0.375,0,0.686-0.287,0.716-0.66l8-101.679
			c-0.124-5.488,0.368-10.969,1.465-16.326c0,0,5.424-33.524,7.02-45.396C251.377,288.766,251.243,273.002,248.421,256.21z"/>
		<rect x="208.039" y="217.3" fill="#D31E00" width="35.244" height="11.421"/>
		<path fill="#FF573B" d="M208.089,283.899l-0.056-57.361h-33.697h-0.944h-0.7l-4.157,25.365c-0.08,0.617-0.178,1.254-0.261,1.878
			c-0.247,0.813-0.465,1.628-0.6,2.428c-2.824,16.792-2.955,32.556,0,54.606c1.594,11.872,7.018,45.396,7.018,45.396
			c1.101,5.357,1.593,10.838,1.467,16.326l8,101.679c0.029,0.373,0.34,0.66,0.717,0.66c0.539,0,0.99,0.412,1.037,0.951l0.549,6.199
			c0.013,0.135,0.125,0.234,0.257,0.234h13.254c0.139,0,0.251-0.106,0.255-0.246l0.239-6.529c0.013-0.339,0.292-0.609,0.632-0.609
			c0.417,0,0.755-0.335,0.758-0.752l0.448-48.872l0.088-2.468c0.581-6.405,0.792-12.84,0.641-19.27
			c0.09-4.574,0.014-9.156-0.266-13.724l-0.596-9.812c-0.094-1.524-0.051-3.104,0.124-4.62c0.032-0.249,0.064-0.5,0.097-0.752
			c0.32-2.179,0.473-4.378,0.477-6.573c0.001-1.718,0.08-3.491,0.228-5.204c0.512-5.962,1.02-13.141,1.062-20.395
			c0.097-15.494-0.051-36.003-0.135-45.824c0.196-3.055,1.054-5.332,4.065-5.332l-0.009-7.38
			C208.08,283.902,208.085,283.899,208.089,283.899z"/>
		<rect x="172.79" y="217.3" fill="#EF2200" width="35.242" height="11.421"/>
		<g>
			<path fill="#EF2200" d="M189.78,475.808h-1.105c-0.217,0-0.394,0.147-0.394,0.332v4.923c0,0.184,0.177,0.333,0.394,0.333h1.105
				c0.218,0,0.396-0.149,0.396-0.333v-4.923C190.176,475.956,189.999,475.808,189.78,475.808z"/>
			<path fill="#EF2200" d="M193.97,475.808h-1.106c-0.216,0-0.394,0.147-0.394,0.332v4.923c0,0.184,0.178,0.333,0.394,0.333h1.106
				c0.218,0,0.395-0.149,0.395-0.333v-4.923C194.364,475.956,194.188,475.808,193.97,475.808z"/>
			<path fill="#EF2200" d="M198.555,476.14c0-0.185-0.178-0.332-0.396-0.332h-1.104c-0.218,0-0.396,0.147-0.396,0.332v4.923
				c0,0.184,0.178,0.333,0.396,0.333h1.104c0.218,0,0.396-0.149,0.396-0.333V476.14z"/>
		</g>
		<g>
			<g>
				<g>
					<path fill="#D31E00" d="M219.147,475.808h-1.105c-0.218,0-0.396,0.147-0.396,0.332v4.923c0,0.184,0.178,0.333,0.396,0.333
						h1.105c0.217,0,0.395-0.149,0.395-0.333v-4.923C219.542,475.956,219.364,475.808,219.147,475.808z"/>
				</g>
				<g>
					<path fill="#D31E00" d="M223.337,475.808h-1.104c-0.218,0-0.396,0.147-0.396,0.332v4.923c0,0.184,0.178,0.333,0.396,0.333
						h1.104c0.217,0,0.395-0.149,0.395-0.333v-4.923C223.731,475.956,223.554,475.808,223.337,475.808z"/>
				</g>
				<g>
					<path fill="#D31E00" d="M227.922,476.14c0-0.185-0.178-0.332-0.396-0.332h-1.106c-0.217,0-0.395,0.147-0.395,0.332v4.923
						c0,0.184,0.178,0.333,0.395,0.333h1.106c0.218,0,0.396-0.149,0.396-0.333V476.14z"/>
				</g>
			</g>
		</g>
	</g>
	<g>
		<path fill="#D44700" d="M177.563,84.366c1.956-2.078,1.287-4.752,0.246-7.023c-1.602-3.503-0.372-6.616,2.31-8.824
			c0.223-0.154,1.932-1.38,2.424-3.56c0.527-2.332-1.207-5-1.403-8.188c-0.199-3.186-0.838,4.749-0.838,4.749
			s1.815,4.136-0.92,6.273c0,0.004,0,0.009-0.005,0.013c-2.816,2.313-4.242,5.757-2.727,9.347c0.918,2.17,2.115,4.535,0.506,6.659
			c-1.625,2.147-1.443,4.199,0.43,6.371c0.223,0.26,0.495,0.535,0.794,0.673C176.813,89.142,175.85,86.177,177.563,84.366z"/>
		<path fill="#C43C00" d="M238.037,58.411c0,0-3.976,1.006-2.937,5.86c1.04,4.855,5.065,5.977,3.396,9.778
			c1.429-2.222,1.035-3.259-1.681-7.626c-2.712-4.364,2.148-7.638,2.148-7.638L238.037,58.411z"/>
		<path fill="#C43C00" d="M230.457,88.566c0,0-1.092,2.667,0.124,6.901c1.222,4.236,4.85,4.979,3.603,8.448
			c0.892-2.503,0.366-3.462-1.593-6.149c-2.688-3.686,0.145-9.199,0.145-9.199H230.457z"/>
		<path fill="#D44700" d="M190.406,95.613c0,0-1.098,2.668,0.121,6.9c1.217,4.236,4.849,4.981,3.607,8.449
			c0.888-2.505,0.358-3.462-1.6-6.148c-2.684-3.687,0.146-9.201,0.146-9.201H190.406z"/>
		<path fill="#D44700" d="M188.896,90.853c0,0-1.564,2.419-1.147,6.806c0.422,4.387,3.851,5.786,1.993,8.966
			c1.334-2.298,0.995-3.334-0.44-6.339c-1.962-4.115,1.834-9.014,1.834-9.014L188.896,90.853z"/>
		<path fill="#D44700" d="M180.676,66.209c0,0-0.73,2.789-4.25,5.438c-3.52,2.65-6.869,1.061-7.96,4.581
			c0.798-2.534,1.792-2.985,4.975-3.952c4.363-1.329,5.418-7.435,5.418-7.435L180.676,66.209z"/>
		<path fill="#C43C00" d="M227.535,105.062c-1.18-4.467,1.223-8.767,0.078-13.24c-0.126-0.491-0.328-0.925-0.549-1.333
			c-0.23-0.617-0.538-1.223-0.988-1.699c-1.515-1.602-3.098-1.905-3.203-5.562c0.038-0.207,0.064-0.409,0.12-0.62
			c0.055-0.221-4.781-4.134-4.733-4.343c-0.03,0.137,0.772,0.791,1.078,1.307c0.64,1.064,1.189,2.194,1.634,3.352
			c0.394,1.027,0.918,2.265,1.434,3.141c-0.005,0-0.005,0-0.008-0.001l0.008,0.002c0.244,0.422,0.58,0.844,1.031,1.248
			c2.28,2.028,3.408,4.242,3.37,5.95c0,0.101,0.003,0.199,0,0.299c-0.002,0.066-0.004,0.135-0.004,0.191
			c-0.11,2.587-0.89,5.302-0.494,8.001c0.998,6.816,3.401,8.417,3.657,8.755C228.747,108.902,228.045,106.991,227.535,105.062z"/>
		<g>
			<path fill="#D44700" d="M174.692,45.352c-1.137,10.127,5.991,27.101,5.991,27.101s13.696,0.759,27.354,0.984v-40.71
				C195.656,33.497,175.552,37.727,174.692,45.352z"/>
			<path fill="#C43C00" d="M216.772,33.085c-1.447-0.494-4.678-0.612-8.736-0.358v40.71c12.819,0.211,25.61-0.045,26.991-1.84
				c2.853-3.709,5.626-13.397,6.055-22.955C241.511,39.084,222.619,35.083,216.772,33.085z"/>
		</g>
		<path fill="#FFB680" d="M233.413,70.713l2.723-1.856c0.477-0.324,1.066-0.415,1.611-0.255c0.551,0.158,0.998,0.557,1.222,1.078
			c1.167,2.715,1.327,5.752,0.451,8.571l-0.636,2.056c-0.312,2.734-0.62,3.847-2.065,5.126l-0.41,0.184
			c-0.574,0.261-1.246,0.166-1.734-0.237l-1.987-1.665L233.413,70.713z"/>
		<path fill="#FFC08D" d="M182.575,70.713l-2.723-1.856c-0.472-0.324-1.064-0.415-1.61-0.255c-0.551,0.158-0.996,0.557-1.224,1.078
			c-1.164,2.715-1.323,5.752-0.451,8.571l0.637,2.056c0.313,2.734,0.621,3.847,2.063,5.126l0.409,0.184
			c0.579,0.261,1.255,0.166,1.737-0.237l1.989-1.665L182.575,70.713z"/>
		<path fill="#E25314" d="M188.236,107.593c-1.468-1.796-0.769-3.927,0.204-5.708c1.501-2.747,0.686-5.343-1.361-7.288
			c-0.174-0.138-1.487-1.232-1.762-3.026c-0.289-1.922,1.264-3.983,1.61-6.558s0.408,3.899,0.408,3.899s-1.711,3.248,0.379,5.139
			c0.002,0.007,0.002,0.009,0.005,0.011c2.151,2.038,3.106,4.91,1.67,7.734c-0.865,1.71-1.974,3.555-0.792,5.372
			c1.195,1.836,0.927,3.486-0.716,5.143c-0.199,0.198-0.434,0.402-0.683,0.5C188.568,111.509,189.518,109.163,188.236,107.593z"/>
		<path fill="#D44700" d="M233.508,100.298c-1.851,0.188-2.965-1.216-3.727-2.652c-1.177-2.214-3.273-2.81-5.474-2.297
			c-0.168,0.056-1.478,0.451-2.798-0.156c-1.414-0.65-2.104-2.602-3.676-3.963c-1.57-1.365,2.785,1.445,2.785,1.445
			s1.42,2.576,3.604,2.01c0.005,0,0.006,0,0.006,0c2.313-0.542,4.626-0.98,5.88,1.223c0.759,1.332,1.481,3.628,3.22,3.639
			c1.749,0.009,2.792,1.24,3.178,3.065c0.045,0.219,0.078,0.467,0.033,0.678C236.275,101.796,235.119,100.13,233.508,100.298z"/>
		<g>
			<path fill="#FFCB99" d="M208.3,26.202l3.919,45.058l2.981,19.345l-6.901,21.438h-1.902c-3.361,0-6.581-1.49-8.958-4.147
				L186.869,96.07c-3.521-4.456-5.283-9.57-5.688-15.601c-0.69-10.186-1.843-40.331-1.843-40.331L208.3,26.202z"/>
			<path fill="#FFC08D" d="M207.93,26.202l0.176,85.841h1.903c3.18,0,6.403-1.49,8.777-4.147l10.578-11.825
				c3.777-5.325,5.922-10.886,5.922-20.409c0-8.918,1.609-35.523,1.609-35.523L207.93,26.202z"/>
			<path fill="#FFC08D" d="M202.978,88.566c-0.185,0.234-0.221,0.552-0.093,0.82c0.133,0.268,0.411,0.441,0.707,0.441h5.165V86.5
				c-0.145,0.006-0.284,0.013-0.421,0.023C205.101,86.734,203.64,87.724,202.978,88.566z"/>
		</g>
		<path fill="#C43C00" d="M235.743,32.657C231.21,27,223.25,23.072,216.395,21.255c2.429-0.712,2.899-1.667,2.783-2.468
			c2.736-1.502,5.007-3.786,5.382-7.487c0.95-9.231-14.366-10.935-16.49-11.006c-0.007,0-0.024-0.003-0.034-0.003l-4.545,3.365
			c-0.006,0-0.015-0.002-0.02-0.002l0.378,3.955l0.252,27.924l3.916,4.525c0.44,0.044,0.884,0.095,1.335,0.16
			c7.987,1.141,25.426,14.869,26.282,22.001C245.62,47.955,240.121,38.124,235.743,32.657z"/>
		<path fill="#D44700" d="M208.037,0.292c-2.233-0.089-19.354-2.443-18.859,7.884c0.235,4.929,2.738,7.822,5.293,9.515
			c-0.084,0.263-0.124,0.56-0.092,0.908c0.071,0.81,0.685,1.442,1.585,1.935c-5.907,1.18-12.475,4.449-17.563,12.979
			c-9.696,16.26,1.712,27.956,1.712,27.956s4.444-12.87,9.294-16.577c4.575-3.5,11.166-5.571,18.61-4.835V22.368
			c0.004-0.002,0.012,0,0.019-0.002V0.292z"/>
		<g>
			<path fill="#F49267" d="M199.66,96c0.319,0.494,0.652,0.982,0.994,1.463c1.61,2.274,4.474,3.736,7.552,3.754
				c3.082,0.033,5.98-1.381,7.63-3.629c0.394-0.525,0.769-1.053,1.128-1.589C211.257,97.184,205.366,97.184,199.66,96z"/>
			<path fill="#EA805C" d="M210.693,95.966c-0.697-0.148-1.425-0.036-1.869,0.5c-0.121,0.149-0.316,0.237-0.515,0.237
				c-0.203,0-0.394-0.087-0.515-0.237c-0.442-0.535-1.169-0.646-1.868-0.5c-1.505,0.417-6.262,0.08-6.262,0.011
				c0.7,0.339,1.411,0.66,2.138,0.966c4.083,1.724,8.934,1.724,13.014,0c0.727-0.306,1.438-0.626,2.139-0.966
				C216.956,96.045,212.197,96.38,210.693,95.966z"/>
		</g>
		<g>
			<g>
				<path fill="#F9F9F9" d="M185.48,68.404c0,0,2.187,9.16,14.937,3.618C200.417,72.021,195.647,64.19,185.48,68.404z"/>
				<g>
					<g>
						<path fill="#282828" d="M189.408,70.283c0.063,1.832,1.601,3.264,3.437,3.199c1.826-0.062,3.261-1.599,3.197-3.433
							c-0.063-1.828-1.604-3.267-3.434-3.203C190.779,66.911,189.344,68.452,189.408,70.283z"/>
						<path fill="#F9F9F9" d="M190.85,69.522c0.022,0.548,0.479,0.975,1.03,0.958c0.55-0.019,0.981-0.481,0.961-1.029
							c-0.018-0.55-0.478-0.982-1.027-0.96C191.263,68.507,190.832,68.969,190.85,69.522z"/>
					</g>
				</g>
				<path fill="#282828" d="M185.133,68.616c-0.008,0.009-0.014,0.025-0.008,0.038c0.008,0.016,0.026,0.023,0.04,0.013
					c1.572-0.665,8.209-2.88,15.363,3.451c0.013,0.011,0.028,0.011,0.042,0c0.009-0.007,0.011-0.024,0.004-0.035
					C199.845,70.838,194.535,62.585,185.133,68.616z"/>
			</g>
			<g>
				<path fill="#F9F9F9" d="M230.029,68.404c0,0-2.19,9.16-14.938,3.618C215.091,72.021,219.861,64.19,230.029,68.404z"/>
				<g>
					<path fill="#282828" d="M219.466,70.049c-0.064,1.833,1.37,3.369,3.203,3.433c1.83,0.065,3.368-1.367,3.432-3.201
						c0.066-1.831-1.371-3.37-3.201-3.434C221.066,66.782,219.534,68.22,219.466,70.049z"/>
					<path fill="#F9F9F9" d="M220.962,69.389c-0.021,0.548,0.409,1.009,0.956,1.029c0.553,0.017,1.013-0.41,1.036-0.959
						c0.017-0.553-0.414-1.012-0.964-1.03C221.441,68.41,220.981,68.841,220.962,69.389z"/>
				</g>
				<path fill="#282828" d="M230.369,68.614c-9.397-6.029-14.704,2.222-15.433,3.468c-0.007,0.011-0.002,0.028,0.007,0.035
					c0.012,0.011,0.027,0.01,0.038,0c7.158-6.331,13.79-4.115,15.361-3.451c0.017,0.007,0.036,0,0.037-0.013
					C230.384,68.641,230.382,68.623,230.369,68.614z"/>
			</g>
		</g>
		<g>
			<g>
				<g>
					<path fill="#D44700" d="M200.556,62.27c-0.804-1.146-3.811-2.651-6.857-3.082c-6.646-0.943-9.719,2.378-11.112,3.492
						c-0.042,0.031-0.045,0.094-0.015,0.138c0.027,0.042,0.09,0.064,0.135,0.035c6.304-4.597,13.983-1.326,17.029,0.331
						c0.259,0.143,0.577,0.087,0.772-0.134C200.701,62.834,200.725,62.504,200.556,62.27z"/>
				</g>
			</g>
			<g>
				<g>
					<path fill="#C43C00" d="M214.745,62.27c0.8-1.146,3.808-2.651,6.855-3.082c6.65-0.943,9.719,2.378,11.116,3.492
						c0.043,0.031,0.043,0.094,0.015,0.138c-0.031,0.042-0.091,0.064-0.136,0.035c-6.306-4.597-13.984-1.326-17.03,0.331
						c-0.253,0.143-0.574,0.087-0.772-0.134C214.599,62.834,214.573,62.504,214.745,62.27z"/>
				</g>
			</g>
		</g>
		<path fill="#D44700" d="M234.392,63.308c-0.454-2.817-2.983-3.919-5.414-4.479c-3.757-0.863-5.472-3.738-5.589-7.21
			c0.014-0.271,0.084-2.369-1.345-4.091c-1.526-1.838-6.501-4.297-9.151-6.083c-2.646-1.789,0.93,1.973,0.93,1.973
			s8.47,3.778,8.545,8.343c0,0.002,0.005,0.007,0.005,0.011c0.115,3.644,1.978,6.869,5.746,7.858c2.279,0.6,4.883,1.093,5.585,3.663
			c0.709,2.598,2.45,3.701,5.313,3.546c0.344-0.021,0.726-0.069,1.02-0.22C237.724,66.815,234.786,65.768,234.392,63.308z"/>
		<path fill="#E25314" d="M171.95,67.814c3.052-3.472,7.957-3.874,11.031-7.319c0.337-0.379,0.585-0.784,0.804-1.199
			c0.382-0.534,0.719-1.126,0.856-1.769c1.056-5.047,7.562-12.281,7.767-12.355c0.214-0.077-3.59,0.073-3.39,0
			c-0.131,0.046-0.227,1.079-0.482,1.624c-0.53,1.124-1.16,2.21-1.869,3.226c-0.633,0.899-1.369,2.024-1.812,2.94
			c0-0.002,0-0.005,0-0.007l-0.005,0.007c-0.208,0.436-0.375,0.951-0.457,1.554c-0.413,3.021-1.616,5.191-3.058,6.116
			c-0.084,0.052-0.161,0.111-0.249,0.166c-0.056,0.033-0.116,0.069-0.159,0.103c-2.21,1.352-4.9,2.217-6.917,4.053
			c-5.102,4.629-5.085,7.519-5.225,7.919C169.438,70.964,170.636,69.315,171.95,67.814z"/>
		<path fill="#D44700" d="M236.176,77.908c-1.183-4.471,1.22-8.765,0.075-13.241c-0.125-0.491-0.322-0.925-0.548-1.333
			c-0.229-0.617-0.538-1.221-0.991-1.699c-1.51-1.604-3.097-1.903-3.199-5.56c0.035-0.207,0.064-0.408,0.118-0.619
			c0.055-0.223-4.784-4.136-4.733-4.342c-0.033,0.134,0.771,0.79,1.081,1.304c0.636,1.067,1.185,2.194,1.634,3.353
			c0.394,1.025,0.913,2.264,1.429,3.143l-0.006-0.004l0.006,0.004c0.246,0.421,0.582,0.842,1.033,1.245
			c2.277,2.029,3.408,4.241,3.368,5.95c0,0.1,0.004,0.2,0,0.299c-0.004,0.069-0.004,0.137-0.004,0.191
			c-0.11,2.587-0.89,5.302-0.495,8.003c1,6.814,3.407,8.417,3.66,8.751C237.386,81.749,236.688,79.836,236.176,77.908z"/>
		<path fill="#E25314" d="M205.784,38.435c-2.094-1.08-8.405-2.853-13.267-0.491c-4.864,2.368-4.436,5.908-7.464,7.47
			c-3.025,1.563-3.066,7.854-3.619,9.656c1.532-1.428,0.982-7.423,3.962-9.147c2.986-1.722,3.821-4.155,4.793-5.264
			c0.97-1.111,6.705-3.959,12.619-1.806C208.727,41.004,205.784,38.435,205.784,38.435z"/>
		<path fill="#D44700" d="M208.757,38.539c0,0,3.797-2.027,8.173-0.57c4.373,1.458,2.417,4.112,7.395,5.623
			c2.708,0.823,6.354,6.899,6.216,7.031c-0.145,0.133-3.429-3.889-5.116-5.137c-1.688-1.252-4.617-0.663-6.145-4.168
			c-1.566-3.594-8.494-2.518-8.494-2.518L208.757,38.539z"/>
		<g>
			<path fill="#D44700" d="M227.792,49.525c-2.809-2.424-5.941-4.752-8.329-6.505c-2.744-2.013-4.859-3.377-10.345-5.055
				c-0.396-0.12-0.79-0.217-1.188-0.303l-0.832,1.086l-0.28,2.053l1.111,1.023c4.093,0.457,8.088,2.397,11.477,4.542
				c3.855,2.437,6.685,5.847,8.333,6.717c5.01,2.641,8.675,7.982,7.908,13.244C238.51,59.751,233.905,54.805,227.792,49.525z"/>
			<path fill="#E25314" d="M184.078,48.78c-2.001,3.265-6.257,15.57-3.59,18.66c0,0-0.206-9.383,5.498-16.088
				c3.235-3.797,6.596-5.728,11.665-7.318c2.82-0.883,6.869-2.553,10.029-2.247c0.082,0.009,0.164,0.026,0.25,0.038v-4.163
				c-3.42-0.73-6.701,1.58-10.174,2.026C191.254,40.519,185.967,45.709,184.078,48.78z"/>
		</g>
		<path fill="#E25314" d="M192.515,43.242c-0.287,0-0.532-0.061-0.804-0.081c-0.482,0.956-1.012,2.106-1.305,3.036
			c-0.002-0.005,0-0.007-0.002-0.009l0.002,0.009c-0.147,0.464-0.237,0.996-0.23,1.602c0.026,3.051-0.854,5.373-2.149,6.491
			c-0.075,0.065-0.147,0.135-0.223,0.2c-0.052,0.043-0.103,0.086-0.145,0.124c-1.991,1.658-4.527,2.898-6.264,5.006
			c-4.375,5.315-3.95,8.175-4.029,8.59c0.372-1.984,1.318-3.785,2.405-5.459c2.522-3.874,7.319-4.977,9.865-8.832
			c0.281-0.424,0.468-0.861,0.618-1.3c0.309-0.583,0.489-1.228,0.595-1.875c0.404-2.519-0.587-3.961,3.125-5.593
			c0.179-0.112-0.803-0.736-0.613-0.839c0.055-0.03,0.069-0.498,0.068-1.159C193.117,43.175,192.839,43.242,192.515,43.242z"/>
		<g>
			<path fill="#EF2200" d="M207.577,68.979c-0.639,0-1.25-0.256-1.704-0.71l-0.71-0.717c-1.424-2.04-3.763-3.258-6.247-3.258
				l-14.004,0.022c-1.197,0.002-2.348,0.496-3.179,1.34l0-0.007l-0.266,0.203c-0.358,0.276-0.802,0.423-1.255,0.418l-0.413-0.007
				c-0.133,0-0.265,0.052-0.36,0.147c-0.096,0.096-0.149,0.224-0.149,0.36v1.494c0,0.298,0.238,0.54,0.537,0.54h0.067
				c0.225,0,0.421,0.149,0.482,0.365l0.21,0.721V69.88c0.019,0.08,0.035,0.159,0.057,0.237l2.469,6.7
				c1.068,3.448,4.209,5.763,7.821,5.763h7.857c1.938,0,3.67-1.224,4.312-3.055l2.656-6.366l0.133-0.239
				c0.414-0.742,1.19-1.207,2.04-1.229c0.028,0,0.055,0.011,0.088,0.014l2.271-1.332l-2.271-1.395H207.577z M204.453,72.318
				l-2.787,7.169c-0.427,1.222-1.583,2.04-2.877,2.04h-7.857c-2.941,0-5.502-1.884-6.371-4.693l-2.466-7.168
				c-0.277-0.89-0.11-1.875,0.444-2.624c0.553-0.754,1.44-1.205,2.379-1.205l13.983-0.025c2.002,0,3.875,0.976,5.017,2.61
				C204.71,69.555,204.908,71.014,204.453,72.318z"/>
			<path fill="#D31E00" d="M236.421,66.41c-0.098-0.095-0.227-0.147-0.361-0.147l-0.412,0.007c-0.454,0.005-0.899-0.142-1.261-0.418
				l-0.266-0.206l0.005,0.007c-0.835-0.843-1.978-1.335-3.177-1.338l-14.003-0.022c-2.488,0-4.826,1.218-6.25,3.258l-0.71,0.717
				c-0.447,0.455-1.065,0.71-1.705,0.71h-0.264v2.727c0.811,0.051,1.55,0.497,1.952,1.215l0.13,0.239l2.661,6.366
				c0.64,1.831,2.372,3.055,4.309,3.055h7.859c3.607,0,6.75-2.315,7.82-5.763l2.468-6.7c0.024-0.076,0.037-0.157,0.052-0.232
				l0.005,0.007l0.206-0.721c0.061-0.218,0.261-0.368,0.486-0.368h0.062c0.304,0,0.543-0.242,0.543-0.54V66.77
				C236.572,66.634,236.514,66.506,236.421,66.41z M233.765,69.665l-2.465,7.168c-0.871,2.809-3.432,4.693-6.371,4.693h-7.859
				c-1.29,0-2.45-0.818-2.875-2.04l-2.784-7.169c-0.461-1.304-0.259-2.763,0.532-3.896c1.142-1.634,3.013-2.61,5.016-2.61
				l13.985,0.025c0.936,0,1.823,0.45,2.379,1.205C233.875,67.791,234.041,68.775,233.765,69.665z"/>
		</g>
	</g>
	<path fill="#0C6666" d="M253.986,282.413c0.822-0.507,1.239-1.478,1.042-2.421l-6.311-30.155
		c-3.373-16.118-4.746-32.59-4.086-49.044l1.916-47.881l-4.623-25.868l-15.994-6.43l4.615,44.653l-7.116,25.89
		c-0.293,1.063-0.44,2.162-0.443,3.263l-0.175,90.624c-0.003,0.636,0.249,1.243,0.697,1.691c0.451,0.451,1.057,0.702,1.688,0.702
		h8.859C240.321,287.436,248.646,285.695,253.986,282.413z"/>
	<path fill="#095959" d="M246.801,149.672c0.261-0.465,0.133-1.054-0.299-1.368l-7.993-5.813c-0.243-0.178-0.402-0.449-0.429-0.748
		c-0.03-0.3,0.071-0.596,0.275-0.819l3.775-4.086c0.188-0.207,0.29-0.48,0.278-0.759c-0.011-0.281-0.134-0.544-0.342-0.732
		l-16.139-14.732c0,0,4.123,39.273-2.938,73.252C234.639,171.343,244.581,153.605,246.801,149.672z"/>
	<path fill="#0A7070" d="M193.28,194.22c0-0.97-0.13-1.934-0.389-2.872l-7.162-26.079l4.609-44.653l-15.991,6.428l-4.627,25.87
		l1.917,47.881c0.662,16.452-0.713,32.923-4.085,49.041l-6.31,30.155c-0.198,0.944,0.219,1.914,1.043,2.421
		c5.336,3.282,13.662,5.023,19.927,5.023h8.859c0.632,0,1.239-0.251,1.688-0.702c0.448-0.448,0.697-1.055,0.697-1.691L193.28,194.22
		z"/>
	<path fill="#0C6666" d="M190.339,120.613l-16.135,14.732c-0.205,0.188-0.33,0.452-0.341,0.732c-0.01,0.279,0.089,0.553,0.278,0.759
		l3.777,4.088c0.203,0.221,0.304,0.517,0.274,0.817c-0.03,0.299-0.185,0.57-0.43,0.748l-7.993,5.813
		c-0.432,0.314-0.558,0.903-0.296,1.368c2.218,3.933,12.159,21.671,23.808,44.193C186.221,159.886,190.339,120.613,190.339,120.613z
		"/>
	<g>
		<path fill="#FFAC27" d="M194.176,127.833c0-0.343,0.172-0.66,0.46-0.848c0.288-0.184,0.649-0.211,0.959-0.071l3.301,1.492
			c1.248,0.564,2.573,0.92,3.935,1.062c0.592,0.059,1.056,0.475,1.219,1.022c0.605-0.59,1.429-0.957,2.338-0.957h1.729l2.172,2.235
			l0.666,4.721l-2.838,2.092h-1.729c-0.91,0-1.733-0.368-2.338-0.958c-0.163,0.546-0.627,0.965-1.219,1.025
			c-1.361,0.14-2.687,0.498-3.935,1.061l-3.301,1.488c-0.311,0.14-0.671,0.116-0.959-0.071c-0.288-0.185-0.46-0.502-0.46-0.844
			V127.833z"/>
		<path fill="#F99F00" d="M222.024,127.833c0-0.343-0.173-0.66-0.462-0.848c-0.29-0.184-0.649-0.211-0.96-0.071l-3.301,1.492
			c-1.249,0.564-2.575,0.92-3.933,1.062c-0.593,0.059-1.056,0.475-1.219,1.022c-0.604-0.59-1.429-0.957-2.345-0.957h-1.724v9.048
			h1.724c0.917,0,1.741-0.368,2.345-0.958c0.164,0.546,0.629,0.965,1.219,1.025c1.358,0.14,2.685,0.498,3.933,1.061l3.301,1.488
			c0.311,0.14,0.67,0.116,0.96-0.071c0.289-0.185,0.462-0.502,0.462-0.844V127.833z"/>
	</g>
	<g>
		<path fill="#EF9900" d="M237.422,487.55c0,0-2.67-4.3-4.946-4.473c-2.282-0.179-5.496,4.24-3.201,6.597
			C231.573,492.034,236.572,488.937,237.422,487.55z"/>
		<path fill="#F9F9F9" d="M259.028,506.845c0,0,0.457,4.347-2.184,5.27c-2.637,0.927-11.397,1.226-17.415-0.444
			c-6.017-1.672-6.906-3.497-13.168-3.332c-6.259,0.167-12.2-1.993-13.305-3.265c-1.115-1.275-0.607-4.321,0.896-6.368
			c1.497-2.047,21.752,4.113,21.752,4.113l16.562,3.691L259.028,506.845z"/>
		<path fill="#F99F00" d="M258.165,503.717c-6.162-4.072-9.486-1.414-13.474-6.729c-3.985-5.317-7.09-9.273-7.09-9.273
			s-4.642-1.104-11.1,3.79c-4.69,3.558-10.374-2.677-10.083-7.046c0.004-0.083-0.045-0.161-0.125-0.189
			c-0.082-0.028-0.17,0.002-0.219,0.071c-0.845,1.235-2.651,5.065-2.774,15.398c1.165,1.233,0.809,1.651,5.632,2.563
			c4.831,0.913,11.701,2.96,15.577,5.272c3.87,2.314,17.462,4.958,23.624,3.538C260.635,509.53,264.332,507.786,258.165,503.717z"/>
		<path fill="#3F3F3F" d="M261.269,507.495c-0.222-0.623-2.574,0.705-3.141,0.953c-0.57,0.249,0.141,2.043-1.332,3.015
			c-1.479,0.97-7.135,1.959-14.459,0.507c-7.324-1.446-3.839-2.607-12.328-3.604c-7.714-0.905-19.115-1.264-17.358-6.432
			c0.02-0.059-0.009-0.126-0.068-0.151c-0.059-0.026-0.128-0.002-0.159,0.055c-0.973,1.795-1.397,4.596,4.375,5.658
			c8.794,1.617,14.548,0.915,20.801,4.175c4.515,2.177,13.796,1.88,17.455,1.242C258.722,512.268,262.654,510.03,261.269,507.495z"
			/>
		<path fill="#F9F9F9" d="M243.291,499.057c0.345-0.478,0.893-0.805,1.66-0.805c0.568,0,1.021,0.186,1.357,0.477
			c0.169-0.208,0.147-0.515-0.061-0.694c-0.574-0.495-1.217-0.702-1.901-0.603c-1.536,0.218-2.68,1.964-2.734,2.04
			c-0.147,0.227-0.079,0.538,0.152,0.685c0.081,0.055,0.172,0.081,0.265,0.081c0.168,0,0.324-0.079,0.425-0.226
			C242.589,499.799,242.895,499.401,243.291,499.057z"/>
		<path fill="#F9F9F9" d="M243.291,496.273c0.421,0,0.762,0.123,1.025,0.322c0.066-0.038,0.125-0.088,0.171-0.159
			c0.152-0.23,0.086-0.538-0.14-0.688c-2.202-1.446-5.049,2.051-5.167,2.203c-0.172,0.213-0.135,0.526,0.079,0.699
			c0.092,0.074,0.203,0.112,0.309,0.112c0.148,0,0.292-0.069,0.39-0.188c0.019-0.02,1.074-1.302,2.202-1.888
			C242.427,496.434,242.807,496.273,243.291,496.273z"/>
		<path fill="#F9F9F9" d="M241.502,493.884c0.567,0,0.984,0.221,1.265,0.553c0.017-0.015,0.034-0.019,0.047-0.03
			c0.201-0.195,0.206-0.511,0.015-0.707c-0.523-0.544-1.156-0.795-1.874-0.743c-2.136,0.146-4.294,3.063-4.384,3.183
			c-0.164,0.224-0.117,0.537,0.107,0.698c0.084,0.063,0.196,0.097,0.289,0.097c0.158,0,0.314-0.073,0.406-0.204
			c0.541-0.737,2.251-2.673,3.634-2.779C241.16,493.913,241.327,493.884,241.502,493.884z"/>
		<path fill="#F9F9F9" d="M239.452,491.588c0.603,0,1.091,0.197,1.448,0.501c0.065-0.038,0.131-0.095,0.176-0.166
			c0.144-0.235,0.071-0.544-0.164-0.686c-3.331-2.05-6.888,2.871-7.04,3.083c-0.157,0.223-0.106,0.534,0.116,0.692
			c0.083,0.063,0.19,0.095,0.287,0.095c0.155,0,0.313-0.073,0.408-0.211c0.024-0.03,1.658-2.286,3.519-2.96
			C238.533,491.716,238.947,491.588,239.452,491.588z"/>
		<path fill="#F9F9F9" d="M237.659,489.763c0.714,0,1.319,0.153,1.835,0.404c0.062-0.04,0.111-0.099,0.149-0.168
			c0.124-0.244,0.024-0.546-0.214-0.669c-4.029-2.061-8.011,3.159-8.175,3.383c-0.166,0.215-0.119,0.528,0.099,0.694
			c0.084,0.065,0.19,0.102,0.299,0.102c0.15,0,0.303-0.07,0.397-0.201c0.026-0.029,1.458-1.911,3.342-2.882
			C235.987,490.016,236.745,489.763,237.659,489.763z"/>
		<path fill="#F9F9F9" d="M235.963,487.823c0.754,0.048,1.461,0.248,2.114,0.576c0.062-0.038,0.11-0.09,0.153-0.154
			c0.148-0.234,0.073-0.541-0.157-0.688c-3.743-2.341-7.8,1.242-9.424,3.464c-0.163,0.222-0.113,0.534,0.11,0.695
			c0.09,0.069,0.19,0.098,0.294,0.098c0.154,0,0.304-0.071,0.401-0.206C229.487,491.56,232.604,487.372,235.963,487.823z"/>
	</g>
	<g>
		<path fill="#F99F00" d="M178.757,487.55c0,0,2.668-4.3,4.945-4.473c2.282-0.179,5.495,4.24,3.197,6.597
			C184.601,492.034,179.604,488.937,178.757,487.55z"/>
		<path fill="#F9F9F9" d="M157.147,506.845c0,0-0.458,4.347,2.184,5.27c2.641,0.927,11.399,1.226,17.415-0.444
			c6.018-1.672,6.907-3.497,13.17-3.332c6.26,0.167,12.198-1.993,13.303-3.265c1.112-1.275,0.611-4.321-0.897-6.368
			c-1.495-2.047-21.751,4.113-21.751,4.113l-16.563,3.691L157.147,506.845z"/>
		<path fill="#FFAC27" d="M200.101,484.341c-0.047-0.069-0.138-0.1-0.218-0.071s-0.13,0.106-0.124,0.192
			c0.291,4.368-5.395,10.601-10.085,7.043c-6.457-4.895-11.102-3.79-11.102-3.79s-3.102,3.956-7.087,9.273
			c-3.988,5.314-7.31,2.656-13.477,6.729c-6.171,4.068-2.468,5.813,0.041,7.396c6.156,1.423,19.749-1.224,23.619-3.538
			c3.874-2.313,10.746-4.359,15.577-5.272c4.824-0.912,4.471-1.33,5.634-2.563C202.752,489.407,200.948,485.577,200.101,484.341z"/>
		<path fill="#3F3F3F" d="M203.754,501.839c-0.031-0.058-0.1-0.081-0.159-0.056c-0.059,0.026-0.088,0.093-0.066,0.154
			c1.75,5.163-9.65,5.521-17.362,6.427c-8.49,0.997-5.004,2.158-12.326,3.604c-7.33,1.452-12.982,0.463-14.462-0.507
			c-1.476-0.972-0.762-2.766-1.332-3.015c-0.568-0.248-2.919-1.576-3.143-0.95c-1.385,2.53,2.544,4.773,6.214,5.414
			c3.663,0.64,12.943,0.935,17.457-1.242c6.251-3.26,12.008-2.558,20.802-4.172C205.146,506.435,204.723,503.636,203.754,501.839z"
			/>
		<path fill="#F9F9F9" d="M172.885,499.057c-0.341-0.478-0.892-0.805-1.659-0.805c-0.57,0-1.021,0.186-1.357,0.477
			c-0.173-0.208-0.145-0.515,0.055-0.694c0.58-0.495,1.223-0.702,1.906-0.603c1.533,0.218,2.685,1.964,2.732,2.04
			c0.147,0.227,0.083,0.538-0.146,0.685c-0.084,0.055-0.176,0.081-0.271,0.081c-0.165,0-0.323-0.079-0.421-0.226
			C173.587,499.799,173.279,499.401,172.885,499.057z"/>
		<path fill="#F9F9F9" d="M172.887,496.273c-0.422,0-0.762,0.123-1.028,0.322c-0.066-0.038-0.125-0.088-0.169-0.159
			c-0.155-0.23-0.088-0.538,0.14-0.688c2.201-1.446,5.049,2.051,5.167,2.203c0.17,0.213,0.139,0.526-0.078,0.699
			c-0.092,0.074-0.204,0.112-0.311,0.112c-0.149,0-0.294-0.069-0.39-0.188c-0.018-0.02-1.076-1.302-2.202-1.888
			C173.75,496.434,173.369,496.273,172.887,496.273z"/>
		<path fill="#F9F9F9" d="M175.165,493.951c-0.149-0.038-0.314-0.066-0.492-0.066c-0.567,0-0.982,0.221-1.264,0.553
			c-0.019-0.015-0.037-0.019-0.05-0.03c-0.2-0.195-0.204-0.511-0.012-0.707c0.526-0.544,1.157-0.795,1.871-0.743
			c2.14,0.146,4.297,3.063,4.385,3.183c0.165,0.224,0.116,0.537-0.105,0.698c-0.084,0.063-0.196,0.097-0.295,0.097
			c-0.155,0-0.307-0.073-0.402-0.204C178.259,495.993,176.55,494.057,175.165,493.951z"/>
		<path fill="#F9F9F9" d="M176.726,491.588c-0.605,0-1.092,0.197-1.448,0.501c-0.066-0.038-0.135-0.095-0.179-0.166
			c-0.142-0.235-0.07-0.544,0.165-0.686c3.328-2.05,6.893,2.871,7.039,3.083c0.16,0.223,0.106,0.534-0.114,0.692
			c-0.086,0.063-0.192,0.095-0.289,0.095c-0.154,0-0.311-0.073-0.406-0.211c-0.027-0.03-1.661-2.286-3.519-2.96
			C177.642,491.716,177.229,491.588,176.726,491.588z"/>
		<path fill="#F9F9F9" d="M178.518,489.763c-0.714,0-1.319,0.153-1.838,0.404c-0.057-0.04-0.109-0.099-0.147-0.168
			c-0.124-0.244-0.026-0.546,0.214-0.669c4.031-2.061,8.011,3.159,8.175,3.383c0.168,0.215,0.12,0.528-0.098,0.694
			c-0.088,0.065-0.191,0.102-0.297,0.102c-0.15,0-0.3-0.07-0.397-0.201c-0.024-0.029-1.463-1.911-3.344-2.882
			C180.19,490.016,179.433,489.763,178.518,489.763z"/>
		<path fill="#F9F9F9" d="M180.212,487.823c-0.753,0.048-1.462,0.248-2.113,0.576c-0.062-0.038-0.11-0.09-0.151-0.154
			c-0.147-0.234-0.075-0.541,0.156-0.688c3.744-2.341,7.799,1.242,9.424,3.464c0.164,0.222,0.109,0.534-0.112,0.695
			c-0.089,0.069-0.192,0.098-0.295,0.098c-0.15,0-0.305-0.071-0.399-0.206C186.688,491.56,183.574,487.372,180.212,487.823z"/>
	</g>
</g>
</svg>
