<?xml version="1.0" encoding="utf-8"?>
<!-- Generator: Adobe Illustrator 16.0.0, SVG Export Plug-In . SVG Version: 6.00 Build 0)  -->
<!DOCTYPE svg PUBLIC "-//W3C//DTD SVG 1.1//EN" "http://www.w3.org/Graphics/SVG/1.1/DTD/svg11.dtd">
<svg version="1.1" xmlns="http://www.w3.org/2000/svg" xmlns:xlink="http://www.w3.org/1999/xlink" x="0px" y="0px" width="970px"
	 height="400px" viewBox="0 0 970 400" enable-background="new 0 0 970 400" xml:space="preserve">
<symbol  id="__21" viewBox="-3.501 -3.333 7.003 6.667">
	<path fill="#F29583" d="M3.502,0C3.502-1.84,1.934-3.333,0-3.333C-1.934-3.333-3.501-1.84-3.501,0S-1.934,3.333,0,3.333
		C1.934,3.333,3.502,1.841,3.502,0z"/>
</symbol>
<symbol  id="New_Symbol_247" viewBox="-20.839 -29.917 41.679 59.834">
	<g id="XMLID_3609_">
		<path fill="#A56052" d="M8.627-12.937l-16.859-0.278c-4.123-0.068-7.899,2.945-8.388,6.901l-2.4,19.427
			c-0.68,5.5,3.101,10.226,8.4,10.139l21.553-0.355c5.047-0.083,8.591-4.761,7.958-10.06L16.64-5.976
			C16.179-9.826,12.596-12.871,8.627-12.937z"/>
		<g>
			<path fill="#F6B297" d="M14.885,11.606v-22.521c0-0.348-0.027-1.037-0.096-1.865c-0.165-2.125-0.538-5.202-1.103-5.899
				l-8.518-9.171c-1.047-1.306-2.632-2.068-4.313-2.068h-1.55c-1.654,0-3.225,0.733-4.272,2.002l-8.8,9.222
				c-0.683,0.827-1.103,4.934-1.22,6.951c-0.021,0.37-0.028,0.675-0.028,0.871v22.347c0,2.264,1.406,4.295,3.535,5.108l8.917,3.417
				c0.455,0.174,0.93,0.29,1.413,0.341c0.772,0.08,1.564,0,2.315-0.254l9.944-3.287C13.369,16.054,14.885,13.965,14.885,11.606z"/>
		</g>
		<g>
			
				<use xlink:href="#__21"  width="7.003" height="6.667" x="-3.501" y="-3.333" transform="matrix(0.6891 0 0 0.6891 -10.2896 -7.1011)" overflow="visible"/>
			
				<use xlink:href="#__21"  width="7.003" height="6.667" x="-3.501" y="-3.333" transform="matrix(0.6891 0 0 0.6891 10.1538 -7.1011)" overflow="visible"/>
		</g>
		<path fill="#A56052" d="M20.792,26.539c-0.079,1.107-0.209,2.238-0.361,3.378l-29.693-2.57c-1.42-0.205-2.756-0.625-3.981-1.223
			c-1.965-0.958-3.021-3.184-2.656-5.362c2.058-1.116,4.456-0.93,6.755-1.048c0.028-0.001,0.056-0.004,0.084-0.005
			c-0.173,0.009,2.018-2.556,2.244-2.739C3.007,9.081,21.923,10.729,20.792,26.539z"/>
		<g>
			<path fill="#F6B297" d="M-14.641-10.27h-1.957c-2.343,0-4.241,2.221-4.241,4.96v1.526c0,2.318,1.606,4.197,3.588,4.197h2.61
				C-14.641,0.414-14.641-11.033-14.641-10.27z"/>
			<path fill="#F6B297" d="M14.504-10.27h1.958c2.342,0,4.241,2.221,4.241,4.96v1.526c0,2.318-1.607,4.197-3.589,4.197h-2.609
				C14.504,0.414,14.504-11.033,14.504-10.27z"/>
		</g>
		<path fill="#C3958C" d="M15.226,1.251v-13.12c0-0.331-0.027-0.985-0.104-1.772c-0.578-6.518-6.034-10.136-10.481-14.312
			c-1.088-1.178-2.701-1.881-4.438-1.964c0,0-0.537,0-0.537,0.014c-1.737,0.069-3.349,0.771-4.438,1.95
			c-4.749,4.456-9.878,7.525-10.481,14.313c-0.006,0.041-0.006,0.083-0.014,0.124c-0.068,0.73-0.096,1.337-0.096,1.647v13.12
			c0,0.296,0.434,0.324,0.476,0.028l1.302-9.985l0.393-3.011c0.062-0.489,0.6-0.772,1.041-0.544l3.08,1.599
			c1.42,0.737,3.073,0.896,4.603,0.44l2.66-1.46c1.137-0.338,2.35-0.338,3.487,0l2.66,1.46c1.53,0.456,3.184,0.296,4.604-0.44
			l3.08-1.599c0.441-0.228,0.979,0.055,1.041,0.544l0.275,2.102l1.42,10.895C14.799,1.575,15.226,1.547,15.226,1.251z"/>
	</g>
	<g>
		<g>
			<path fill="#75463E" d="M-6.322-3.116L-6.322-3.116c-0.752,0-1.367,0.615-1.367,1.367v1.279c0,0.751,0.615,1.367,1.367,1.367l0,0
				c0.751,0,1.367-0.615,1.367-1.367v-1.279C-4.955-2.5-5.57-3.116-6.322-3.116z"/>
		</g>
		<g>
			<path fill="#75463E" d="M-9.496,6.088l0.519-1.813c0,0,2.85,1.813,4.405,0.518l0.259,2.591C-4.313,7.383-8.2,8.42-9.496,6.088z"
				/>
		</g>
		<g id="XMLID_3608_">
			<g>
				<path fill="#75463E" d="M6.186-3.116L6.186-3.116c0.752,0,1.367,0.615,1.367,1.367v1.278c0,0.752-0.615,1.367-1.367,1.367l0,0
					c-0.751,0-1.367-0.615-1.367-1.367v-1.278C4.819-2.501,5.434-3.116,6.186-3.116z"/>
			</g>
			<g>
				<path fill="#75463E" d="M9.36,6.088L8.841,4.274c0,0-2.85,1.813-4.405,0.518l-0.26,2.591C4.177,7.383,8.064,8.42,9.36,6.088z"/>
			</g>
		</g>
	</g>
</symbol>
<symbol  id="ÕÓ_x201A__x2DA_È_ÒËÏ_x201A_ÓÎ_10" viewBox="-29.393 -30.29 58.788 60.582">
	<g>
		<path fill="#A56052" d="M5.156,30.291h-10.31c-4.646,0-8.426-3.78-8.426-8.425V16.39c0-0.23,0.187-0.417,0.417-0.417h3.13
			c0.229,0,0.417,0.187,0.417,0.417v5.476c0,2.46,2.002,4.462,4.462,4.462h10.31c2.46,0,4.462-2.002,4.462-4.462V16.39
			c0-0.23,0.187-0.417,0.417-0.417h3.13c0.23,0,0.417,0.187,0.417,0.417v5.476C13.581,26.512,9.801,30.291,5.156,30.291z"/>
	</g>
	<path fill="#A56052" d="M24.689-30.291h-48.941c-1.639,0-2.979,1.341-2.979,2.98V8.511c0,4.005,3.277,7.282,7.283,7.282h41.458
		c4.005,0,7.283-3.277,7.283-7.282v-34.699C28.792-28.444,26.946-30.291,24.689-30.291z"/>
	<path fill="#A56052" d="M26.523-29.989L26.523-29.989c-1.579,0-2.871,1.292-2.871,2.871v40.422c0,1.579,1.292,2.871,2.871,2.871
		l0,0c1.579,0,2.871-1.292,2.871-2.871v-40.422C29.395-28.697,28.103-29.989,26.523-29.989z"/>
	<polygon opacity="0.61" fill="#75372E" points="27.921,-8.526 27.921,-14.429 -26.828,-14.429 -26.828,-8.526 	"/>
	<path fill="#A56052" d="M29.08,14.89c0,1.442-1.235,2.61-2.76,2.61h-1.062H24.41H-23.45c-3.283,0-5.943-2.518-5.943-5.622V-6.194
		c0-2.883,2.471-5.22,5.519-5.22h42.881c3.048,0,5.519,2.337,5.519,5.22V8.866c0,2.904-1.832,5.336,1.012,6.024H29.08L29.08,14.89z"
		/>
	<path fill="#75372E" d="M26.523-29.989L26.523-29.989c-1.579,0-2.871,1.292-2.871,2.871v40.422c0,1.579,1.292,2.871,2.871,2.871
		l0,0c1.579,0,2.871-1.292,2.871-2.871v-40.422C29.395-28.697,28.103-29.989,26.523-29.989z"/>
	<g>
		<path fill="#714247" d="M-0.396-18.243h-7.22c-1.41,0-2.564,1.154-2.564,2.565v2.1c0,1.411,1.154,2.564,2.564,2.564h7.22
			c1.411,0,2.564-1.154,2.564-2.564v-2.1C2.168-17.088,1.015-18.243-0.396-18.243z"/>
		<path fill="#EAD25E" d="M-0.65-16.736h-6.711c-1.551,0-2.819,1.269-2.819,2.819v3.097c0,1.55,1.268,2.818,2.819,2.818h6.711
			c1.55,0,2.819-1.268,2.819-2.818v-3.097C2.168-15.468,0.9-16.736-0.65-16.736z"/>
	</g>
</symbol>
<g id="Layer_1">
	<g>
		<g>
			<g>
				<g>
					<g>
						<g>
							<g>
								<g>
									<g>
										<path fill="#DFECFE" d="M190.35,112.258l-12.831,99.234l-58.66-0.2l-13.352-99.023c-0.09-0.5,0.15-1,0.59-1.259
											l19.646-11.422l1.749-1.02c0.91-0.53,1.819-1.019,2.738-1.479c0.3-0.14,0.59-0.28,0.89-0.42
											c5.355-2.48,10.939-3.695,16.519-3.676c0.021,0,0.04-0.001,0.061-0.001h0.459c0.32,0,0.64,0.01,0.949,0.02
											c0.25,0,0.49,0.01,0.729,0.03c5.257,0.32,10.474,1.759,15.48,4.297c0.109,0.06,0.219,0.11,0.329,0.17
											c0.38,0.19,0.75,0.39,1.119,0.6c0.1,0.05,0.19,0.1,0.28,0.15l3.987,2.239l18.707,10.533
											C190.171,111.279,190.42,111.758,190.35,112.258z"/>
									</g>
								</g>
							</g>
						</g>
					</g>
				</g>
			</g>
		</g>
	</g>
	<g>
		<g>
			<g>
				<g>
					<g>
						<g>
							<g>
								<g>
									<g>
										<polygon fill="#319499" points="148.66,171.079 160.767,166.774 150.39,120.308 155.578,112.813 152.984,102.321 
											147.925,103.156 142.866,102.321 140.271,112.813 145.46,120.308 135.083,166.774 147.189,171.079 147.189,171.602 
											147.925,171.341 148.66,171.602 										"/>
									</g>
								</g>
							</g>
						</g>
					</g>
				</g>
			</g>
		</g>
	</g>
	<g>
		<g>
			<g>
				<g>
					<g>
						<g>
							<g>
								<g>
									<g>
										<path fill="#D0DCEF" d="M165.317,97.338l-6.646,19.887l-10.743-10.273l-10.743,10.273l-6.726-20.136
											c0.3-0.14,0.59-0.28,0.89-0.42c2.648-1.229,5.356-2.139,8.085-2.748c2.738-0.62,5.496-0.919,8.265-0.929h0.459
											c0.32,0,0.64,0.01,0.949,0.02c0.25,0,0.49,0.01,0.729,0.03C155.094,93.361,160.311,94.8,165.317,97.338z"/>
									</g>
								</g>
							</g>
						</g>
					</g>
				</g>
			</g>
		</g>
	</g>
	<g id="XMLID_4624_">
		<g>
			<g>
				<g>
					<g>
						<g>
							<g>
								<g>
									<g>
										<path fill="#F6B297" d="M160.881,99.235l-1.409,1.416c-3.13,3.137-7.442,4.801-11.868,4.575l-1.969-0.099
											c-4.136-0.22-8.017-2.061-10.793-5.134c-0.659-0.729-0.999-1.657-0.999-2.606c0-0.453,0.078-0.914,0.241-1.36
											c0.396-1.09,0.864-3.47,1.282-6.628c0.553-4.234,1.013-9.886,1.083-15.714c0.028-2.195,1.813-3.973,4.008-3.994
											l4.427-0.042l10.197-0.106c2.315-0.029,4.171,1.884,4.093,4.199c-0.19,5.354-0.049,14.652,2.557,21.301
											C162.297,96.487,161.979,98.13,160.881,99.235z"/>
									</g>
								</g>
							</g>
						</g>
					</g>
				</g>
			</g>
		</g>
		<g>
			<g>
				<g>
					<g>
						<g>
							<g>
								<g>
									<g>
										<path fill="#F29583" d="M153.849,85.596l-18.886,10.381l0.403-6.579c0.553-4.234,1.013-9.886,1.083-15.714
											c0.028-2.195,1.813-3.973,4.008-3.994l4.427-0.042L153.849,85.596z"/>
									</g>
								</g>
							</g>
						</g>
					</g>
				</g>
			</g>
		</g>
	</g>
	<g>
		<g id="XMLID_4623_">
			<g>
				<g>
					<g>
						<g>
							<g>
								<g>
									<g>
										<g>
											<path fill="#57729F" d="M142.127,374.979h-11.025l-12.19,5.791l-9.906,4.235l-1.124,0.3
												c-0.202,0.086,0.814,1.418,1.04,1.404l34.46-2.874L142.127,374.979z"/>
										</g>
									</g>
								</g>
							</g>
						</g>
					</g>
				</g>
			</g>
			<g>
				<g>
					<g>
						<g>
							<g>
								<g>
									<g>
										<g>
											<path fill="#312B6B" d="M143.99,211.141l-3.269-3.236c-4.162-4.121-10.942-4.009-14.964,0.246l-2.494,2.576l-0.027,0.039
												c-1.618,2.133-2.358,4.798-2.07,7.452l1.601,15.347l3.248,63.071c-0.074,0.106-0.14,0.211-0.197,0.318l0.404,6.074
												l0.519,7.609l0.306,4.515l4.123,60.414l0.024,0.335h11.246v-0.335l0.651-60.414l0.05-4.792l0.091-8.286l0.024-1.861
												v-0.008v-0.007c0.128-0.49,0.209-0.999,0.227-1.526l2.024-65.731l0.515-16.713
												C146.083,214.327,145.348,212.485,143.99,211.141z"/>
										</g>
									</g>
								</g>
							</g>
						</g>
					</g>
				</g>
			</g>
			<g>
				<g>
					<g>
						<g>
							<g>
								<g>
									<g>
										<g>
											<polygon fill="#312B6B" points="142.503,315.151 141.721,375.565 132.188,375.565 127.237,315.151 											"/>
										</g>
									</g>
								</g>
							</g>
						</g>
					</g>
				</g>
			</g>
		</g>
		<g id="XMLID_4622_">
			<g>
				<g>
					<g>
						<g>
							<g>
								<g>
									<g>
										<g>
											<path fill="#57729F" d="M153.724,374.979h11.024l12.191,5.791l9.906,4.234l1.124,0.3c0.202,0.086-0.815,1.419-1.04,1.404
												l-34.459-2.874L153.724,374.979z"/>
										</g>
									</g>
								</g>
							</g>
						</g>
					</g>
				</g>
			</g>
			<g>
				<g>
					<g>
						<g>
							<g>
								<g>
									<g>
										<g>
											<path fill="#312B6B" d="M151.859,211.141l3.269-3.236c4.162-4.121,10.943-4.009,14.965,0.247l2.493,2.575l0.028,0.04
												c1.618,2.133,2.358,4.798,2.07,7.452l-1.601,15.347l-3.248,63.07c0.073,0.106,0.14,0.212,0.197,0.318l-0.404,6.074
												l-0.52,7.609l-0.305,4.515l-4.123,60.414l-0.025,0.334H153.41v-0.334l-0.651-60.414l-0.049-4.792l-0.091-8.286
												l-0.025-1.861v-0.008v-0.008c-0.128-0.49-0.208-1-0.226-1.526l-2.024-65.731l-0.515-16.712
												C149.767,214.327,150.502,212.485,151.859,211.141z"/>
										</g>
									</g>
								</g>
							</g>
						</g>
					</g>
				</g>
			</g>
			<g>
				<g>
					<g>
						<g>
							<g>
								<g>
									<g>
										<g>
											<polygon fill="#312B6B" points="153.348,315.151 154.13,375.565 163.663,375.565 168.612,315.151 											"/>
										</g>
									</g>
								</g>
							</g>
						</g>
					</g>
				</g>
			</g>
		</g>
	</g>
	<g>
		<g>
			<g>
				<g>
					<g>
						<g>
							<g>
								<g>
									<g>
										<path fill="#FAC1B1" d="M230.861,171.669c1.414,0.27,2.396,1.653,2.363,3.355l-0.024,1.425
											c-0.035,1.992-1.432,3.74-3.146,3.927l-6.433,0.687l0.7-10.624L230.861,171.669z"/>
									</g>
								</g>
							</g>
						</g>
					</g>
				</g>
			</g>
		</g>
		<g>
			<g>
				<g>
					<g>
						<g>
							<g>
								<g>
									<g>
										<path fill="#312B6B" d="M224.241,168.555l-1.326,12.694l-11.06,1.187l-23.026,2.471
											c-8.134,0.969-14.45-6.638-13.379-16.123c0.061-0.533,0.163-1.047,0.303-1.544c1.145-4.1,4.772-6.917,8.406-6.25
											l29.991,5.663L224.241,168.555z"/>
									</g>
								</g>
							</g>
						</g>
					</g>
				</g>
			</g>
		</g>
		<g>
			<g>
				<g>
					<g>
						<g>
							<g>
								<g>
									<g>
										<polygon fill="#DFECFE" points="227.99,180.704 227.887,181.824 211.765,183.066 211.855,182.436 214.15,166.653 
											224.241,168.555 222.915,181.249 										"/>
									</g>
								</g>
							</g>
						</g>
					</g>
				</g>
			</g>
		</g>
	</g>
	<g id="ÕÓ_x201A__x2DA_È_x5F_ÒËÏ_x201A_ÓÎ_x5F_36_x5F_106_x5F_">
		<g>
			<g>
				<g>
					<g>
						<g>
							<g>
								<g>
									<g>
										<path fill="#312B6B" d="M169.543,124.753l4.135,27.143l0.071,0.477l3.593,23.567c0.838,5.49,5.762,9.4,11.3,8.968
											l0.874-0.07c7.711-0.604,13.398-7.454,12.574-15.143l-2.18-20.303l-0.013-0.118l-3.115-29.063
											c-0.427-4.007-2.61-7.426-5.712-9.541c-2.293-1.571-5.088-2.433-8.061-2.305
											C174.542,108.745,168.264,116.38,169.543,124.753z"/>
									</g>
								</g>
							</g>
						</g>
					</g>
				</g>
			</g>
		</g>
	</g>
	<g id="ÕÓ_x201A__x2DA_È_x5F_ÒËÏ_x201A_ÓÎ_x5F_37_x5F_99_x5F_">
		<g>
			<g>
				<g>
					<g>
						<g>
							<g>
								<g>
									<g>
										<g>
											<polygon fill="#F6B297" points="103.128,225.016 87.718,178.587 100.39,216.762 											"/>
										</g>
									</g>
								</g>
							</g>
						</g>
					</g>
				</g>
			</g>
			<g>
				<g>
					<g>
						<g>
							<g>
								<g>
									<g>
										<g>
											<path fill="#F6B297" d="M114.121,230.353c0.119,1.719-0.95,3.298-2.599,3.807l-1.38,0.43
												c-1.929,0.6-3.987-0.45-4.626-2.369l-2.389-7.206l10.423-2.608L114.121,230.353z"/>
										</g>
									</g>
								</g>
							</g>
						</g>
					</g>
				</g>
			</g>
			<g>
				<g>
					<g>
						<g>
							<g>
								<g>
									<g>
										<g>
											<path fill="#312B6B" d="M99.66,157.961c0.529-0.1,1.049-0.15,1.569-0.15c4.257,0,7.944,3.288,8.274,7.695l3.467,48.707
												l-12.581,2.549l-12.672-38.175C84.601,169.514,90.236,159.77,99.66,157.961z"/>
										</g>
									</g>
								</g>
							</g>
						</g>
					</g>
				</g>
			</g>
			<g>
				<g>
					<g>
						<g>
							<g>
								<g>
									<g>
										<g>
											<polygon fill="#DFECFE" points="112.971,214.213 113.551,222.408 103.128,225.016 100.39,216.762 											"/>
										</g>
									</g>
								</g>
							</g>
						</g>
					</g>
				</g>
			</g>
		</g>
	</g>
	<g id="ÕÓ_x201A__x2DA_È_x5F_ÒËÏ_x201A_ÓÎ_x5F_36_x5F_105_x5F_">
		<g>
			<g>
				<g>
					<g>
						<g>
							<g>
								<g>
									<g>
										<path fill="#312B6B" d="M127.557,127.303l-9.376,25.806l-0.163,0.453l-8.144,22.406
											c-1.898,5.219-7.492,8.087-12.839,6.579l-0.843-0.241c-7.442-2.104-11.678-9.936-9.361-17.314l6.118-19.481l0.035-0.113
											l8.753-27.887c1.204-3.846,4.016-6.771,7.471-8.236c2.557-1.09,5.467-1.388,8.356-0.68
											C125.794,110.626,130.453,119.344,127.557,127.303z"/>
									</g>
								</g>
							</g>
						</g>
					</g>
				</g>
			</g>
		</g>
	</g>
	<g id="XMLID_4621_">
		<g>
			<g>
				<g>
					<g>
						<g>
							<g>
								<g>
									<g>
										<path fill="#312B6B" d="M119.008,193.82v15.461c0,5.541,4.492,10.032,10.033,10.032h38.005
											c5.54,0,10.032-4.491,10.032-10.032v-16.642h-58.306C118.772,192.639,119.363,193.465,119.008,193.82z"/>
									</g>
								</g>
							</g>
						</g>
					</g>
				</g>
			</g>
		</g>
	</g>
	<g>
		<g>
			<g>
				<g>
					<g>
						<g>
							<g>
								<g>
									<g>
										<path fill="#383772" d="M190.84,112.328l-12.882,99.663h-0.439l-59.101-0.199l-0.061-0.43l-13.35-99.023
											c-0.12-0.68,0.209-1.389,0.829-1.759l11.122-6.466l1.869-1.089l7.165-4.158l0.21,0.53l22.585,55.653l0.35,0.869
											l0.679-1.759v-0.01l20.957-54.374l6.146,3.458l1.959,1.109l11.102,6.246C190.609,110.949,190.939,111.628,190.84,112.328z
											"/>
									</g>
								</g>
							</g>
						</g>
					</g>
				</g>
			</g>
		</g>
	</g>
	<g>
		<g>
			<g>
				<g>
					<g>
						<g>
							<g>
								<g>
									<g>
										<g>
											<g>
												<g>
													<polygon fill="#484689" points="148.778,156.518 147.929,157.507 147.469,158.037 122.775,136.712 126.663,123.74 
														117.619,121.152 116.959,104.113 118.828,103.024 118.918,103.024 119.558,119.623 129.161,122.371 125.063,136.042 
														147.929,155.789 													"/>
												</g>
											</g>
										</g>
									</g>
								</g>
							</g>
						</g>
					</g>
				</g>
			</g>
		</g>
		<g>
			<g>
				<g>
					<g>
						<g>
							<g>
								<g>
									<g>
										<g>
											<g>
												<g>
													<polygon fill="#484689" points="178.238,121.152 169.185,123.74 173.071,136.712 148.378,158.037 147.929,157.507 
														147.079,156.518 147.929,155.789 148.788,155.049 149.816,154.16 149.816,154.15 170.793,136.042 166.686,122.371 
														176.29,119.623 176.919,103.234 178.878,104.343 													"/>
												</g>
											</g>
										</g>
									</g>
								</g>
							</g>
						</g>
					</g>
				</g>
			</g>
		</g>
	</g>
	<g>
		<g>
			<g>
				<g>
					<g>
						<g>
							<g>
								<g>
									<g>
										<g>
											<rect x="146.93" y="155.699" fill="#484689" width="1.998" height="56.192"/>
										</g>
									</g>
								</g>
							</g>
						</g>
					</g>
				</g>
			</g>
		</g>
	</g>
	<g>
		<g>
			<g>
				
					<use xlink:href="#New_Symbol_247"  width="41.679" height="59.834" id="XMLID_4620_" x="-20.839" y="-29.917" transform="matrix(1.2501 0 0 -1.2501 147.6045 57.3662)" overflow="visible"/>
			</g>
			<g>
				<g>
					<g>
						<path fill="#67413A" d="M139.813,66.44h-5.688c-3.493,0-6.335-2.842-6.335-6.334v-5.681c0-0.015,0.013-1.559,0.103-2.031
							l2.202,0.41c-0.033,0.215-0.064,1.246-0.064,1.622v5.681c0,2.258,1.837,4.094,4.095,4.094h5.688
							c2.258,0,4.096-1.836,4.096-4.094v-5.681c0-0.431-0.068-0.861-0.205-1.28c-0.045-0.133-0.102-0.268-0.156-0.401l2.07-0.855
							c0.075,0.181,0.148,0.361,0.213,0.554c0.212,0.652,0.318,1.316,0.318,1.982v5.681C146.148,63.598,143.307,66.44,139.813,66.44
							z"/>
					</g>
					<g>
						<polygon fill="#67413A" points="125.418,58.312 123.732,56.836 128.396,51.506 145.723,51.166 146.139,55.134 143.911,55.366 
							143.709,53.446 129.431,53.726 						"/>
					</g>
				</g>
				<g id="XMLID_4619_">
					<g>
						<path fill="#67413A" d="M160.464,66.34h-5.689c-3.493,0-6.335-2.841-6.335-6.334v-5.68c0-0.671,0.107-1.335,0.316-1.975
							c0.067-0.2,0.141-0.381,0.215-0.563l2.071,0.855c-0.056,0.134-0.111,0.271-0.16,0.413c-0.133,0.406-0.202,0.836-0.202,1.27
							v5.68c0,2.257,1.837,4.094,4.095,4.094h5.689c2.258,0,4.094-1.837,4.094-4.094v-5.68c0-0.376-0.031-1.405-0.064-1.619
							l2.2-0.417c0.094,0.479,0.104,2.021,0.104,2.036v5.68C166.798,63.499,163.956,66.34,160.464,66.34z"/>
					</g>
					<g>
						<polygon fill="#67413A" points="169.171,58.211 165.158,53.626 150.879,53.347 150.677,55.268 148.449,55.033 148.866,51.067 
							166.193,51.406 170.856,56.736 						"/>
					</g>
				</g>
			</g>
			<g>
				<rect x="145.358" y="51.141" fill="#67413A" width="6.401" height="2.24"/>
			</g>
		</g>
		<path fill="#FFFFFF" d="M142.498,76.149c-0.301,0-0.496,0.452-0.35,0.817c1.01,2.513,3.12,4.242,5.563,4.242
			c2.441,0,4.553-1.729,5.562-4.242c0.147-0.365-0.048-0.817-0.35-0.817H142.498z"/>
	</g>
	<g>
		<g>
			<path fill="#383772" d="M262.558,142.944l-2.457-2.009l-0.15,0.07c-0.113-0.032-0.232-0.052-0.358-0.052h-42.969
				c-0.605,0-1.135,0.408-1.288,0.994l-6.828,26.074c-0.153,0.585-0.683,0.994-1.288,0.994h-22.354
				c-0.736,0-1.331,0.596-1.331,1.331v0.626c0,0.735,0.595,1.332,1.331,1.332h66.028c0.586,0,1.104-0.384,1.273-0.945l8.439-27.828
				L262.558,142.944z"/>
			<g>
				<path fill="#97DFFF" d="M183.532,171.79v0.626c0,0.735,0.596,1.331,1.331,1.331h67.954c0.586,0,1.104-0.383,1.273-0.945
					l8.7-28.688c0.259-0.855-0.381-1.718-1.274-1.718h-42.969c-0.605,0-1.135,0.409-1.288,0.994l-6.828,26.074
					c-0.153,0.586-0.683,0.994-1.288,0.994h-24.28C184.128,170.458,183.532,171.055,183.532,171.79z"/>
				<circle fill="#F3FDFF" cx="236.571" cy="158.177" r="2.985"/>
			</g>
		</g>
		<g id="XMLID_4618_">
			<path fill="#F6B297" d="M237.495,168.293l-3.985-0.31l-1.113-0.078l-3.919-0.31l-1.09-0.085l4.045,0.135
				c-0.661-0.045-6.802-2.372-6.891-1.718l-1.774,13.364c-0.204,1.538,1.175,2.815,2.693,2.494l17.618-3.73l-0.574-9.378
				l-3.92-0.299L237.495,168.293z"/>
			<g>
				<g>
					<g>
						<polygon fill="#FC8883" points="227.388,167.51 228.478,167.596 228.88,175.902 227.784,175.916 						"/>
					</g>
				</g>
				<g>
					<g>
						<polygon fill="#FC8883" points="232.396,167.905 233.51,167.983 233.905,176.456 232.797,176.479 						"/>
					</g>
				</g>
				<g>
					<g>
						<polygon fill="#FC8883" points="237.495,168.293 238.585,168.378 238.986,176.618 237.892,176.632 						"/>
					</g>
				</g>
			</g>
		</g>
	</g>
	<g>
		
			<use xlink:href="#ÕÓ_x201A__x2DA_È_ÒËÏ_x201A_ÓÎ_10"  width="58.788" height="60.582" id="XMLID_4617_" x="-29.393" y="-30.29" transform="matrix(1.0783 0 0 -1.0783 109.5557 272.5044)" overflow="visible"/>
		<path fill="#F6B297" d="M115.133,246.169l-0.309-6.489l4.927,0.429c0.6-0.547,0.709-1.446,0.256-2.118l-5.04-7.567
			c-0.715-1.073-1.892-1.753-3.177-1.833l-4.266-0.088c-0.095-0.015-0.183-0.022-0.278-0.022c-0.664,0-1.285,0.387-1.569,1.008
			l-5.763,12.708l3.914,8.699l1.929,0.183l0.985,0.087l2.44,0.227l1.14,0.11h0.007l2.849,0.263l1.957-1.738l0.283-3.905
			L115.133,246.169z"/>
		<g>
			
				<rect x="107.699" y="247.416" transform="matrix(0.3677 0.93 -0.93 0.3677 301.1005 52.8255)" fill="#FC8883" width="8.013" height="0.815"/>
		</g>
		<g>
			<polygon fill="#FC8883" points="110.322,251.504 109.183,251.395 106.333,244.784 107.086,244.456 			"/>
		</g>
		<g>
			<polygon fill="#FC8883" points="106.742,251.168 105.757,251.081 102.908,244.463 103.66,244.142 			"/>
		</g>
		<polygon fill="#F29583" points="114.824,250.804 119.15,245.551 116.369,243.388 114.516,243.388 		"/>
	</g>
</g>
<g id="Layer_2">
	<path fill="none" stroke="#383772" stroke-width="8" stroke-miterlimit="10" d="M869,296.874c0,10.159-8.536,18.126-19.066,18.126
		H364.066c-10.53,0-19.066-7.967-19.066-18.126V94.395C345,84.235,353.536,76,364.066,76h485.867C860.464,76,869,84.235,869,94.395
		V296.874z"/>
	<polygon fill="none" stroke="#383772" stroke-width="8" stroke-miterlimit="10" points="345,140.935 232.228,69.769 345,91.558 	
		"/>
</g>
<g id="Layer_3">
	<text transform="matrix(1 0 0 1 408.9961 108.353)"><tspan x="0" y="0" font-family="'ComicSansMS'" font-size="20">Ambassadeurs zijn deelnemers die bij  </tspan><tspan x="27.881" y="24" font-family="'ComicSansMS'" font-size="20">inschrijving hebben aangegeven,  </tspan><tspan x="-9.097" y="48" font-family="'ComicSansMS'" font-size="20">ook voorafgaand aan het programma van  </tspan><tspan x="-17.358" y="72" font-family="'ComicSansMS'" font-size="20">IJmond Bereikbaar al regelmatig de fiets  </tspan><tspan x="-13.735" y="96" font-family="'ComicSansMS'" font-size="20">te gebruiken voor het woon/werkverkeer  </tspan><tspan x="-0.977" y="120" font-family="'ComicSansMS'" font-size="20">(de helft of meer van hun werkdagen).  </tspan><tspan x="-38.75" y="144" font-family="'ComicSansMS'" font-size="20">Met ingang van 1 april 2017 is het onderscheid  </tspan><tspan x="-10.43" y="168" font-family="'ComicSansMS'" font-size="20">tussen ambassadeurs en nieuwe fietsers  </tspan><tspan x="84.639" y="192" font-family="'ComicSansMS'" font-size="20">komen te vervallen.  </tspan></text>
</g>
</svg>
