<?xml version="1.0" encoding="utf-8"?>
<!-- Generator: Adobe Illustrator 16.0.0, SVG Export Plug-In . SVG Version: 6.00 Build 0)  -->
<!DOCTYPE svg PUBLIC "-//W3C//DTD SVG 1.1//EN" "http://www.w3.org/Graphics/SVG/1.1/DTD/svg11.dtd">
<svg version="1.1" id="Layer_1" xmlns="http://www.w3.org/2000/svg" xmlns:xlink="http://www.w3.org/1999/xlink" x="0px" y="0px"
	 width="36.171px" height="19.588px" viewBox="0 0 36.171 19.588" enable-background="new 0 0 36.171 19.588" xml:space="preserve">
<path fill="#74B743" d="M0.325,18.207c-0.703-1.287-0.229-2.898,1.057-3.598l0,0l8.68-4.733l-8.715-4.92l0.002,0.002
	c-1.275-0.719-1.725-2.337-1.004-3.61l0,0c0.719-1.275,2.334-1.724,3.609-1.005l0,0L16.825,7.61
	c0.838,0.474,1.352,1.364,1.346,2.326l0,0c-0.006,0.965-0.535,1.847-1.381,2.308l0,0l-12.869,7.02
	c-0.402,0.221-0.838,0.324-1.268,0.324l0,0C1.716,19.588,0.806,19.088,0.325,18.207L0.325,18.207z"/>
<path fill="#74B743" d="M18.325,18.207c-0.703-1.287-0.229-2.898,1.057-3.598l0,0l8.68-4.733l-8.715-4.92l0.002,0.002
	c-1.275-0.719-1.725-2.337-1.004-3.61l0,0c0.719-1.275,2.334-1.724,3.609-1.005l0,0L34.825,7.61
	c0.838,0.474,1.352,1.364,1.346,2.326l0,0c-0.006,0.965-0.535,1.847-1.381,2.308l0,0l-12.869,7.02
	c-0.402,0.221-0.838,0.324-1.268,0.324l0,0C19.716,19.588,18.806,19.088,18.325,18.207L18.325,18.207z"/>
</svg>
