<?xml version="1.0" encoding="utf-8"?>
<!-- Generator: Adobe Illustrator 16.0.0, SVG Export Plug-In . SVG Version: 6.00 Build 0)  -->
<!DOCTYPE svg PUBLIC "-//W3C//DTD SVG 1.1//EN" "http://www.w3.org/Graphics/SVG/1.1/DTD/svg11.dtd">
<svg version="1.1" id="Layer_1" xmlns="http://www.w3.org/2000/svg" xmlns:xlink="http://www.w3.org/1999/xlink" x="0px" y="0px"
	 width="383.792px" height="363.382px" viewBox="0 0 383.792 363.382" style="enable-background:new 0 0 383.792 363.382;"
	 xml:space="preserve">
<g>
	<g>
		<g>
			<g>
				<g>
					<path style="fill:#99FFFF;" d="M175.226,144.189c-1.295,0-2.348-1.053-2.348-2.348V16.874c0-1.294,1.053-2.348,2.348-2.348
						h98.599l3.308-4.528l-3.308-4.494h-98.599c-6.27,0-11.369,5.101-11.369,11.37v124.968c0,6.269,5.1,11.369,11.369,11.369h98.599
						l3.308-4.336l-3.308-4.686H175.226z"/>
					<path style="fill:#7FF7F4;" d="M383.792,16.874c0-6.269-5.1-11.37-11.369-11.37h-98.598v9.022h98.598
						c1.294,0,2.348,1.053,2.348,2.348v124.968c0,1.294-1.054,2.348-2.348,2.348h-98.598v9.021h98.598
						c6.27,0,11.369-5.1,11.369-11.369V16.874z"/>
				</g>
				<g>
					<path style="fill:#F9F9F9;" d="M175.226,10.015c-3.788,0-6.858,3.07-6.858,6.858v124.968c0,3.788,3.07,6.858,6.858,6.858
						h98.599l14.435-94.24l-14.435-44.444H175.226z"/>
					<path style="fill:#EFEFEF;" d="M372.422,148.7c3.788,0,6.858-3.071,6.858-6.858V16.874c0-3.788-3.07-6.858-6.858-6.858h-98.598
						V148.7H372.422z"/>
				</g>
			</g>
		</g>
		<g>
			<path style="fill:#EF2200;" d="M355.475,24.812c0.077-0.243-0.058-0.501-0.3-0.578l-4.05-1.281
				c-0.116-0.037-0.242-0.026-0.351,0.03l-1.454,0.755c-0.165,0.086-0.262,0.263-0.246,0.449c0.016,0.186,0.143,0.343,0.32,0.399
				l2.232,0.706l-15.082,7.833l-19.817,8.769c-0.145,0.064-0.272,0.161-0.373,0.283L296.934,65.62l-19.204-5.507
				c-0.442-0.126-0.912,0.056-1.152,0.447l-19.8,32.161l-18.904,21.424l-19.112-29.063c-0.264-0.402-0.773-0.565-1.223-0.391
				l-19.847,7.688c-0.525,0.204-0.787,0.795-0.583,1.321c0.204,0.526,0.794,0.788,1.321,0.584l19.078-7.39l19.393,29.49
				c0.175,0.266,0.464,0.435,0.781,0.458c0.024,0.002,0.049,0.003,0.072,0.003c0.292,0,0.572-0.125,0.766-0.346l19.848-22.492
				c0.038-0.044,0.073-0.091,0.104-0.14l19.44-31.576l19.102,5.478c0.391,0.112,0.809-0.018,1.068-0.33l19.693-23.774l19.626-8.685
				c0.02-0.008,0.039-0.018,0.058-0.027l15.111-7.848l-0.707,2.233c-0.057,0.178,0,0.372,0.143,0.492s0.343,0.142,0.509,0.056
				l1.453-0.755c0.108-0.056,0.19-0.153,0.227-0.27L355.475,24.812z"/>
			<path style="fill:#D3D3D3;" d="M202.877,104.109h-9.632c-0.604,0-1.094,0.49-1.094,1.095v25.241c0,0.604,0.489,1.094,1.094,1.094
				h9.632c0.604,0,1.094-0.49,1.094-1.094v-25.241C203.971,104.6,203.482,104.109,202.877,104.109z"/>
			<path style="fill:#D3D3D3;" d="M222.724,96.422h-9.631c-0.604,0-1.095,0.49-1.095,1.094v32.929c0,0.604,0.49,1.094,1.095,1.094
				h9.631c0.604,0,1.094-0.49,1.094-1.094V97.516C223.818,96.912,223.328,96.422,222.724,96.422z"/>
			<path style="fill:#D3D3D3;" d="M242.571,126.601h-9.632c-0.604,0-1.094,0.49-1.094,1.095v2.75c0,0.604,0.489,1.094,1.094,1.094
				h9.632c0.604,0,1.094-0.49,1.094-1.094v-2.75C243.665,127.091,243.174,126.601,242.571,126.601z"/>
			<path style="fill:#D3D3D3;" d="M262.417,104.109h-9.632c-0.604,0-1.094,0.49-1.094,1.095v25.241c0,0.604,0.49,1.094,1.094,1.094
				h9.632c0.604,0,1.094-0.49,1.094-1.094v-25.241C263.511,104.6,263.022,104.109,262.417,104.109z"/>
			<path style="fill:#D3D3D3;" d="M283.358,72.968c0-0.604-0.49-1.095-1.094-1.095h-9.632c-0.604,0-1.094,0.49-1.094,1.095v57.478
				c0,0.604,0.489,1.094,1.094,1.094h9.632c0.604,0,1.094-0.49,1.094-1.094V72.968z"/>
			<path style="fill:#D3D3D3;" d="M302.111,77.564h-9.632c-0.604,0-1.094,0.49-1.094,1.095v51.786c0,0.604,0.489,1.094,1.094,1.094
				h9.632c0.604,0,1.094-0.49,1.094-1.094V78.659C303.205,78.055,302.715,77.564,302.111,77.564z"/>
			<path style="fill:#D3D3D3;" d="M323.051,54.7c0-0.604-0.49-1.095-1.094-1.095h-9.632c-0.604,0-1.095,0.49-1.095,1.095v75.745
				c0,0.604,0.49,1.094,1.095,1.094h9.632c0.604,0,1.094-0.49,1.094-1.094V54.7z"/>
			<path style="fill:#D3D3D3;" d="M342.898,45.918c0-0.604-0.49-1.094-1.095-1.094h-9.631c-0.604,0-1.094,0.49-1.094,1.094v84.527
				c0,0.604,0.489,1.094,1.094,1.094h9.631c0.604,0,1.095-0.49,1.095-1.094V45.918z"/>
			<circle style="fill:#FFAC27;" cx="198.062" cy="93.331" r="3.868"/>
			<circle style="fill:#FFAC27;" cx="217.908" cy="85.643" r="3.868"/>
			<circle style="fill:#FFAC27;" cx="237.755" cy="115.823" r="3.868"/>
			<circle style="fill:#FFAC27;" cx="257.602" cy="93.331" r="3.868"/>
			<circle style="fill:#FFAC27;" cx="277.448" cy="61.095" r="3.868"/>
			<circle style="fill:#FFAC27;" cx="297.295" cy="66.786" r="3.868"/>
			<circle style="fill:#FFAC27;" cx="317.142" cy="42.827" r="3.868"/>
			<circle style="fill:#FFAC27;" cx="336.988" cy="34.045" r="3.868"/>
		</g>
		<path style="fill:#D3D3D3;" d="M257.054,23.421h-63.809c-0.604,0-1.094,0.49-1.094,1.095v1.945c0,0.604,0.489,1.095,1.094,1.095
			h63.809c0.604,0,1.095-0.49,1.095-1.095v-1.945C258.149,23.911,257.659,23.421,257.054,23.421z"/>
		<path style="fill:#D3D3D3;" d="M257.054,31.081h-63.809c-0.604,0-1.094,0.49-1.094,1.094v1.945c0,0.604,0.489,1.094,1.094,1.094
			h63.809c0.604,0,1.095-0.49,1.095-1.094v-1.945C258.149,31.571,257.659,31.081,257.054,31.081z"/>
		<path style="fill:#D3D3D3;" d="M224.603,38.741h-31.357c-0.604,0-1.094,0.49-1.094,1.094v1.945c0,0.604,0.489,1.094,1.094,1.094
			h31.357c0.604,0,1.095-0.49,1.095-1.094v-1.945C225.698,39.231,225.208,38.741,224.603,38.741z"/>
	</g>
	<g>
		<g>
			<g>
				<path style="fill:#443328;" d="M169.077,342.476c0,0,0.052-1.632,4.005-1.128c3.951,0.5,6.484,1.043,7.953,0.836
					c1.469-0.211,1.469,3.262,1.216,3.385c-0.253,0.127-6.332,0.837-6.739,0.712C175.107,346.153,169.077,342.476,169.077,342.476z"
					/>
			</g>
			<g>
				<path style="fill:#3A2A21;" d="M167.804,348.274c0,0-1.358,1.069-0.711,3.955c0.298,1.045,3.516,0.711,10.862,3.596
					c7.345,2.883,23.624,4.676,28.146,0.39c0.9-0.854,2.035-4.392-1.936-4.686C200.194,351.237,167.804,348.274,167.804,348.274z"/>
			</g>
			<g>
				<path style="fill:#FFC08D;" d="M185.952,345.234c0,0.764-0.913,1.38-2.043,1.38h-9.922c-1.127,0-2.047-0.616-2.047-1.38v-10.622
					c0-0.76,0.92-1.377,2.047-1.377h9.922c1.13,0,2.043,0.617,2.043,1.377V345.234z"/>
			</g>
			<path style="fill:#EFEFEF;" d="M171.141,344.878c0,0.651,1.077,1.181,2.409,1.181h9.739c1.326,0,2.406-0.529,2.406-1.181v-2.448
				c0-0.651-1.08-1.18-2.406-1.18h-9.739c-1.332,0-2.409,0.528-2.409,1.18V344.878z"/>
			<g>
				<path style="fill:#643614;" d="M169.077,342.476c0,0-1.669,5.058-1.617,6.23c4.657,1.171,3.232,0.681,7.843,2.478
					c4.608,1.801,23.006,6.865,31.06,1.308c1.014-0.837-1.214-5.735-12.512-7.992c-2.182-0.71-5.469-3.572-6.734-5.078
					c-2.128-0.501-5.269,1.339-9.019,4.183C174.344,346.448,169.232,341.135,169.077,342.476z"/>
			</g>
			<g>
				<path style="fill:#EFEFEF;" d="M189.758,347.016c-0.011-0.018-0.736-1.016-0.65-2.385c-0.537,0.191-1.087,0.451-1.619,0.787
					c-0.099,0.063-0.22,0.072-0.33,0.029c-0.106-0.041-0.187-0.137-0.212-0.248c-0.147-0.662-0.186-1.289-0.106-1.887
					c-0.1,0.018-0.2,0.04-0.305,0.063c-0.731,0.154-1.565,0.329-2.528,0.514c-0.136,0.029-0.267-0.025-0.352-0.133
					c-0.082-0.107-0.094-0.249-0.034-0.369c1.408-2.698,4.598-2.906,4.729-2.92c0.141-0.008,0.273,0.066,0.336,0.189
					c0.064,0.121,0.049,0.271-0.039,0.379c-0.364,0.445-0.643,0.896-0.828,1.361c1.101-0.217,1.935-0.338,2.631-0.291
					c0.13,0.006,0.251,0.091,0.301,0.215c0.052,0.121,0.029,0.26-0.058,0.361c-0.271,0.314-0.468,0.623-0.604,0.926
					c1.234-0.293,2.165-0.289,2.23-0.289c0.195,0.004,0.353,0.16,0.35,0.355c-0.003,0.191-0.156,0.348-0.357,0.345
					c-0.021,0-1.106,0.003-2.467,0.376c-0.207,1.238,0.447,2.153,0.487,2.205c0.117,0.158,0.082,0.379-0.078,0.491
					c-0.051,0.038-0.11,0.059-0.17,0.066C189.963,347.17,189.836,347.119,189.758,347.016z M189.717,342.813
					c-0.575,0.049-1.267,0.169-2.128,0.344c-0.086,0.451-0.099,0.914-0.034,1.405c0.57-0.313,1.144-0.55,1.69-0.723
					C189.341,343.507,189.494,343.163,189.717,342.813z M187.582,341.301c-0.804,0.195-2.037,0.659-2.894,1.738
					c0.624-0.123,1.186-0.24,1.699-0.35c0.212-0.045,0.417-0.086,0.614-0.127C187.13,342.131,187.323,341.715,187.582,341.301z"/>
			</g>
		</g>
		<path style="fill:#0C6666;" d="M194.426,189.838v14.291c0,29.788-1.257,59.566-3.768,89.251l-3.363,39.776h-16.787l-1.728-16.361
			c-2.651-25.082-3.979-50.288-3.979-75.511v-15.027c0-3.55-2.876-6.424-6.425-6.424l-6.476-1.905l0.77-26.189l5.706-1.9H194.426z"
			/>
		<path style="fill:#095959;" d="M168.476,327.987c0-0.65,0.527-1.178,1.178-1.178h18.424c0.65,0,1.177,0.527,1.177,1.178v6.678
			c0,0.648-0.526,1.177-1.177,1.177h-18.424c-0.65,0-1.178-0.528-1.178-1.177V327.987z"/>
		<g>
			<g>
				<path style="fill:#443328;" d="M147.344,342.476c0,0-0.051-1.632-4.004-1.128c-3.95,0.5-6.482,1.043-7.953,0.836
					c-1.468-0.211-1.468,3.262-1.215,3.385c0.253,0.127,6.331,0.837,6.737,0.712C141.314,346.153,147.344,342.476,147.344,342.476z"
					/>
			</g>
			<g>
				<path style="fill:#443328;" d="M148.62,348.274c0,0,1.355,1.069,0.71,3.955c-0.298,1.045-3.517,0.711-10.862,3.596
					c-7.344,2.883-23.625,4.676-28.147,0.39c-0.898-0.854-2.033-4.392,1.938-4.686C116.229,351.237,148.62,348.274,148.62,348.274z"
					/>
			</g>
			<g>
				<g>
					<path style="fill:#FFCB99;" d="M130.47,345.234c0,0.764,0.914,1.38,2.045,1.38h9.921c1.127,0,2.047-0.616,2.047-1.38v-10.622
						c0-0.76-0.92-1.377-2.047-1.377h-9.921c-1.131,0-2.045,0.617-2.045,1.377V345.234z"/>
				</g>
			</g>
			<path style="fill:#F9F9F9;" d="M145.281,344.878c0,0.651-1.078,1.181-2.41,1.181h-9.737c-1.326,0-2.406-0.529-2.406-1.181v-2.448
				c0-0.651,1.08-1.18,2.406-1.18h9.737c1.332,0,2.41,0.528,2.41,1.18V344.878z"/>
			<g>
				<path style="fill:#72401F;" d="M147.344,342.476c0,0,1.67,5.058,1.618,6.23c-4.657,1.171-3.232,0.681-7.844,2.478
					c-4.608,1.801-23.005,6.865-31.059,1.308c-1.014-0.837,1.215-5.735,12.513-7.992c2.181-0.71,5.469-3.572,6.732-5.078
					c2.13-0.501,5.271,1.339,9.02,4.183C142.077,346.448,147.189,341.135,147.344,342.476z"/>
			</g>
			<g>
				<path style="fill:#F9F9F9;" d="M126.339,347.158c-0.06-0.008-0.121-0.028-0.169-0.066c-0.161-0.112-0.195-0.333-0.08-0.491
					c0.04-0.052,0.696-0.967,0.486-2.205c-1.36-0.373-2.445-0.376-2.466-0.376c-0.2,0.003-0.354-0.153-0.356-0.345
					c-0.003-0.195,0.155-0.352,0.349-0.355c0.066,0,0.997-0.004,2.231,0.289c-0.139-0.303-0.336-0.611-0.606-0.926
					c-0.085-0.102-0.107-0.24-0.056-0.361c0.05-0.124,0.169-0.209,0.301-0.215c0.694-0.047,1.528,0.074,2.631,0.291
					c-0.187-0.466-0.464-0.916-0.828-1.361c-0.088-0.107-0.104-0.258-0.039-0.379c0.063-0.123,0.194-0.197,0.335-0.189
					c0.132,0.014,3.321,0.222,4.728,2.92c0.061,0.12,0.048,0.262-0.034,0.369c-0.084,0.107-0.216,0.162-0.349,0.133
					c-0.965-0.185-1.797-0.359-2.529-0.514c-0.104-0.022-0.205-0.045-0.305-0.063c0.077,0.598,0.041,1.225-0.107,1.887
					c-0.026,0.111-0.104,0.207-0.213,0.248c-0.109,0.043-0.23,0.034-0.33-0.029c-0.529-0.336-1.082-0.596-1.617-0.787
					c0.084,1.369-0.641,2.367-0.651,2.385C126.586,347.119,126.458,347.17,126.339,347.158z M127.176,343.839
					c0.548,0.173,1.12,0.41,1.691,0.723c0.063-0.491,0.052-0.954-0.035-1.405c-0.861-0.175-1.553-0.295-2.127-0.344
					C126.928,343.163,127.081,343.507,127.176,343.839z M129.42,342.563c0.197,0.041,0.402,0.082,0.614,0.127
					c0.514,0.109,1.074,0.227,1.699,0.35c-0.854-1.079-2.09-1.543-2.895-1.738C129.098,341.715,129.292,342.131,129.42,342.563z"/>
			</g>
		</g>
		<path style="fill:#0A7070;" d="M122.33,189.838v14.291c0,29.788,1.255,59.566,3.768,89.251l3.363,39.776h16.787l1.728-16.361
			c2.649-25.082,3.977-50.288,3.977-75.511v-15.027c0-3.55,2.876-6.424,6.426-6.424v-29.995H122.33z"/>
		<path style="fill:#0C6666;" d="M148.279,327.987c0-0.65-0.526-1.178-1.177-1.178h-18.424c-0.65,0-1.178,0.527-1.178,1.178v6.678
			c0,0.648,0.527,1.177,1.178,1.177h18.424c0.65,0,1.177-0.528,1.177-1.177V327.987z"/>
		<path style="fill:#FF573B;" d="M122.33,88.433l-2.708,101.59c-0.038,1.366,0.478,2.691,1.432,3.671
			c0.953,0.98,2.264,1.535,3.63,1.535h20.265l0.559-4.473l12.871,0.509V82.726L122.33,88.433z"/>
		<path style="fill:#FC4129;" d="M194.426,88.433l-36.049-5.707v107.761l12.834,0.404l0.637,4.338h20.224
			c1.367,0,2.677-0.555,3.63-1.535c0.953-0.979,1.47-2.305,1.431-3.671L194.426,88.433z"/>
		<path style="fill:#095959;" d="M194.43,212.899c0,0-13.015-7.367-17.65-17.451c-4.012,2.483-5.527,5.248-5.527,5.248
			s3.997,12.307,23.037,17.742C194.748,216.385,194.43,212.899,194.43,212.899z"/>
		<g>
			<g>
				<path style="fill:#FF573B;" d="M123.758,88.488c-9.779-0.763-18.351,6.294-19.633,15.902l-9.767,51.315l18.064,3.706
					l12.137-34.321c0.101-0.275,0.234-0.586,0.389-0.924c2.238-4.898,6.436-15.754,21.286-11.783
					c3.632,0.971-2.176-4.511-5.623-9.366C134.029,93.751,133.893,89.279,123.758,88.488z"/>
				<path style="fill:#FF573B;" d="M125.484,103.936c1.597,1.741,1.482,4.442-0.261,6.041c-1.738,1.602-4.445,1.482-6.042-0.256
					c-1.598-1.743-1.48-4.448,0.259-6.044C121.18,102.081,123.889,102.194,125.484,103.936z"/>
			</g>
			<g>
				<path style="fill:#FFCB99;" d="M97.676,212.364l0.162,3.055c0.05,0.943,0.853,1.663,1.796,1.613
					c0.678-0.034,1.241-0.472,1.482-1.062c0,0,0.004-0.002,0.002,0.001c0.828-0.447,0.985,0.449,0.985,0.449
					c0.05,0.941,0.852,1.664,1.796,1.611c0.852-0.04,1.522-0.715,1.597-1.541c0,0,0.004,0,0.007,0.002
					c0.583-0.621,0.839,0.185,0.839,0.185s0.003-0.001,0.008-0.002c0.149,0.833,0.895,1.45,1.76,1.403
					c0.785-0.042,1.413-0.613,1.568-1.346c0.003,0,0.005,0,0.005,0c0.479-0.863,1.127-0.166,1.127-0.166h0.004
					c0.33,0.452,0.869,0.736,1.471,0.703c0.94-0.051,1.66-0.851,1.612-1.795c0.142-1.615,1.396-0.921,1.396-0.921
					s0-0.008-0.001-0.008c0.299,0.216,0.675,0.341,1.073,0.317c0.943-0.047,1.664-0.851,1.616-1.789l-0.154-2.879
					c0.539-11.307-2.964-9.594-4.628-11.496c-0.97-1.107-1.435-3.35-1.652-5.03c-0.158-1.214-0.505-20.197-0.505-20.197
					s-11.257,0.321-13.702,0.455c0.075,0.928,2.964,19.945,2.995,20.664c0.235,5.686-0.854,5.305-2.481,7.98
					C96.509,204.784,97.205,209.823,97.676,212.364z"/>
				<g>
					<path style="fill:#FF573B;" d="M112.571,156.94c-0.342-5.076-4.731-8.921-9.811-8.579c-5.076,0.339-8.915,4.729-8.578,9.81
						l1.799,26.904l18.391-1.229L112.571,156.94z"/>
					<path style="fill:#EF2200;" d="M115.877,177.908c-0.054-0.787-0.733-1.38-1.522-1.331l-19.442,1.299
						c-0.791,0.055-1.382,0.735-1.331,1.521l0.398,5.932c0.051,0.784,0.729,1.381,1.516,1.326l19.447-1.301
						c0.788-0.049,1.383-0.73,1.329-1.518L115.877,177.908z"/>
				</g>
				<path style="fill:#FF573B;" d="M106.287,157.361c0.104,1.608-1.111,2.996-2.714,3.103c-1.607,0.104-2.999-1.108-3.107-2.714
					c-0.105-1.608,1.112-2.995,2.715-3.104C104.788,154.539,106.176,155.753,106.287,157.361z"/>
			</g>
		</g>
		<g>
			<path style="fill:#FFC08D;" d="M286.875,91.276l0.555-0.68c0.633-0.779,0.514-1.93-0.269-2.562
				c-0.403-0.333-0.907-0.454-1.391-0.389l0.003-0.002c0,0-0.051,0.012-0.12,0.028c-0.055,0.008-0.115,0.02-0.169,0.03
				c-0.364,0.073-0.983,0.152-1.251-0.034c-0.376-0.3-0.163-0.858,0.049-1.234l0.044-0.063c0.084-0.104,0.153-0.208,0.21-0.319
				l-0.001-0.003l0,0c0.382-0.747,0.209-1.691-0.471-2.243c-0.733-0.594-1.791-0.519-2.438,0.142
				c-0.239,0.171-0.727,0.424-1.121,0.1c-0.293-0.237-0.238-0.602-0.103-0.916l0.431-0.61c0.636-0.779,0.519-1.927-0.262-2.565
				c-0.779-0.633-1.929-0.51-2.563,0.27c0,0-0.601,0.568-1.019,0.222c-0.36-0.292,0.027-0.904,0.2-1.142l6.435-8.457
				c0.633-0.781,0.519-1.927-0.263-2.564c-0.778-0.634-1.924-0.515-2.562,0.265l-11.589,14.243l0,0
				c-1.886,2.268-3.06,2.933-3.76,3.044l0.242-6.462c0.135-0.992-0.563-1.913-1.561-2.046c-0.997-0.132-1.912,0.562-2.046,1.557
				l-1.289,9.519c-0.011,0.062-0.012,0.125-0.019,0.179l-0.127,3.82c-0.261,3.375-1.044,5.463-1.766,6.712
				c-0.717,1.249-10.206,13.809-10.206,13.809s7.012,5.703,9.229,7.511c0.276-0.358,9.419-12.871,9.748-13.225
				c1.603-1.726,3.659-3.271,4.894-3.589c1.487-0.385,5.758-2.025,8.85-5.212C283.913,95.83,286.12,92.464,286.875,91.276z"/>
			<g>
				<path style="fill:#FC4129;" d="M180.815,94.413c6.617-7.241,17.697-7.945,25.2-1.808l42.198,30.79l-10.656,15.05l-32.315-16.762
					c-0.261-0.133-0.572-0.268-0.915-0.41c-4.981-2.045-15.464-7.104-23.591,5.943c-1.989,3.192-1.495-4.778-2.296-10.68
					C176.914,105.273,173.957,101.916,180.815,94.413z"/>
				<path style="fill:#FC4129;" d="M190.111,106.87c0.025,2.362,1.954,4.256,4.319,4.232c2.364-0.019,4.257-1.955,4.235-4.316
					c-0.024-2.364-1.958-4.259-4.319-4.236C191.986,102.575,190.085,104.509,190.111,106.87z"/>
			</g>
			<g>
				<g>
					<path style="fill:#FC4129;" d="M237.379,138.289c-4.077-3.043-4.913-8.818-1.869-12.897l16.134-21.608l14.765,11.027
						l-16.131,21.608C247.232,140.494,241.458,141.337,237.379,138.289z"/>
					<path style="fill:#D31E00;" d="M264.449,120.616c-0.472,0.631-1.365,0.762-2,0.29l-15.614-11.66
						c-0.633-0.473-0.761-1.367-0.291-1.997l3.556-4.762c0.472-0.631,1.365-0.761,1.996-0.29l15.617,11.662
						c0.634,0.469,0.763,1.364,0.292,1.996L264.449,120.616z"/>
				</g>
				<path style="fill:#FC4129;" d="M245.231,132.648c0.961-1.29,0.695-3.114-0.594-4.077c-1.29-0.963-3.116-0.699-4.08,0.592
					c-0.962,1.289-0.695,3.114,0.59,4.079C242.439,134.206,244.266,133.939,245.231,132.648z"/>
			</g>
		</g>
		<path style="fill:#0C6666;" d="M122.33,212.899c0,0,13.015-7.367,17.649-17.451c4.013,2.483,5.527,5.248,5.527,5.248
			s-3.996,12.307-23.036,17.742C122.011,216.385,122.33,212.899,122.33,212.899z"/>
		<g>
			<path style="fill:#EF2200;" d="M158.61,81.202c17.682,0.02,31.992,2.952,31.992,6.566c0,3.616-14.311,6.547-31.992,6.57V81.202z"
				/>
			<path style="fill:#EF2200;" d="M158.184,81.202c-17.683,0.02-31.991,2.952-31.991,6.566c0,3.616,14.309,6.547,31.991,6.57V81.202
				z"/>
			<path style="fill:#F9F9F9;" d="M142.006,85.24c-1.276,0.197-2.416,0.887-3.154,1.912c-0.737,1.028-1.009,2.304-0.757,3.53
				l3.157,15.227c2.841,13.714,4.273,27.667,4.273,41.655v44.096h12.87l6.264-16.523l-1.985-81.536l-4.278-10.872L142.006,85.24z"/>
			<path style="fill:#EFEFEF;" d="M174.789,85.24c1.277,0.197,2.415,0.887,3.151,1.912c0.739,1.028,1.013,2.304,0.759,3.53
				l-3.156,15.227c-2.842,13.714-4.273,27.667-4.273,41.655v44.096h-12.871V82.729L174.789,85.24z"/>
			<polygon style="fill:#F99F00;" points="138.81,113.261 158.387,113.261 166.946,109.649 158.387,106.867 138.81,106.867 			"/>
			<polygon style="fill:#F99F00;" points="142.935,127.754 158.387,127.754 168.372,124.387 158.387,121.358 142.935,121.358 			"/>
			<polygon style="fill:#F99F00;" points="145.262,142.245 158.387,142.245 168.372,139.007 158.387,135.851 145.262,135.851 			"/>
			<polygon style="fill:#F99F00;" points="145.584,156.738 158.387,156.738 166.946,153.748 158.387,150.34 145.584,150.34 			"/>
			<polygon style="fill:#F99F00;" points="145.526,171.229 158.387,171.229 166.946,168.07 158.387,164.833 145.526,164.833 			"/>
			<polygon style="fill:#F99F00;" points="145.584,185.72 158.387,185.72 168.372,182.633 158.387,179.326 145.584,179.326 			"/>
			<path style="fill:#EF2200;" d="M141.801,108.94l-5.078-25.021l-10.53,3.849c0,0-0.456,6.57,3.651,12.066
				c10.085,13.492,15.103,24.154,15.103,63.493v31.902c0.684,0,1.237-0.555,1.237-1.237V152.55
				C146.184,137.903,144.716,123.294,141.801,108.94z"/>
			<rect x="158.407" y="106.867" style="fill:#EF9900;" width="19.577" height="6.394"/>
			<rect x="158.407" y="121.358" style="fill:#EF9900;" width="15.453" height="6.396"/>
			<rect x="158.407" y="135.851" style="fill:#EF9900;" width="13.125" height="6.394"/>
			<rect x="158.407" y="150.34" style="fill:#EF9900;" width="12.805" height="6.397"/>
			<rect x="158.407" y="164.833" style="fill:#EF9900;" width="12.862" height="6.396"/>
			<rect x="158.407" y="179.326" style="fill:#EF9900;" width="12.805" height="6.395"/>
			<path style="fill:#EF2200;" d="M190.601,87.768l-10.53-3.849l-5.079,25.021c-2.912,14.354-4.381,28.963-4.381,43.609v41.442
				c0,0.683,0.554,1.237,1.237,1.237v-31.902c0-39.339,5.018-50,15.102-63.493C191.057,94.338,190.601,87.768,190.601,87.768z"/>
		</g>
		<g>
			<path style="fill:#FFC08D;" d="M149.512,76.961v5.389c0,0.946-0.665,1.758-1.592,1.942c-2.101,0.418-3.836,1.889-4.598,3.888
				c-0.761,2.004-0.439,4.254,0.852,5.963c3.362,4.45,8.618,7.065,14.195,7.065l4.279-14.976h0.007l-4.278-9.272H149.512z"/>
			<path style="fill:#FFB680;" d="M172.572,94.143c1.292-1.709,1.611-3.959,0.853-5.963c-0.762-1.999-2.499-3.47-4.6-3.888
				c-0.92-0.185-1.583-0.992-1.583-1.933v-5.398h-8.864v24.248C163.955,101.208,169.21,98.593,172.572,94.143z"/>
		</g>
		<g>
			<path style="fill:#FFC08D;" d="M137.134,41.819l-2.786-1.897c-0.481-0.329-1.086-0.424-1.645-0.259
				c-0.562,0.162-1.017,0.567-1.249,1.101c-1.19,2.772-1.352,5.879-0.461,8.759l0.651,2.104c0.32,2.791,0.631,3.931,2.108,5.236
				l0.419,0.189c0.59,0.266,1.277,0.171,1.774-0.244l2.03-1.701L137.134,41.819z"/>
			<path style="fill:#FFB680;" d="M184.911,40.764c-0.23-0.534-0.687-0.939-1.246-1.101c-0.559-0.165-1.163-0.07-1.646,0.259
				l-2.785,1.897l-0.845,13.289l2.031,1.701c0.495,0.415,1.185,0.51,1.775,0.244l0.418-0.189c1.477-1.305,1.79-2.445,2.108-5.236
				l0.652-2.104C186.267,46.643,186.102,43.536,184.911,40.764z"/>
			<path style="fill:#FFCB99;" d="M145.213,15.286c-2.659,0-7.63,1.5-8.819,3.878l-0.966,4.472
				c-1.643,3.287-1.228,6.273-1.228,9.949l1.272,18.459c0,5.876,2.986,10.352,6.206,15.266l1.933,2.948
				c3.249,4.963,6.242,7.953,12.175,7.953h2.567l13.349-59.431l-13.349-3.494H145.213z"/>
			<g>
				<path style="fill:#FFC08D;" d="M171.5,15.286c2.655,0,5.722,1.5,6.91,3.878l2.236,4.472c1.643,3.287,1.862,6.273,1.862,9.949
					l-1.272,18.459c0,5.876-2.985,10.352-6.204,15.266l-1.934,2.948c-3.25,4.963-6.24,7.953-12.174,7.953h-2.57V15.286H171.5z"/>
			</g>
			<g>
				<g>
					<circle style="fill:#282828;" cx="146.228" cy="43.04" r="2.49"/>
					<circle style="fill:#F9F9F9;" cx="145.527" cy="42.324" r="0.795"/>
				</g>
				<g>
					<circle style="fill:#282828;" cx="170.169" cy="43.04" r="2.49"/>
					<circle style="fill:#F9F9F9;" cx="169.47" cy="42.324" r="0.795"/>
				</g>
			</g>
			<g>
				<path style="fill:#643614;" d="M177.124,37.222c0.075-0.14,0.093-0.304,0.046-0.455c-0.049-0.151-0.156-0.277-0.299-0.348
					l-3.187-1.592c-1.274-0.635-2.732-0.785-4.107-0.416l-5.35,1.427c-0.333,0.089-0.602,0.329-0.728,0.648
					c-0.123,0.319-0.088,0.68,0.095,0.968l0.343,0.542c0.315,0.492,0.942,0.684,1.478,0.448l3.381-1.481
					c1.556-0.684,3.317-0.72,4.898-0.104l2.37,0.926c0.355,0.142,0.759-0.007,0.941-0.346L177.124,37.222z"/>
				<path style="fill:#72401F;" d="M152.944,37.455c0.184-0.289,0.22-0.649,0.095-0.968c-0.126-0.319-0.396-0.559-0.727-0.648
					l-5.352-1.427c-1.374-0.369-2.834-0.219-4.106,0.416l-3.188,1.592c-0.139,0.07-0.246,0.197-0.294,0.348
					c-0.049,0.151-0.034,0.315,0.043,0.455l0.117,0.217c0.183,0.339,0.586,0.488,0.943,0.346l2.37-0.926
					c1.58-0.617,3.343-0.58,4.897,0.104l3.379,1.481c0.537,0.236,1.166,0.044,1.479-0.448L152.944,37.455z"/>
			</g>
			<path style="fill:#72401F;" d="M158.354,60.931c0,0-3.365-0.676-8.826,0.223c-2.429,0.403-14.051,2.331-14.051-10.652
				c0,0-0.727-9.092-0.727-12.106l0,0c0.01-12.915,0.303-11,1.791-14.673c0.354-0.868,0.571-1.78,1.299-2.366l0.045-0.036
				c1.566-1.256,3.612-1.768,5.589-1.392l1.465,0.279c4.433,0.84,8.927,1.226,13.415,1.163l4.754-1.173l-0.306-15.877L158.354,2.9
				c-5.566-0.838-11.429-0.393-16.645,2.427c-3.317,1.795-7.596,5.405-7.596,12.842v19.046l-0.02,16.168
				c-0.003,4.042,0.989,8.022,2.898,11.584l4.286,8.009c2.109,3.939,6.216,6.399,10.687,6.399h6.389l4.022-1.165l-0.845-16.543
				L158.354,60.931z"/>
			<path style="fill:#643614;" d="M179.45,12.325c-0.485-0.081-0.935-0.294-1.304-0.625c-3.81-3.41-11.464-7.546-19.792-8.8v18.471
				c4.672-0.065,9.337-0.619,13.916-1.665l2.684-0.615c0.738-0.167,1.514-0.005,2.121,0.449c1.572,1.17,3.061,2.974,3.247,3.531
				c1.261,3.768,1.696,3.054,1.713,15.406c0,3.236-0.804,12.024-0.804,12.024c0,12.983-11.62,11.055-14.051,10.652
				c-5.46-0.899-8.826-0.223-8.826-0.223v18.445h6.391c4.469,0,8.573-2.46,10.686-6.399l4.307-8.048
				c1.895-3.539,2.891-7.487,2.899-11.5l0.033-15.468l0.001-0.003V19.395C182.67,14.377,181.498,12.662,179.45,12.325z"/>
			<g>
				<path style="fill:#FFCB99;" d="M154.116,58.39c-0.079,0.552-0.131,0.934-0.155,1.113c-0.371,0.181-0.614,0.484-0.614,0.83
					c0,0.552,0.627,0.998,1.403,0.998c0.121,0,0.239-0.009,0.353-0.03c0.275-0.054,0.563-0.039,0.833,0.045
					c0.673,0.205,1.472,0.325,2.331,0.325c0.029,0,0.055-0.003,0.081-0.003l1.378-2.842L154.116,58.39z"/>
				<path style="fill:#FFC08D;" d="M162.737,59.503c-0.024-0.179-0.076-0.561-0.155-1.113h-4.234v3.278
					c0.029,0,0.057,0.003,0.083,0.003c0.859,0,1.658-0.12,2.332-0.325c0.269-0.084,0.556-0.1,0.834-0.045
					c0.111,0.021,0.229,0.03,0.352,0.03c0.776,0,1.403-0.446,1.403-0.998C163.351,59.987,163.108,59.684,162.737,59.503z"/>
			</g>
			<path style="fill:#F4A178;" d="M158.354,68.176c-2.394,0-4.154-0.457-6.432-1.375l-0.215-0.085
				c-0.479-0.193-0.709-0.736-0.519-1.214c0.19-0.478,0.734-0.709,1.212-0.517c0,0,0.161,0.068,0.215,0.087
				c4.266,1.354,7.346,1.476,11.474,0l0.216-0.087c0.478-0.192,1.021,0.039,1.214,0.517c0.19,0.479-0.04,1.021-0.52,1.214
				l-0.214,0.085C162.506,67.719,160.748,68.176,158.354,68.176z"/>
		</g>
		<circle style="fill:#F9F9F9;" cx="138.749" cy="153.539" r="2.07"/>
		<circle style="fill:#F9F9F9;" cx="138.749" cy="168.12" r="2.07"/>
		<path style="fill:#F9F9F9;" d="M140.819,182.698c0,1.142-0.926,2.07-2.07,2.07c-1.144,0-2.07-0.929-2.07-2.07
			c0-1.141,0.927-2.068,2.07-2.068C139.893,180.629,140.819,181.557,140.819,182.698z"/>
		<path style="fill:#EF2200;" d="M131.421,158.645c0-0.625-0.506-1.135-1.134-1.135h-9.589c-0.904,0-1.638,0.736-1.638,1.641v2.704
			c0,0.905,0.733,1.638,1.638,1.638h5.874C129.251,163.492,131.421,161.323,131.421,158.645z"/>
		<path style="fill:#D31E00;" d="M185.908,157.509h9.589c0.904,0,1.638,0.736,1.638,1.641v2.704c0,0.905-0.733,1.638-1.638,1.638
			h-5.874c-2.68,0-4.85-2.169-4.85-4.848C184.773,158.019,185.28,157.509,185.908,157.509z"/>
	</g>
	<g>
		<path style="fill:#F9F9F9;" d="M123.471,61.416c0.462,0.173,0.981,0.018,1.273-0.379c0.291-0.397,0.284-0.939-0.019-1.328
			l-6.952-8.931c-3.862-4.961-5.959-11.069-5.959-17.356V9.07c0-4.484-3.636-8.12-8.12-8.12H9.07c-4.484,0-8.12,3.635-8.12,8.12
			v70.945c0,4.484,3.635,8.119,8.12,8.119h94.625c4.484,0,8.12-3.635,8.12-8.119V63.154c0-1.388,0.68-2.687,1.819-3.477
			s2.595-0.972,3.895-0.485L123.471,61.416z"/>
		<path style="fill:#636E75;" d="M125.51,61.6c0.541-0.736,0.527-1.754-0.034-2.475l-6.952-8.931
			c-3.714-4.77-5.759-10.727-5.759-16.772V9.07c0-5.001-4.069-9.07-9.07-9.07H9.07C4.069,0,0,4.069,0,9.07v70.945
			c0,5.001,4.069,9.069,9.07,9.069h94.625c5.001,0,9.07-4.068,9.07-9.069V63.154c0-1.076,0.527-2.083,1.411-2.696
			c0.875-0.607,2.021-0.75,3.02-0.377l5.942,2.225c0.231,0.086,0.474,0.13,0.719,0.13C124.507,62.436,125.125,62.123,125.51,61.6z
			 M123.976,60.292c0.041,0.053,0.042,0.127,0.003,0.182c-0.04,0.053-0.112,0.075-0.175,0.052l-5.942-2.225
			c-0.583-0.218-1.194-0.329-1.816-0.329c-1.061,0-2.081,0.32-2.952,0.924c-1.396,0.968-2.229,2.559-2.229,4.258v16.861
			c0,3.953-3.217,7.169-7.17,7.169H9.07c-3.953,0-7.169-3.216-7.169-7.169V9.07C1.9,5.117,5.117,1.9,9.07,1.9h94.625
			c3.953,0,7.17,3.216,7.17,7.169v24.352c0,6.466,2.188,12.837,6.159,17.939L123.976,60.292z"/>
	</g>
	<g>
		<g>
			<path style="fill-rule:evenodd;clip-rule:evenodd;fill:#7FF7F4;" d="M54.946,21.549h-1.394c-6.775,0-13.213,2.531-18.121,7.22
				c-0.095,0.094-0.189,0.165-0.284,0.266l-0.168,0.154c-4.976,4.988-7.723,11.572-7.723,18.56c0,6.989,2.747,13.578,7.723,18.562
				l0.95,0.844L54.946,48.24V21.549z"/>
			<path style="fill-rule:evenodd;clip-rule:evenodd;fill:#00CC00;" d="M78.262,29.003L58.32,48.938l19.942,19.936
				c0.15-0.161,0.329-0.309,0.48-0.473c4.832-5.063,7.822-11.912,7.822-19.462c0-7.552-2.99-14.401-7.822-19.468
				C78.591,29.308,78.413,29.158,78.262,29.003L78.262,29.003z"/>
			<path style="fill-rule:evenodd;clip-rule:evenodd;fill:#FFAC27;" d="M36.454,69.973c0.155,0.158,0.3,0.333,0.468,0.495
				c5.081,4.835,11.939,7.825,19.505,7.825c0.323,0,0.646-0.038,0.967-0.046c7.431-0.25,14.107-3.367,19.017-8.273L56.427,49.997
				L36.454,69.973L36.454,69.973z"/>
			<path style="fill-rule:evenodd;clip-rule:evenodd;fill:#0066CC;" d="M58.175,19.054c7.431,0.251,14.249,3.37,19.162,8.275
				L57.488,47.306v-28.3C57.488,19.006,57.855,19.046,58.175,19.054L58.175,19.054z"/>
		</g>
		<g>
			<g>
				<path style="fill:#D3D3D3;" d="M24.625,23.585H9.38c-0.234,0-0.424,0.189-0.424,0.423v0.753c0,0.234,0.189,0.423,0.424,0.423
					h15.244c0.233,0,0.423-0.189,0.423-0.423v-0.753C25.048,23.774,24.858,23.585,24.625,23.585z"/>
				<path style="fill:#D3D3D3;" d="M24.625,26.549H9.38c-0.234,0-0.424,0.189-0.424,0.423v0.753c0,0.234,0.189,0.423,0.424,0.423
					h15.244c0.233,0,0.423-0.189,0.423-0.423v-0.753C25.048,26.739,24.858,26.549,24.625,26.549z"/>
				<path style="fill:#D3D3D3;" d="M18.83,29.514H9.38c-0.234,0-0.424,0.189-0.424,0.423v0.753c0,0.234,0.189,0.423,0.424,0.423
					h9.449c0.234,0,0.423-0.189,0.423-0.423v-0.753C19.253,29.703,19.063,29.514,18.83,29.514z"/>
			</g>
			<circle style="fill:#7FF7F4;" cx="11.837" cy="19.011" r="2.881"/>
		</g>
		<g>
			<g>
				<path style="fill:#D3D3D3;" d="M27.521,72.987H12.277c-0.234,0-0.423,0.19-0.423,0.424v0.753c0,0.233,0.189,0.423,0.423,0.423
					h15.244c0.234,0,0.424-0.19,0.424-0.423v-0.753C27.945,73.177,27.755,72.987,27.521,72.987z"/>
				<path style="fill:#D3D3D3;" d="M27.521,75.952H12.277c-0.234,0-0.423,0.189-0.423,0.423v0.753c0,0.234,0.189,0.423,0.423,0.423
					h15.244c0.234,0,0.424-0.189,0.424-0.423v-0.753C27.945,76.142,27.755,75.952,27.521,75.952z"/>
				<path style="fill:#D3D3D3;" d="M21.727,78.916h-9.45c-0.234,0-0.423,0.19-0.423,0.424v0.753c0,0.234,0.189,0.423,0.423,0.423
					h9.45c0.234,0,0.423-0.189,0.423-0.423V79.34C22.15,79.106,21.961,78.916,21.727,78.916z"/>
			</g>
			<circle style="fill:#FFAC27;" cx="14.735" cy="68.414" r="2.881"/>
		</g>
		<g>
			<g>
				<path style="fill:#D3D3D3;" d="M74.255,16.093h15.244c0.234,0,0.424,0.19,0.424,0.424v0.752c0,0.234-0.189,0.424-0.424,0.424
					H74.255c-0.234,0-0.423-0.189-0.423-0.424v-0.752C73.832,16.283,74.021,16.093,74.255,16.093z"/>
				<path style="fill:#D3D3D3;" d="M74.255,19.058h15.244c0.234,0,0.424,0.189,0.424,0.423v0.753c0,0.234-0.189,0.423-0.424,0.423
					H74.255c-0.234,0-0.423-0.189-0.423-0.423v-0.753C73.832,19.248,74.021,19.058,74.255,19.058z"/>
				<path style="fill:#D3D3D3;" d="M80.05,22.022h9.448c0.234,0,0.424,0.19,0.424,0.424v0.752c0,0.234-0.189,0.424-0.424,0.424
					H80.05c-0.234,0-0.424-0.189-0.424-0.424v-0.752C79.626,22.212,79.816,22.022,80.05,22.022z"/>
			</g>
			<circle style="fill:#0066CC;" cx="87.042" cy="11.52" r="2.88"/>
		</g>
		<g>
			<g>
				<path style="fill:#D3D3D3;" d="M90.727,47.269h15.244c0.234,0,0.424,0.189,0.424,0.423v0.753c0,0.234-0.189,0.423-0.424,0.423
					H90.727c-0.233,0-0.423-0.189-0.423-0.423v-0.753C90.304,47.458,90.494,47.269,90.727,47.269z"/>
				<path style="fill:#D3D3D3;" d="M90.727,50.233h15.244c0.234,0,0.424,0.189,0.424,0.423v0.753c0,0.234-0.189,0.423-0.424,0.423
					H90.727c-0.233,0-0.423-0.189-0.423-0.423v-0.753C90.304,50.423,90.494,50.233,90.727,50.233z"/>
				<path style="fill:#D3D3D3;" d="M96.522,53.198h9.449c0.234,0,0.424,0.189,0.424,0.423v0.753c0,0.234-0.189,0.423-0.424,0.423
					h-9.449c-0.233,0-0.423-0.189-0.423-0.423v-0.753C96.099,53.387,96.289,53.198,96.522,53.198z"/>
			</g>
			<circle style="fill:#00CC00;" cx="103.515" cy="42.695" r="2.88"/>
		</g>
	</g>
</g>
</svg>
