<?xml version="1.0" encoding="utf-8"?>
<!-- Generator: Adobe Illustrator 16.0.0, SVG Export Plug-In . SVG Version: 6.00 Build 0)  -->
<!DOCTYPE svg PUBLIC "-//W3C//DTD SVG 1.1//EN" "http://www.w3.org/Graphics/SVG/1.1/DTD/svg11.dtd">
<svg version="1.1" xmlns="http://www.w3.org/2000/svg" xmlns:xlink="http://www.w3.org/1999/xlink" x="0px" y="0px" width="970px"
	 height="100px" viewBox="0 0 970 100" style="enable-background:new 0 0 970 100;" xml:space="preserve">
<g id="Layer_1">
	<g>
		<rect x="18" y="21.504" style="fill:#A7CB8D;" width="300.738" height="46.264"/>
	</g>
	<g>
		<rect x="334.964" y="21.504" style="fill:#01669E;" width="300.738" height="47.742"/>
	</g>
	<g>
		<rect x="651.929" y="21.504" style="fill:#A0C410;" width="300.738" height="46.264"/>
	</g>
</g>
<g id="Layer_2">
	<g>
		<path d="M81.676,38.464v0.645c1.002-1.237,2.044-2.145,3.125-2.725c1.081-0.579,2.305-0.869,3.672-0.869
			c1.641,0,3.151,0.423,4.531,1.27c1.38,0.847,2.471,2.083,3.271,3.711c0.801,1.628,1.201,3.555,1.201,5.781
			c0,1.641-0.231,3.148-0.693,4.521c-0.462,1.374-1.097,2.526-1.904,3.458c-0.808,0.931-1.761,1.646-2.861,2.148
			c-1.101,0.5-2.282,0.752-3.545,0.752c-1.523,0-2.803-0.307-3.838-0.918c-1.035-0.612-2.021-1.511-2.959-2.695v8.008
			c0,2.344-0.853,3.516-2.559,3.516c-1.003,0-1.667-0.303-1.992-0.908c-0.326-0.605-0.488-1.488-0.488-2.646V38.503
			c0-1.016,0.221-1.774,0.664-2.275c0.442-0.501,1.048-0.752,1.816-0.752c0.755,0,1.37,0.257,1.846,0.771
			C81.438,36.762,81.676,37.501,81.676,38.464z M92.125,46.218c0-1.406-0.215-2.614-0.645-3.623
			c-0.43-1.009-1.025-1.784-1.787-2.324c-0.762-0.54-1.605-0.811-2.529-0.811c-1.472,0-2.712,0.58-3.721,1.738
			c-1.009,1.159-1.514,2.865-1.514,5.117c0,2.123,0.501,3.773,1.504,4.952c1.002,1.178,2.246,1.768,3.73,1.768
			c0.885,0,1.706-0.258,2.461-0.771c0.755-0.515,1.36-1.286,1.816-2.315C91.897,48.92,92.125,47.677,92.125,46.218z"/>
		<path d="M104.449,32.996c-0.742,0-1.377-0.228-1.904-0.684c-0.527-0.456-0.791-1.1-0.791-1.934c0-0.755,0.27-1.377,0.811-1.865
			c0.54-0.488,1.168-0.732,1.885-0.732c0.69,0,1.302,0.222,1.836,0.664c0.534,0.443,0.801,1.087,0.801,1.934
			c0,0.82-0.261,1.462-0.781,1.924C105.784,32.765,105.165,32.996,104.449,32.996z M107.086,38.503v15.411
			c0,1.067-0.254,1.875-0.762,2.422s-1.152,0.82-1.934,0.82s-1.416-0.281-1.904-0.84c-0.488-0.561-0.732-1.361-0.732-2.402V38.66
			c0-1.055,0.244-1.849,0.732-2.383c0.488-0.534,1.123-0.801,1.904-0.801s1.426,0.267,1.934,0.801
			C106.832,36.811,107.086,37.553,107.086,38.503z"/>
		<path d="M112.594,53.914V30.789c0-1.067,0.237-1.875,0.713-2.422c0.475-0.547,1.116-0.82,1.924-0.82
			c0.807,0,1.458,0.271,1.953,0.811c0.495,0.541,0.742,1.351,0.742,2.432v23.125c0,1.08-0.251,1.891-0.752,2.432
			c-0.501,0.539-1.149,0.811-1.943,0.811c-0.781,0-1.416-0.281-1.904-0.84C112.838,55.756,112.594,54.955,112.594,53.914z"/>
		<path d="M143.395,46.316c0,1.589-0.248,3.054-0.742,4.395c-0.495,1.341-1.211,2.494-2.148,3.458
			c-0.938,0.963-2.058,1.702-3.359,2.217c-1.302,0.514-2.767,0.771-4.395,0.771c-1.615,0-3.066-0.262-4.355-0.781
			c-1.289-0.521-2.406-1.267-3.35-2.236c-0.944-0.971-1.66-2.116-2.148-3.438c-0.488-1.321-0.732-2.783-0.732-4.385
			c0-1.614,0.247-3.092,0.742-4.434c0.495-1.341,1.204-2.487,2.129-3.438c0.924-0.95,2.044-1.683,3.359-2.197
			c1.315-0.514,2.767-0.771,4.355-0.771c1.614,0,3.079,0.261,4.395,0.781c1.315,0.521,2.441,1.263,3.379,2.227
			c0.938,0.964,1.65,2.109,2.139,3.438S143.395,44.714,143.395,46.316z M138.043,46.316c0-2.174-0.479-3.867-1.436-5.078
			s-2.243-1.816-3.857-1.816c-1.042,0-1.96,0.271-2.754,0.811c-0.794,0.541-1.406,1.338-1.836,2.393s-0.645,2.285-0.645,3.691
			c0,1.394,0.211,2.611,0.635,3.652c0.423,1.042,1.028,1.839,1.816,2.393c0.788,0.553,1.715,0.83,2.783,0.83
			c1.614,0,2.9-0.609,3.857-1.826C137.564,50.147,138.043,48.464,138.043,46.316z"/>
		<path d="M147.887,35.945h0.586v-3.203c0-0.859,0.022-1.533,0.068-2.021c0.045-0.488,0.172-0.908,0.381-1.26
			c0.208-0.364,0.508-0.661,0.898-0.889c0.391-0.228,0.827-0.342,1.309-0.342c0.677,0,1.289,0.254,1.836,0.762
			c0.364,0.339,0.596,0.752,0.693,1.24s0.146,1.182,0.146,2.08v3.633h1.953c0.755,0,1.331,0.179,1.729,0.537
			c0.397,0.358,0.596,0.817,0.596,1.377c0,0.716-0.283,1.218-0.85,1.504c-0.566,0.287-1.377,0.43-2.432,0.43h-0.996v9.805
			c0,0.833,0.029,1.475,0.088,1.924s0.215,0.813,0.469,1.094c0.254,0.279,0.667,0.42,1.24,0.42c0.313,0,0.735-0.056,1.27-0.166
			c0.534-0.111,0.95-0.166,1.25-0.166c0.43,0,0.817,0.172,1.162,0.518c0.345,0.345,0.518,0.771,0.518,1.279
			c0,0.859-0.469,1.517-1.406,1.973c-0.938,0.455-2.285,0.684-4.043,0.684c-1.667,0-2.93-0.281-3.789-0.84
			c-0.859-0.561-1.423-1.335-1.689-2.324c-0.267-0.99-0.4-2.312-0.4-3.965V39.792h-0.703c-0.769,0-1.354-0.182-1.758-0.547
			c-0.404-0.364-0.605-0.827-0.605-1.387c0-0.56,0.211-1.019,0.635-1.377C146.464,36.124,147.079,35.945,147.887,35.945z"/>
		<path d="M161.324,35.945h1.27v-1.602c0-1.667,0.211-2.991,0.635-3.975c0.423-0.983,1.139-1.699,2.148-2.148
			c1.009-0.449,2.393-0.674,4.15-0.674c3.112,0,4.668,0.762,4.668,2.285c0,0.495-0.163,0.918-0.488,1.27
			c-0.326,0.352-0.71,0.527-1.152,0.527c-0.208,0-0.566-0.039-1.074-0.117s-0.938-0.117-1.289-0.117
			c-0.964,0-1.582,0.283-1.855,0.85s-0.41,1.377-0.41,2.432v1.27h1.309c2.031,0,3.047,0.612,3.047,1.836
			c0,0.873-0.271,1.426-0.811,1.66c-0.541,0.234-1.286,0.352-2.236,0.352h-1.309v14.122c0,1.055-0.251,1.858-0.752,2.412
			c-0.501,0.553-1.149,0.83-1.943,0.83c-0.755,0-1.384-0.277-1.885-0.83c-0.501-0.554-0.752-1.357-0.752-2.412V39.792h-1.465
			c-0.794,0-1.406-0.179-1.836-0.537c-0.43-0.358-0.645-0.823-0.645-1.396C158.648,36.583,159.54,35.945,161.324,35.945z"/>
		<path d="M188.023,54.148c-1.289,1.002-2.536,1.754-3.74,2.256c-1.205,0.5-2.556,0.752-4.053,0.752
			c-1.367,0-2.568-0.271-3.604-0.811c-1.035-0.541-1.833-1.273-2.393-2.197c-0.56-0.925-0.84-1.928-0.84-3.008
			c0-1.458,0.462-2.702,1.387-3.731c0.924-1.028,2.194-1.719,3.809-2.07c0.338-0.078,1.178-0.254,2.52-0.527
			c1.341-0.273,2.49-0.524,3.447-0.752c0.957-0.228,1.995-0.504,3.115-0.83c-0.065-1.406-0.349-2.438-0.85-3.096
			c-0.501-0.657-1.54-0.986-3.115-0.986c-1.354,0-2.373,0.189-3.057,0.566c-0.684,0.378-1.27,0.944-1.758,1.699
			c-0.488,0.755-0.833,1.253-1.035,1.494c-0.202,0.241-0.635,0.361-1.299,0.361c-0.599,0-1.117-0.192-1.553-0.576
			c-0.437-0.384-0.654-0.875-0.654-1.475c0-0.938,0.332-1.849,0.996-2.734c0.664-0.885,1.699-1.614,3.105-2.188
			c1.406-0.573,3.157-0.859,5.254-0.859c2.344,0,4.186,0.277,5.527,0.83c1.341,0.554,2.288,1.429,2.842,2.627
			c0.553,1.198,0.83,2.787,0.83,4.766c0,1.25-0.003,2.312-0.01,3.184c-0.007,0.873-0.017,1.843-0.029,2.91
			c0,1.003,0.166,2.047,0.498,3.135c0.332,1.087,0.498,1.787,0.498,2.1c0,0.547-0.257,1.045-0.771,1.494
			c-0.515,0.449-1.097,0.674-1.748,0.674c-0.547,0-1.087-0.258-1.621-0.771C189.188,55.87,188.622,55.125,188.023,54.148z
			 M187.672,46.433c-0.781,0.287-1.917,0.589-3.408,0.908c-1.491,0.319-2.523,0.554-3.096,0.703c-0.573,0.15-1.12,0.443-1.641,0.879
			c-0.521,0.437-0.781,1.045-0.781,1.826c0,0.807,0.306,1.495,0.918,2.061c0.612,0.566,1.413,0.85,2.402,0.85
			c1.055,0,2.028-0.231,2.92-0.693c0.892-0.463,1.546-1.059,1.963-1.787c0.481-0.808,0.723-2.136,0.723-3.985V46.433z"/>
		<path d="M215.484,50.183c0,1.471-0.358,2.731-1.074,3.78c-0.716,1.048-1.774,1.842-3.174,2.383
			c-1.4,0.539-3.103,0.811-5.107,0.811c-1.914,0-3.555-0.293-4.922-0.879s-2.376-1.318-3.027-2.197
			c-0.651-0.879-0.977-1.762-0.977-2.646c0-0.586,0.208-1.087,0.625-1.504c0.417-0.417,0.944-0.625,1.582-0.625
			c0.56,0,0.989,0.137,1.289,0.41c0.299,0.273,0.586,0.658,0.859,1.152c0.547,0.951,1.201,1.661,1.963,2.129s1.8,0.703,3.115,0.703
			c1.067,0,1.943-0.238,2.627-0.713c0.684-0.476,1.025-1.02,1.025-1.631c0-0.938-0.355-1.622-1.064-2.051
			c-0.71-0.43-1.878-0.84-3.506-1.23c-1.836-0.456-3.33-0.934-4.482-1.436c-1.152-0.501-2.074-1.162-2.764-1.982
			c-0.69-0.82-1.035-1.829-1.035-3.027c0-1.067,0.319-2.077,0.957-3.027c0.638-0.95,1.579-1.709,2.822-2.275
			c1.243-0.566,2.744-0.85,4.502-0.85c1.38,0,2.62,0.144,3.721,0.43c1.1,0.287,2.018,0.671,2.754,1.152
			c0.735,0.482,1.295,1.016,1.68,1.602c0.384,0.586,0.576,1.159,0.576,1.719c0,0.612-0.205,1.113-0.615,1.504
			s-0.993,0.586-1.748,0.586c-0.547,0-1.013-0.156-1.396-0.469c-0.384-0.313-0.824-0.781-1.318-1.406
			c-0.404-0.521-0.879-0.938-1.426-1.25s-1.289-0.469-2.227-0.469c-0.964,0-1.765,0.205-2.402,0.615
			c-0.638,0.41-0.957,0.921-0.957,1.533c0,0.56,0.234,1.019,0.703,1.377c0.469,0.358,1.1,0.654,1.895,0.889
			c0.794,0.234,1.888,0.521,3.281,0.859c1.653,0.404,3.004,0.886,4.053,1.445c1.048,0.56,1.842,1.221,2.383,1.982
			C215.214,48.337,215.484,49.207,215.484,50.183z"/>
		<path d="M234.879,47.625h-10.43c0.013,1.211,0.257,2.279,0.732,3.203c0.475,0.924,1.106,1.622,1.895,2.09
			c0.788,0.469,1.657,0.703,2.607,0.703c0.638,0,1.221-0.075,1.748-0.225c0.527-0.15,1.038-0.385,1.533-0.703
			c0.495-0.319,0.95-0.661,1.367-1.025c0.417-0.365,0.957-0.86,1.621-1.485c0.273-0.234,0.664-0.352,1.172-0.352
			c0.547,0,0.989,0.15,1.328,0.449c0.338,0.3,0.508,0.723,0.508,1.27c0,0.481-0.189,1.045-0.566,1.689
			c-0.378,0.645-0.947,1.263-1.709,1.855c-0.762,0.592-1.719,1.084-2.871,1.475s-2.478,0.586-3.975,0.586
			c-3.425,0-6.087-0.977-7.988-2.93c-1.901-1.953-2.852-4.603-2.852-7.95c0-1.575,0.234-3.037,0.703-4.385s1.152-2.503,2.051-3.467
			c0.898-0.963,2.005-1.702,3.32-2.217c1.315-0.514,2.773-0.771,4.375-0.771c2.083,0,3.87,0.439,5.361,1.318
			c1.491,0.879,2.607,2.015,3.35,3.408c0.742,1.394,1.113,2.813,1.113,4.258c0,1.341-0.384,2.21-1.152,2.607
			C237.353,47.426,236.272,47.625,234.879,47.625z M224.449,44.597h9.668c-0.13-1.823-0.622-3.187-1.475-4.092
			c-0.853-0.905-1.976-1.357-3.369-1.357c-1.328,0-2.419,0.459-3.271,1.377C225.149,41.443,224.631,42.8,224.449,44.597z"/>
	</g>
	<g>
		<path d="M663.545,41.477l3.67,10.292l3.951-10.741c0.309-0.863,0.613-1.475,0.912-1.834c0.299-0.359,0.753-0.54,1.361-0.54
			c0.576,0,1.065,0.194,1.47,0.581c0.403,0.388,0.606,0.836,0.606,1.345c0,0.199-0.037,0.432-0.108,0.697
			c-0.072,0.266-0.155,0.515-0.249,0.747s-0.202,0.498-0.324,0.797l-4.35,10.792c-0.121,0.31-0.279,0.703-0.473,1.178
			c-0.193,0.477-0.41,0.883-0.647,1.221c-0.238,0.338-0.531,0.601-0.88,0.789c-0.349,0.188-0.771,0.281-1.27,0.281
			c-0.643,0-1.154-0.146-1.536-0.439s-0.664-0.614-0.847-0.963s-0.49-1.037-0.922-2.066l-4.316-10.675
			c-0.1-0.266-0.201-0.531-0.307-0.797s-0.193-0.537-0.266-0.813c-0.072-0.276-0.107-0.515-0.107-0.714
			c0-0.31,0.094-0.617,0.281-0.921c0.188-0.304,0.449-0.553,0.781-0.747c0.332-0.193,0.691-0.291,1.078-0.291
			c0.753,0,1.271,0.216,1.553,0.647S663.202,40.459,663.545,41.477z"/>
		<path d="M690.971,48.981h-8.865c0.012,1.029,0.219,1.937,0.623,2.722c0.404,0.787,0.94,1.379,1.61,1.777
			c0.669,0.398,1.408,0.598,2.216,0.598c0.543,0,1.038-0.064,1.486-0.191s0.883-0.326,1.303-0.598
			c0.421-0.271,0.809-0.562,1.162-0.871c0.354-0.311,0.814-0.73,1.379-1.262c0.232-0.2,0.564-0.299,0.996-0.299
			c0.465,0,0.84,0.127,1.129,0.381c0.287,0.256,0.432,0.615,0.432,1.08c0,0.409-0.161,0.888-0.482,1.436
			c-0.32,0.548-0.805,1.074-1.452,1.577c-0.647,0.504-1.461,0.921-2.44,1.253s-2.105,0.498-3.379,0.498
			c-2.91,0-5.174-0.83-6.789-2.49c-1.617-1.66-2.424-3.912-2.424-6.756c0-1.339,0.199-2.582,0.598-3.727s0.979-2.127,1.742-2.947
			c0.764-0.819,1.705-1.447,2.822-1.884c1.118-0.437,2.357-0.656,3.719-0.656c1.771,0,3.29,0.374,4.558,1.121
			c1.267,0.747,2.216,1.713,2.847,2.897c0.631,1.185,0.947,2.391,0.947,3.619c0,1.14-0.327,1.879-0.98,2.216
			C693.074,48.813,692.155,48.981,690.971,48.981z M682.105,46.408h8.219c-0.111-1.549-0.529-2.708-1.254-3.478
			c-0.725-0.769-1.68-1.154-2.863-1.154c-1.129,0-2.057,0.39-2.781,1.17S682.261,44.88,682.105,46.408z"/>
		<path d="M703.023,50.542v3.785c0,0.92-0.215,1.608-0.646,2.067s-0.98,0.688-1.645,0.688c-0.652,0-1.189-0.232-1.609-0.697
			c-0.422-0.465-0.631-1.15-0.631-2.059V41.709c0-2.036,0.735-3.055,2.207-3.055c0.753,0,1.295,0.238,1.627,0.714
			c0.332,0.476,0.516,1.179,0.549,2.108c0.541-0.93,1.098-1.632,1.668-2.108c0.57-0.476,1.33-0.714,2.283-0.714
			c0.951,0,1.875,0.238,2.771,0.714c0.896,0.476,1.346,1.107,1.346,1.893c0,0.554-0.191,1.01-0.573,1.37
			c-0.382,0.36-0.794,0.54-1.237,0.54c-0.166,0-0.566-0.102-1.203-0.307c-0.637-0.205-1.198-0.307-1.686-0.307
			c-0.664,0-1.206,0.174-1.627,0.523c-0.42,0.349-0.746,0.866-0.979,1.552c-0.232,0.687-0.394,1.502-0.482,2.449
			C703.068,48.026,703.023,49.18,703.023,50.542z"/>
		<path d="M724.025,54.525c-1.096,0.854-2.156,1.492-3.18,1.918s-2.172,0.639-3.445,0.639c-1.162,0-2.183-0.229-3.063-0.688
			s-1.559-1.081-2.033-1.868c-0.477-0.785-0.715-1.637-0.715-2.557c0-1.239,0.393-2.296,1.18-3.17
			c0.785-0.874,1.864-1.461,3.236-1.76c0.288-0.066,1.002-0.216,2.143-0.448c1.139-0.232,2.116-0.445,2.93-0.639
			c0.813-0.193,1.695-0.429,2.648-0.706c-0.057-1.195-0.297-2.072-0.723-2.631c-0.426-0.559-1.309-0.838-2.648-0.838
			c-1.15,0-2.017,0.161-2.598,0.481c-0.581,0.321-1.079,0.803-1.494,1.444c-0.415,0.642-0.709,1.065-0.88,1.27
			c-0.172,0.205-0.54,0.307-1.104,0.307c-0.509,0-0.949-0.163-1.319-0.49c-0.371-0.326-0.556-0.744-0.556-1.253
			c0-0.797,0.281-1.571,0.846-2.324c0.564-0.752,1.445-1.372,2.641-1.859c1.195-0.487,2.684-0.73,4.465-0.73
			c1.992,0,3.559,0.235,4.699,0.706c1.139,0.471,1.944,1.215,2.415,2.233c0.47,1.019,0.706,2.369,0.706,4.051
			c0,1.063-0.004,1.965-0.009,2.706c-0.006,0.742-0.015,1.566-0.024,2.474c0,0.852,0.141,1.741,0.423,2.665s0.423,1.52,0.423,1.785
			c0,0.465-0.219,0.888-0.655,1.27c-0.438,0.382-0.933,0.572-1.485,0.572c-0.465,0-0.925-0.219-1.379-0.655
			C725.016,55.99,724.533,55.355,724.025,54.525z M723.727,47.968c-0.664,0.244-1.631,0.501-2.897,0.772
			c-1.268,0.271-2.145,0.471-2.632,0.598c-0.486,0.127-0.951,0.376-1.395,0.747c-0.442,0.371-0.664,0.888-0.664,1.552
			c0,0.688,0.26,1.271,0.781,1.752c0.52,0.481,1.2,0.723,2.041,0.723c0.896,0,1.725-0.197,2.482-0.59s1.314-0.898,1.668-1.52
			c0.41-0.686,0.615-1.814,0.615-3.386V47.968z"/>
		<path d="M736.891,41.162v0.548c0.797-1.051,1.669-1.823,2.615-2.316c0.946-0.492,2.033-0.739,3.262-0.739
			c1.195,0,2.264,0.26,3.205,0.78c0.939,0.521,1.643,1.256,2.107,2.208c0.299,0.554,0.492,1.151,0.582,1.793
			c0.088,0.642,0.133,1.461,0.133,2.457v8.433c0,0.908-0.208,1.594-0.623,2.059s-0.955,0.697-1.619,0.697
			c-0.675,0-1.223-0.238-1.643-0.713c-0.422-0.477-0.631-1.156-0.631-2.043v-7.553c0-1.494-0.208-2.637-0.623-3.428
			c-0.415-0.791-1.242-1.187-2.482-1.187c-0.808,0-1.543,0.241-2.207,0.722s-1.152,1.143-1.461,1.984
			c-0.223,0.675-0.332,1.937-0.332,3.785v5.677c0,0.92-0.214,1.608-0.64,2.067c-0.427,0.459-0.978,0.688-1.651,0.688
			c-0.654,0-1.19-0.238-1.611-0.713c-0.42-0.477-0.631-1.156-0.631-2.043V41.228c0-0.863,0.188-1.508,0.564-1.934
			c0.377-0.426,0.891-0.639,1.545-0.639c0.398,0,0.758,0.094,1.078,0.282c0.321,0.188,0.578,0.471,0.772,0.847
			C736.794,40.16,736.891,40.62,736.891,41.162z"/>
		<path d="M764.6,55.008l-4.002-6.575l-2.457,2.324v3.602c0,0.875-0.229,1.547-0.688,2.018c-0.46,0.471-0.987,0.705-1.585,0.705
			c-0.697,0-1.246-0.232-1.645-0.697s-0.598-1.15-0.598-2.059V35.002c0-1.007,0.193-1.773,0.582-2.299
			c0.387-0.525,0.939-0.789,1.66-0.789c0.697,0,1.25,0.238,1.66,0.714c0.408,0.476,0.613,1.179,0.613,2.108v10.99l5.098-5.346
			c0.631-0.664,1.111-1.118,1.443-1.361c0.332-0.243,0.736-0.365,1.213-0.365c0.564,0,1.034,0.18,1.41,0.54
			c0.377,0.36,0.564,0.811,0.564,1.353c0,0.664-0.613,1.55-1.842,2.656l-2.408,2.208l4.648,7.305
			c0.344,0.542,0.59,0.954,0.739,1.236s0.224,0.551,0.224,0.805c0,0.721-0.196,1.287-0.589,1.702
			c-0.394,0.415-0.911,0.622-1.552,0.622c-0.555,0-0.98-0.148-1.279-0.447S765.107,55.793,764.6,55.008z"/>
		<path d="M784.156,48.981h-8.865c0.01,1.029,0.218,1.937,0.622,2.722c0.403,0.787,0.94,1.379,1.61,1.777s1.408,0.598,2.217,0.598
			c0.541,0,1.037-0.064,1.485-0.191s0.882-0.326,1.304-0.598c0.42-0.271,0.807-0.562,1.162-0.871
			c0.354-0.311,0.813-0.73,1.377-1.262c0.232-0.2,0.564-0.299,0.996-0.299c0.465,0,0.842,0.127,1.129,0.381
			c0.288,0.256,0.432,0.615,0.432,1.08c0,0.409-0.16,0.888-0.48,1.436c-0.322,0.548-0.806,1.074-1.453,1.577
			c-0.647,0.504-1.461,0.921-2.44,1.253s-2.106,0.498-3.378,0.498c-2.912,0-5.175-0.83-6.791-2.49
			c-1.615-1.66-2.424-3.912-2.424-6.756c0-1.339,0.199-2.582,0.598-3.727s0.98-2.127,1.744-2.947
			c0.764-0.819,1.703-1.447,2.822-1.884c1.117-0.437,2.357-0.656,3.719-0.656c1.77,0,3.289,0.374,4.557,1.121
			s2.217,1.713,2.848,2.897c0.631,1.185,0.945,2.391,0.945,3.619c0,1.14-0.326,1.879-0.979,2.216
			C786.258,48.813,785.34,48.981,784.156,48.981z M775.291,46.408h8.217c-0.11-1.549-0.528-2.708-1.253-3.478
			c-0.726-0.769-1.68-1.154-2.864-1.154c-1.129,0-2.056,0.39-2.78,1.17C775.885,43.727,775.445,44.88,775.291,46.408z"/>
		<path d="M796.209,50.542v3.785c0,0.92-0.217,1.608-0.648,2.067s-0.979,0.688-1.643,0.688c-0.654,0-1.19-0.232-1.611-0.697
			c-0.42-0.465-0.631-1.15-0.631-2.059V41.709c0-2.036,0.736-3.055,2.209-3.055c0.752,0,1.295,0.238,1.627,0.714
			c0.332,0.476,0.514,1.179,0.547,2.108c0.543-0.93,1.099-1.632,1.669-2.108c0.569-0.476,1.331-0.714,2.282-0.714
			c0.952,0,1.877,0.238,2.773,0.714c0.896,0.476,1.344,1.107,1.344,1.893c0,0.554-0.19,1.01-0.572,1.37
			c-0.382,0.36-0.795,0.54-1.236,0.54c-0.166,0-0.568-0.102-1.204-0.307c-0.637-0.205-1.198-0.307-1.685-0.307
			c-0.664,0-1.207,0.174-1.627,0.523c-0.422,0.349-0.748,0.866-0.98,1.552c-0.232,0.687-0.393,1.502-0.48,2.449
			C796.252,48.026,796.209,49.18,796.209,50.542z"/>
		<path d="M808.893,36.546c-0.631,0-1.171-0.193-1.619-0.581c-0.448-0.387-0.672-0.935-0.672-1.644c0-0.642,0.229-1.17,0.688-1.585
			c0.459-0.415,0.993-0.623,1.603-0.623c0.586,0,1.105,0.188,1.561,0.564c0.453,0.376,0.68,0.924,0.68,1.644
			c0,0.697-0.221,1.243-0.664,1.635C810.026,36.35,809.5,36.546,808.893,36.546z M811.133,41.228v13.098
			c0,0.908-0.215,1.594-0.646,2.059s-0.98,0.697-1.645,0.697s-1.203-0.238-1.618-0.713c-0.415-0.477-0.622-1.156-0.622-2.043V41.361
			c0-0.896,0.207-1.571,0.622-2.025c0.415-0.454,0.954-0.681,1.618-0.681s1.213,0.227,1.645,0.681
			C810.918,39.79,811.133,40.42,811.133,41.228z"/>
		<path d="M819.932,41.162v0.548c0.797-1.051,1.669-1.823,2.615-2.316c0.946-0.492,2.033-0.739,3.262-0.739
			c1.195,0,2.264,0.26,3.205,0.78c0.939,0.521,1.643,1.256,2.107,2.208c0.299,0.554,0.492,1.151,0.582,1.793
			c0.088,0.642,0.133,1.461,0.133,2.457v8.433c0,0.908-0.208,1.594-0.623,2.059s-0.955,0.697-1.619,0.697
			c-0.675,0-1.223-0.238-1.643-0.713c-0.422-0.477-0.631-1.156-0.631-2.043v-7.553c0-1.494-0.208-2.637-0.623-3.428
			c-0.415-0.791-1.242-1.187-2.482-1.187c-0.808,0-1.543,0.241-2.207,0.722s-1.152,1.143-1.461,1.984
			c-0.223,0.675-0.332,1.937-0.332,3.785v5.677c0,0.92-0.214,1.608-0.64,2.067c-0.427,0.459-0.978,0.688-1.651,0.688
			c-0.654,0-1.19-0.238-1.611-0.713c-0.42-0.477-0.631-1.156-0.631-2.043V41.228c0-0.863,0.188-1.508,0.564-1.934
			c0.377-0.426,0.891-0.639,1.545-0.639c0.398,0,0.758,0.094,1.078,0.282c0.321,0.188,0.578,0.471,0.772,0.847
			C819.835,40.16,819.932,40.62,819.932,41.162z"/>
		<path d="M853.02,41.975v13.166c0,1.505-0.161,2.799-0.482,3.885c-0.32,1.084-0.836,1.98-1.543,2.689
			c-0.709,0.707-1.636,1.233-2.781,1.576c-1.146,0.344-2.57,0.516-4.275,0.516c-1.561,0-2.955-0.219-4.184-0.656
			s-2.174-1.002-2.838-1.693s-0.996-1.402-0.996-2.133c0-0.555,0.188-1.005,0.564-1.354c0.375-0.349,0.83-0.523,1.361-0.523
			c0.664,0,1.244,0.293,1.742,0.881c0.244,0.299,0.496,0.6,0.756,0.904s0.548,0.564,0.863,0.78s0.694,0.376,1.137,0.481
			c0.443,0.105,0.952,0.158,1.527,0.158c1.174,0,2.084-0.164,2.731-0.49s1.101-0.783,1.361-1.369
			c0.26-0.588,0.412-1.215,0.456-1.885c0.045-0.67,0.078-1.746,0.1-3.229c-0.697,0.974-1.502,1.715-2.415,2.225
			c-0.913,0.509-2.001,0.764-3.263,0.764c-1.516,0-2.842-0.388-3.976-1.162c-1.135-0.775-2.007-1.859-2.614-3.254
			c-0.609-1.395-0.914-3.005-0.914-4.832c0-1.361,0.186-2.59,0.557-3.686s0.898-2.02,1.586-2.772
			c0.686-0.752,1.477-1.32,2.373-1.702s1.882-0.573,2.955-0.573c1.284,0,2.396,0.247,3.338,0.739
			c0.939,0.493,1.814,1.265,2.623,2.316v-0.614c0-0.786,0.193-1.395,0.58-1.826c0.388-0.432,0.886-0.647,1.494-0.647
			c0.875,0,1.455,0.285,1.744,0.855C852.875,40.08,853.02,40.902,853.02,41.975z M839.887,47.719c0,1.837,0.401,3.227,1.204,4.167
			c0.802,0.94,1.84,1.41,3.112,1.41c0.753,0,1.464-0.201,2.134-0.605c0.669-0.404,1.214-1.013,1.636-1.826
			c0.42-0.813,0.631-1.801,0.631-2.963c0-1.848-0.407-3.287-1.221-4.316s-1.885-1.544-3.213-1.544c-1.295,0-2.332,0.493-3.112,1.478
			C840.277,44.504,839.887,45.904,839.887,47.719z"/>
		<path d="M872.193,51.156c0,1.25-0.305,2.321-0.912,3.212c-0.609,0.892-1.509,1.566-2.698,2.025
			c-1.19,0.459-2.638,0.688-4.341,0.688c-1.627,0-3.021-0.248-4.184-0.746s-2.021-1.121-2.574-1.868
			c-0.553-0.747-0.83-1.497-0.83-2.249c0-0.498,0.178-0.924,0.531-1.279c0.354-0.354,0.803-0.531,1.346-0.531
			c0.475,0,0.84,0.116,1.096,0.349c0.254,0.232,0.498,0.559,0.73,0.979c0.465,0.809,1.021,1.412,1.668,1.811
			s1.529,0.598,2.648,0.598c0.906,0,1.651-0.202,2.232-0.606c0.581-0.403,0.871-0.866,0.871-1.386c0-0.797-0.301-1.378-0.904-1.744
			s-1.597-0.714-2.98-1.046c-1.561-0.387-2.83-0.794-3.81-1.22c-0.979-0.426-1.763-0.988-2.349-1.685
			c-0.588-0.697-0.881-1.555-0.881-2.573c0-0.907,0.271-1.765,0.814-2.573c0.541-0.808,1.342-1.453,2.398-1.934
			s2.332-0.722,3.826-0.722c1.174,0,2.228,0.122,3.163,0.365c0.935,0.244,1.716,0.57,2.341,0.979
			c0.625,0.41,1.102,0.863,1.428,1.361s0.49,0.985,0.49,1.461c0,0.521-0.175,0.946-0.523,1.278s-0.844,0.498-1.486,0.498
			c-0.465,0-0.86-0.133-1.187-0.398c-0.327-0.266-0.7-0.664-1.12-1.195c-0.344-0.442-0.748-0.797-1.213-1.063
			s-1.096-0.398-1.893-0.398c-0.818,0-1.5,0.174-2.041,0.523c-0.543,0.349-0.814,0.783-0.814,1.303c0,0.476,0.199,0.866,0.598,1.17
			c0.398,0.305,0.936,0.556,1.611,0.755c0.674,0.199,1.604,0.443,2.789,0.73c1.404,0.343,2.553,0.753,3.444,1.229
			c0.891,0.476,1.565,1.038,2.025,1.685C871.964,49.587,872.193,50.326,872.193,51.156z"/>
		<path d="M875.664,39.053h1.078v-1.361c0-1.417,0.18-2.542,0.54-3.378c0.359-0.835,0.968-1.444,1.826-1.826
			c0.857-0.382,2.034-0.573,3.528-0.573c2.645,0,3.967,0.647,3.967,1.942c0,0.421-0.139,0.78-0.414,1.079
			c-0.277,0.299-0.604,0.448-0.98,0.448c-0.177,0-0.48-0.033-0.912-0.1s-0.797-0.1-1.096-0.1c-0.82,0-1.346,0.241-1.578,0.722
			s-0.348,1.17-0.348,2.067v1.079h1.111c1.727,0,2.59,0.521,2.59,1.561c0,0.742-0.229,1.212-0.688,1.411
			c-0.46,0.199-1.093,0.299-1.901,0.299h-1.111v12.002c0,0.896-0.214,1.58-0.64,2.051c-0.427,0.471-0.978,0.705-1.651,0.705
			c-0.643,0-1.177-0.234-1.603-0.705c-0.427-0.471-0.64-1.154-0.64-2.051V42.324h-1.244c-0.676,0-1.195-0.152-1.561-0.457
			c-0.365-0.304-0.549-0.7-0.549-1.187C873.389,39.596,874.146,39.053,875.664,39.053z"/>
		<path d="M898.357,54.525c-1.096,0.854-2.155,1.492-3.179,1.918c-1.024,0.426-2.173,0.639-3.444,0.639
			c-1.162,0-2.184-0.229-3.063-0.688s-1.558-1.081-2.034-1.868c-0.476-0.785-0.713-1.637-0.713-2.557
			c0-1.239,0.393-2.296,1.178-3.17c0.786-0.874,1.865-1.461,3.238-1.76c0.287-0.066,1.001-0.216,2.141-0.448
			c1.141-0.232,2.117-0.445,2.931-0.639c0.813-0.193,1.696-0.429,2.647-0.706c-0.055-1.195-0.296-2.072-0.722-2.631
			c-0.427-0.559-1.31-0.838-2.647-0.838c-1.152,0-2.018,0.161-2.599,0.481c-0.581,0.321-1.079,0.803-1.494,1.444
			c-0.415,0.642-0.708,1.065-0.88,1.27c-0.172,0.205-0.539,0.307-1.104,0.307c-0.51,0-0.949-0.163-1.32-0.49
			c-0.371-0.326-0.557-0.744-0.557-1.253c0-0.797,0.283-1.571,0.848-2.324c0.564-0.752,1.443-1.372,2.639-1.859
			c1.195-0.487,2.684-0.73,4.467-0.73c1.992,0,3.558,0.235,4.697,0.706c1.141,0.471,1.945,1.215,2.416,2.233
			c0.471,1.019,0.705,2.369,0.705,4.051c0,1.063-0.002,1.965-0.008,2.706c-0.006,0.742-0.014,1.566-0.025,2.474
			c0,0.852,0.142,1.741,0.424,2.665s0.424,1.52,0.424,1.785c0,0.465-0.219,0.888-0.656,1.27s-0.933,0.572-1.486,0.572
			c-0.465,0-0.924-0.219-1.377-0.655C899.348,55.99,898.867,55.355,898.357,54.525z M898.059,47.968
			c-0.664,0.244-1.629,0.501-2.896,0.772c-1.268,0.271-2.145,0.471-2.631,0.598c-0.488,0.127-0.953,0.376-1.395,0.747
			c-0.443,0.371-0.664,0.888-0.664,1.552c0,0.688,0.26,1.271,0.779,1.752c0.521,0.481,1.201,0.723,2.043,0.723
			c0.896,0,1.723-0.197,2.481-0.59c0.758-0.393,1.313-0.898,1.669-1.52c0.408-0.686,0.613-1.814,0.613-3.386V47.968z"/>
		<path d="M921.699,51.156c0,1.25-0.305,2.321-0.912,3.212c-0.609,0.892-1.509,1.566-2.698,2.025
			c-1.19,0.459-2.638,0.688-4.341,0.688c-1.627,0-3.021-0.248-4.184-0.746s-2.021-1.121-2.574-1.868
			c-0.553-0.747-0.83-1.497-0.83-2.249c0-0.498,0.178-0.924,0.531-1.279c0.354-0.354,0.803-0.531,1.346-0.531
			c0.475,0,0.84,0.116,1.096,0.349c0.254,0.232,0.498,0.559,0.73,0.979c0.465,0.809,1.021,1.412,1.668,1.811
			s1.529,0.598,2.648,0.598c0.906,0,1.651-0.202,2.232-0.606c0.581-0.403,0.871-0.866,0.871-1.386c0-0.797-0.301-1.378-0.904-1.744
			s-1.597-0.714-2.98-1.046c-1.561-0.387-2.83-0.794-3.81-1.22c-0.979-0.426-1.763-0.988-2.349-1.685
			c-0.588-0.697-0.881-1.555-0.881-2.573c0-0.907,0.271-1.765,0.814-2.573c0.541-0.808,1.342-1.453,2.398-1.934
			s2.332-0.722,3.826-0.722c1.174,0,2.228,0.122,3.163,0.365c0.935,0.244,1.716,0.57,2.341,0.979
			c0.625,0.41,1.102,0.863,1.428,1.361s0.49,0.985,0.49,1.461c0,0.521-0.175,0.946-0.523,1.278s-0.844,0.498-1.486,0.498
			c-0.465,0-0.86-0.133-1.187-0.398c-0.327-0.266-0.7-0.664-1.12-1.195c-0.344-0.442-0.748-0.797-1.213-1.063
			s-1.096-0.398-1.893-0.398c-0.818,0-1.5,0.174-2.041,0.523c-0.543,0.349-0.814,0.783-0.814,1.303c0,0.476,0.199,0.866,0.598,1.17
			c0.398,0.305,0.936,0.556,1.611,0.755c0.674,0.199,1.604,0.443,2.789,0.73c1.404,0.343,2.553,0.753,3.444,1.229
			c0.891,0.476,1.565,1.038,2.025,1.685C921.47,49.587,921.699,50.326,921.699,51.156z"/>
		<path d="M938.186,48.981h-8.865c0.01,1.029,0.218,1.937,0.622,2.722c0.403,0.787,0.94,1.379,1.61,1.777s1.408,0.598,2.217,0.598
			c0.541,0,1.037-0.064,1.485-0.191s0.882-0.326,1.304-0.598c0.42-0.271,0.807-0.562,1.162-0.871
			c0.354-0.311,0.813-0.73,1.377-1.262c0.232-0.2,0.564-0.299,0.996-0.299c0.465,0,0.842,0.127,1.129,0.381
			c0.288,0.256,0.432,0.615,0.432,1.08c0,0.409-0.16,0.888-0.48,1.436c-0.322,0.548-0.806,1.074-1.453,1.577
			c-0.647,0.504-1.461,0.921-2.44,1.253s-2.106,0.498-3.378,0.498c-2.912,0-5.175-0.83-6.791-2.49
			c-1.615-1.66-2.424-3.912-2.424-6.756c0-1.339,0.199-2.582,0.598-3.727s0.98-2.127,1.744-2.947
			c0.764-0.819,1.703-1.447,2.822-1.884c1.117-0.437,2.357-0.656,3.719-0.656c1.77,0,3.289,0.374,4.557,1.121
			s2.217,1.713,2.848,2.897c0.631,1.185,0.945,2.391,0.945,3.619c0,1.14-0.326,1.879-0.979,2.216
			C940.287,48.813,939.369,48.981,938.186,48.981z M929.32,46.408h8.217c-0.11-1.549-0.528-2.708-1.253-3.478
			c-0.726-0.769-1.68-1.154-2.864-1.154c-1.129,0-2.056,0.39-2.78,1.17C929.914,43.727,929.475,44.88,929.32,46.408z"/>
	</g>
	<g>
		<path d="M373.501,51.471c0,0.564-0.169,1.168-0.506,1.811c-0.338,0.642-0.853,1.253-1.544,1.834
			c-0.692,0.581-1.563,1.049-2.615,1.402c-1.052,0.354-2.236,0.531-3.553,0.531c-2.8,0-4.986-0.815-6.558-2.448
			c-1.572-1.632-2.357-3.821-2.357-6.566c0-1.859,0.359-3.503,1.079-4.931c0.719-1.428,1.76-2.532,3.121-3.312
			s2.988-1.17,4.881-1.17c1.173,0,2.25,0.172,3.229,0.515c0.979,0.343,1.81,0.786,2.49,1.328c0.681,0.542,1.201,1.121,1.561,1.735
			c0.359,0.614,0.54,1.187,0.54,1.718c0,0.542-0.202,1.002-0.606,1.378c-0.404,0.376-0.894,0.564-1.469,0.564
			c-0.376,0-0.689-0.097-0.938-0.291c-0.249-0.193-0.529-0.506-0.838-0.938c-0.554-0.841-1.132-1.472-1.735-1.893
			c-0.604-0.42-1.37-0.631-2.299-0.631c-1.339,0-2.418,0.523-3.237,1.569c-0.819,1.046-1.229,2.477-1.229,4.292
			c0,0.853,0.105,1.635,0.315,2.349c0.21,0.714,0.515,1.323,0.913,1.826c0.398,0.504,0.88,0.886,1.444,1.146
			s1.184,0.391,1.859,0.391c0.907,0,1.685-0.211,2.333-0.631c0.647-0.421,1.22-1.063,1.718-1.926
			c0.276-0.509,0.575-0.908,0.896-1.196c0.321-0.288,0.714-0.432,1.179-0.432c0.553,0,1.013,0.21,1.378,0.631
			C373.319,50.547,373.501,50.996,373.501,51.471z"/>
		<path d="M388.908,54.525c-1.096,0.854-2.156,1.492-3.179,1.918c-1.024,0.426-2.172,0.639-3.445,0.639
			c-1.162,0-2.183-0.229-3.063-0.688s-1.558-1.081-2.034-1.868c-0.476-0.785-0.714-1.637-0.714-2.557
			c0-1.239,0.393-2.296,1.179-3.17c0.786-0.874,1.865-1.461,3.237-1.76c0.288-0.066,1.001-0.216,2.142-0.448
			c1.14-0.232,2.117-0.445,2.93-0.639c0.813-0.193,1.696-0.429,2.648-0.706c-0.056-1.195-0.296-2.072-0.722-2.631
			c-0.426-0.559-1.309-0.838-2.648-0.838c-1.151,0-2.017,0.161-2.598,0.481c-0.581,0.321-1.079,0.803-1.494,1.444
			c-0.415,0.642-0.708,1.065-0.88,1.27c-0.172,0.205-0.54,0.307-1.104,0.307c-0.509,0-0.949-0.163-1.32-0.49
			c-0.371-0.326-0.556-0.744-0.556-1.253c0-0.797,0.282-1.571,0.847-2.324c0.564-0.752,1.444-1.372,2.64-1.859
			c1.195-0.487,2.684-0.73,4.466-0.73c1.992,0,3.558,0.235,4.698,0.706c1.14,0.471,1.945,1.215,2.416,2.233
			c0.47,1.019,0.706,2.369,0.706,4.051c0,1.063-0.003,1.965-0.008,2.706c-0.006,0.742-0.014,1.566-0.025,2.474
			c0,0.852,0.141,1.741,0.423,2.665s0.423,1.52,0.423,1.785c0,0.465-0.219,0.888-0.656,1.27c-0.438,0.382-0.933,0.572-1.486,0.572
			c-0.465,0-0.924-0.219-1.378-0.655C389.898,55.99,389.417,55.355,388.908,54.525z M388.609,47.968
			c-0.664,0.244-1.63,0.501-2.897,0.772c-1.268,0.271-2.145,0.471-2.631,0.598c-0.487,0.127-0.952,0.376-1.395,0.747
			c-0.443,0.371-0.664,0.888-0.664,1.552c0,0.688,0.26,1.271,0.78,1.752c0.52,0.481,1.201,0.723,2.042,0.723
			c0.896,0,1.724-0.197,2.482-0.59c0.758-0.393,1.314-0.898,1.668-1.52c0.409-0.686,0.614-1.814,0.614-3.386V47.968z"/>
		<path d="M412.731,48.201v6.026c0,0.953-0.216,1.666-0.647,2.143c-0.432,0.475-1.002,0.713-1.71,0.713
			c-0.687,0-1.243-0.238-1.668-0.713c-0.426-0.477-0.639-1.189-0.639-2.143v-7.221c0-1.14-0.039-2.025-0.116-2.656
			c-0.078-0.631-0.288-1.148-0.631-1.552c-0.343-0.404-0.886-0.606-1.627-0.606c-1.483,0-2.46,0.509-2.93,1.527
			c-0.471,1.019-0.706,2.479-0.706,4.383v6.125c0,0.941-0.213,1.652-0.639,2.134c-0.426,0.481-0.988,0.722-1.685,0.722
			c-0.687,0-1.248-0.24-1.685-0.722c-0.438-0.481-0.656-1.192-0.656-2.134V41.261c0-0.852,0.196-1.5,0.589-1.942
			c0.393-0.442,0.91-0.664,1.552-0.664c0.62,0,1.137,0.208,1.552,0.623s0.623,0.988,0.623,1.718v0.432
			c0.786-0.94,1.627-1.632,2.523-2.075c0.896-0.442,1.893-0.664,2.988-0.664c1.14,0,2.119,0.227,2.938,0.681
			c0.819,0.454,1.494,1.14,2.025,2.059c0.764-0.93,1.583-1.619,2.457-2.067c0.874-0.448,1.843-0.672,2.905-0.672
			c1.239,0,2.308,0.244,3.204,0.73c0.896,0.487,1.566,1.185,2.009,2.092c0.387,0.819,0.581,2.108,0.581,3.868v8.848
			c0,0.953-0.216,1.666-0.647,2.143c-0.432,0.475-1.002,0.713-1.71,0.713c-0.687,0-1.248-0.24-1.685-0.722
			c-0.438-0.481-0.656-1.192-0.656-2.134v-7.62c0-0.974-0.042-1.754-0.125-2.341c-0.083-0.586-0.307-1.079-0.672-1.478
			s-0.919-0.598-1.66-0.598c-0.598,0-1.165,0.177-1.702,0.531c-0.537,0.354-0.955,0.83-1.253,1.428
			C412.897,44.914,412.731,46.264,412.731,48.201z"/>
		<path d="M431.922,41.195v0.548c0.852-1.051,1.737-1.823,2.656-2.316c0.918-0.492,1.959-0.739,3.121-0.739
			c1.395,0,2.678,0.36,3.852,1.079c1.173,0.72,2.1,1.771,2.781,3.154c0.681,1.384,1.021,3.021,1.021,4.914
			c0,1.395-0.197,2.676-0.589,3.843c-0.393,1.168-0.933,2.147-1.619,2.938c-0.687,0.791-1.497,1.4-2.432,1.826
			c-0.936,0.426-1.94,0.639-3.013,0.639c-1.295,0-2.382-0.26-3.262-0.779c-0.88-0.521-1.718-1.284-2.515-2.291v6.807
			c0,1.992-0.725,2.988-2.175,2.988c-0.853,0-1.417-0.258-1.693-0.772c-0.277-0.515-0.415-1.265-0.415-2.249V41.228
			c0-0.863,0.188-1.508,0.564-1.934c0.376-0.426,0.891-0.639,1.544-0.639c0.642,0,1.165,0.219,1.569,0.656
			C431.72,39.748,431.922,40.376,431.922,41.195z M440.804,47.786c0-1.195-0.183-2.222-0.548-3.08
			c-0.365-0.857-0.872-1.516-1.519-1.976c-0.647-0.459-1.364-0.689-2.15-0.689c-1.251,0-2.305,0.493-3.163,1.478
			c-0.858,0.985-1.287,2.435-1.287,4.35c0,1.804,0.426,3.208,1.278,4.208c0.852,1.002,1.909,1.503,3.171,1.503
			c0.752,0,1.45-0.219,2.092-0.656c0.642-0.438,1.156-1.093,1.544-1.967C440.61,50.083,440.804,49.025,440.804,47.786z"/>
		<path d="M460.444,54.525c-1.096,0.854-2.156,1.492-3.179,1.918c-1.024,0.426-2.172,0.639-3.445,0.639
			c-1.162,0-2.183-0.229-3.063-0.688s-1.558-1.081-2.034-1.868c-0.476-0.785-0.714-1.637-0.714-2.557
			c0-1.239,0.393-2.296,1.179-3.17c0.786-0.874,1.865-1.461,3.237-1.76c0.288-0.066,1.001-0.216,2.142-0.448
			c1.14-0.232,2.117-0.445,2.93-0.639c0.813-0.193,1.696-0.429,2.648-0.706c-0.056-1.195-0.296-2.072-0.722-2.631
			c-0.426-0.559-1.309-0.838-2.648-0.838c-1.151,0-2.017,0.161-2.598,0.481c-0.581,0.321-1.079,0.803-1.494,1.444
			c-0.415,0.642-0.708,1.065-0.88,1.27c-0.172,0.205-0.54,0.307-1.104,0.307c-0.509,0-0.949-0.163-1.32-0.49
			c-0.371-0.326-0.556-0.744-0.556-1.253c0-0.797,0.282-1.571,0.847-2.324c0.564-0.752,1.444-1.372,2.64-1.859
			c1.195-0.487,2.684-0.73,4.466-0.73c1.992,0,3.558,0.235,4.698,0.706c1.14,0.471,1.945,1.215,2.416,2.233
			c0.47,1.019,0.706,2.369,0.706,4.051c0,1.063-0.003,1.965-0.008,2.706c-0.006,0.742-0.014,1.566-0.025,2.474
			c0,0.852,0.141,1.741,0.423,2.665s0.423,1.52,0.423,1.785c0,0.465-0.219,0.888-0.656,1.27c-0.438,0.382-0.933,0.572-1.486,0.572
			c-0.465,0-0.924-0.219-1.378-0.655C461.434,55.99,460.953,55.355,460.444,54.525z M460.145,47.968
			c-0.664,0.244-1.63,0.501-2.897,0.772c-1.268,0.271-2.145,0.471-2.631,0.598c-0.487,0.127-0.952,0.376-1.395,0.747
			c-0.443,0.371-0.664,0.888-0.664,1.552c0,0.688,0.26,1.271,0.78,1.752c0.52,0.481,1.201,0.723,2.042,0.723
			c0.896,0,1.724-0.197,2.482-0.59c0.758-0.393,1.314-0.898,1.668-1.52c0.409-0.686,0.614-1.814,0.614-3.386V47.968z"/>
		<path d="M485.413,41.975v13.166c0,1.505-0.161,2.799-0.481,3.885c-0.321,1.084-0.836,1.98-1.544,2.689
			c-0.708,0.707-1.635,1.233-2.781,1.576c-1.146,0.344-2.571,0.516-4.275,0.516c-1.561,0-2.955-0.219-4.184-0.656
			s-2.175-1.002-2.839-1.693s-0.996-1.402-0.996-2.133c0-0.555,0.188-1.005,0.564-1.354c0.376-0.349,0.83-0.523,1.361-0.523
			c0.664,0,1.245,0.293,1.743,0.881c0.243,0.299,0.495,0.6,0.755,0.904c0.26,0.305,0.548,0.564,0.863,0.78s0.694,0.376,1.137,0.481
			c0.442,0.105,0.952,0.158,1.527,0.158c1.173,0,2.083-0.164,2.731-0.49s1.101-0.783,1.361-1.369
			c0.26-0.588,0.412-1.215,0.457-1.885c0.044-0.67,0.077-1.746,0.1-3.229c-0.697,0.974-1.502,1.715-2.416,2.225
			c-0.913,0.509-2,0.764-3.262,0.764c-1.517,0-2.842-0.388-3.976-1.162c-1.135-0.775-2.006-1.859-2.615-3.254
			c-0.609-1.395-0.913-3.005-0.913-4.832c0-1.361,0.185-2.59,0.556-3.686c0.371-1.096,0.899-2.02,1.585-2.772
			c0.686-0.752,1.478-1.32,2.374-1.702s1.881-0.573,2.955-0.573c1.284,0,2.396,0.247,3.337,0.739
			c0.94,0.493,1.815,1.265,2.623,2.316v-0.614c0-0.786,0.193-1.395,0.581-1.826c0.387-0.432,0.885-0.647,1.494-0.647
			c0.874,0,1.455,0.285,1.743,0.855C485.269,40.08,485.413,40.902,485.413,41.975z M472.281,47.719c0,1.837,0.401,3.227,1.204,4.167
			c0.802,0.94,1.84,1.41,3.113,1.41c0.752,0,1.463-0.201,2.133-0.605c0.669-0.404,1.214-1.013,1.635-1.826
			c0.42-0.813,0.631-1.801,0.631-2.963c0-1.848-0.407-3.287-1.22-4.316s-1.884-1.544-3.212-1.544c-1.295,0-2.333,0.493-3.113,1.478
			C472.671,44.504,472.281,45.904,472.281,47.719z"/>
		<path d="M494.111,41.162v0.548c0.797-1.051,1.669-1.823,2.615-2.316c0.946-0.492,2.033-0.739,3.262-0.739
			c1.195,0,2.264,0.26,3.205,0.78c0.939,0.521,1.643,1.256,2.107,2.208c0.299,0.554,0.492,1.151,0.582,1.793
			c0.088,0.642,0.133,1.461,0.133,2.457v8.433c0,0.908-0.208,1.594-0.623,2.059s-0.955,0.697-1.619,0.697
			c-0.675,0-1.223-0.238-1.643-0.713c-0.422-0.477-0.631-1.156-0.631-2.043v-7.553c0-1.494-0.208-2.637-0.623-3.428
			c-0.415-0.791-1.242-1.187-2.482-1.187c-0.808,0-1.543,0.241-2.207,0.722s-1.152,1.143-1.461,1.984
			c-0.223,0.675-0.332,1.937-0.332,3.785v5.677c0,0.92-0.214,1.608-0.64,2.067c-0.427,0.459-0.978,0.688-1.651,0.688
			c-0.654,0-1.19-0.238-1.611-0.713c-0.42-0.477-0.631-1.156-0.631-2.043V41.228c0-0.863,0.188-1.508,0.564-1.934
			c0.377-0.426,0.891-0.639,1.545-0.639c0.398,0,0.758,0.094,1.078,0.282c0.321,0.188,0.578,0.471,0.772,0.847
			C494.015,40.16,494.111,40.62,494.111,41.162z"/>
		<path d="M523.182,48.981h-8.865c0.01,1.029,0.218,1.937,0.622,2.722c0.403,0.787,0.94,1.379,1.61,1.777s1.408,0.598,2.217,0.598
			c0.541,0,1.037-0.064,1.485-0.191s0.882-0.326,1.304-0.598c0.42-0.271,0.807-0.562,1.162-0.871
			c0.354-0.311,0.813-0.73,1.377-1.262c0.232-0.2,0.564-0.299,0.996-0.299c0.465,0,0.842,0.127,1.129,0.381
			c0.288,0.256,0.432,0.615,0.432,1.08c0,0.409-0.16,0.888-0.48,1.436c-0.322,0.548-0.806,1.074-1.453,1.577
			c-0.647,0.504-1.461,0.921-2.44,1.253s-2.106,0.498-3.378,0.498c-2.912,0-5.175-0.83-6.791-2.49
			c-1.615-1.66-2.424-3.912-2.424-6.756c0-1.339,0.199-2.582,0.598-3.727s0.98-2.127,1.744-2.947
			c0.764-0.819,1.703-1.447,2.822-1.884c1.117-0.437,2.357-0.656,3.719-0.656c1.77,0,3.289,0.374,4.557,1.121
			s2.217,1.713,2.848,2.897c0.631,1.185,0.945,2.391,0.945,3.619c0,1.14-0.326,1.879-0.979,2.216
			C525.283,48.813,524.365,48.981,523.182,48.981z M514.316,46.408h8.217c-0.11-1.549-0.528-2.708-1.253-3.478
			c-0.726-0.769-1.68-1.154-2.864-1.154c-1.129,0-2.056,0.39-2.78,1.17C514.91,43.727,514.471,44.88,514.316,46.408z"/>
		<path d="M530.369,39.053h1.08v-1.361c0-1.417,0.18-2.542,0.539-3.378c0.359-0.835,0.969-1.444,1.826-1.826
			s2.033-0.573,3.527-0.573c2.646,0,3.969,0.647,3.969,1.942c0,0.421-0.139,0.78-0.416,1.079c-0.276,0.299-0.604,0.448-0.979,0.448
			c-0.178,0-0.482-0.033-0.914-0.1s-0.797-0.1-1.096-0.1c-0.818,0-1.344,0.241-1.576,0.722s-0.35,1.17-0.35,2.067v1.079h1.113
			c1.727,0,2.59,0.521,2.59,1.561c0,0.742-0.23,1.212-0.689,1.411s-1.094,0.299-1.9,0.299h-1.113v12.002
			c0,0.896-0.213,1.58-0.639,2.051s-0.977,0.705-1.652,0.705c-0.642,0-1.176-0.234-1.602-0.705s-0.639-1.154-0.639-2.051V42.324
			h-1.246c-0.675,0-1.195-0.152-1.561-0.457c-0.365-0.304-0.547-0.7-0.547-1.187C528.096,39.596,528.854,39.053,530.369,39.053z"/>
		<path d="M553.064,54.525c-1.096,0.854-2.156,1.492-3.18,1.918s-2.172,0.639-3.445,0.639c-1.162,0-2.183-0.229-3.063-0.688
			s-1.559-1.081-2.033-1.868c-0.477-0.785-0.715-1.637-0.715-2.557c0-1.239,0.393-2.296,1.18-3.17
			c0.785-0.874,1.864-1.461,3.236-1.76c0.288-0.066,1.002-0.216,2.143-0.448c1.139-0.232,2.116-0.445,2.93-0.639
			c0.813-0.193,1.695-0.429,2.648-0.706c-0.057-1.195-0.297-2.072-0.723-2.631c-0.426-0.559-1.309-0.838-2.648-0.838
			c-1.15,0-2.017,0.161-2.598,0.481c-0.581,0.321-1.079,0.803-1.494,1.444c-0.415,0.642-0.709,1.065-0.88,1.27
			c-0.172,0.205-0.54,0.307-1.104,0.307c-0.509,0-0.949-0.163-1.319-0.49c-0.371-0.326-0.556-0.744-0.556-1.253
			c0-0.797,0.281-1.571,0.846-2.324c0.564-0.752,1.445-1.372,2.641-1.859c1.195-0.487,2.684-0.73,4.465-0.73
			c1.992,0,3.559,0.235,4.699,0.706c1.139,0.471,1.944,1.215,2.415,2.233c0.47,1.019,0.706,2.369,0.706,4.051
			c0,1.063-0.004,1.965-0.009,2.706c-0.006,0.742-0.015,1.566-0.024,2.474c0,0.852,0.141,1.741,0.423,2.665s0.423,1.52,0.423,1.785
			c0,0.465-0.219,0.888-0.655,1.27c-0.438,0.382-0.933,0.572-1.485,0.572c-0.465,0-0.925-0.219-1.379-0.655
			C554.055,55.99,553.572,55.355,553.064,54.525z M552.766,47.968c-0.664,0.244-1.631,0.501-2.897,0.772
			c-1.268,0.271-2.145,0.471-2.632,0.598c-0.486,0.127-0.951,0.376-1.395,0.747c-0.442,0.371-0.664,0.888-0.664,1.552
			c0,0.688,0.26,1.271,0.781,1.752c0.52,0.481,1.2,0.723,2.041,0.723c0.896,0,1.725-0.197,2.482-0.59s1.314-0.898,1.668-1.52
			c0.41-0.686,0.615-1.814,0.615-3.386V47.968z"/>
		<path d="M576.406,51.156c0,1.25-0.305,2.321-0.914,3.212c-0.608,0.892-1.508,1.566-2.697,2.025s-2.637,0.688-4.342,0.688
			c-1.627,0-3.021-0.248-4.184-0.746s-2.02-1.121-2.572-1.868c-0.555-0.747-0.83-1.497-0.83-2.249c0-0.498,0.176-0.924,0.531-1.279
			c0.354-0.354,0.802-0.531,1.344-0.531c0.477,0,0.842,0.116,1.096,0.349c0.255,0.232,0.498,0.559,0.73,0.979
			c0.465,0.809,1.021,1.412,1.669,1.811s1.53,0.598,2.647,0.598c0.908,0,1.652-0.202,2.233-0.606
			c0.581-0.403,0.872-0.866,0.872-1.386c0-0.797-0.303-1.378-0.905-1.744c-0.604-0.365-1.597-0.714-2.979-1.046
			c-1.561-0.387-2.831-0.794-3.811-1.22c-0.979-0.426-1.763-0.988-2.35-1.685c-0.586-0.697-0.879-1.555-0.879-2.573
			c0-0.907,0.271-1.765,0.813-2.573c0.543-0.808,1.342-1.453,2.399-1.934c1.057-0.481,2.333-0.722,3.827-0.722
			c1.172,0,2.227,0.122,3.162,0.365c0.936,0.244,1.715,0.57,2.341,0.979c0.625,0.41,1.101,0.863,1.428,1.361
			c0.326,0.498,0.489,0.985,0.489,1.461c0,0.521-0.174,0.946-0.522,1.278s-0.845,0.498-1.485,0.498
			c-0.465,0-0.861-0.133-1.188-0.398s-0.7-0.664-1.121-1.195c-0.343-0.442-0.746-0.797-1.211-1.063s-1.096-0.398-1.893-0.398
			c-0.82,0-1.5,0.174-2.043,0.523c-0.542,0.349-0.813,0.783-0.813,1.303c0,0.476,0.199,0.866,0.598,1.17
			c0.398,0.305,0.935,0.556,1.609,0.755c0.676,0.199,1.605,0.443,2.789,0.73c1.406,0.343,2.555,0.753,3.445,1.229
			c0.891,0.476,1.566,1.038,2.025,1.685S576.406,50.326,576.406,51.156z"/>
		<path d="M592.891,48.981h-8.865c0.012,1.029,0.219,1.937,0.623,2.722c0.404,0.787,0.94,1.379,1.61,1.777
			c0.669,0.398,1.408,0.598,2.216,0.598c0.543,0,1.038-0.064,1.486-0.191s0.883-0.326,1.303-0.598
			c0.421-0.271,0.809-0.562,1.162-0.871c0.354-0.311,0.814-0.73,1.379-1.262c0.232-0.2,0.564-0.299,0.996-0.299
			c0.465,0,0.84,0.127,1.129,0.381c0.287,0.256,0.432,0.615,0.432,1.08c0,0.409-0.161,0.888-0.482,1.436
			c-0.32,0.548-0.805,1.074-1.452,1.577c-0.647,0.504-1.461,0.921-2.44,1.253s-2.105,0.498-3.379,0.498
			c-2.91,0-5.174-0.83-6.789-2.49c-1.617-1.66-2.424-3.912-2.424-6.756c0-1.339,0.199-2.582,0.598-3.727s0.979-2.127,1.742-2.947
			c0.764-0.819,1.705-1.447,2.822-1.884c1.118-0.437,2.357-0.656,3.719-0.656c1.771,0,3.29,0.374,4.558,1.121
			c1.267,0.747,2.216,1.713,2.847,2.897c0.631,1.185,0.947,2.391,0.947,3.619c0,1.14-0.327,1.879-0.98,2.216
			C594.994,48.813,594.075,48.981,592.891,48.981z M584.025,46.408h8.219c-0.111-1.549-0.529-2.708-1.254-3.478
			c-0.725-0.769-1.68-1.154-2.863-1.154c-1.129,0-2.057,0.39-2.781,1.17S584.181,44.88,584.025,46.408z"/>
	</g>
</g>
<g id="Layer_3">
	<g>
		<path d="M80.055,84.217h-4.172c0.005,0.484,0.103,0.911,0.293,1.281c0.19,0.37,0.442,0.648,0.758,0.836
			c0.315,0.188,0.663,0.281,1.043,0.281c0.255,0,0.488-0.03,0.699-0.09s0.415-0.153,0.613-0.281c0.198-0.128,0.38-0.265,0.547-0.41
			c0.167-0.146,0.383-0.344,0.648-0.594c0.109-0.094,0.266-0.141,0.469-0.141c0.219,0,0.396,0.06,0.531,0.18
			c0.135,0.12,0.203,0.289,0.203,0.508c0,0.192-0.076,0.418-0.227,0.676c-0.151,0.258-0.379,0.505-0.684,0.742
			s-0.688,0.434-1.148,0.59s-0.991,0.234-1.59,0.234c-1.37,0-2.435-0.391-3.195-1.172c-0.761-0.781-1.141-1.841-1.141-3.18
			c0-0.63,0.094-1.215,0.281-1.754s0.461-1.001,0.82-1.387s0.802-0.681,1.328-0.887c0.526-0.206,1.109-0.309,1.75-0.309
			c0.833,0,1.548,0.176,2.145,0.527c0.596,0.352,1.043,0.806,1.34,1.363s0.445,1.125,0.445,1.703c0,0.536-0.154,0.884-0.461,1.043
			C81.044,84.138,80.612,84.217,80.055,84.217z M75.883,83.006h3.867c-0.052-0.729-0.249-1.274-0.59-1.637
			c-0.341-0.362-0.791-0.543-1.348-0.543c-0.531,0-0.968,0.184-1.309,0.551C76.163,81.744,75.956,82.287,75.883,83.006z"/>
		<path d="M84.688,78.365c-0.297,0-0.551-0.091-0.762-0.273s-0.316-0.44-0.316-0.773c0-0.302,0.108-0.551,0.324-0.746
			c0.216-0.195,0.467-0.293,0.754-0.293c0.276,0,0.521,0.089,0.734,0.266c0.213,0.177,0.32,0.435,0.32,0.773
			c0,0.328-0.104,0.585-0.313,0.77C85.221,78.272,84.974,78.365,84.688,78.365z M85.742,80.568v6.164
			c0,0.427-0.102,0.75-0.305,0.969s-0.461,0.328-0.773,0.328s-0.566-0.112-0.762-0.336s-0.293-0.544-0.293-0.961v-6.102
			c0-0.422,0.098-0.739,0.293-0.953s0.449-0.32,0.762-0.32s0.57,0.106,0.773,0.32S85.742,80.188,85.742,80.568z"/>
		<path d="M89.883,80.537v0.258c0.375-0.495,0.785-0.858,1.23-1.09s0.957-0.348,1.535-0.348c0.563,0,1.065,0.122,1.508,0.367
			c0.442,0.245,0.773,0.591,0.992,1.039c0.141,0.261,0.231,0.542,0.273,0.844c0.042,0.302,0.063,0.688,0.063,1.156v3.969
			c0,0.427-0.098,0.75-0.293,0.969s-0.449,0.328-0.762,0.328c-0.318,0-0.576-0.112-0.773-0.336
			c-0.198-0.224-0.297-0.544-0.297-0.961v-3.555c0-0.703-0.098-1.241-0.293-1.613s-0.585-0.559-1.168-0.559
			c-0.38,0-0.727,0.113-1.039,0.34s-0.542,0.538-0.688,0.934c-0.104,0.317-0.156,0.911-0.156,1.781v2.672
			c0,0.433-0.101,0.757-0.301,0.973c-0.201,0.216-0.46,0.324-0.777,0.324c-0.308,0-0.56-0.112-0.758-0.336
			c-0.198-0.224-0.297-0.544-0.297-0.961v-6.164c0-0.406,0.088-0.71,0.266-0.91c0.177-0.2,0.419-0.301,0.727-0.301
			c0.188,0,0.356,0.044,0.508,0.133c0.151,0.089,0.272,0.222,0.363,0.398C89.837,80.065,89.883,80.282,89.883,80.537z"/>
		<path d="M103.453,86.811V86.6c-0.287,0.328-0.569,0.595-0.848,0.801c-0.279,0.206-0.581,0.362-0.906,0.469
			c-0.326,0.106-0.681,0.16-1.066,0.16c-0.511,0-0.983-0.108-1.418-0.324c-0.435-0.216-0.812-0.524-1.129-0.926
			c-0.318-0.401-0.559-0.872-0.723-1.414s-0.246-1.128-0.246-1.758c0-1.333,0.325-2.372,0.977-3.117
			c0.651-0.745,1.508-1.117,2.57-1.117c0.614,0,1.133,0.105,1.555,0.316s0.833,0.535,1.234,0.973v-3.148
			c0-0.438,0.087-0.769,0.262-0.992c0.174-0.224,0.423-0.336,0.746-0.336c0.323,0,0.571,0.103,0.746,0.309
			c0.174,0.206,0.262,0.509,0.262,0.91v9.406c0,0.406-0.094,0.711-0.281,0.914s-0.43,0.305-0.727,0.305
			c-0.292,0-0.533-0.105-0.723-0.316C103.548,87.502,103.453,87.201,103.453,86.811z M99.258,83.678c0,0.578,0.09,1.07,0.27,1.477
			s0.426,0.712,0.738,0.918s0.653,0.309,1.023,0.309c0.375,0,0.717-0.098,1.027-0.293c0.31-0.195,0.557-0.495,0.742-0.898
			c0.185-0.403,0.277-0.907,0.277-1.512c0-0.567-0.093-1.056-0.277-1.465c-0.185-0.409-0.435-0.722-0.75-0.938
			c-0.315-0.216-0.66-0.324-1.035-0.324c-0.391,0-0.74,0.11-1.047,0.332c-0.308,0.222-0.546,0.539-0.715,0.953
			C99.342,82.65,99.258,83.131,99.258,83.678z"/>
		<path d="M114.078,85.99h4.078c0.406,0,0.716,0.083,0.93,0.25c0.213,0.167,0.32,0.394,0.32,0.68c0,0.255-0.085,0.472-0.254,0.648
			c-0.169,0.177-0.426,0.266-0.77,0.266h-5.75c-0.391,0-0.695-0.108-0.914-0.324s-0.328-0.47-0.328-0.762
			c0-0.188,0.07-0.437,0.211-0.746s0.294-0.554,0.461-0.73c0.692-0.719,1.317-1.335,1.875-1.848
			c0.557-0.513,0.956-0.851,1.195-1.012c0.427-0.302,0.782-0.605,1.066-0.91c0.284-0.305,0.5-0.617,0.648-0.938
			s0.223-0.634,0.223-0.941c0-0.333-0.08-0.632-0.238-0.895c-0.159-0.263-0.375-0.468-0.648-0.613s-0.572-0.219-0.895-0.219
			c-0.683,0-1.219,0.3-1.609,0.898c-0.052,0.078-0.14,0.292-0.262,0.641c-0.123,0.349-0.261,0.617-0.414,0.805
			c-0.154,0.188-0.379,0.281-0.676,0.281c-0.261,0-0.477-0.086-0.648-0.258s-0.258-0.406-0.258-0.703
			c0-0.359,0.081-0.734,0.242-1.125c0.161-0.391,0.402-0.745,0.723-1.063s0.727-0.574,1.219-0.77s1.069-0.293,1.73-0.293
			c0.797,0,1.477,0.125,2.039,0.375c0.364,0.167,0.685,0.396,0.961,0.688c0.276,0.292,0.491,0.629,0.645,1.012
			c0.153,0.383,0.23,0.78,0.23,1.191c0,0.646-0.16,1.233-0.48,1.762s-0.647,0.942-0.98,1.242c-0.333,0.3-0.892,0.77-1.676,1.41
			c-0.784,0.641-1.322,1.138-1.613,1.492C114.336,85.623,114.208,85.792,114.078,85.99z"/>
		<path d="M128.766,82.217c0,0.854-0.052,1.589-0.156,2.203c-0.104,0.614-0.297,1.172-0.578,1.672
			c-0.354,0.614-0.813,1.089-1.375,1.422s-1.188,0.5-1.875,0.5c-0.792,0-1.501-0.224-2.129-0.672
			c-0.628-0.448-1.101-1.067-1.418-1.859c-0.162-0.433-0.28-0.91-0.355-1.434c-0.076-0.523-0.113-1.09-0.113-1.699
			c0-0.786,0.042-1.495,0.125-2.125c0.083-0.63,0.213-1.172,0.391-1.625c0.307-0.75,0.754-1.321,1.34-1.715s1.285-0.59,2.098-0.59
			c0.536,0,1.023,0.087,1.461,0.262s0.821,0.43,1.152,0.766c0.331,0.336,0.61,0.751,0.84,1.246
			C128.567,79.428,128.766,80.644,128.766,82.217z M126.625,82.061c0-0.953-0.058-1.733-0.172-2.34
			c-0.115-0.606-0.308-1.065-0.578-1.375c-0.271-0.31-0.646-0.465-1.125-0.465c-0.688,0-1.166,0.347-1.434,1.039
			c-0.269,0.692-0.402,1.761-0.402,3.203c0,0.979,0.057,1.781,0.172,2.406c0.114,0.625,0.307,1.098,0.578,1.418
			c0.271,0.32,0.638,0.48,1.102,0.48c0.479,0,0.854-0.167,1.125-0.5c0.271-0.333,0.461-0.81,0.57-1.43
			S126.625,83.065,126.625,82.061z"/>
		<path d="M134.039,86.764v-7.109c-1.323,1.016-2.214,1.523-2.672,1.523c-0.219,0-0.413-0.087-0.582-0.262
			c-0.169-0.175-0.254-0.376-0.254-0.605c0-0.266,0.083-0.461,0.25-0.586c0.167-0.125,0.461-0.286,0.883-0.484
			c0.63-0.297,1.134-0.609,1.512-0.938c0.377-0.328,0.712-0.695,1.004-1.102c0.292-0.406,0.481-0.656,0.57-0.75
			c0.088-0.094,0.255-0.141,0.5-0.141c0.276,0,0.497,0.106,0.664,0.32c0.167,0.214,0.25,0.508,0.25,0.883v8.945
			c0,1.047-0.357,1.57-1.07,1.57c-0.318,0-0.573-0.106-0.766-0.32C134.135,87.495,134.039,87.181,134.039,86.764z"/>
		<path d="M144.633,86.842v-1.453h-3.922c-0.495,0-0.866-0.112-1.113-0.336c-0.248-0.224-0.371-0.528-0.371-0.914
			c0-0.099,0.018-0.199,0.055-0.301c0.036-0.102,0.091-0.208,0.164-0.32c0.073-0.112,0.148-0.22,0.227-0.324
			s0.174-0.231,0.289-0.383l4.141-5.539c0.271-0.364,0.493-0.629,0.668-0.793c0.174-0.164,0.384-0.246,0.629-0.246
			c0.792,0,1.188,0.453,1.188,1.359v6.047h0.336c0.401,0,0.723,0.055,0.965,0.164s0.363,0.349,0.363,0.719
			c0,0.302-0.099,0.522-0.297,0.66c-0.198,0.138-0.495,0.207-0.891,0.207h-0.477v1.453c0,0.401-0.089,0.699-0.266,0.895
			c-0.177,0.195-0.414,0.293-0.711,0.293c-0.292,0-0.527-0.101-0.707-0.301S144.633,87.232,144.633,86.842z M141.273,83.639h3.359
			V79.1L141.273,83.639z"/>
		<path d="M156.445,84.615h-2.469c-0.375,0-0.66-0.087-0.855-0.262s-0.293-0.399-0.293-0.676c0-0.281,0.095-0.509,0.285-0.684
			c0.19-0.175,0.478-0.262,0.863-0.262h2.469c0.385,0,0.673,0.087,0.863,0.262c0.19,0.175,0.285,0.402,0.285,0.684
			c0,0.276-0.094,0.501-0.281,0.676S156.836,84.615,156.445,84.615z"/>
		<path d="M166.383,86.764v-7.109c-1.323,1.016-2.214,1.523-2.672,1.523c-0.219,0-0.413-0.087-0.582-0.262
			c-0.169-0.175-0.254-0.376-0.254-0.605c0-0.266,0.083-0.461,0.25-0.586c0.167-0.125,0.461-0.286,0.883-0.484
			c0.63-0.297,1.134-0.609,1.512-0.938c0.377-0.328,0.712-0.695,1.004-1.102c0.292-0.406,0.481-0.656,0.57-0.75
			c0.088-0.094,0.255-0.141,0.5-0.141c0.276,0,0.497,0.106,0.664,0.32c0.167,0.214,0.25,0.508,0.25,0.883v8.945
			c0,1.047-0.357,1.57-1.07,1.57c-0.318,0-0.573-0.106-0.766-0.32C166.479,87.495,166.383,87.181,166.383,86.764z"/>
		<path d="M181.867,86.826c-0.516,0.401-1.015,0.702-1.496,0.902c-0.482,0.2-1.022,0.301-1.621,0.301
			c-0.547,0-1.027-0.108-1.441-0.324s-0.733-0.509-0.957-0.879c-0.224-0.37-0.336-0.771-0.336-1.203
			c0-0.583,0.185-1.081,0.555-1.492c0.37-0.411,0.877-0.688,1.523-0.828c0.135-0.031,0.471-0.102,1.008-0.211
			c0.536-0.109,0.996-0.21,1.379-0.301s0.798-0.202,1.246-0.332c-0.026-0.563-0.14-0.976-0.34-1.238
			c-0.201-0.263-0.616-0.395-1.246-0.395c-0.542,0-0.949,0.075-1.223,0.227s-0.508,0.378-0.703,0.68s-0.333,0.501-0.414,0.598
			c-0.081,0.097-0.254,0.145-0.52,0.145c-0.24,0-0.447-0.077-0.621-0.23c-0.175-0.153-0.262-0.351-0.262-0.59
			c0-0.375,0.133-0.739,0.398-1.094s0.68-0.646,1.242-0.875s1.263-0.344,2.102-0.344c0.938,0,1.674,0.11,2.211,0.332
			c0.536,0.222,0.915,0.571,1.137,1.051c0.221,0.479,0.332,1.114,0.332,1.906c0,0.5-0.001,0.925-0.004,1.273
			c-0.003,0.349-0.007,0.737-0.012,1.164c0,0.401,0.066,0.819,0.199,1.254s0.199,0.715,0.199,0.84c0,0.219-0.103,0.418-0.309,0.598
			c-0.206,0.18-0.439,0.27-0.699,0.27c-0.219,0-0.435-0.103-0.648-0.309C182.333,87.515,182.106,87.217,181.867,86.826z
			 M181.727,83.74c-0.313,0.114-0.767,0.235-1.363,0.363c-0.597,0.128-1.009,0.222-1.238,0.281c-0.229,0.06-0.448,0.177-0.656,0.352
			c-0.208,0.175-0.313,0.418-0.313,0.73c0,0.323,0.122,0.598,0.367,0.824c0.245,0.227,0.565,0.34,0.961,0.34
			c0.422,0,0.811-0.093,1.168-0.277c0.356-0.185,0.618-0.423,0.785-0.715c0.192-0.323,0.289-0.854,0.289-1.594V83.74z"/>
		<path d="M187.742,80.553v0.258c0.401-0.495,0.817-0.858,1.25-1.09c0.432-0.231,0.922-0.348,1.469-0.348
			c0.656,0,1.26,0.169,1.813,0.508c0.552,0.339,0.988,0.833,1.309,1.484s0.48,1.422,0.48,2.313c0,0.656-0.093,1.259-0.277,1.809
			c-0.185,0.55-0.439,1.011-0.762,1.383c-0.323,0.372-0.705,0.659-1.145,0.859c-0.44,0.2-0.913,0.301-1.418,0.301
			c-0.609,0-1.121-0.122-1.535-0.367s-0.809-0.604-1.184-1.078v3.203c0,0.938-0.341,1.406-1.023,1.406
			c-0.401,0-0.667-0.121-0.797-0.363c-0.13-0.242-0.195-0.595-0.195-1.059v-9.203c0-0.406,0.088-0.71,0.266-0.91
			c0.177-0.2,0.419-0.301,0.727-0.301c0.302,0,0.548,0.103,0.738,0.309C187.647,79.872,187.742,80.167,187.742,80.553z
			 M191.922,83.654c0-0.563-0.086-1.046-0.258-1.449s-0.41-0.714-0.715-0.93s-0.642-0.324-1.012-0.324
			c-0.589,0-1.085,0.231-1.488,0.695c-0.404,0.464-0.605,1.146-0.605,2.047c0,0.849,0.2,1.509,0.602,1.98
			c0.401,0.472,0.898,0.707,1.492,0.707c0.354,0,0.682-0.103,0.984-0.309c0.302-0.206,0.544-0.515,0.727-0.926
			C191.831,84.735,191.922,84.237,191.922,83.654z"/>
		<path d="M197.891,84.951v1.781c0,0.433-0.102,0.757-0.305,0.973s-0.461,0.324-0.773,0.324c-0.308,0-0.56-0.109-0.758-0.328
			c-0.198-0.219-0.297-0.542-0.297-0.969v-5.938c0-0.958,0.346-1.438,1.039-1.438c0.354,0,0.609,0.112,0.766,0.336
			s0.242,0.555,0.258,0.992c0.255-0.438,0.517-0.769,0.785-0.992c0.268-0.224,0.626-0.336,1.074-0.336
			c0.448,0,0.883,0.112,1.305,0.336s0.633,0.521,0.633,0.891c0,0.261-0.09,0.476-0.27,0.645s-0.374,0.254-0.582,0.254
			c-0.078,0-0.267-0.048-0.566-0.145c-0.3-0.097-0.564-0.145-0.793-0.145c-0.313,0-0.568,0.082-0.766,0.246
			c-0.198,0.164-0.352,0.407-0.461,0.73s-0.185,0.707-0.227,1.152C197.911,83.768,197.891,84.311,197.891,84.951z"/>
		<path d="M203.859,78.365c-0.297,0-0.551-0.091-0.762-0.273s-0.316-0.44-0.316-0.773c0-0.302,0.108-0.551,0.324-0.746
			c0.216-0.195,0.467-0.293,0.754-0.293c0.276,0,0.521,0.089,0.734,0.266c0.213,0.177,0.32,0.435,0.32,0.773
			c0,0.328-0.104,0.585-0.313,0.77C204.393,78.272,204.146,78.365,203.859,78.365z M204.914,80.568v6.164
			c0,0.427-0.102,0.75-0.305,0.969s-0.461,0.328-0.773,0.328s-0.566-0.112-0.762-0.336s-0.293-0.544-0.293-0.961v-6.102
			c0-0.422,0.098-0.739,0.293-0.953s0.449-0.32,0.762-0.32s0.57,0.106,0.773,0.32S204.914,80.188,204.914,80.568z"/>
		<path d="M207.117,86.732v-9.25c0-0.427,0.095-0.75,0.285-0.969c0.19-0.219,0.446-0.328,0.77-0.328
			c0.323,0,0.583,0.108,0.781,0.324c0.198,0.216,0.297,0.54,0.297,0.973v9.25c0,0.433-0.101,0.757-0.301,0.973
			c-0.201,0.216-0.46,0.324-0.777,0.324c-0.313,0-0.566-0.112-0.762-0.336S207.117,87.149,207.117,86.732z"/>
		<path d="M217.922,85.99H222c0.406,0,0.716,0.083,0.93,0.25c0.213,0.167,0.32,0.394,0.32,0.68c0,0.255-0.085,0.472-0.254,0.648
			c-0.169,0.177-0.426,0.266-0.77,0.266h-5.75c-0.391,0-0.695-0.108-0.914-0.324s-0.328-0.47-0.328-0.762
			c0-0.188,0.07-0.437,0.211-0.746s0.294-0.554,0.461-0.73c0.692-0.719,1.317-1.335,1.875-1.848
			c0.557-0.513,0.956-0.851,1.195-1.012c0.427-0.302,0.782-0.605,1.066-0.91c0.284-0.305,0.5-0.617,0.648-0.938
			s0.223-0.634,0.223-0.941c0-0.333-0.08-0.632-0.238-0.895c-0.159-0.263-0.375-0.468-0.648-0.613s-0.572-0.219-0.895-0.219
			c-0.683,0-1.219,0.3-1.609,0.898c-0.052,0.078-0.14,0.292-0.262,0.641c-0.123,0.349-0.261,0.617-0.414,0.805
			c-0.154,0.188-0.379,0.281-0.676,0.281c-0.261,0-0.477-0.086-0.648-0.258s-0.258-0.406-0.258-0.703
			c0-0.359,0.081-0.734,0.242-1.125c0.161-0.391,0.402-0.745,0.723-1.063s0.727-0.574,1.219-0.77s1.069-0.293,1.73-0.293
			c0.797,0,1.477,0.125,2.039,0.375c0.364,0.167,0.685,0.396,0.961,0.688c0.276,0.292,0.491,0.629,0.645,1.012
			c0.153,0.383,0.23,0.78,0.23,1.191c0,0.646-0.16,1.233-0.48,1.762s-0.647,0.942-0.98,1.242c-0.333,0.3-0.892,0.77-1.676,1.41
			c-0.784,0.641-1.322,1.138-1.613,1.492C218.18,85.623,218.052,85.792,217.922,85.99z"/>
		<path d="M232.609,82.217c0,0.854-0.052,1.589-0.156,2.203c-0.104,0.614-0.297,1.172-0.578,1.672
			c-0.354,0.614-0.813,1.089-1.375,1.422s-1.188,0.5-1.875,0.5c-0.792,0-1.501-0.224-2.129-0.672
			c-0.628-0.448-1.101-1.067-1.418-1.859c-0.162-0.433-0.28-0.91-0.355-1.434c-0.076-0.523-0.113-1.09-0.113-1.699
			c0-0.786,0.042-1.495,0.125-2.125c0.083-0.63,0.213-1.172,0.391-1.625c0.307-0.75,0.754-1.321,1.34-1.715s1.285-0.59,2.098-0.59
			c0.536,0,1.023,0.087,1.461,0.262s0.821,0.43,1.152,0.766c0.331,0.336,0.61,0.751,0.84,1.246
			C232.411,79.428,232.609,80.644,232.609,82.217z M230.469,82.061c0-0.953-0.058-1.733-0.172-2.34
			c-0.115-0.606-0.308-1.065-0.578-1.375c-0.271-0.31-0.646-0.465-1.125-0.465c-0.688,0-1.166,0.347-1.434,1.039
			c-0.269,0.692-0.402,1.761-0.402,3.203c0,0.979,0.057,1.781,0.172,2.406c0.114,0.625,0.307,1.098,0.578,1.418
			c0.271,0.32,0.638,0.48,1.102,0.48c0.479,0,0.854-0.167,1.125-0.5c0.271-0.333,0.461-0.81,0.57-1.43
			S230.469,83.065,230.469,82.061z"/>
		<path d="M237.883,86.764v-7.109c-1.323,1.016-2.214,1.523-2.672,1.523c-0.219,0-0.413-0.087-0.582-0.262
			c-0.169-0.175-0.254-0.376-0.254-0.605c0-0.266,0.083-0.461,0.25-0.586c0.167-0.125,0.461-0.286,0.883-0.484
			c0.63-0.297,1.134-0.609,1.512-0.938c0.377-0.328,0.712-0.695,1.004-1.102c0.292-0.406,0.481-0.656,0.57-0.75
			c0.088-0.094,0.255-0.141,0.5-0.141c0.276,0,0.497,0.106,0.664,0.32c0.167,0.214,0.25,0.508,0.25,0.883v8.945
			c0,1.047-0.357,1.57-1.07,1.57c-0.318,0-0.573-0.106-0.766-0.32C237.979,87.495,237.883,87.181,237.883,86.764z"/>
		<path d="M250.281,78.311h-3.711l-0.445,2.531c0.739-0.396,1.422-0.594,2.047-0.594c0.5,0,0.967,0.094,1.402,0.281
			c0.435,0.188,0.816,0.446,1.145,0.777s0.586,0.723,0.773,1.176s0.281,0.94,0.281,1.461c0,0.755-0.169,1.442-0.508,2.063
			c-0.339,0.62-0.827,1.112-1.465,1.477c-0.638,0.364-1.374,0.547-2.207,0.547c-0.933,0-1.689-0.172-2.27-0.516
			c-0.581-0.344-0.992-0.738-1.234-1.184s-0.363-0.835-0.363-1.168c0-0.203,0.084-0.396,0.254-0.578
			c0.169-0.183,0.381-0.273,0.637-0.273c0.438,0,0.763,0.253,0.977,0.758c0.208,0.464,0.489,0.824,0.844,1.082
			c0.354,0.258,0.75,0.387,1.188,0.387c0.401,0,0.752-0.104,1.055-0.313c0.302-0.208,0.535-0.495,0.699-0.859
			s0.246-0.778,0.246-1.242c0-0.5-0.089-0.927-0.266-1.281c-0.177-0.354-0.414-0.618-0.711-0.793s-0.628-0.262-0.992-0.262
			c-0.448,0-0.769,0.055-0.961,0.164c-0.193,0.109-0.47,0.301-0.832,0.574c-0.362,0.273-0.66,0.41-0.895,0.41
			c-0.255,0-0.482-0.093-0.68-0.277c-0.198-0.185-0.297-0.395-0.297-0.629c0-0.026,0.028-0.203,0.086-0.531l0.656-3.742
			c0.073-0.448,0.208-0.773,0.406-0.977c0.198-0.203,0.521-0.305,0.969-0.305h4.125c0.813,0,1.219,0.31,1.219,0.93
			c0,0.271-0.099,0.489-0.297,0.656C250.958,78.228,250.667,78.311,250.281,78.311z"/>
	</g>
	<g>
		<path d="M398.5,86.764v-7.109c-1.323,1.016-2.214,1.523-2.672,1.523c-0.219,0-0.413-0.087-0.582-0.262
			c-0.169-0.175-0.254-0.376-0.254-0.605c0-0.266,0.083-0.461,0.25-0.586c0.167-0.125,0.461-0.286,0.883-0.484
			c0.63-0.297,1.134-0.609,1.512-0.938c0.377-0.328,0.712-0.695,1.004-1.102c0.292-0.406,0.481-0.656,0.57-0.75
			c0.088-0.094,0.255-0.141,0.5-0.141c0.276,0,0.497,0.106,0.664,0.32c0.167,0.214,0.25,0.508,0.25,0.883v8.945
			c0,1.047-0.357,1.57-1.07,1.57c-0.318,0-0.573-0.106-0.766-0.32C398.596,87.495,398.5,87.181,398.5,86.764z"/>
		<path d="M415.688,83.85v2.836c0,0.448-0.102,0.784-0.305,1.008s-0.472,0.336-0.805,0.336c-0.323,0-0.585-0.112-0.785-0.336
			c-0.201-0.224-0.301-0.56-0.301-1.008v-3.398c0-0.536-0.019-0.953-0.055-1.25c-0.037-0.297-0.136-0.54-0.297-0.73
			c-0.162-0.19-0.417-0.285-0.766-0.285c-0.698,0-1.158,0.239-1.379,0.719c-0.222,0.479-0.332,1.167-0.332,2.063v2.883
			c0,0.442-0.101,0.777-0.301,1.004c-0.201,0.227-0.465,0.34-0.793,0.34c-0.323,0-0.587-0.113-0.793-0.34
			c-0.206-0.227-0.309-0.562-0.309-1.004v-6.102c0-0.401,0.092-0.706,0.277-0.914c0.185-0.208,0.428-0.313,0.73-0.313
			c0.292,0,0.535,0.098,0.73,0.293s0.293,0.465,0.293,0.809v0.203c0.37-0.442,0.766-0.769,1.188-0.977s0.891-0.313,1.406-0.313
			c0.536,0,0.997,0.106,1.383,0.32c0.385,0.214,0.703,0.536,0.953,0.969c0.359-0.438,0.745-0.762,1.156-0.973
			c0.411-0.211,0.867-0.316,1.367-0.316c0.583,0,1.086,0.114,1.508,0.344s0.737,0.558,0.945,0.984
			c0.182,0.386,0.273,0.992,0.273,1.82v4.164c0,0.448-0.102,0.784-0.305,1.008s-0.472,0.336-0.805,0.336
			c-0.323,0-0.587-0.113-0.793-0.34c-0.206-0.227-0.309-0.562-0.309-1.004V83.1c0-0.458-0.02-0.825-0.059-1.102
			s-0.145-0.508-0.316-0.695s-0.433-0.281-0.781-0.281c-0.281,0-0.548,0.083-0.801,0.25c-0.253,0.167-0.449,0.391-0.59,0.672
			C415.766,82.303,415.688,82.938,415.688,83.85z"/>
		<path d="M428.703,84.217h-4.172c0.005,0.484,0.103,0.911,0.293,1.281c0.19,0.37,0.442,0.648,0.758,0.836
			c0.315,0.188,0.663,0.281,1.043,0.281c0.255,0,0.488-0.03,0.699-0.09s0.415-0.153,0.613-0.281c0.198-0.128,0.38-0.265,0.547-0.41
			c0.167-0.146,0.383-0.344,0.648-0.594c0.109-0.094,0.266-0.141,0.469-0.141c0.219,0,0.396,0.06,0.531,0.18
			c0.135,0.12,0.203,0.289,0.203,0.508c0,0.192-0.076,0.418-0.227,0.676c-0.151,0.258-0.379,0.505-0.684,0.742
			s-0.688,0.434-1.148,0.59s-0.991,0.234-1.59,0.234c-1.37,0-2.435-0.391-3.195-1.172c-0.761-0.781-1.141-1.841-1.141-3.18
			c0-0.63,0.094-1.215,0.281-1.754s0.461-1.001,0.82-1.387s0.802-0.681,1.328-0.887c0.526-0.206,1.109-0.309,1.75-0.309
			c0.833,0,1.548,0.176,2.145,0.527c0.596,0.352,1.043,0.806,1.34,1.363s0.445,1.125,0.445,1.703c0,0.536-0.154,0.884-0.461,1.043
			C429.692,84.138,429.26,84.217,428.703,84.217z M424.531,83.006h3.867c-0.052-0.729-0.249-1.274-0.59-1.637
			c-0.341-0.362-0.791-0.543-1.348-0.543c-0.531,0-0.968,0.184-1.309,0.551C424.811,81.744,424.604,82.287,424.531,83.006z"/>
		<path d="M433.336,78.365c-0.297,0-0.551-0.091-0.762-0.273s-0.316-0.44-0.316-0.773c0-0.302,0.108-0.551,0.324-0.746
			c0.216-0.195,0.467-0.293,0.754-0.293c0.276,0,0.521,0.089,0.734,0.266c0.213,0.177,0.32,0.435,0.32,0.773
			c0,0.328-0.104,0.585-0.313,0.77C433.87,78.272,433.622,78.365,433.336,78.365z M434.391,80.568v6.164
			c0,0.427-0.102,0.75-0.305,0.969s-0.461,0.328-0.773,0.328s-0.566-0.112-0.762-0.336s-0.293-0.544-0.293-0.961v-6.102
			c0-0.422,0.098-0.739,0.293-0.953s0.449-0.32,0.762-0.32s0.57,0.106,0.773,0.32S434.391,80.188,434.391,80.568z"/>
		<path d="M443.063,85.99h4.078c0.406,0,0.716,0.083,0.93,0.25c0.213,0.167,0.32,0.394,0.32,0.68c0,0.255-0.085,0.472-0.254,0.648
			c-0.169,0.177-0.426,0.266-0.77,0.266h-5.75c-0.391,0-0.695-0.108-0.914-0.324s-0.328-0.47-0.328-0.762
			c0-0.188,0.07-0.437,0.211-0.746s0.294-0.554,0.461-0.73c0.692-0.719,1.317-1.335,1.875-1.848
			c0.557-0.513,0.956-0.851,1.195-1.012c0.427-0.302,0.782-0.605,1.066-0.91c0.284-0.305,0.5-0.617,0.648-0.938
			s0.223-0.634,0.223-0.941c0-0.333-0.08-0.632-0.238-0.895c-0.159-0.263-0.375-0.468-0.648-0.613s-0.572-0.219-0.895-0.219
			c-0.683,0-1.219,0.3-1.609,0.898c-0.052,0.078-0.14,0.292-0.262,0.641c-0.123,0.349-0.261,0.617-0.414,0.805
			c-0.154,0.188-0.379,0.281-0.676,0.281c-0.261,0-0.477-0.086-0.648-0.258s-0.258-0.406-0.258-0.703
			c0-0.359,0.081-0.734,0.242-1.125c0.161-0.391,0.402-0.745,0.723-1.063s0.727-0.574,1.219-0.77s1.069-0.293,1.73-0.293
			c0.797,0,1.477,0.125,2.039,0.375c0.364,0.167,0.685,0.396,0.961,0.688c0.276,0.292,0.491,0.629,0.645,1.012
			c0.153,0.383,0.23,0.78,0.23,1.191c0,0.646-0.16,1.233-0.48,1.762s-0.647,0.942-0.98,1.242c-0.333,0.3-0.892,0.77-1.676,1.41
			c-0.784,0.641-1.322,1.138-1.613,1.492C443.32,85.623,443.192,85.792,443.063,85.99z"/>
		<path d="M457.75,82.217c0,0.854-0.052,1.589-0.156,2.203c-0.104,0.614-0.297,1.172-0.578,1.672
			c-0.354,0.614-0.813,1.089-1.375,1.422s-1.188,0.5-1.875,0.5c-0.792,0-1.501-0.224-2.129-0.672
			c-0.628-0.448-1.101-1.067-1.418-1.859c-0.162-0.433-0.28-0.91-0.355-1.434c-0.076-0.523-0.113-1.09-0.113-1.699
			c0-0.786,0.042-1.495,0.125-2.125c0.083-0.63,0.213-1.172,0.391-1.625c0.307-0.75,0.754-1.321,1.34-1.715s1.285-0.59,2.098-0.59
			c0.536,0,1.023,0.087,1.461,0.262s0.821,0.43,1.152,0.766c0.331,0.336,0.61,0.751,0.84,1.246
			C457.552,79.428,457.75,80.644,457.75,82.217z M455.609,82.061c0-0.953-0.058-1.733-0.172-2.34
			c-0.115-0.606-0.308-1.065-0.578-1.375c-0.271-0.31-0.646-0.465-1.125-0.465c-0.688,0-1.166,0.347-1.434,1.039
			c-0.269,0.692-0.402,1.761-0.402,3.203c0,0.979,0.057,1.781,0.172,2.406c0.114,0.625,0.307,1.098,0.578,1.418
			c0.271,0.32,0.638,0.48,1.102,0.48c0.479,0,0.854-0.167,1.125-0.5c0.271-0.333,0.461-0.81,0.57-1.43
			S455.609,83.065,455.609,82.061z"/>
		<path d="M463.023,86.764v-7.109c-1.323,1.016-2.214,1.523-2.672,1.523c-0.219,0-0.413-0.087-0.582-0.262
			c-0.169-0.175-0.254-0.376-0.254-0.605c0-0.266,0.083-0.461,0.25-0.586c0.167-0.125,0.461-0.286,0.883-0.484
			c0.63-0.297,1.134-0.609,1.512-0.938c0.377-0.328,0.712-0.695,1.004-1.102c0.292-0.406,0.481-0.656,0.57-0.75
			c0.088-0.094,0.255-0.141,0.5-0.141c0.276,0,0.497,0.106,0.664,0.32c0.167,0.214,0.25,0.508,0.25,0.883v8.945
			c0,1.047-0.357,1.57-1.07,1.57c-0.318,0-0.573-0.106-0.766-0.32C463.12,87.495,463.023,87.181,463.023,86.764z"/>
		<path d="M475.422,78.311h-3.711l-0.445,2.531c0.739-0.396,1.422-0.594,2.047-0.594c0.5,0,0.967,0.094,1.402,0.281
			c0.435,0.188,0.816,0.446,1.145,0.777s0.586,0.723,0.773,1.176s0.281,0.94,0.281,1.461c0,0.755-0.169,1.442-0.508,2.063
			c-0.339,0.62-0.827,1.112-1.465,1.477c-0.638,0.364-1.374,0.547-2.207,0.547c-0.933,0-1.689-0.172-2.27-0.516
			c-0.581-0.344-0.992-0.738-1.234-1.184s-0.363-0.835-0.363-1.168c0-0.203,0.084-0.396,0.254-0.578
			c0.169-0.183,0.381-0.273,0.637-0.273c0.438,0,0.763,0.253,0.977,0.758c0.208,0.464,0.489,0.824,0.844,1.082
			c0.354,0.258,0.75,0.387,1.188,0.387c0.401,0,0.752-0.104,1.055-0.313c0.302-0.208,0.535-0.495,0.699-0.859
			s0.246-0.778,0.246-1.242c0-0.5-0.089-0.927-0.266-1.281c-0.177-0.354-0.414-0.618-0.711-0.793s-0.628-0.262-0.992-0.262
			c-0.448,0-0.769,0.055-0.961,0.164c-0.193,0.109-0.47,0.301-0.832,0.574c-0.362,0.273-0.66,0.41-0.895,0.41
			c-0.255,0-0.482-0.093-0.68-0.277c-0.198-0.185-0.297-0.395-0.297-0.629c0-0.026,0.028-0.203,0.086-0.531l0.656-3.742
			c0.073-0.448,0.208-0.773,0.406-0.977c0.198-0.203,0.521-0.305,0.969-0.305h4.125c0.813,0,1.219,0.31,1.219,0.93
			c0,0.271-0.099,0.489-0.297,0.656C476.099,78.228,475.807,78.311,475.422,78.311z"/>
		<path d="M485.43,84.615h-2.469c-0.375,0-0.66-0.087-0.855-0.262s-0.293-0.399-0.293-0.676c0-0.281,0.095-0.509,0.285-0.684
			c0.19-0.175,0.478-0.262,0.863-0.262h2.469c0.385,0,0.673,0.087,0.863,0.262c0.189,0.175,0.285,0.402,0.285,0.684
			c0,0.276-0.094,0.501-0.281,0.676S485.82,84.615,485.43,84.615z"/>
		<path d="M495.367,86.764v-7.109c-1.323,1.016-2.214,1.523-2.672,1.523c-0.219,0-0.413-0.087-0.582-0.262
			c-0.17-0.175-0.254-0.376-0.254-0.605c0-0.266,0.083-0.461,0.25-0.586c0.166-0.125,0.461-0.286,0.883-0.484
			c0.63-0.297,1.134-0.609,1.512-0.938c0.377-0.328,0.712-0.695,1.004-1.102c0.291-0.406,0.481-0.656,0.57-0.75
			c0.088-0.094,0.255-0.141,0.5-0.141c0.275,0,0.497,0.106,0.664,0.32c0.166,0.214,0.25,0.508,0.25,0.883v8.945
			c0,1.047-0.357,1.57-1.07,1.57c-0.318,0-0.573-0.106-0.766-0.32C495.463,87.495,495.367,87.181,495.367,86.764z"/>
		<path d="M510.852,86.826c-0.516,0.401-1.015,0.702-1.496,0.902c-0.482,0.2-1.022,0.301-1.621,0.301
			c-0.547,0-1.027-0.108-1.441-0.324s-0.733-0.509-0.957-0.879c-0.225-0.37-0.336-0.771-0.336-1.203
			c0-0.583,0.185-1.081,0.555-1.492c0.369-0.411,0.877-0.688,1.523-0.828c0.135-0.031,0.471-0.102,1.008-0.211
			c0.536-0.109,0.996-0.21,1.379-0.301s0.798-0.202,1.246-0.332c-0.026-0.563-0.14-0.976-0.34-1.238
			c-0.201-0.263-0.616-0.395-1.246-0.395c-0.542,0-0.949,0.075-1.223,0.227s-0.508,0.378-0.703,0.68s-0.334,0.501-0.414,0.598
			c-0.081,0.097-0.254,0.145-0.52,0.145c-0.24,0-0.447-0.077-0.621-0.23c-0.175-0.153-0.262-0.351-0.262-0.59
			c0-0.375,0.133-0.739,0.398-1.094s0.68-0.646,1.242-0.875s1.263-0.344,2.102-0.344c0.938,0,1.674,0.11,2.211,0.332
			c0.536,0.222,0.915,0.571,1.137,1.051c0.221,0.479,0.332,1.114,0.332,1.906c0,0.5-0.002,0.925-0.004,1.273
			c-0.003,0.349-0.007,0.737-0.012,1.164c0,0.401,0.066,0.819,0.199,1.254s0.199,0.715,0.199,0.84c0,0.219-0.104,0.418-0.309,0.598
			c-0.206,0.18-0.439,0.27-0.699,0.27c-0.219,0-0.436-0.103-0.648-0.309C511.317,87.515,511.091,87.217,510.852,86.826z
			 M510.711,83.74c-0.313,0.114-0.768,0.235-1.363,0.363c-0.597,0.128-1.01,0.222-1.238,0.281c-0.229,0.06-0.448,0.177-0.656,0.352
			c-0.209,0.175-0.313,0.418-0.313,0.73c0,0.323,0.122,0.598,0.367,0.824c0.244,0.227,0.564,0.34,0.961,0.34
			c0.422,0,0.811-0.093,1.168-0.277c0.356-0.185,0.618-0.423,0.785-0.715c0.192-0.323,0.289-0.854,0.289-1.594V83.74z"/>
		<path d="M516.727,80.553v0.258c0.4-0.495,0.817-0.858,1.25-1.09c0.432-0.231,0.922-0.348,1.469-0.348
			c0.656,0,1.26,0.169,1.813,0.508c0.552,0.339,0.988,0.833,1.309,1.484s0.48,1.422,0.48,2.313c0,0.656-0.093,1.259-0.277,1.809
			c-0.186,0.55-0.439,1.011-0.762,1.383c-0.323,0.372-0.705,0.659-1.145,0.859c-0.44,0.2-0.913,0.301-1.418,0.301
			c-0.609,0-1.121-0.122-1.535-0.367s-0.809-0.604-1.184-1.078v3.203c0,0.938-0.342,1.406-1.023,1.406
			c-0.401,0-0.667-0.121-0.797-0.363c-0.131-0.242-0.195-0.595-0.195-1.059v-9.203c0-0.406,0.088-0.71,0.266-0.91
			c0.177-0.2,0.419-0.301,0.727-0.301c0.302,0,0.548,0.103,0.738,0.309C516.631,79.872,516.727,80.167,516.727,80.553z
			 M520.906,83.654c0-0.563-0.086-1.046-0.258-1.449s-0.41-0.714-0.715-0.93s-0.643-0.324-1.012-0.324
			c-0.589,0-1.085,0.231-1.488,0.695c-0.404,0.464-0.605,1.146-0.605,2.047c0,0.849,0.2,1.509,0.602,1.98
			c0.4,0.472,0.898,0.707,1.492,0.707c0.354,0,0.682-0.103,0.984-0.309c0.302-0.206,0.544-0.515,0.727-0.926
			C520.814,84.735,520.906,84.237,520.906,83.654z"/>
		<path d="M526.875,84.951v1.781c0,0.433-0.102,0.757-0.305,0.973s-0.461,0.324-0.773,0.324c-0.308,0-0.561-0.109-0.758-0.328
			c-0.198-0.219-0.297-0.542-0.297-0.969v-5.938c0-0.958,0.346-1.438,1.039-1.438c0.354,0,0.609,0.112,0.766,0.336
			s0.242,0.555,0.258,0.992c0.255-0.438,0.517-0.769,0.785-0.992c0.268-0.224,0.626-0.336,1.074-0.336
			c0.447,0,0.883,0.112,1.305,0.336s0.633,0.521,0.633,0.891c0,0.261-0.09,0.476-0.27,0.645s-0.374,0.254-0.582,0.254
			c-0.078,0-0.268-0.048-0.566-0.145c-0.3-0.097-0.564-0.145-0.793-0.145c-0.313,0-0.568,0.082-0.766,0.246
			c-0.198,0.164-0.352,0.407-0.461,0.73s-0.186,0.707-0.227,1.152C526.896,83.768,526.875,84.311,526.875,84.951z"/>
		<path d="M532.844,78.365c-0.297,0-0.551-0.091-0.762-0.273s-0.316-0.44-0.316-0.773c0-0.302,0.107-0.551,0.324-0.746
			c0.216-0.195,0.467-0.293,0.754-0.293c0.275,0,0.521,0.089,0.734,0.266c0.213,0.177,0.32,0.435,0.32,0.773
			c0,0.328-0.104,0.585-0.313,0.77C533.377,78.272,533.13,78.365,532.844,78.365z M533.898,80.568v6.164
			c0,0.427-0.102,0.75-0.305,0.969s-0.461,0.328-0.773,0.328s-0.566-0.112-0.762-0.336s-0.293-0.544-0.293-0.961v-6.102
			c0-0.422,0.098-0.739,0.293-0.953s0.449-0.32,0.762-0.32s0.57,0.106,0.773,0.32S533.898,80.188,533.898,80.568z"/>
		<path d="M536.102,86.732v-9.25c0-0.427,0.095-0.75,0.285-0.969c0.189-0.219,0.446-0.328,0.77-0.328
			c0.322,0,0.583,0.108,0.781,0.324c0.197,0.216,0.297,0.54,0.297,0.973v9.25c0,0.433-0.101,0.757-0.301,0.973
			c-0.201,0.216-0.46,0.324-0.777,0.324c-0.313,0-0.566-0.112-0.762-0.336S536.102,87.149,536.102,86.732z"/>
		<path d="M546.906,85.99h4.078c0.406,0,0.716,0.083,0.93,0.25c0.213,0.167,0.32,0.394,0.32,0.68c0,0.255-0.085,0.472-0.254,0.648
			c-0.17,0.177-0.426,0.266-0.77,0.266h-5.75c-0.391,0-0.695-0.108-0.914-0.324s-0.328-0.47-0.328-0.762
			c0-0.188,0.07-0.437,0.211-0.746s0.294-0.554,0.461-0.73c0.692-0.719,1.317-1.335,1.875-1.848
			c0.557-0.513,0.955-0.851,1.195-1.012c0.427-0.302,0.782-0.605,1.066-0.91c0.283-0.305,0.5-0.617,0.648-0.938
			s0.223-0.634,0.223-0.941c0-0.333-0.08-0.632-0.238-0.895c-0.159-0.263-0.375-0.468-0.648-0.613s-0.572-0.219-0.895-0.219
			c-0.683,0-1.219,0.3-1.609,0.898c-0.053,0.078-0.14,0.292-0.262,0.641c-0.123,0.349-0.261,0.617-0.414,0.805
			c-0.154,0.188-0.379,0.281-0.676,0.281c-0.261,0-0.477-0.086-0.648-0.258s-0.258-0.406-0.258-0.703
			c0-0.359,0.08-0.734,0.242-1.125c0.161-0.391,0.402-0.745,0.723-1.063s0.727-0.574,1.219-0.77s1.068-0.293,1.73-0.293
			c0.797,0,1.477,0.125,2.039,0.375c0.364,0.167,0.685,0.396,0.961,0.688c0.275,0.292,0.49,0.629,0.645,1.012
			c0.153,0.383,0.23,0.78,0.23,1.191c0,0.646-0.16,1.233-0.48,1.762s-0.647,0.942-0.98,1.242c-0.334,0.3-0.893,0.77-1.676,1.41
			c-0.784,0.641-1.322,1.138-1.613,1.492C547.164,85.623,547.036,85.792,546.906,85.99z"/>
		<path d="M561.594,82.217c0,0.854-0.053,1.589-0.156,2.203c-0.104,0.614-0.297,1.172-0.578,1.672
			c-0.354,0.614-0.813,1.089-1.375,1.422s-1.188,0.5-1.875,0.5c-0.792,0-1.502-0.224-2.129-0.672
			c-0.628-0.448-1.101-1.067-1.418-1.859c-0.162-0.433-0.28-0.91-0.355-1.434c-0.076-0.523-0.113-1.09-0.113-1.699
			c0-0.786,0.041-1.495,0.125-2.125c0.083-0.63,0.213-1.172,0.391-1.625c0.307-0.75,0.754-1.321,1.34-1.715s1.285-0.59,2.098-0.59
			c0.536,0,1.023,0.087,1.461,0.262s0.821,0.43,1.152,0.766c0.33,0.336,0.61,0.751,0.84,1.246
			C561.396,79.428,561.594,80.644,561.594,82.217z M559.453,82.061c0-0.953-0.058-1.733-0.172-2.34
			c-0.115-0.606-0.308-1.065-0.578-1.375c-0.271-0.31-0.646-0.465-1.125-0.465c-0.688,0-1.166,0.347-1.434,1.039
			c-0.269,0.692-0.402,1.761-0.402,3.203c0,0.979,0.057,1.781,0.172,2.406c0.114,0.625,0.307,1.098,0.578,1.418
			c0.271,0.32,0.638,0.48,1.102,0.48c0.479,0,0.854-0.167,1.125-0.5c0.271-0.333,0.461-0.81,0.57-1.43
			S559.453,83.065,559.453,82.061z"/>
		<path d="M566.867,86.764v-7.109c-1.323,1.016-2.214,1.523-2.672,1.523c-0.219,0-0.413-0.087-0.582-0.262
			c-0.17-0.175-0.254-0.376-0.254-0.605c0-0.266,0.083-0.461,0.25-0.586c0.166-0.125,0.461-0.286,0.883-0.484
			c0.63-0.297,1.134-0.609,1.512-0.938c0.377-0.328,0.712-0.695,1.004-1.102c0.291-0.406,0.481-0.656,0.57-0.75
			c0.088-0.094,0.255-0.141,0.5-0.141c0.275,0,0.497,0.106,0.664,0.32c0.166,0.214,0.25,0.508,0.25,0.883v8.945
			c0,1.047-0.357,1.57-1.07,1.57c-0.318,0-0.573-0.106-0.766-0.32C566.963,87.495,566.867,87.181,566.867,86.764z"/>
		<path d="M574.352,76.49h5.203c0.5,0,0.861,0.078,1.086,0.234c0.224,0.156,0.336,0.414,0.336,0.773
			c0,0.219-0.132,0.508-0.395,0.867c-0.264,0.359-0.563,0.757-0.898,1.191s-0.683,0.976-1.039,1.621
			c-0.357,0.646-0.684,1.435-0.98,2.367c-0.125,0.411-0.214,0.753-0.266,1.023c-0.053,0.271-0.109,0.622-0.172,1.055
			s-0.117,0.763-0.164,0.992c-0.109,0.531-0.265,0.899-0.465,1.105c-0.201,0.206-0.468,0.309-0.801,0.309
			c-0.318,0-0.573-0.11-0.766-0.332c-0.193-0.222-0.289-0.548-0.289-0.98c0-0.333,0.07-0.786,0.211-1.359s0.369-1.259,0.688-2.059
			c0.317-0.8,0.715-1.62,1.191-2.461s1.043-1.679,1.699-2.512h-4.18c-0.438,0-0.765-0.079-0.98-0.238
			c-0.217-0.159-0.324-0.407-0.324-0.746c0-0.359,0.114-0.591,0.344-0.695C573.619,76.542,573.939,76.49,574.352,76.49z"/>
	</g>
	<g>
		<path d="M686.686,86.764v-7.109c-1.323,1.016-2.214,1.523-2.672,1.523c-0.219,0-0.413-0.087-0.582-0.262
			c-0.17-0.175-0.254-0.376-0.254-0.605c0-0.266,0.083-0.461,0.25-0.586c0.166-0.125,0.461-0.286,0.883-0.484
			c0.63-0.297,1.134-0.609,1.512-0.938c0.377-0.328,0.712-0.695,1.004-1.102c0.291-0.406,0.481-0.656,0.57-0.75
			c0.088-0.094,0.255-0.141,0.5-0.141c0.275,0,0.497,0.106,0.664,0.32c0.166,0.214,0.25,0.508,0.25,0.883v8.945
			c0,1.047-0.357,1.57-1.07,1.57c-0.318,0-0.573-0.106-0.766-0.32C686.781,87.495,686.686,87.181,686.686,86.764z"/>
		<path d="M702.17,86.826c-0.516,0.401-1.015,0.702-1.496,0.902c-0.482,0.2-1.022,0.301-1.621,0.301
			c-0.547,0-1.027-0.108-1.441-0.324s-0.733-0.509-0.957-0.879c-0.225-0.37-0.336-0.771-0.336-1.203
			c0-0.583,0.185-1.081,0.555-1.492c0.369-0.411,0.877-0.688,1.523-0.828c0.135-0.031,0.471-0.102,1.008-0.211
			c0.536-0.109,0.996-0.21,1.379-0.301s0.798-0.202,1.246-0.332c-0.026-0.563-0.14-0.976-0.34-1.238
			c-0.201-0.263-0.616-0.395-1.246-0.395c-0.542,0-0.949,0.075-1.223,0.227s-0.508,0.378-0.703,0.68s-0.334,0.501-0.414,0.598
			c-0.081,0.097-0.254,0.145-0.52,0.145c-0.24,0-0.447-0.077-0.621-0.23c-0.175-0.153-0.262-0.351-0.262-0.59
			c0-0.375,0.133-0.739,0.398-1.094s0.68-0.646,1.242-0.875s1.263-0.344,2.102-0.344c0.938,0,1.674,0.11,2.211,0.332
			c0.536,0.222,0.915,0.571,1.137,1.051c0.221,0.479,0.332,1.114,0.332,1.906c0,0.5-0.002,0.925-0.004,1.273
			c-0.003,0.349-0.007,0.737-0.012,1.164c0,0.401,0.066,0.819,0.199,1.254s0.199,0.715,0.199,0.84c0,0.219-0.104,0.418-0.309,0.598
			c-0.206,0.18-0.439,0.27-0.699,0.27c-0.219,0-0.436-0.103-0.648-0.309C702.636,87.515,702.409,87.217,702.17,86.826z
			 M702.029,83.74c-0.313,0.114-0.768,0.235-1.363,0.363c-0.597,0.128-1.01,0.222-1.238,0.281c-0.229,0.06-0.448,0.177-0.656,0.352
			c-0.209,0.175-0.313,0.418-0.313,0.73c0,0.323,0.122,0.598,0.367,0.824c0.244,0.227,0.564,0.34,0.961,0.34
			c0.422,0,0.811-0.093,1.168-0.277c0.356-0.185,0.618-0.423,0.785-0.715c0.192-0.323,0.289-0.854,0.289-1.594V83.74z"/>
		<path d="M708.045,80.553v0.258c0.4-0.495,0.817-0.858,1.25-1.09c0.432-0.231,0.922-0.348,1.469-0.348
			c0.656,0,1.26,0.169,1.813,0.508c0.552,0.339,0.988,0.833,1.309,1.484s0.48,1.422,0.48,2.313c0,0.656-0.093,1.259-0.277,1.809
			c-0.186,0.55-0.439,1.011-0.762,1.383c-0.323,0.372-0.705,0.659-1.145,0.859c-0.44,0.2-0.913,0.301-1.418,0.301
			c-0.609,0-1.121-0.122-1.535-0.367s-0.809-0.604-1.184-1.078v3.203c0,0.938-0.342,1.406-1.023,1.406
			c-0.401,0-0.667-0.121-0.797-0.363c-0.131-0.242-0.195-0.595-0.195-1.059v-9.203c0-0.406,0.088-0.71,0.266-0.91
			c0.177-0.2,0.419-0.301,0.727-0.301c0.302,0,0.548,0.103,0.738,0.309C707.949,79.872,708.045,80.167,708.045,80.553z
			 M712.225,83.654c0-0.563-0.086-1.046-0.258-1.449s-0.41-0.714-0.715-0.93s-0.643-0.324-1.012-0.324
			c-0.589,0-1.085,0.231-1.488,0.695c-0.404,0.464-0.605,1.146-0.605,2.047c0,0.849,0.2,1.509,0.602,1.98
			c0.4,0.472,0.898,0.707,1.492,0.707c0.354,0,0.682-0.103,0.984-0.309c0.302-0.206,0.544-0.515,0.727-0.926
			C712.133,84.735,712.225,84.237,712.225,83.654z"/>
		<path d="M718.193,84.951v1.781c0,0.433-0.102,0.757-0.305,0.973s-0.461,0.324-0.773,0.324c-0.308,0-0.561-0.109-0.758-0.328
			c-0.198-0.219-0.297-0.542-0.297-0.969v-5.938c0-0.958,0.346-1.438,1.039-1.438c0.354,0,0.609,0.112,0.766,0.336
			s0.242,0.555,0.258,0.992c0.255-0.438,0.517-0.769,0.785-0.992c0.268-0.224,0.626-0.336,1.074-0.336
			c0.447,0,0.883,0.112,1.305,0.336s0.633,0.521,0.633,0.891c0,0.261-0.09,0.476-0.27,0.645s-0.374,0.254-0.582,0.254
			c-0.078,0-0.268-0.048-0.566-0.145c-0.3-0.097-0.564-0.145-0.793-0.145c-0.313,0-0.568,0.082-0.766,0.246
			c-0.198,0.164-0.352,0.407-0.461,0.73s-0.186,0.707-0.227,1.152C718.214,83.768,718.193,84.311,718.193,84.951z"/>
		<path d="M724.162,78.365c-0.297,0-0.551-0.091-0.762-0.273s-0.316-0.44-0.316-0.773c0-0.302,0.107-0.551,0.324-0.746
			c0.216-0.195,0.467-0.293,0.754-0.293c0.275,0,0.521,0.089,0.734,0.266c0.213,0.177,0.32,0.435,0.32,0.773
			c0,0.328-0.104,0.585-0.313,0.77C724.695,78.272,724.448,78.365,724.162,78.365z M725.217,80.568v6.164
			c0,0.427-0.102,0.75-0.305,0.969s-0.461,0.328-0.773,0.328s-0.566-0.112-0.762-0.336s-0.293-0.544-0.293-0.961v-6.102
			c0-0.422,0.098-0.739,0.293-0.953s0.449-0.32,0.762-0.32s0.57,0.106,0.773,0.32S725.217,80.188,725.217,80.568z"/>
		<path d="M727.42,86.732v-9.25c0-0.427,0.095-0.75,0.285-0.969c0.189-0.219,0.446-0.328,0.77-0.328
			c0.322,0,0.583,0.108,0.781,0.324c0.197,0.216,0.297,0.54,0.297,0.973v9.25c0,0.433-0.101,0.757-0.301,0.973
			c-0.201,0.216-0.46,0.324-0.777,0.324c-0.313,0-0.566-0.112-0.762-0.336S727.42,87.149,727.42,86.732z"/>
		<path d="M738.225,85.99h4.078c0.406,0,0.716,0.083,0.93,0.25c0.213,0.167,0.32,0.394,0.32,0.68c0,0.255-0.085,0.472-0.254,0.648
			c-0.17,0.177-0.426,0.266-0.77,0.266h-5.75c-0.391,0-0.695-0.108-0.914-0.324s-0.328-0.47-0.328-0.762
			c0-0.188,0.07-0.437,0.211-0.746s0.294-0.554,0.461-0.73c0.692-0.719,1.317-1.335,1.875-1.848
			c0.557-0.513,0.955-0.851,1.195-1.012c0.427-0.302,0.782-0.605,1.066-0.91c0.283-0.305,0.5-0.617,0.648-0.938
			s0.223-0.634,0.223-0.941c0-0.333-0.08-0.632-0.238-0.895c-0.159-0.263-0.375-0.468-0.648-0.613s-0.572-0.219-0.895-0.219
			c-0.683,0-1.219,0.3-1.609,0.898c-0.053,0.078-0.14,0.292-0.262,0.641c-0.123,0.349-0.261,0.617-0.414,0.805
			c-0.154,0.188-0.379,0.281-0.676,0.281c-0.261,0-0.477-0.086-0.648-0.258s-0.258-0.406-0.258-0.703
			c0-0.359,0.08-0.734,0.242-1.125c0.161-0.391,0.402-0.745,0.723-1.063s0.727-0.574,1.219-0.77s1.068-0.293,1.73-0.293
			c0.797,0,1.477,0.125,2.039,0.375c0.364,0.167,0.685,0.396,0.961,0.688c0.275,0.292,0.49,0.629,0.645,1.012
			c0.153,0.383,0.23,0.78,0.23,1.191c0,0.646-0.16,1.233-0.48,1.762s-0.647,0.942-0.98,1.242c-0.334,0.3-0.893,0.77-1.676,1.41
			c-0.784,0.641-1.322,1.138-1.613,1.492C738.482,85.623,738.354,85.792,738.225,85.99z"/>
		<path d="M752.912,82.217c0,0.854-0.053,1.589-0.156,2.203c-0.104,0.614-0.297,1.172-0.578,1.672
			c-0.354,0.614-0.813,1.089-1.375,1.422s-1.188,0.5-1.875,0.5c-0.792,0-1.502-0.224-2.129-0.672
			c-0.628-0.448-1.101-1.067-1.418-1.859c-0.162-0.433-0.28-0.91-0.355-1.434c-0.076-0.523-0.113-1.09-0.113-1.699
			c0-0.786,0.041-1.495,0.125-2.125c0.083-0.63,0.213-1.172,0.391-1.625c0.307-0.75,0.754-1.321,1.34-1.715s1.285-0.59,2.098-0.59
			c0.536,0,1.023,0.087,1.461,0.262s0.821,0.43,1.152,0.766c0.33,0.336,0.61,0.751,0.84,1.246
			C752.714,79.428,752.912,80.644,752.912,82.217z M750.771,82.061c0-0.953-0.058-1.733-0.172-2.34
			c-0.115-0.606-0.308-1.065-0.578-1.375c-0.271-0.31-0.646-0.465-1.125-0.465c-0.688,0-1.166,0.347-1.434,1.039
			c-0.269,0.692-0.402,1.761-0.402,3.203c0,0.979,0.057,1.781,0.172,2.406c0.114,0.625,0.307,1.098,0.578,1.418
			c0.271,0.32,0.638,0.48,1.102,0.48c0.479,0,0.854-0.167,1.125-0.5c0.271-0.333,0.461-0.81,0.57-1.43
			S750.771,83.065,750.771,82.061z"/>
		<path d="M758.186,86.764v-7.109c-1.323,1.016-2.214,1.523-2.672,1.523c-0.219,0-0.413-0.087-0.582-0.262
			c-0.17-0.175-0.254-0.376-0.254-0.605c0-0.266,0.083-0.461,0.25-0.586c0.166-0.125,0.461-0.286,0.883-0.484
			c0.63-0.297,1.134-0.609,1.512-0.938c0.377-0.328,0.712-0.695,1.004-1.102c0.291-0.406,0.481-0.656,0.57-0.75
			c0.088-0.094,0.255-0.141,0.5-0.141c0.275,0,0.497,0.106,0.664,0.32c0.166,0.214,0.25,0.508,0.25,0.883v8.945
			c0,1.047-0.357,1.57-1.07,1.57c-0.318,0-0.573-0.106-0.766-0.32C758.281,87.495,758.186,87.181,758.186,86.764z"/>
		<path d="M765.67,76.49h5.203c0.5,0,0.861,0.078,1.086,0.234c0.224,0.156,0.336,0.414,0.336,0.773c0,0.219-0.132,0.508-0.395,0.867
			c-0.264,0.359-0.563,0.757-0.898,1.191s-0.683,0.976-1.039,1.621c-0.357,0.646-0.684,1.435-0.98,2.367
			c-0.125,0.411-0.214,0.753-0.266,1.023c-0.053,0.271-0.109,0.622-0.172,1.055s-0.117,0.763-0.164,0.992
			c-0.109,0.531-0.265,0.899-0.465,1.105c-0.201,0.206-0.468,0.309-0.801,0.309c-0.318,0-0.573-0.11-0.766-0.332
			c-0.193-0.222-0.289-0.548-0.289-0.98c0-0.333,0.07-0.786,0.211-1.359s0.369-1.259,0.688-2.059c0.317-0.8,0.715-1.62,1.191-2.461
			s1.043-1.679,1.699-2.512h-4.18c-0.438,0-0.765-0.079-0.98-0.238c-0.217-0.159-0.324-0.407-0.324-0.746
			c0-0.359,0.114-0.591,0.344-0.695C764.938,76.542,765.258,76.49,765.67,76.49z"/>
		<path d="M780.592,84.615h-2.469c-0.375,0-0.66-0.087-0.855-0.262s-0.293-0.399-0.293-0.676c0-0.281,0.095-0.509,0.285-0.684
			c0.189-0.175,0.478-0.262,0.863-0.262h2.469c0.385,0,0.673,0.087,0.863,0.262c0.189,0.175,0.285,0.402,0.285,0.684
			c0,0.276-0.094,0.501-0.281,0.676S780.982,84.615,780.592,84.615z"/>
		<path d="M790.396,80.92c0.479,0,0.892-0.141,1.238-0.422c0.346-0.281,0.52-0.685,0.52-1.211c0-0.401-0.139-0.746-0.414-1.035
			c-0.276-0.289-0.648-0.434-1.117-0.434c-0.318,0-0.58,0.044-0.785,0.133c-0.206,0.089-0.369,0.206-0.488,0.352
			c-0.12,0.146-0.233,0.333-0.34,0.563c-0.107,0.229-0.205,0.445-0.293,0.648c-0.053,0.109-0.146,0.195-0.281,0.258
			c-0.136,0.063-0.292,0.094-0.469,0.094c-0.209,0-0.4-0.085-0.574-0.254c-0.175-0.169-0.262-0.395-0.262-0.676
			c0-0.271,0.082-0.556,0.246-0.855s0.403-0.585,0.719-0.855c0.314-0.271,0.707-0.488,1.176-0.652s0.992-0.246,1.57-0.246
			c0.505,0,0.966,0.069,1.383,0.207c0.416,0.138,0.778,0.337,1.086,0.598c0.307,0.261,0.539,0.563,0.695,0.906
			s0.234,0.714,0.234,1.109c0,0.521-0.113,0.968-0.34,1.34s-0.551,0.735-0.973,1.09c0.406,0.219,0.748,0.469,1.027,0.75
			c0.278,0.281,0.488,0.593,0.629,0.934s0.211,0.71,0.211,1.105c0,0.474-0.096,0.933-0.285,1.375
			c-0.19,0.442-0.471,0.837-0.84,1.184c-0.37,0.347-0.809,0.617-1.316,0.813s-1.069,0.293-1.684,0.293
			c-0.625,0-1.186-0.112-1.68-0.336c-0.495-0.224-0.902-0.504-1.223-0.84s-0.563-0.684-0.727-1.043s-0.246-0.656-0.246-0.891
			c0-0.302,0.098-0.546,0.293-0.73s0.438-0.277,0.73-0.277c0.146,0,0.286,0.043,0.422,0.129c0.135,0.086,0.224,0.188,0.266,0.309
			c0.271,0.724,0.561,1.262,0.871,1.613c0.31,0.352,0.746,0.527,1.309,0.527c0.322,0,0.634-0.079,0.934-0.238
			c0.299-0.159,0.547-0.395,0.742-0.707s0.293-0.675,0.293-1.086c0-0.609-0.167-1.087-0.5-1.434c-0.334-0.347-0.797-0.52-1.391-0.52
			c-0.104,0-0.266,0.011-0.484,0.031s-0.359,0.031-0.422,0.031c-0.287,0-0.508-0.071-0.664-0.215s-0.234-0.343-0.234-0.598
			c0-0.25,0.094-0.452,0.281-0.605s0.466-0.23,0.836-0.23H790.396z"/>
		<path d="M800.037,86.764v-7.109c-1.323,1.016-2.214,1.523-2.672,1.523c-0.219,0-0.413-0.087-0.582-0.262
			c-0.17-0.175-0.254-0.376-0.254-0.605c0-0.266,0.083-0.461,0.25-0.586c0.166-0.125,0.461-0.286,0.883-0.484
			c0.63-0.297,1.134-0.609,1.512-0.938c0.377-0.328,0.712-0.695,1.004-1.102c0.291-0.406,0.481-0.656,0.57-0.75
			c0.088-0.094,0.255-0.141,0.5-0.141c0.275,0,0.497,0.106,0.664,0.32c0.166,0.214,0.25,0.508,0.25,0.883v8.945
			c0,1.047-0.357,1.57-1.07,1.57c-0.318,0-0.573-0.106-0.766-0.32C800.133,87.495,800.037,87.181,800.037,86.764z"/>
		<path d="M815.975,86.811V86.6c-0.287,0.328-0.569,0.595-0.848,0.801c-0.279,0.206-0.581,0.362-0.906,0.469
			c-0.326,0.106-0.682,0.16-1.066,0.16c-0.511,0-0.983-0.108-1.418-0.324c-0.436-0.216-0.812-0.524-1.129-0.926
			c-0.318-0.401-0.559-0.872-0.723-1.414s-0.246-1.128-0.246-1.758c0-1.333,0.325-2.372,0.977-3.117
			c0.65-0.745,1.508-1.117,2.57-1.117c0.614,0,1.133,0.105,1.555,0.316s0.833,0.535,1.234,0.973v-3.148
			c0-0.438,0.087-0.769,0.262-0.992c0.174-0.224,0.423-0.336,0.746-0.336c0.322,0,0.571,0.103,0.746,0.309
			c0.174,0.206,0.262,0.509,0.262,0.91v9.406c0,0.406-0.094,0.711-0.281,0.914s-0.43,0.305-0.727,0.305
			c-0.292,0-0.533-0.105-0.723-0.316C816.069,87.502,815.975,87.201,815.975,86.811z M811.779,83.678c0,0.578,0.09,1.07,0.27,1.477
			s0.426,0.712,0.738,0.918s0.653,0.309,1.023,0.309c0.375,0,0.717-0.098,1.027-0.293c0.31-0.195,0.557-0.495,0.742-0.898
			c0.185-0.403,0.277-0.907,0.277-1.512c0-0.567-0.093-1.056-0.277-1.465c-0.186-0.409-0.436-0.722-0.75-0.938
			c-0.315-0.216-0.66-0.324-1.035-0.324c-0.391,0-0.74,0.11-1.047,0.332c-0.308,0.222-0.546,0.539-0.715,0.953
			C811.863,82.65,811.779,83.131,811.779,83.678z"/>
		<path d="M826.084,84.217h-4.172c0.005,0.484,0.103,0.911,0.293,1.281c0.189,0.37,0.442,0.648,0.758,0.836
			c0.314,0.188,0.662,0.281,1.043,0.281c0.255,0,0.488-0.03,0.699-0.09s0.415-0.153,0.613-0.281c0.197-0.128,0.38-0.265,0.547-0.41
			c0.166-0.146,0.383-0.344,0.648-0.594c0.109-0.094,0.266-0.141,0.469-0.141c0.219,0,0.396,0.06,0.531,0.18
			c0.135,0.12,0.203,0.289,0.203,0.508c0,0.192-0.076,0.418-0.227,0.676c-0.151,0.258-0.379,0.505-0.684,0.742
			s-0.688,0.434-1.148,0.59s-0.991,0.234-1.59,0.234c-1.37,0-2.436-0.391-3.195-1.172c-0.761-0.781-1.141-1.841-1.141-3.18
			c0-0.63,0.094-1.215,0.281-1.754s0.461-1.001,0.82-1.387s0.802-0.681,1.328-0.887c0.525-0.206,1.109-0.309,1.75-0.309
			c0.833,0,1.548,0.176,2.145,0.527c0.596,0.352,1.043,0.806,1.34,1.363s0.445,1.125,0.445,1.703c0,0.536-0.154,0.884-0.461,1.043
			C827.073,84.138,826.641,84.217,826.084,84.217z M821.912,83.006h3.867c-0.053-0.729-0.249-1.274-0.59-1.637
			c-0.342-0.362-0.791-0.543-1.348-0.543c-0.531,0-0.968,0.184-1.309,0.551C822.191,81.744,821.984,82.287,821.912,83.006z"/>
		<path d="M837.287,85.389c0,0.266-0.08,0.55-0.238,0.852c-0.159,0.302-0.401,0.59-0.727,0.863c-0.326,0.273-0.736,0.493-1.23,0.66
			c-0.495,0.167-1.053,0.25-1.672,0.25c-1.318,0-2.347-0.384-3.086-1.152c-0.74-0.769-1.109-1.798-1.109-3.09
			c0-0.875,0.169-1.648,0.508-2.32c0.338-0.672,0.828-1.191,1.469-1.559s1.406-0.551,2.297-0.551c0.552,0,1.059,0.081,1.52,0.242
			s0.852,0.37,1.172,0.625s0.564,0.527,0.734,0.816c0.169,0.289,0.254,0.559,0.254,0.809c0,0.255-0.096,0.472-0.285,0.648
			c-0.19,0.177-0.421,0.266-0.691,0.266c-0.178,0-0.324-0.046-0.441-0.137s-0.249-0.238-0.395-0.441
			c-0.261-0.396-0.533-0.692-0.816-0.891c-0.284-0.198-0.645-0.297-1.082-0.297c-0.631,0-1.139,0.246-1.523,0.738
			c-0.386,0.492-0.578,1.165-0.578,2.02c0,0.401,0.049,0.77,0.148,1.105c0.099,0.336,0.242,0.622,0.43,0.859s0.414,0.417,0.68,0.539
			s0.557,0.184,0.875,0.184c0.427,0,0.793-0.099,1.098-0.297s0.574-0.5,0.809-0.906c0.13-0.239,0.271-0.427,0.422-0.563
			c0.15-0.136,0.336-0.203,0.555-0.203c0.26,0,0.477,0.099,0.648,0.297S837.287,85.165,837.287,85.389z"/>
		<path d="M845.1,84.217h-4.172c0.005,0.484,0.103,0.911,0.293,1.281c0.189,0.37,0.442,0.648,0.758,0.836
			c0.314,0.188,0.662,0.281,1.043,0.281c0.255,0,0.488-0.03,0.699-0.09s0.415-0.153,0.613-0.281c0.197-0.128,0.38-0.265,0.547-0.41
			c0.166-0.146,0.383-0.344,0.648-0.594c0.109-0.094,0.266-0.141,0.469-0.141c0.219,0,0.396,0.06,0.531,0.18
			c0.135,0.12,0.203,0.289,0.203,0.508c0,0.192-0.076,0.418-0.227,0.676c-0.151,0.258-0.379,0.505-0.684,0.742
			s-0.688,0.434-1.148,0.59s-0.991,0.234-1.59,0.234c-1.37,0-2.436-0.391-3.195-1.172c-0.761-0.781-1.141-1.841-1.141-3.18
			c0-0.63,0.094-1.215,0.281-1.754s0.461-1.001,0.82-1.387s0.802-0.681,1.328-0.887c0.525-0.206,1.109-0.309,1.75-0.309
			c0.833,0,1.548,0.176,2.145,0.527c0.596,0.352,1.043,0.806,1.34,1.363s0.445,1.125,0.445,1.703c0,0.536-0.154,0.884-0.461,1.043
			C846.089,84.138,845.656,84.217,845.1,84.217z M840.928,83.006h3.867c-0.053-0.729-0.249-1.274-0.59-1.637
			c-0.342-0.362-0.791-0.543-1.348-0.543c-0.531,0-0.968,0.184-1.309,0.551C841.207,81.744,841,82.287,840.928,83.006z"/>
		<path d="M855.748,83.85v2.836c0,0.448-0.102,0.784-0.305,1.008s-0.472,0.336-0.805,0.336c-0.323,0-0.585-0.112-0.785-0.336
			c-0.201-0.224-0.301-0.56-0.301-1.008v-3.398c0-0.536-0.019-0.953-0.055-1.25c-0.037-0.297-0.136-0.54-0.297-0.73
			c-0.162-0.19-0.417-0.285-0.766-0.285c-0.698,0-1.158,0.239-1.379,0.719c-0.222,0.479-0.332,1.167-0.332,2.063v2.883
			c0,0.442-0.101,0.777-0.301,1.004c-0.201,0.227-0.465,0.34-0.793,0.34c-0.323,0-0.588-0.113-0.793-0.34
			c-0.206-0.227-0.309-0.562-0.309-1.004v-6.102c0-0.401,0.092-0.706,0.277-0.914c0.185-0.208,0.428-0.313,0.73-0.313
			c0.291,0,0.535,0.098,0.73,0.293s0.293,0.465,0.293,0.809v0.203c0.369-0.442,0.766-0.769,1.188-0.977s0.891-0.313,1.406-0.313
			c0.536,0,0.997,0.106,1.383,0.32c0.385,0.214,0.703,0.536,0.953,0.969c0.359-0.438,0.744-0.762,1.156-0.973
			c0.411-0.211,0.867-0.316,1.367-0.316c0.583,0,1.086,0.114,1.508,0.344s0.736,0.558,0.945,0.984
			c0.182,0.386,0.273,0.992,0.273,1.82v4.164c0,0.448-0.102,0.784-0.305,1.008s-0.472,0.336-0.805,0.336
			c-0.323,0-0.588-0.113-0.793-0.34c-0.206-0.227-0.309-0.562-0.309-1.004V83.1c0-0.458-0.02-0.825-0.059-1.102
			s-0.145-0.508-0.316-0.695s-0.433-0.281-0.781-0.281c-0.281,0-0.549,0.083-0.801,0.25c-0.253,0.167-0.449,0.391-0.59,0.672
			C855.826,82.303,855.748,82.938,855.748,83.85z"/>
		<path d="M864.779,77.404v3.258c0.4-0.417,0.81-0.735,1.227-0.957c0.416-0.222,0.932-0.332,1.547-0.332
			c0.708,0,1.329,0.168,1.863,0.504c0.533,0.336,0.947,0.823,1.242,1.461c0.294,0.638,0.441,1.395,0.441,2.27
			c0,0.646-0.082,1.238-0.246,1.777s-0.402,1.007-0.715,1.402s-0.691,0.702-1.137,0.918s-0.937,0.324-1.473,0.324
			c-0.328,0-0.637-0.039-0.926-0.117s-0.535-0.181-0.738-0.309s-0.377-0.259-0.52-0.395c-0.144-0.136-0.332-0.339-0.566-0.609v0.211
			c0,0.401-0.097,0.704-0.289,0.91c-0.193,0.206-0.438,0.309-0.734,0.309c-0.303,0-0.543-0.103-0.723-0.309s-0.27-0.509-0.27-0.91
			v-9.313c0-0.433,0.087-0.759,0.262-0.98c0.174-0.222,0.418-0.332,0.73-0.332c0.328,0,0.58,0.105,0.758,0.316
			C864.69,76.713,864.779,77.014,864.779,77.404z M864.881,83.74c0,0.849,0.193,1.501,0.582,1.957
			c0.388,0.456,0.896,0.684,1.527,0.684c0.536,0,0.998-0.233,1.387-0.699c0.388-0.466,0.582-1.134,0.582-2.004
			c0-0.563-0.081-1.047-0.242-1.453c-0.162-0.406-0.391-0.72-0.688-0.941s-0.644-0.332-1.039-0.332c-0.406,0-0.769,0.11-1.086,0.332
			c-0.318,0.222-0.568,0.542-0.75,0.961C864.972,82.663,864.881,83.162,864.881,83.74z"/>
		<path d="M878.764,84.217h-4.172c0.005,0.484,0.103,0.911,0.293,1.281c0.189,0.37,0.442,0.648,0.758,0.836
			c0.314,0.188,0.662,0.281,1.043,0.281c0.255,0,0.488-0.03,0.699-0.09s0.415-0.153,0.613-0.281c0.197-0.128,0.38-0.265,0.547-0.41
			c0.166-0.146,0.383-0.344,0.648-0.594c0.109-0.094,0.266-0.141,0.469-0.141c0.219,0,0.396,0.06,0.531,0.18
			c0.135,0.12,0.203,0.289,0.203,0.508c0,0.192-0.076,0.418-0.227,0.676c-0.151,0.258-0.379,0.505-0.684,0.742
			s-0.688,0.434-1.148,0.59s-0.991,0.234-1.59,0.234c-1.37,0-2.436-0.391-3.195-1.172c-0.761-0.781-1.141-1.841-1.141-3.18
			c0-0.63,0.094-1.215,0.281-1.754s0.461-1.001,0.82-1.387s0.802-0.681,1.328-0.887c0.525-0.206,1.109-0.309,1.75-0.309
			c0.833,0,1.548,0.176,2.145,0.527c0.596,0.352,1.043,0.806,1.34,1.363s0.445,1.125,0.445,1.703c0,0.536-0.154,0.884-0.461,1.043
			C879.753,84.138,879.32,84.217,878.764,84.217z M874.592,83.006h3.867c-0.053-0.729-0.249-1.274-0.59-1.637
			c-0.342-0.362-0.791-0.543-1.348-0.543c-0.531,0-0.968,0.184-1.309,0.551C874.871,81.744,874.664,82.287,874.592,83.006z"/>
		<path d="M884.436,84.951v1.781c0,0.433-0.102,0.757-0.305,0.973s-0.461,0.324-0.773,0.324c-0.308,0-0.561-0.109-0.758-0.328
			c-0.198-0.219-0.297-0.542-0.297-0.969v-5.938c0-0.958,0.346-1.438,1.039-1.438c0.354,0,0.609,0.112,0.766,0.336
			s0.242,0.555,0.258,0.992c0.255-0.438,0.517-0.769,0.785-0.992c0.268-0.224,0.626-0.336,1.074-0.336
			c0.447,0,0.883,0.112,1.305,0.336s0.633,0.521,0.633,0.891c0,0.261-0.09,0.476-0.27,0.645s-0.374,0.254-0.582,0.254
			c-0.078,0-0.268-0.048-0.566-0.145c-0.3-0.097-0.564-0.145-0.793-0.145c-0.313,0-0.568,0.082-0.766,0.246
			c-0.198,0.164-0.352,0.407-0.461,0.73s-0.186,0.707-0.227,1.152C884.456,83.768,884.436,84.311,884.436,84.951z"/>
		<path d="M895.795,85.99h4.078c0.406,0,0.716,0.083,0.93,0.25c0.213,0.167,0.32,0.394,0.32,0.68c0,0.255-0.085,0.472-0.254,0.648
			c-0.17,0.177-0.426,0.266-0.77,0.266h-5.75c-0.391,0-0.695-0.108-0.914-0.324s-0.328-0.47-0.328-0.762
			c0-0.188,0.07-0.437,0.211-0.746s0.294-0.554,0.461-0.73c0.692-0.719,1.317-1.335,1.875-1.848
			c0.557-0.513,0.955-0.851,1.195-1.012c0.427-0.302,0.782-0.605,1.066-0.91c0.283-0.305,0.5-0.617,0.648-0.938
			s0.223-0.634,0.223-0.941c0-0.333-0.08-0.632-0.238-0.895c-0.159-0.263-0.375-0.468-0.648-0.613s-0.572-0.219-0.895-0.219
			c-0.683,0-1.219,0.3-1.609,0.898c-0.053,0.078-0.14,0.292-0.262,0.641c-0.123,0.349-0.261,0.617-0.414,0.805
			c-0.154,0.188-0.379,0.281-0.676,0.281c-0.261,0-0.477-0.086-0.648-0.258s-0.258-0.406-0.258-0.703
			c0-0.359,0.08-0.734,0.242-1.125c0.161-0.391,0.402-0.745,0.723-1.063s0.727-0.574,1.219-0.77s1.068-0.293,1.73-0.293
			c0.797,0,1.477,0.125,2.039,0.375c0.364,0.167,0.685,0.396,0.961,0.688c0.275,0.292,0.49,0.629,0.645,1.012
			c0.153,0.383,0.23,0.78,0.23,1.191c0,0.646-0.16,1.233-0.48,1.762s-0.647,0.942-0.98,1.242c-0.334,0.3-0.893,0.77-1.676,1.41
			c-0.784,0.641-1.322,1.138-1.613,1.492C896.053,85.623,895.925,85.792,895.795,85.99z"/>
		<path d="M910.482,82.217c0,0.854-0.053,1.589-0.156,2.203c-0.104,0.614-0.297,1.172-0.578,1.672
			c-0.354,0.614-0.813,1.089-1.375,1.422s-1.188,0.5-1.875,0.5c-0.792,0-1.502-0.224-2.129-0.672
			c-0.628-0.448-1.101-1.067-1.418-1.859c-0.162-0.433-0.28-0.91-0.355-1.434c-0.076-0.523-0.113-1.09-0.113-1.699
			c0-0.786,0.041-1.495,0.125-2.125c0.083-0.63,0.213-1.172,0.391-1.625c0.307-0.75,0.754-1.321,1.34-1.715s1.285-0.59,2.098-0.59
			c0.536,0,1.023,0.087,1.461,0.262s0.821,0.43,1.152,0.766c0.33,0.336,0.61,0.751,0.84,1.246
			C910.284,79.428,910.482,80.644,910.482,82.217z M908.342,82.061c0-0.953-0.058-1.733-0.172-2.34
			c-0.115-0.606-0.308-1.065-0.578-1.375c-0.271-0.31-0.646-0.465-1.125-0.465c-0.688,0-1.166,0.347-1.434,1.039
			c-0.269,0.692-0.402,1.761-0.402,3.203c0,0.979,0.057,1.781,0.172,2.406c0.114,0.625,0.307,1.098,0.578,1.418
			c0.271,0.32,0.638,0.48,1.102,0.48c0.479,0,0.854-0.167,1.125-0.5c0.271-0.333,0.461-0.81,0.57-1.43
			S908.342,83.065,908.342,82.061z"/>
		<path d="M915.756,86.764v-7.109c-1.323,1.016-2.214,1.523-2.672,1.523c-0.219,0-0.413-0.087-0.582-0.262
			c-0.17-0.175-0.254-0.376-0.254-0.605c0-0.266,0.083-0.461,0.25-0.586c0.166-0.125,0.461-0.286,0.883-0.484
			c0.63-0.297,1.134-0.609,1.512-0.938c0.377-0.328,0.712-0.695,1.004-1.102c0.291-0.406,0.481-0.656,0.57-0.75
			c0.088-0.094,0.255-0.141,0.5-0.141c0.275,0,0.497,0.106,0.664,0.32c0.166,0.214,0.25,0.508,0.25,0.883v8.945
			c0,1.047-0.357,1.57-1.07,1.57c-0.318,0-0.573-0.106-0.766-0.32C915.852,87.495,915.756,87.181,915.756,86.764z"/>
		<path d="M923.24,76.49h5.203c0.5,0,0.861,0.078,1.086,0.234c0.224,0.156,0.336,0.414,0.336,0.773c0,0.219-0.132,0.508-0.395,0.867
			c-0.264,0.359-0.563,0.757-0.898,1.191s-0.683,0.976-1.039,1.621c-0.357,0.646-0.684,1.435-0.98,2.367
			c-0.125,0.411-0.214,0.753-0.266,1.023c-0.053,0.271-0.109,0.622-0.172,1.055s-0.117,0.763-0.164,0.992
			c-0.109,0.531-0.265,0.899-0.465,1.105c-0.201,0.206-0.468,0.309-0.801,0.309c-0.318,0-0.573-0.11-0.766-0.332
			c-0.193-0.222-0.289-0.548-0.289-0.98c0-0.333,0.07-0.786,0.211-1.359s0.369-1.259,0.688-2.059c0.317-0.8,0.715-1.62,1.191-2.461
			s1.043-1.679,1.699-2.512h-4.18c-0.438,0-0.765-0.079-0.98-0.238c-0.217-0.159-0.324-0.407-0.324-0.746
			c0-0.359,0.114-0.591,0.344-0.695C922.508,76.542,922.828,76.49,923.24,76.49z"/>
	</g>
</g>
<g id="Layer_4">
	<rect x="12" y="9" style="opacity:0.7;fill:#FFFFFF;" width="318" height="85"/>
	<rect x="647" y="9" style="opacity:0.7;fill:#FFFFFF;" width="318" height="85"/>
</g>
</svg>
