<?xml version="1.0" encoding="utf-8"?>
<!-- Generator: Adobe Illustrator 16.0.0, SVG Export Plug-In . SVG Version: 6.00 Build 0)  -->
<!DOCTYPE svg PUBLIC "-//W3C//DTD SVG 1.1//EN" "http://www.w3.org/Graphics/SVG/1.1/DTD/svg11.dtd">
<svg version="1.1" id="Layer_1" xmlns="http://www.w3.org/2000/svg" xmlns:xlink="http://www.w3.org/1999/xlink" x="0px" y="0px"
	 width="243px" height="275px" viewBox="0 0 243 275" style="enable-background:new 0 0 243 275;" xml:space="preserve">
<symbol  id="New_Symbol" viewBox="-14.739 -52.555 29.477 105.111">
	<path style="fill:#394E6B;" d="M-2.988-52.555L-2.988-52.555c-5.073,0-9.228,4.029-9.385,9.099l-2.361,86.329
		c-0.184,5.963,5.167,10.584,11.039,9.534l10.697-1.914c4.87-0.871,8.229-5.371,7.678-10.288L6.343-44.211
		C5.811-48.963,1.792-52.555-2.988-52.555z"/>
</symbol>
<symbol  id="New_Symbol_2" viewBox="-11.693 -45.681 23.386 91.362">
	<path style="fill:#394E6B;" d="M7.385,36.57c-0.231,5.097-4.431,9.11-9.534,9.11c-5.815,0-10.279-5.157-9.444-10.913l2.047-19.043
		l-0.217-0.268L-4.82-44.05c0.077-0.921,0.847-1.631,1.772-1.631H9.914c1.02,0,1.831,0.856,1.776,1.875L7.385,36.57z"/>
</symbol>
<symbol  id="New_Symbol_28" viewBox="-12.589 -25.75 25.178 51.5">
	<path style="fill:#EF9F8A;" d="M12.589,15.259v-30.518c0-5.798-4.692-10.491-10.491-10.491h-4.196
		c-5.798,0-10.491,4.692-10.491,10.491v30.518c0,5.799,4.692,10.491,10.491,10.491h4.196C7.897,25.75,12.589,21.058,12.589,15.259z"
		/>
	<path style="fill:#EF9F8A;" d="M12.589,15.259V-6.632l-25.178,6.275v15.616c0,5.799,4.692,10.491,10.491,10.491h4.196
		C7.897,25.75,12.589,21.058,12.589,15.259z"/>
</symbol>
<symbol  id="New_Symbol_3" viewBox="-18.066 -40.691 36.133 81.38">
	<path style="fill:#2D3C58;" d="M11.854,40.686C2.836,40.371-7.343,17.734-9.418,11.666c-0.003-0.008-2.229-6.515-2.229-6.515
		l-6.188-32.762c-1.201-5.79,2.369-11.695,8.165-12.867c5.556-1.123,10.953,2.308,12.344,7.731c0,0,15.156,61.956,15.183,62.059
		c0.848,3.307-0.874,10.917-5.307,11.354C12.319,40.688,12.087,40.694,11.854,40.686z"/>
</symbol>
<symbol  id="New_Symbol_31" viewBox="-32 -21 64 42">
	<path style="fill:#394E6B;" d="M18.75-21h-37.5C-26.068-21-32-15.067-32-7.75V21h64V-7.75C32-15.067,26.068-21,18.75-21z"/>
</symbol>
<symbol  id="New_Symbol_4" viewBox="-12.729 -38.5 25.457 77">
	<g>
		<path style="fill:#2A3F4C;" d="M-3.647-26.527c-0.184-0.019-0.363-0.006-0.539,0.021l0.07-0.444l3.251,0.696L-3.647-26.527z"/>
		<path style="fill:#2D3C58;" d="M10.022-17.754c0.134,0.013,0.265,0.009,0.395-0.001L6.813,29.52c-0.21,2.54-1.38,4.78-3.12,6.4
			c-1.75,1.6-4.08,2.58-6.63,2.58c-6.07,0-10.67-5.46-9.65-11.44l7.299-46.543c0.272,0.166,0.58,0.28,0.916,0.313L10.022-17.754z"/>
		<path style="fill:#D4EFFC;" d="M12.718-22.71l-0.293,2.983c-0.105,1.069-0.971,1.884-2.007,1.971
			c-0.13,0.01-0.261,0.014-0.395,0.001L-4.371-19.17c-0.336-0.033-0.644-0.147-0.916-0.313c-0.7-0.426-1.141-1.223-1.056-2.089
			l0.293-2.983c0.1-1.019,0.893-1.804,1.863-1.951c0.176-0.027,0.355-0.04,0.539-0.021l2.782,0.273l11.611,1.142
			c0.079,0.008,0.152,0.03,0.228,0.046C12.057-24.841,12.828-23.834,12.718-22.71z"/>
		<path style="fill:#FABA9F;" d="M-0.865-26.254l-3.251-0.696l0.85-5.411c0.62-3.6,3.73-6.14,7.27-6.14c0.37,0,0.74,0.02,1.11,0.08
			c3.85,0.58,6.59,4.04,6.271,7.92l-0.41,5.434c-0.076-0.016-0.149-0.038-0.228-0.046L-0.865-26.254z"/>
	</g>
</symbol>
<symbol  id="New_Symbol_53" viewBox="-8.967 -19.982 17.934 39.963">
	<polygon style="fill:#61728A;" points="-5.126,19.981 -8.967,9.089 -1.843,5.542 -6.532,-3.595 8.967,-19.982 	"/>
</symbol>
<symbol  id="New_Symbol_69" viewBox="-1.357 -1.827 2.714 3.653">
	<g>
		<path style="fill:#67423A;" d="M-1.357-0.026c0.004-0.224,0.04-0.441,0.1-0.64c0.205-0.688,0.709-1.171,1.292-1.16
			c0.75,0.014,1.341,0.842,1.322,1.852c-0.007,0.342-0.083,0.66-0.21,0.933C0.9,1.486,0.459,1.835-0.035,1.826
			C-0.785,1.812-1.376,0.983-1.357-0.026z"/>
	</g>
</symbol>
<symbol  id="New_Symbol_7" viewBox="-12.526 -15.25 25.053 30.5">
	<path style="fill:#EF9F8A;" d="M12.526-9.445c0-3.207-2.599-5.805-5.805-5.805H0.729c-5.822,0-10.759,3.811-11.583,8.94
		l-1.553,9.674C-13.414,9.637-7.944,15.25-0.824,15.25l0,0c7.373,0,13.35-5.978,13.35-13.35V-9.445z"/>
</symbol>
<symbol  id="New_Symbol_8" viewBox="-3.283 -1.387 6.566 2.772">
	<g>
		<path style="fill:#B15A3C;" d="M-2.454-1.387l-0.829,1.639c2.06,1.042,4.33,1.374,6.566,0.961L2.95-0.592
			C1.112-0.251-0.756-0.527-2.454-1.387z"/>
	</g>
</symbol>
<symbol  id="New_Symbol_81" viewBox="-11.733 -7.16 23.466 14.319">
	<path style="fill:#67423A;" d="M11.67-7.16c0.3,2.313-0.364,5.189-4.55,6.954C-0.781,3.123-5.503,6.442-5.503,6.442L-9.716,7.14
		c-0.837,0.139-1.612-0.476-1.667-1.323l-0.35-5.393L3.178-7.16H11.67z"/>
</symbol>
<g>
	<g>
		
			<use xlink:href="#New_Symbol_3"  width="36.133" height="81.38" id="XMLID_360_" x="-18.066" y="-40.691" transform="matrix(0.5595 -0.0337 -0.0337 -0.5595 91.437 109.436)" style="overflow:visible;"/>
		
			<use xlink:href="#New_Symbol_4"  width="25.457" height="77" x="-12.729" y="-38.5" transform="matrix(0.5584 0.0474 0.0474 -0.5584 87.7148 145.5581)" style="overflow:visible;"/>
	</g>
</g>
<use xlink:href="#New_Symbol_3"  width="36.133" height="81.38" id="XMLID_358_" x="-18.066" y="-40.691" transform="matrix(-0.5604 -0.0076 0.0076 -0.5604 145.1289 107.5488)" style="overflow:visible;"/>
<use xlink:href="#New_Symbol_31"  width="64" height="42" id="XMLID_357_" x="-32" y="-21" transform="matrix(0.5604 0 0 -0.5604 117.6729 159.4595)" style="overflow:visible;"/>
<g>
	<g>
		
			<use xlink:href="#New_Symbol_81"  width="23.466" height="14.319" id="XMLID_355_" x="-11.733" y="-7.16" transform="matrix(-0.9482 -0.1333 0.1333 -0.9482 83.5645 264.1519)" style="overflow:visible;"/>
	</g>
	<g>
		<g>
			
				<use xlink:href="#New_Symbol"  width="29.477" height="105.111" id="XMLID_353_" x="-14.739" y="-52.555" transform="matrix(0.5542 0.0834 0.0834 -0.5542 104.5708 190.0737)" style="overflow:visible;"/>
			
				<use xlink:href="#New_Symbol_2"  width="23.386" height="91.362" id="XMLID_352_" x="-11.693" y="-45.681" transform="matrix(0.5475 0.1195 0.1195 -0.5475 95.7212 235.5239)" style="overflow:visible;"/>
		</g>
	</g>
	<g>
		<g>
			
				<use xlink:href="#New_Symbol_81"  width="23.466" height="14.319" id="XMLID_351_" x="-11.733" y="-7.16" transform="matrix(0.9575 0 0 -0.9575 130.542 262.5874)" style="overflow:visible;"/>
		</g>
		<g>
			<g>
				
					<use xlink:href="#New_Symbol"  width="29.477" height="105.111" id="XMLID_350_" x="-14.739" y="-52.555" transform="matrix(-0.5597 -0.0304 0.0304 -0.5597 125.8506 185.98)" style="overflow:visible;"/>
				
					<use xlink:href="#New_Symbol_2"  width="23.386" height="91.362" id="XMLID_349_" x="-11.693" y="-45.681" transform="matrix(-0.5604 0.0063 -0.0063 -0.5604 125.3193 232.2798)" style="overflow:visible;"/>
			</g>
		</g>
	</g>
</g>
<path style="fill:#2D3C58;" d="M142.086,91.163c-0.501-5.842-8.924-9.8-13.247-11.873c-1.118-0.531-9.928-3.375-11.166-2.923
	c-1.236-0.451-10.045,2.392-11.152,2.923c-4.334,2.073-12.756,6.031-13.257,11.873c-0.28,3.201-0.466,7.276-0.308,8.766
	l5.606,59.176c0.062,0.601,1.021,1.129,2.176,1.177l12.517,0.75c1.41,0.094,2.826,0.12,4.242,0.13v0.006
	c0.055,0,0.114-0.003,0.176-0.004c0.065,0.001,0.128,0.004,0.19,0.004v-0.006c1.408-0.01,2.82-0.036,4.234-0.13l12.521-0.75
	c1.146-0.048,2.107-0.576,2.181-1.177l5.597-59.176C142.552,98.439,142.376,94.363,142.086,91.163z"/>
<path style="fill:#E9F4F7;" d="M131.598,80.617l-14.35,38.624l-13.497-38.267l0.65-0.414c8.282-5.328,18.65-5.366,26.956-0.095
	L131.598,80.617z"/>
<g>
	
		<use xlink:href="#New_Symbol_53"  width="17.934" height="39.963" x="-8.967" y="-19.982" transform="matrix(0.9575 0 0 -0.9575 109.1187 100.104)" style="overflow:visible;"/>
	
		<use xlink:href="#New_Symbol_53"  width="17.934" height="39.963" x="-8.967" y="-19.982" transform="matrix(-0.9575 0 0 -0.9575 126.2373 100.104)" style="overflow:visible;"/>
</g>
<polygon style="fill:#A1B766;" points="122.373,109.505 117.103,119.397 113.075,109.439 113.075,109.433 113.527,97.421 
	115.854,92.142 112.986,87.683 118.263,80.971 122.373,87.153 118.726,92.139 120.667,95.922 "/>
<path style="fill:#D4EFFC;" d="M111.562,89.056l6.528-4.868l6.283,4.459c2.417-1.807,3.948-4.499,3.948-7.328
	c0-4.987-4.756-9.575-10.647-9.575c-5.875,0-10.649,4.588-10.649,9.575C107.024,84.373,108.823,87.264,111.562,89.056z"/>
<use xlink:href="#New_Symbol_28"  width="25.178" height="51.5" id="XMLID_348_" x="-12.589" y="-25.75" transform="matrix(0.5604 0 0 -0.5604 117.6729 70.4663)" style="overflow:visible;"/>
<g>
	<path style="fill:#FCF8C8;" d="M140.031,29.995v7.287c0,1.44-0.178,2.841-0.516,4.181c-1.854,7.578-8.711,13.192-16.861,13.192
		h-10.946c-8.068,0-14.847-5.503-16.809-12.956c-0.368-1.413-0.56-2.894-0.56-4.417v-7.287c0-9.595,7.777-17.375,17.368-17.375
		h10.946C132.255,12.62,140.031,20.4,140.031,29.995z"/>
	<g>
		
			<use xlink:href="#New_Symbol_7"  width="25.053" height="30.5" id="XMLID_347_" x="-12.526" y="-15.25" transform="matrix(0.5604 0 0 -0.5604 97.29 50.8726)" style="overflow:visible;"/>
		
			<use xlink:href="#New_Symbol_7"  width="25.053" height="30.5" id="XMLID_346_" x="-12.526" y="-15.25" transform="matrix(-0.5604 0 0 -0.5604 137.0811 50.8726)" style="overflow:visible;"/>
	</g>
	<path style="fill:#FABA9F;" d="M117.179,75.392L117.179,75.392c-10.552,0-19.189-8.637-19.189-19.194V31.117
		c0-7.245,5.921-13.171,13.17-13.171h12.046c7.253,0,13.173,5.926,13.173,13.171v25.081
		C136.379,66.755,127.745,75.392,117.179,75.392z"/>
	<path style="opacity:0.59;fill:#FABAA0;" d="M117.18,55.943L117.18,55.943c-2.529,0-4.597-2.068-4.597-4.598v-8.029
		c0-2.529,2.068-4.599,4.596-4.599h0.001c2.531,0,4.605,2.07,4.605,4.599v8.029C121.786,53.875,119.711,55.943,117.18,55.943z"/>
	<path style="fill:#FCF8C8;" d="M141.54,8.553c-2.466-2.127-5.814-3.066-8.972-2.512c1.111,0.589,1.135,2.361,0.375,3.391
		c-3.381,4.603-8.418,1.695-12.662,0.708c-4.37-1.015-9.197,0.064-12.668,2.831c-2.41,1.915-4.083,4.527-5.155,7.378
		c0.536-0.175,1.072-0.34,1.613-0.478c3.894-0.981,7.507-0.413,10.889,1.742c0.765,0.486,1.059,1.204,1.035,1.909
		c0.579,0.173,1.147,0.423,1.718,0.781c6.483,4.131,14.967,5.839,21.889,1.944C146.354,22.457,148.068,14.162,141.54,8.553z"/>
	<path style="fill:#FFFFFF;" d="M109.938,57.586c-0.417,0-0.688,0.628-0.486,1.136c1.404,3.492,4.341,5.895,7.728,5.895
		c3.394,0,6.324-2.403,7.728-5.895c0.203-0.508-0.057-1.136-0.477-1.136H109.938z"/>
	<g>
		<g>
			<g>
				
					<use xlink:href="#New_Symbol_8"  width="6.566" height="2.772" x="-3.283" y="-1.387" transform="matrix(1.2744 0 0 -1.2744 109.6553 34.1465)" style="overflow:visible;"/>
			</g>
			<g>
				
					<use xlink:href="#New_Symbol_8"  width="6.566" height="2.772" id="XMLID_345_" x="-3.283" y="-1.387" transform="matrix(-1.2744 0 0 -1.2744 124.7109 34.1465)" style="overflow:visible;"/>
			</g>
		</g>
		<g>
			
				<use xlink:href="#New_Symbol_69"  width="2.714" height="3.653" id="XMLID_14_" x="-1.357" y="-1.827" transform="matrix(1.4118 0 0 -1.4118 109.9297 42.8564)" style="overflow:visible;"/>
			
				<use xlink:href="#New_Symbol_69"  width="2.714" height="3.653" id="XMLID_5_" x="-1.357" y="-1.827" transform="matrix(1.4118 0 0 -1.4118 124.4414 42.8564)" style="overflow:visible;"/>
		</g>
	</g>
	<path style="fill:#FCF8C8;" d="M140.031,29.995v8.407c0,1.441-0.178,2.842-0.516,4.181c-4.251-1.384-7.328-5.38-7.328-10.099
		v-3.949c0-1.516-1.23-2.743-2.748-2.743h-25.401c-1.517,0-2.743,1.227-2.743,2.743v5.977c0,3.986-2.708,7.337-6.396,8.306
		c-0.368-1.412-0.56-2.892-0.56-4.417v-7.285c0-10.174,8.322-18.497,18.487-18.497h9.827C132.255,12.62,140.031,20.4,140.031,29.995
		z"/>
</g>
<g>
	
		<use xlink:href="#New_Symbol_4"  width="25.457" height="77" x="-12.729" y="-38.5" transform="matrix(0.55 0.1076 -0.1076 0.55 153.8584 108.7236)" style="overflow:visible;"/>
</g>
<g>
	<path style="fill:#EF9F8A;" d="M91.697,176.393l2.215-0.766c2.065-0.737,3.291-2.876,2.87-5.029l-0.314-1.618l-7.185-0.706
		L91.697,176.393z"/>
	<g>
		<g>
			<g>
				<path style="fill:#724348;" d="M91.438,168.274h-7.446c-3.35,0-6.081,2.738-6.081,6.079v3.963c0,0.155,0.137,0.298,0.305,0.298
					h2.259c0.167,0,0.297-0.143,0.297-0.298v-3.963c0-1.771,1.444-3.223,3.22-3.223h7.446c1.775,0,3.221,1.452,3.221,3.223v3.963
					c0,0.155,0.13,0.298,0.295,0.298h2.259c0.168,0,0.303-0.143,0.303-0.298v-3.963C97.517,171.01,94.786,168.274,91.438,168.274z"
					/>
			</g>
			<g>
				<path style="fill:#67423A;" d="M105.128,212h-33.7c-1.852,0-3.368-1.52-3.368-3.372v-26.525c0-1.844,1.516-3.356,3.368-3.356
					h33.7c1.848,0,3.366,1.513,3.366,3.356v26.525C108.494,210.481,106.976,212,105.128,212z"/>
				<rect x="68.349" y="196.287" style="opacity:0.43;fill:#67423A;" width="39.521" height="4.271"/>
				<path style="fill:#67423A;" d="M108.701,179.396c0-1.051-0.886-1.892-1.993-1.892h-0.76h-0.615H70.788
					c-2.369,0-4.288,1.813-4.288,4.054v13.054c0,2.082,1.784,3.771,3.985,3.771h30.95c2.201,0,3.978-1.689,3.978-3.771v-10.875
					c0-2.088-1.32-3.848,0.736-4.341H108.701L108.701,179.396z"/>
				<path style="opacity:0.43;fill:#67423A;" d="M106.862,211.783L106.862,211.783c-1.14,0-2.078-0.927-2.078-2.075V180.54
					c0-1.14,0.938-2.082,2.078-2.082l0,0c1.133,0,2.068,0.942,2.068,2.082v29.168C108.93,210.856,107.995,211.783,106.862,211.783z"
					/>
				<g>
					<path style="fill:#724348;" d="M88.095,203.306h-6.541c-0.651,0-1.185-0.532-1.185-1.188v-2.844
						c0-0.648,0.533-1.183,1.185-1.183h6.541c0.654,0,1.188,0.534,1.188,1.183v2.844C89.282,202.774,88.749,203.306,88.095,203.306z
						"/>
					<path style="fill:#EAD35F;" d="M87.973,202.216H81.67c-0.714,0-1.3-0.582-1.3-1.309v-3.686c0-0.728,0.586-1.303,1.3-1.303
						h6.303c0.723,0,1.309,0.575,1.309,1.303v3.686C89.282,201.634,88.696,202.216,87.973,202.216z"/>
				</g>
			</g>
		</g>
	</g>
	<g>
		<path style="fill:#FABAA0;" d="M95.91,165.864c-0.278-1.61-1.948-2.689-3.724-2.445l-0.298,0.055
			c-0.293,0.028-0.578,0.127-0.837,0.235c-1.024-0.577-2.27-0.842-3.547-0.642l-2.667,0.377c-2.836,0.403-4.764,2.819-4.305,5.371
			l0.792,4.475c0.455,2.565,3.12,4.298,5.949,3.892l2.67-0.377c0.101-0.016,0.192-0.043,0.285-0.067
			c-0.045-0.114-0.087-0.232-0.13-0.344h1.6v-6.557c0.554-0.469,1.297-0.753,2.112-0.753h1.191c0.476-0.092,0.967-0.107,1.466-0.104
			L95.91,165.864z"/>
	</g>
</g>
<g>
	<path style="fill:#FAB692;" d="M170.784,89.062l-1.582-2.499l-7.902-2.161c1.368-1.562,2.418-3.448,3.031-5.524
		c0.34-1.133-0.343-2.34-1.531-2.691c-1.25-0.288-2.441,0.284-2.781,1.42c-0.501,1.694-1.558,3.29-2.956,4.562
		c-2.479,2.258-4.676,2.885-2.503,6.388c0.8,1.272,0.18,3.601,1.364,4.611c3.421,2.92,8.739,0.809,12.681,0.359
		C170.811,93.27,171.964,90.907,170.784,89.062z"/>
	<path style="fill:#2D3C58;" d="M169.252,94.878l-10.201-2.722c-0.79-0.214-1.224-1.201-0.968-2.21l5.247-19.606
		c0.256-1.005,1.127-1.647,1.938-1.433l10.189,2.717c0.792,0.215,1.227,1.206,0.967,2.211l-5.237,19.605
		C170.923,94.449,170.051,95.093,169.252,94.878z"/>
	<path style="fill:#FFFFFF;stroke:#FFFFFF;stroke-width:0.3422;stroke-miterlimit:10;" d="M166.459,89.887
		c-0.102,0.368-0.467,0.585-0.841,0.485c-0.354-0.097-0.57-0.472-0.477-0.835c0.099-0.364,0.463-0.58,0.835-0.485
		C166.346,89.148,166.563,89.523,166.459,89.887z"/>
	<path style="fill:#ABC3E6;" d="M169.755,88.889l-8.141-2.173c-0.309-0.078-0.479-0.381-0.406-0.678l3.747-14.015
		c0.084-0.296,0.385-0.472,0.672-0.394l8.146,2.175c0.306,0.076,0.477,0.381,0.402,0.676l-3.742,14.016
		C170.345,88.795,170.044,88.969,169.755,88.889z"/>
	<g>
		<g>
			<path style="fill:#FAB692;" d="M172.797,84.856l-3.23-0.863c-0.967-0.257-1.556-1.26-1.29-2.228l0.02-0.129
				c0.27-0.968,1.274-1.547,2.243-1.291l3.229,0.863c0.967,0.257,1.55,1.262,1.29,2.23l-0.026,0.126
				C174.764,84.533,173.764,85.113,172.797,84.856z"/>
		</g>
		<g>
			<path style="fill:#FAB692;" d="M170.889,91.98l-3.235-0.862c-0.969-0.261-1.536-1.264-1.292-2.232l0.041-0.127
				c0.266-0.968,1.258-1.549,2.227-1.291l3.234,0.862c0.969,0.262,1.56,1.265,1.292,2.234l-0.032,0.125
				C172.87,91.658,171.856,92.241,170.889,91.98z"/>
		</g>
		<g>
			<path style="fill:#FAB692;" d="M172.054,88.478l-3.229-0.862c-0.967-0.259-1.545-1.266-1.291-2.234l0.03-0.124
				c0.269-0.968,1.264-1.551,2.231-1.291l3.232,0.861c0.969,0.261,1.559,1.261,1.291,2.229l-0.023,0.13
				C174.032,88.155,173.021,88.736,172.054,88.478z"/>
		</g>
	</g>
</g>
</svg>
