<?xml version="1.0" encoding="utf-8"?>
<!-- Generator: Adobe Illustrator 16.0.0, SVG Export Plug-In . SVG Version: 6.00 Build 0)  -->
<!DOCTYPE svg PUBLIC "-//W3C//DTD SVG 1.1//EN" "http://www.w3.org/Graphics/SVG/1.1/DTD/svg11.dtd">
<svg version="1.1" id="Layer_1" xmlns="http://www.w3.org/2000/svg" xmlns:xlink="http://www.w3.org/1999/xlink" x="0px" y="0px"
	 width="243px" height="218.712px" viewBox="0 0 243 218.712" style="enable-background:new 0 0 243 218.712;" xml:space="preserve"
	>
<g>
	
		<ellipse transform="matrix(-1 0.01 -0.01 -1 393.769 429.4276)" style="opacity:0.2;fill:#1B1C20;" cx="195.813" cy="215.697" rx="47.19" ry="3.255"/>
	
		<ellipse transform="matrix(-1 0.01 -0.01 -1 101.7796 435.9203)" style="opacity:0.2;fill:#1B1C20;" cx="49.801" cy="218.214" rx="49.804" ry="3.103"/>
	<g>
		<path style="fill:#D99C5E;" d="M93.546,192.383c-0.154,1.854,8.396,3.488,9.593,3.145c-0.412-2.34,0.779-6.501,1.106-8.673
			c1.712-11.43,11.623-27.339,17.323-42.553c0.485-1.294-5.1-29.234-4.682-30.561l-19.539,0.195
			c-1.29,7.412,16.294,27.723,11.94,31.832c-12.25,11.561-6.744,16.718-13.55,39.867C93.604,192.895,93.664,190.958,93.546,192.383z
			"/>
		<g>
			<path style="fill:#CF7328;" d="M90.634,194.877c0.115,0.677,5.966,3.495,6.866,3.715c7.277,1.783,13.205,5.308,17.017,2.501
				c0.685-0.492,1.156-1.194,1.219-2.177c-0.095-0.557-2.833-1.507-5.712-3.098c-2.218-1.245-4.582-2.852-5.814-5.105
				c-0.088-0.15-0.173-0.228-0.271-0.243c-0.77-0.188-2.293,2.58-6.176,1.308c-1.948-0.642-3.965-1.925-3.262-3.78
				C93.243,190.087,90.171,191.262,90.634,194.877z"/>
			<g>
				<path style="fill:#AB5B26;" d="M90.634,194.877c0.115,0.677,5.966,3.495,6.866,3.715c4.065,0.997,8.298,2.795,12.159,3.498
					c1.006,0.182,3.39,0.085,4.858-0.997c-1.807,0.431-5.119,0.384-10.953-1.967c-7.337-2.943-11.047-5.449-12.634-6.713
					C90.642,193.095,90.508,193.895,90.634,194.877z"/>
				<path style="fill:#FFFFFF;" d="M108.202,196.527c-0.049,0.376,0.577,0.65,0.801,0.615c0.224-0.034,0.696-0.851,1.021-1.324
					c-0.309-0.174-0.622-0.357-0.933-0.541C108.873,195.713,108.251,196.155,108.202,196.527z"/>
				<path style="fill:#FFFFFF;" d="M106.204,195.274c-0.074,0.292,0.42,0.838,0.837,0.724c0.225-0.06,0.81-0.804,1.198-1.266
					c-0.315-0.204-0.622-0.419-0.921-0.646C106.962,194.616,106.277,194.982,106.204,195.274z"/>
				<path style="fill:#FFFFFF;" d="M104.697,194.436c0.235,0.028,1.28-1.15,1.46-1.314c-0.356-0.319-0.682-0.652-0.971-1.004
					c-0.13,0.092-1.031,1.055-1.124,1.16C103.749,193.633,104.462,194.408,104.697,194.436z"/>
				<path style="fill:#FFFFFF;" d="M104.04,190.74c-3.289,3.058-8.567,1.542-10.269-1.332c-0.624,1.681,5.874,5.768,10.473,1.768
					L104.04,190.74z"/>
			</g>
		</g>
		<g>
			<path style="fill:#B64A7B;" d="M110.363,89.629c2.998,3.965,4.867,10.337,8.468,21.065c0.331,0.988,2.429,1.966,2.763,3
				c0.699,2.162-0.855,5.391-0.793,5.894l-21.284,6.099c-0.823-1.598-3.103-2.396-3.8-4.166c-0.467-1.185,0.731-1.834,0.311-3.03
				c-2.163-6.146-4.474-12.746-6.132-15.075c-2.254-3.16-5.488-6.37-5.746-10.705C83.53,82.289,103.12,80.047,110.363,89.629z"/>
			<path style="opacity:0.2;fill:#1B1C20;" d="M119.967,113.183c-0.255,0.192-23.179,6.602-23.179,6.602l-0.072-0.757l21.902-6.209
				L119.967,113.183z"/>
		</g>
	</g>
	<g>
		<g>
			<path style="fill:#2B2C2B;" d="M184.147,142.035c0.07-1.01,2.257-5.784,2.299-8.264c0.163-9.581-5.233-6.607-7.354-13.727
				c-0.968-3.244,6.307-16.205,2.713-19.357c-1.21-1.061-3.386-0.875-6.649,0.574l0.42,0.92c8.153-3.621,6.9,1.576,4.161,10.08
				c-1.866,5.798-3.435,9.232,2.478,13.882c6.623,5.212,1.099,13.189,0.91,15.823L184.147,142.035z"/>
			<path style="fill:#2B2C2B;" d="M184.125,142.839c4.271-11.941,1.287-13.771-3.337-23.581c-2.522-5.348-0.133-15.975-6.351-17.015
				l-0.172,0.995c5.204,0.871,3.023,10.994,5.593,16.445c4.646,9.858,7.412,11.32,3.302,22.822L184.125,142.839z"/>
		</g>
		<g>
			<path style="fill:#2B2C2B;" d="M105.424,201.812c-0.054-0.018-0.106-0.039-0.154-0.064c-0.345-0.186-0.519-0.591-0.397-0.975
				l4.718-14.826c0.138-0.434,0.61-0.679,1.053-0.543c0.443,0.136,0.69,0.602,0.551,1.038l-4.718,14.827
				C106.34,201.706,105.867,201.946,105.424,201.812z"/>
			<path style="fill:#2B2C2B;" d="M110.066,205.139l-10.543-3.505c-0.702-0.234-1.094-0.936-0.876-1.575
				c0.219-0.634,0.964-0.961,1.666-0.729l10.545,3.507c0.7,0.23,1.093,0.938,0.874,1.571
				C111.513,205.047,110.768,205.373,110.066,205.139z"/>
		</g>
		<g>
			<path style="fill:#2B2C2B;" d="M236.659,177.294c0.221,21.675-17.44,39.422-39.448,39.638
				c-22.009,0.218-40.028-17.177-40.25-38.85c-0.22-21.672,17.441-39.419,39.449-39.636
				C218.419,138.229,236.438,155.622,236.659,177.294z M230.547,177.355c-0.09-8.876-3.684-17.183-10.12-23.396
				c-6.437-6.214-14.943-9.585-23.955-9.496c-9.012,0.09-17.448,3.628-23.757,9.967c-6.308,6.34-9.731,14.716-9.641,23.592
				c0.091,8.875,3.684,17.183,10.12,23.396c6.437,6.212,14.943,9.585,23.955,9.495c9.012-0.089,17.447-3.629,23.757-9.966
				C227.214,194.607,230.638,186.231,230.547,177.355z"/>
			<path style="fill:#138FA3;" d="M230.792,177.353c0.188,18.483-14.873,33.615-33.64,33.802
				c-18.768,0.186-34.136-14.646-34.324-33.131c-0.188-18.481,14.874-33.613,33.642-33.799
				C215.236,144.038,230.604,158.872,230.792,177.353z M219.334,199.427c5.898-5.924,9.097-13.756,9.012-22.051
				c-0.084-8.296-3.442-16.062-9.459-21.869c-6.016-5.807-13.968-8.959-22.393-8.876c-8.423,0.085-16.31,3.39-22.208,9.317
				c-5.896,5.925-9.097,13.757-9.013,22.053c0.084,8.294,3.445,16.063,9.461,21.87c6.017,5.805,13.969,8.959,22.393,8.876
				C205.551,208.663,213.438,205.354,219.334,199.427z"/>
			
				<ellipse transform="matrix(1 -0.0098 0.0098 1 -1.7309 1.9362)" style="fill:#138FA3;" cx="196.811" cy="177.689" rx="6.431" ry="6.334"/>
			<path style="fill:#6A6A6A;" d="M206.73,201.599c-20.169,7.478-36.921-8.108-36.402-24.045
				c0.369-17.095,15.845-29.938,34.191-24.771c-2.948-0.637-4.58-0.901-7.712-0.818c-30.71,1.979-34.353,43.751-5.285,50.424
				C197.026,203.687,201.638,203.14,206.73,201.599z"/>
		</g>
		<g>
			<path style="fill:#2B2C2B;" d="M91.256,179.752c0.224,21.674-17.437,39.422-39.444,39.642
				c-22.009,0.219-40.03-17.173-40.253-38.845c-0.223-21.675,17.437-39.423,39.444-39.643
				C73.012,140.686,91.033,158.078,91.256,179.752z M85.145,179.813c-0.091-8.874-3.687-17.182-10.122-23.394
				c-6.438-6.213-14.945-9.584-23.957-9.493c-9.012,0.089-17.448,3.631-23.756,9.97c-6.307,6.339-9.73,14.716-9.639,23.592
				c0.092,8.876,3.687,17.183,10.123,23.395c6.438,6.212,14.945,9.582,23.957,9.492c9.012-0.089,17.448-3.631,23.757-9.97
				C81.813,197.067,85.236,188.689,85.145,179.813z"/>
			<path style="fill:#138FA3;" d="M85.39,179.81c0.19,18.484-14.87,33.619-33.637,33.807c-18.767,0.187-34.137-14.644-34.327-33.126
				s14.871-33.616,33.638-33.805C69.831,146.499,85.2,161.328,85.39,179.81z M73.935,201.889c5.895-5.927,9.094-13.76,9.009-22.054
				c-0.085-8.297-3.445-16.062-9.461-21.869c-6.018-5.809-13.971-8.956-22.395-8.872c-8.424,0.084-16.31,3.391-22.207,9.317
				c-5.896,5.927-9.096,13.757-9.011,22.054c0.086,8.295,3.447,16.062,9.464,21.869c6.017,5.806,13.97,8.959,22.394,8.874
				C60.151,211.125,68.038,207.813,73.935,201.889z"/>
			
				<ellipse transform="matrix(0.9999 -0.01 0.01 0.9999 -1.8027 0.5242)" style="fill:#138FA3;" cx="51.408" cy="180.149" rx="6.432" ry="6.333"/>
			<path style="fill:#6A6A6A;" d="M61.331,204.059c-20.167,7.48-36.922-8.104-36.405-24.041
				c0.368-17.094,15.842-29.939,34.188-24.774c-2.947-0.637-4.581-0.901-7.711-0.816c-30.709,1.982-34.347,43.754-5.28,50.423
				C51.627,206.148,56.238,205.598,61.331,204.059z"/>
		</g>
		<g>
			<path style="fill:#2B2C2B;" d="M94.681,120.004l4.146-1.021l-3.394-13.318c-0.723-2.824-4.837-1.696-4.114,1.13L94.681,120.004z"
				/>
			<g id="seat_1_">
				<path style="fill:#444450;" d="M82.034,100.99c-1.662,1.335-2.282,4.781,0.149,6.56c2.432,1.777,7.516,7.912,10.42,7.85
					c8.186-0.172,7.315-3.418,11.783-5.825c3.642-1.96,11.52-2.949,10.745-5.085c-0.546-1.499-3.312-3.695-5.949-3.479
					c-2.596,0.214-8.403,2.041-15.542,1.726C88.422,102.505,83.474,99.828,82.034,100.99z"/>
				<path style="fill:#232329;" d="M115.132,104.489c-0.056-0.153-0.139-0.32-0.241-0.485c-0.692,1.75-7.794,1.937-11.085,3.711
					c-2.345,1.262-3.9,2.843-5.569,3.997c-7.458,5.16-8.887-2.656-15.585-6.108c-1.126-0.581-1.719-1.641-1.966-2.31
					c-0.424,2.09,0.472,3.506,1.498,4.256c2.432,1.777,7.516,7.912,10.42,7.85c8.186-0.172,7.315-3.418,11.783-5.825
					C108.029,107.614,115.907,106.625,115.132,104.489z"/>
			</g>
		</g>
		<path style="fill:#138FA3;" d="M95.801,124.402l-1.025-4.555l3.748-0.88l0.962,2.607c48.011-1.081,44.882-0.963,75.092-1.636
			c0.123-0.003,0.253-0.005,0.376-0.009c-0.445-1.426-0.903-2.889-1.377-4.399c1.272-0.396,2.543-0.791,3.771-1.318
			c16.785,53.669,15.663,50.892,20.937,62.918c0.442,1.01-0.016,2.188-1.024,2.634c-1.021,0.446-2.244-0.004-2.63-1.027
			c-0.133-0.352-17.225-51.475-17.397-51.642c-11.936,11.513-63.759,60.453-64.269,60.681c-1.4,0.623-62.112-5.097-63.761-6.09
			C47.581,180.708,46.267,183.299,95.801,124.402z M170.294,125.107c-36.097,0.813-27.326,0.358-69.579,1.308l13.526,52.604
			L170.294,125.107z M110.19,183.769c0.174,0.334-13.024-54.19-13.077-54.205c-0.245,0.294-41.801,48.997-42.048,49.291
			L110.19,183.769z"/>
		<path style="fill:#2B2C2B;" d="M171.578,100.412c-2.359-1.281-6.634-3.588-6.36-4.14c1.511-3.054,4.419-1.979,10.7,2.393
			c0.845,0.867,1.304,2.452,1.313,3.289c0.004,0.459-1.137,1.583-2.764,2.811c1.013,3.07,2.13,6.381,2.987,9.017
			c0.156,0.48,1.028,0.521,1.122,1.275c0.093,0.757-5.183,2.407-5.531,1.823c-0.348-0.585,0.539-1.164,0.37-1.704
			c-0.746-2.358-1.655-5.269-2.53-8.053c-2.748,1.568-5.626,2.653-6.903,1.773c-0.903-0.623-0.865-2.188-1.186-3.14
			C162.136,103.787,171.063,100.699,171.578,100.412z"/>
		<path style="fill:#2B2C2B;" d="M186.492,137.517c0.609-0.191,1.263,0.142,1.454,0.741l2.746,8.632
			c0.191,0.6-0.025,1.152-0.482,1.226c-0.458,0.073-1-0.354-1.206-0.949l-2.289-6.632c-0.205-0.599-0.872-0.932-1.483-0.745
			l-2.888,0.886c-0.61,0.187-1.258-0.028-1.438-0.478c-0.18-0.449,0.169-0.973,0.779-1.165L186.492,137.517z"/>
		<path style="fill:#2B2C2B;" d="M193.593,177.723c0.02,1.88,1.584,3.388,3.494,3.369c1.908-0.02,3.44-1.559,3.422-3.438
			c-0.02-1.883-1.583-3.391-3.492-3.372C195.106,174.301,193.574,175.84,193.593,177.723z"/>
		<g>
			<path style="fill:#2B2C2B;" d="M50.842,181.67c0.106-0.001,0.217-0.017,0.323-0.054c0.535-0.181,0.82-0.756,0.635-1.282
				l-14.076-40.223c-0.185-0.526-0.765-0.808-1.303-0.624c-0.535,0.181-0.819,0.756-0.635,1.282l14.076,40.221
				C50.01,181.413,50.413,181.675,50.842,181.67z"/>
			<path style="fill:#2B2C2B;" d="M51.002,180.66c0.456-0.006,0.869-0.311,0.983-0.767L62.2,139.431
				c0.135-0.542-0.198-1.09-0.748-1.224c-0.547-0.14-1.104,0.195-1.241,0.736l-10.214,40.463c-0.136,0.54,0.198,1.089,0.747,1.224
				C50.831,180.65,50.918,180.66,51.002,180.66z"/>
			<g>
				<path style="fill:#2B2C2B;" d="M74.381,139.182c1.244-0.013,1.865-0.278,2.417-1.185c0.58-0.954,0.55-2.186-0.083-3.376
					l-1.661-3.128c-1.034-1.951-3.512-3.462-5.64-3.44l-48.833,0.487c-1.244,0.013-2.273,0.541-2.826,1.448
					c-0.58,0.953-0.549,2.183,0.084,3.374l1.66,3.13c1.035,1.949,3.513,3.459,5.64,3.438L74.381,139.182z"/>
				<path style="fill:#138FA3;" d="M75.428,135.284c0.788,1.485,0.127,2.713-1.47,2.729L25.125,138.5
					c-1.597,0.017-3.549-1.186-4.337-2.67l-1.661-3.129c-0.788-1.486-0.127-2.715,1.47-2.731l48.833-0.487
					c1.598-0.017,3.55,1.187,4.338,2.672L75.428,135.284z"/>
				<path style="fill:#16B3CB;" d="M71.201,134.139c0.691,0.96,0.105,1.758-1.304,1.772l-43.072,0.429
					c-1.408,0.015-3.127-0.76-3.819-1.719l-1.458-2.021c-0.691-0.959-0.105-1.755,1.304-1.769l43.072-0.43
					c1.409-0.015,3.127,0.757,3.819,1.718L71.201,134.139z"/>
				<path style="fill:#2B2C2B;" d="M19.847,140.277c0.003,0,0.006,0,0.009,0l59.802-1.102c0.565-0.011,1.016-0.469,1.005-1.027
					c-0.011-0.558-0.479-1.033-1.043-0.988l-59.802,1.101c-0.565,0.01-1.015,0.47-1.005,1.028
					C18.823,139.844,19.286,140.283,19.847,140.277z"/>
			</g>
			
				<ellipse transform="matrix(-1 0.0099 -0.0099 -1 104.7723 360.2869)" style="fill:#2B2C2B;" cx="51.496" cy="180.402" rx="3.458" ry="3.405"/>
		</g>
		<g>
			<g>
				<path style="fill:#2B2C2B;" d="M115.294,169.966c0.055,0.012,0.108,0.03,0.157,0.053c0.355,0.164,0.556,0.558,0.459,0.947
					l-3.745,15.094c-0.111,0.441-0.566,0.716-1.017,0.607c-0.45-0.107-0.728-0.557-0.618-1l3.746-15.095
					C114.387,170.128,114.843,169.856,115.294,169.966z"/>
				<path style="fill:#2B2C2B;" d="M110.9,167.291l10.082,4.641c0.671,0.31,0.981,1.051,0.692,1.66
					c-0.288,0.607-1.066,0.851-1.737,0.541l-10.083-4.641c-0.669-0.306-0.98-1.052-0.691-1.658
					C109.453,167.225,110.229,166.982,110.9,167.291z"/>
			</g>
			<path style="fill:#2B2C2B;" d="M99.077,186.148c-0.281-6.829,5.112-12.59,12.045-12.866c6.935-0.277,12.784,5.036,13.066,11.864
				c0.28,6.825-5.113,12.586-12.047,12.865C105.208,198.288,99.357,192.977,99.077,186.148z M102.363,186.909
				c0.278,1.797,1.079,3.415,2.243,4.709l3.488-3.725c-0.225-0.363-0.391-0.767-0.49-1.194L102.363,186.909z M106.006,192.891
				c1.488,1.101,3.317,1.768,5.287,1.836l-0.202-4.901c-0.603-0.079-1.167-0.284-1.661-0.592L106.006,192.891z M112.862,194.654
				c1.9-0.246,3.615-1.051,4.975-2.236l-3.714-3.372c-0.431,0.321-0.924,0.559-1.464,0.695L112.862,194.654z M118.917,191.292
				c1.074-1.311,1.786-2.911,2.005-4.655l-5.285,0.209c-0.104,0.373-0.257,0.729-0.459,1.053L118.917,191.292z M120.961,184.758
				c-0.157-1.886-0.883-3.604-2.009-4.993l-3.731,3.984c0.22,0.372,0.38,0.783,0.47,1.221L120.961,184.758z M117.599,178.406
				c-1.429-1.165-3.208-1.923-5.15-2.089l0.228,5.523c0.437,0.112,0.845,0.295,1.213,0.531L117.599,178.406z M110.381,176.359
				c-1.89,0.247-3.594,1.046-4.948,2.223l4.082,3.707c0.335-0.198,0.703-0.352,1.093-0.449L110.381,176.359z M104.105,180.005
				c-1.076,1.425-1.744,3.159-1.838,5.032l5.352-0.214c0.104-0.421,0.271-0.818,0.498-1.177L104.105,180.005z"/>
			<path style="fill:#2B2C2B;" d="M123.02,186.222c0.64-5.873-3.722-10.354-8.931-11.911c-7.369,0.325-53.785,2.378-60.987,2.126
				c-7.926-0.274-5.989,7.1-2.987,7.913c2.413,0.651,52.905,12.426,58.813,13.292C114.978,198.523,122.041,195.203,123.02,186.222z
				 M113.96,175.326c14.152,4.469,8.056,23.23-4.883,21.317c-5.889-0.863-56.283-12.615-58.691-13.267
				c-1.814-0.491-4.066-6.157,2.678-5.933C60.148,177.706,111.477,175.438,113.96,175.326z"/>
		</g>
	</g>
	<g>
		<path style="fill:#D99C5E;" d="M114.598,44.102c0.849-0.828,3.404-2.978,4.523-3.184c7.238-1.318,8.858,10.113,19.897,32.932
			c5.888,3.987,23.109,16.961,23.306,17.223c3.662,0.772,5.66-0.017,7.99,1.236c0.781,0.421,2.611,3.71,2.247,4.015
			c-0.835,0.702-5.538-2.971-6.796-0.688c-0.553,1.004,3.024,2.332,2.213,3.383c-0.946,1.226-4.373-1.341-4.756-1.593
			c-1.176-0.772-1.714-2.311-3.781-3.253c-5.627-2.577-23.977-12.297-26.626-14.998C129.06,75.348,109.461,49.147,114.598,44.102z"
			/>
		<g>
			<path style="fill:#F4B77A;" d="M117.281,163.348c0.36-0.544-2.862-4.26-0.715-7.183c2.634-3.583,6.719-7.135,9.247-10.056
				c12.656-14.633,23.449-23.696,21.333-30.233c-1.748-5.4-31.553-20.958-31.553-20.958l-13.832,16.619l30.826,8.437
				c0.006,0.065-5.749,2.512-10.821,10.537c-3.432,5.446-6.589,15.199-13.675,23.47c-0.641,0.745-2.685,3.026-3.419,3.818
				C104.597,162.971,115.758,165.651,117.281,163.348z"/>
			<g>
				<path style="fill:#DB5994;" d="M92.099,85.231c8.684-1.874,19.133,4.775,28.986,10.278c1.163,0.649,2.573-2.143,3.722-1.524
					c1.137,0.61,4.148,4.836,4.498,5.673c0,0-1.984,6.41-4.668,10.977c-2.686,4.568-6.061,8.468-6.061,8.468
					c-1.874,0.524-4.912,0.86-6.314,0.401c-1.544-0.504-0.932-2.68-2.485-3.287c-9.227-3.614-17.107-7.527-20.021-9.774
					C77.706,97.146,85.884,86.572,92.099,85.231z"/>
				<g>
					<path style="opacity:0.2;fill:#1B1C20;" d="M123.749,94.92c-1.375,3.293-2.746,6.685-4.625,11.145
						c-1.629,3.87-5.658,10.272-7.656,10.804c3.622-3.264,5.079-6.672,6.756-11.173C119.452,102.398,123.749,94.92,123.749,94.92z"
						/>
					<path style="opacity:0.2;fill:#1B1C20;" d="M117.6,94.855c0,0-2.011,3.68-7.81,2.406c-4.177-0.916-7.671-5.679-9.549-9.482
						C103.249,91.95,112.178,99.053,117.6,94.855z"/>
					<g>
						<path style="opacity:0.2;fill:#1B1C20;" d="M89.877,95.511c0,0,6.228,6.741,9.325,8.496c-0.85,2.085-1.634,4.265-2.188,6.405
							c-5.863-3.121-10.647-7.55-11.956-10.186C85.412,100.061,89.256,96.256,89.877,95.511z M96.227,107.915
							c0.337-1.105,0.818-2.255,1.199-3.237c-2.491-2.111-6.998-4.137-7.714-7.487c-0.75,1.141-1.668,2.229-2.712,3.136
							C89.368,102.559,95.226,107.555,96.227,107.915z"/>
						<path style="fill:#DB5994;" d="M90.081,96.581c1.395,3.066,6.214,6.434,7.891,7.678c0.154,0.113-1.057,3.1-1.226,5.245
							c-4.244-1.658-9.297-6.383-10.912-8.717C85.443,100.223,89.343,97.022,90.081,96.581z"/>
					</g>
				</g>
			</g>
			<g>
				<path style="fill:#CF7328;" d="M102.019,161.361c0.007,0.687,5.342,4.366,6.196,4.72c6.908,2.875,12.207,7.264,16.416,5.074
					c0.755-0.381,1.332-1.002,1.548-1.964c-0.006-0.563-2.562-1.921-5.154-3.933c-1.994-1.57-4.076-3.521-4.938-5.936
					c-0.063-0.159-0.136-0.25-0.229-0.28c-0.73-0.306-2.672,2.198-6.308,0.346c-1.823-0.932-3.612-2.507-2.625-4.231
					C105.353,157.029,102.133,157.72,102.019,161.361z"/>
				<g>
					<path style="fill:#AB5B26;" d="M102.019,161.361c0.007,0.687,5.342,4.366,6.196,4.72c3.859,1.606,7.757,4.029,11.459,5.314
						c0.967,0.335,3.336,0.604,4.957-0.24c-1.853,0.149-5.117-0.402-10.509-3.619c-6.783-4.028-10.052-7.073-11.42-8.563
						C102.308,159.602,102.05,160.373,102.019,161.361z"/>
					<path style="fill:#FFFFFF;" d="M119.113,165.681c-0.107,0.362,0.468,0.729,0.694,0.729c0.227,0,0.823-0.733,1.217-1.151
						c-0.278-0.22-0.557-0.449-0.836-0.678C119.905,164.978,119.221,165.319,119.113,165.681z"/>
					<path style="fill:#FFFFFF;" d="M117.337,164.136c-0.119,0.277,0.283,0.892,0.713,0.844c0.231-0.025,0.926-0.67,1.384-1.067
						c-0.279-0.249-0.549-0.51-0.807-0.779C118.19,163.602,117.456,163.858,117.337,164.136z"/>
					<path style="fill:#FFFFFF;" d="M115.981,163.078c0.228,0.063,1.446-0.944,1.65-1.076c-0.301-0.369-0.571-0.75-0.801-1.143
						c-0.143,0.073-1.185,0.885-1.294,0.977C115.171,162.141,115.753,163.014,115.981,163.078z"/>
					<path style="fill:#FFFFFF;" d="M115.916,159.325c-3.73,2.519-8.707,0.213-9.934-2.887c-0.881,1.563,4.893,6.596,10.067,3.348
						L115.916,159.325z"/>
				</g>
			</g>
		</g>
		<path style="fill:#AB5B26;" d="M101.134,50.952c0.509-0.63,5.609-5.406,13.489-10.203c7.75-4.718,12.034-5.207,13.297-0.864
			l-0.884,1.27c-3.547-8.647-22.271,8.706-26.113,12.701C100.996,52.902,101.036,51.905,101.134,50.952z"/>
		<g>
			<path style="fill:#F4B77A;" d="M117.137,21.431c6.86,9.878,4.178,8.007,1.566,13.325c-1.132,2.219-4.639,5.454-4.988,5.668
				c1.353-0.011,19.883,6.875,18.637,6.902c-0.28-0.545-3.886-4.635-3.981-5.176c-0.673-3.781,4.486-8.259,5.635-9.456
				c0.716,0.115,6.968,1.815,7.672,1.659c1.599-0.324,0.508-2.073,0.988-3.503c-0.053-0.346,1.385-1.524,1.619-1.827
				c0.746-0.914-0.892-1.318-2.075-1.403c1.591-0.026,3.573-0.519,2.712-1.61c-0.001-0.005-0.001-0.005-0.003-0.008
				c-0.308-0.388-0.394-0.834-0.167-1.355c0.145-0.314,0.838-0.404,1.277-0.723c0.631-0.446,0.882-0.975,0.446-1.619
				c-0.17-0.254-0.877-0.49-1.73-2.348c-1.786-3.911,1.455-4.217-0.485-11.797c-1.11-4.336-15.796-12.4-25.732-1.57
				C116.544,8.75,114.441,17.55,117.137,21.431z"/>
			<path style="fill:#8F4B21;" d="M143.899,15.004c0.223,0.269,0.088,0.725-0.215,0.947c-0.303,0.217-1.329-0.387-2.053-0.294
				c-1.92,0.239-2.493,0.403-2.493,0.403C140.721,14.342,143.38,14.377,143.899,15.004z"/>
			<g>
				<path style="fill:#FFFFFF;" d="M139.571,18.295l2.486-1.02c0,0,0.586,1.028,0.181,1.797
					C142.039,19.446,139.571,18.295,139.571,18.295z"/>
				<path style="fill:#704019;" d="M142.128,19.163c-0.854,0.023-0.892-1.805-0.214-1.84
					C142.559,17.286,142.563,19.148,142.128,19.163z"/>
				<path style="fill:#704019;" d="M138.4,18.146c1.447,0.511,2.597,0.803,4.083,1.206c0.062,0.017-0.644-0.444-1.318-0.641
					c-0.72-0.214-1.474-0.267-1.379-0.292c2.021-0.497,3.592-1.728,3.302-1.8c-0.062-0.017-0.347,0.269-0.846,0.392
					c-0.02,0.002,0.212-0.417,0.135-0.393c0,0-0.718,0.779-2.718,1.398C139.121,18.187,138.4,18.146,138.4,18.146z"/>
				<path style="fill:#FFFFFF;" d="M142.221,17.577c0.166,0.206,0.134,0.588,0.011,0.809c0.013-0.27-0.034-0.531-0.126-0.794
					L142.221,17.577z"/>
			</g>
			<g>
				<path style="fill:#D98F42;" d="M140.523,26.854c0.402,0.474,0.567,1.008,1.697,1.865c0.315,0.221,1.269,0.782,1.631,0.789
					c0.165-0.157,0.385-0.399,0.515-0.603c0.52-0.873-1.136-1.213-2.156-1.284c1.589-0.042,3.575-0.522,2.712-1.61
					C143.04,27.306,142.223,27.313,140.523,26.854z"/>
				<path style="fill:#FFFFFF;" d="M142.202,27.619c1.202-0.046,1.003-0.133,1.693-0.178l-0.041,0.54L142.202,27.619z"/>
			</g>
			<g>
				<path style="fill:#D99C5E;" d="M123.625,17.915c-0.609,3.442,2.32,5.885,4.158,4.864c0.269-0.153,0.287-0.36,0.021-0.298
					c-1.225,0.282-2.887-0.59-3.464-2.368c-0.503-1.572,0.543-5.986,3.803-3.21c0.213,0.182,0.424,0.157,0.138-0.251
					C126.824,14.541,124.071,15.425,123.625,17.915z"/>
				<path style="fill:#D99C5E;" d="M141.678,34.354c-0.752,0.154-5.732-0.751-6.508-0.877c0,0-5.353-2.874-5.912-3.881
					c-0.607-1.091-1.287-6.774-1.431-7.116c0.474,0.471,1.575,5.901,2.214,6.793C131.265,30.974,140.603,34.315,141.678,34.354z"/>
				<path style="fill:#D99C5E;" d="M127.427,18.845c0.117,0.069,0.228,0.072,0.286,0.195c0.081,0.184-0.276,0.588-0.419,0.7
					c-0.889,0.706,0.331,1.378-0.362,1.274c-0.591-0.092-1.141-0.824-1.339-1.395c-0.343-0.964,0.743-2.272,1.228-2.1
					C127.306,17.69,126.81,18.47,127.427,18.845z"/>
			</g>
			<path style="fill:#D99C5E;" d="M143.4,22.796l-0.002,0.079c-0.657,0.657,0.25,1.387,0.924,1.533
				C143.24,24.821,142.242,23.477,143.4,22.796z"/>
			<path style="fill:#D99C5E;" d="M144.774,24.082c-0.541,0.193-0.818-0.24-0.354-0.409
				C145.301,23.351,145.233,23.919,144.774,24.082z"/>
			<path style="fill:#15120C;" d="M140.171,16.847c-2.206-0.751-12.443-4.162-15.901-3.95c-4.012,0.244-4.914,4.116-4.922,4.153
				l0.755,0.164c0.03-0.137,0.787-3.343,4.216-3.559c3.274-0.201,13.474,3.19,15.605,3.914c-0.482,2.075-0.212,4.413,1.427,4.862
				c0.869,0.24,1.758-1.424,1.92-3.347C143.612,15.086,141.215,14.52,140.171,16.847z"/>
			<path style="fill:#8F4B21;" d="M114.275,27.225c-0.248-0.554-0.284-0.615-0.496-1.106c-0.441,1.387-1.212,2.713-2.158,3.78
				c2.394-4.585-1.18-10.103-0.304-13.048c-0.305-7.264,2.685-11.862,6.767-14.601c8.245-5.533,29.777-0.583,27.114,11.829
				c-0.256-1.906-0.846-4.115-1.771-6.136c-0.715,3.767-7.249,6.552-8.31,10.657c0.267-1.628,0.634-3.285,1.378-4.752
				c-0.207,0.162-0.398,0.333-0.59,0.503c-1.022,2.156-2.104,5.04-2.798,8.165c-0.279,4.617,0.71,9.26,2.962,13.37
				c-1.327-0.613-2.398-1.781-3.285-3.176c0.486,2.272,1.445,4.396,3.065,6.173c0,0-13.864-0.099-20.92-7.08
				C114.234,32.191,114.112,30.318,114.275,27.225z"/>
		</g>
		<g>
			<path style="fill:#AE82BA;" d="M82.319,97.099c0.99,2.655,9.506-5.311,22.042-0.805c4.782,1.718,9.07-1.856,9.569-4.05
				c0.275-1.204-3.767-3.667-0.848-8.742c3.805-6.605,11.858-11.651,17.568-16.41c1.665-1.4,3.137-2.767,4.25-4.151
				c1.75-2.176-1.463-9.743-1.36-16.635c0.015-1.524-12.308-1.23-19.214-8.224c-9.804,10.188-11.014,25.003-24.112,39.594
				c-0.405,0.459-6.778,8.411-8.053,14.923C81.83,94.238,81.825,95.783,82.319,97.099z"/>
			<path style="opacity:0.2;fill:#1B1C20;" d="M111.975,41.466c0.312-2.239,3.323-3.468,5.384-3.418
				c3.946,0.097,7.48,5.597,10.874,7.307c1.048,0.527,4.461,0.232,4.457,1.462c-0.001,0.218,2.012,13.014,2.012,13.014
				c-0.872-1.672-1.913-9.31-2.783-13.259c-1.859,0.779-5.008,2.994-5.439,2.576c-0.258-0.25-3.066-3.846-4.146-4.667
				C117.381,40.721,111.891,42.063,111.975,41.466z"/>
			<path style="fill:#AE82BA;" d="M126.728,48.389c-6.052-7.17-9.339-7.018-15.277-7.581c0.331-1.099,2.499-5.159,3.941-7.021
				c3.582,1.823,16.597,11.524,16.599,11.69C131.991,45.477,127.065,48.049,126.728,48.389z"/>
			<path style="opacity:0.2;fill:#1B1C20;" d="M82.319,97.099c0.99,2.655,9.506-5.311,22.042-0.805
				c4.782,1.718,9.07-1.856,9.569-4.05c0.275-1.204-3.767-3.667-0.848-8.742c3.805-6.605,11.858-11.651,17.568-16.41
				c-0.586-7.1-2.963-14.007-8.09-18.407c-5.768-4.946-11.358-1.433-10.354,7.374c0.686,6.029,6.879,9.397,5.41,15.462
				c-1.976,8.152-11.927,10.965-9.916,11.762c5.046,2-3.227,5.522-3.478,6.03c-0.764,1.543,2.173,0.771,5.279,2.722
				c2.966,1.863-7.135,0.227-12.286,0.88C89.083,93.945,82.016,96.293,82.319,97.099z"/>
		</g>
		<g>
			<g>
				<path style="fill:#AB5B26;" d="M99.565,68.26L82.822,90.319l6.983,3.199c0,0,13.375-20.79,14.349-23.515
					C105.128,67.279,99.565,68.26,99.565,68.26z"/>
				<path style="fill:#CF7328;" d="M102.145,51.213c-3.312,19.027,1.177,17.01,1.177,17.01
					C91.737,80.424,86.472,89.08,83.386,90.314c-0.96,0.382-4.834-13.458-5.324-24.553C81.409,60.551,102.827,47.293,102.145,51.213
					z"/>
				<path style="fill:#AB5B26;" d="M102.145,51.213c-2.942,19.087,1.177,17.01,1.177,17.01c-4.148,4.634-4.686-11.084-3.527-17.107
					C99.889,50.625,102.322,50.072,102.145,51.213z"/>
				<g>
					<g>
						<path style="fill:#AB5B26;" d="M86.323,83.716c-1.346-2.946-2.935-17.771-3.382-18.373
							c-0.477-0.642,9.377-10.088,11.442-10.75l-0.193-0.554c-3.387,3.03-12.674,9.84-12.478,10.669
							c1.455,6.154,2.13,14.876,3.782,20.776c1.542-1.153,4.864-4.498,6.067-6.174c1.361-1.901,3.177-3.779,4.686-5.721
							C93.843,76.31,88.922,80.73,86.323,83.716z"/>
					</g>
					<g>
						<path style="fill:#AB5B26;" d="M86.323,83.716c-1.346-2.946-2.935-17.771-3.382-18.373
							c-0.477-0.642,9.377-10.088,11.442-10.75l-0.193-0.554c-3.387,3.03-12.674,9.84-12.478,10.669
							c1.455,6.154,2.13,14.876,3.782,20.776c1.542-1.153,4.864-4.498,6.067-6.174c1.361-1.901,3.177-3.779,4.686-5.721
							C93.843,76.31,88.922,80.73,86.323,83.716z"/>
					</g>
				</g>
			</g>
			<path style="fill:#AB5B26;" d="M103.726,69.979c-0.076,1.008,20.839,0.464,30.565-16.788c0.787-1.394-0.438-5.272-0.568-5.46
				c-0.495,1.687-2.998,5.736-6.818,9.487c-6.619,6.5-17.294,10.258-25.246,11.101L103.726,69.979z"/>
		</g>
		<path style="fill:#F4B77A;" d="M119.269,45.326c6.044,1.451,9.206,8.328,18.125,33.604c6.84,4.402,24.131,21.424,24.187,21.435
			c1.724,0.275,5.921-0.851,7.215-0.226c1.12,0.541,3.279,2.008,3.778,3.849c0.131,0.488-1.473,3.633-1.856,3.628
			c-2.176-0.037-0.465-2.784-3.393-3.842c-4.464-1.083-3.631,2.23-5.033,2.188c-3.452-0.106-4.705-2.376-5.148-2.661
			c-8.542-5.522-21.339-14.22-25.735-18.918c-3.251-3.473-17.137-25.452-18.445-29.824C111.23,48.764,113.46,43.932,119.269,45.326z
			"/>
	</g>
	<g>
		
			<ellipse transform="matrix(-0.9999 0.01 -0.01 -0.9999 331.0486 213.0004)" style="fill:#2B2C2B;" cx="164.99" cy="107.331" rx="3.842" ry="2.986"/>
		
			<ellipse transform="matrix(-1 0.01 -0.01 -1 330.5337 213.2719)" style="fill:#444450;" cx="164.735" cy="107.46" rx="3.159" ry="2.455"/>
	</g>
</g>
</svg>
