<?xml version="1.0" encoding="utf-8"?>
<!-- Generator: Adobe Illustrator 16.0.0, SVG Export Plug-In . SVG Version: 6.00 Build 0)  -->
<!DOCTYPE svg PUBLIC "-//W3C//DTD SVG 1.1//EN" "http://www.w3.org/Graphics/SVG/1.1/DTD/svg11.dtd">
<svg version="1.1" id="illustration" xmlns="http://www.w3.org/2000/svg" xmlns:xlink="http://www.w3.org/1999/xlink" x="0px"
	 y="0px" width="1000px" height="428.13px" viewBox="0 0 1000 428.13" enable-background="new 0 0 1000 428.13"
	 xml:space="preserve">
<g id="shadow">
	<path fill="#BDC3C7" d="M456.163,417.69H369.08c-2.871,0-5.22,2.35-5.22,5.221c0,2.87,2.349,5.219,5.22,5.219h87.083
		c2.871,0,5.22-2.349,5.22-5.219C461.383,420.04,459.034,417.69,456.163,417.69z"/>
	<path fill="#BDC3C7" d="M81.36,417.69h-9.517c-2.87,0-5.219,2.35-5.219,5.221c0,2.87,2.349,5.219,5.219,5.219h9.517
		c2.871,0,5.22-2.349,5.22-5.219C86.58,420.04,84.231,417.69,81.36,417.69z"/>
	<path fill="#BDC3C7" d="M349.721,417.69H97.956c-2.871,0-5.22,2.35-5.22,5.221c0,2.87,2.349,5.219,5.22,5.219h251.765
		c2.871,0,5.22-2.349,5.22-5.219C354.94,420.04,352.592,417.69,349.721,417.69z"/>
	<path fill="#BDC3C7" d="M639.905,417.69h-74.083c-2.871,0-5.221,2.35-5.221,5.221c0,2.87,2.35,5.219,5.221,5.219h74.083
		c2.87,0,5.22-2.349,5.22-5.219C645.125,420.04,642.775,417.69,639.905,417.69z"/>
	<path fill="#BDC3C7" d="M546.463,417.69h-14.4c-2.871,0-5.221,2.35-5.221,5.221c0,2.87,2.35,5.219,5.221,5.219h14.4
		c2.87,0,5.219-2.349,5.219-5.219C551.682,420.04,549.333,417.69,546.463,417.69z"/>
	<path fill="#BDC3C7" d="M937.141,417.69h-9.516c-2.871,0-5.22,2.35-5.22,5.221c0,2.87,2.349,5.219,5.22,5.219h9.516
		c2.871,0,5.221-2.349,5.221-5.219C942.361,420.04,940.012,417.69,937.141,417.69z"/>
	<path fill="#BDC3C7" d="M911.029,417.69H659.265c-2.871,0-5.22,2.35-5.22,5.221c0,2.87,2.349,5.219,5.22,5.219h251.765
		c2.871,0,5.22-2.349,5.22-5.219C916.249,420.04,913.9,417.69,911.029,417.69z"/>
</g>
<g id="man_8_">
	<path fill="#F8D4AC" d="M88.388,257.302l8.503-7.396c1.258-1.095,3.018-1.266,4.433-0.572l13.978-12.184l8.497,9.77l-12.3,10.723
		c1.937,2.768,1.509,6.637-1.093,8.9l-0.313,0.272l0,0l-4.406,3.833l-8.608,4.317c-1.504-3.009,1.018-4.114,1.283-4.336l6.134-3.488
		l0.652-0.567c0.338-0.294,0.374-0.806,0.08-1.143c-0.293-0.338-0.805-0.374-1.143-0.08l-4.95,4.306
		c-0.711,0.618-1.799,0.542-2.418-0.169l-8.497-9.769C87.602,259.008,87.677,257.92,88.388,257.302z"/>
	<g>
		<g id="XMLID_160_">
			<g id="XMLID_165_">
				<path fill="#4A4B4D" d="M128.197,403.507l-14.519-16.557c0.661-0.58,66.532-58.596,104.433-112.404l18.003,12.681
					C196.682,343.212,130.975,401.071,128.197,403.507z"/>
			</g>
			<g id="XMLID_164_">
				<path fill="#313437" d="M128.682,403.038l-6.308-7.328c0.7-0.603,70.418-60.886,105.59-113.696l8.047,5.358
					c-18.801,28.23-46.995,58.186-67.335,78.344C146.689,387.503,128.859,402.885,128.682,403.038z"/>
			</g>
			<path id="XMLID_163_" fill="#231F20" d="M132.704,410.396l-0.503-9.682l-13.382-18.258l-13.218,9.715l21.573,29.199
				C130.47,418.934,132.963,415.579,132.704,410.396z"/>
			<polygon id="XMLID_162_" fill="#58595B" points="124.359,423.45 127.173,421.37 105.6,392.171 102.735,394.29 			"/>
			<path id="XMLID_161_" fill="#D1D3D4" d="M124.257,410.087l3.292,4.472c0.588,0.798,1.75,0.951,2.582,0.339
				c0.83-0.611,1.039-1.771,0.45-2.569l-3.288-4.476c-0.586-0.8-1.756-0.949-2.589-0.336l0,0
				C123.87,408.132,123.668,409.288,124.257,410.087z"/>
		</g>
	</g>
	<g>
		<path fill="#EEC595" d="M373.159,267.483c0,0-0.905-0.146-2.233-0.419c-1.329-0.271-3.101-0.63-4.874-0.989
			c-3.543-0.721-7.087-1.441-7.087-1.441l0.151-0.745l12.667,2.574c0.918,0.167,1.8-0.458,1.842-1.357
			c0.036-0.744-0.567-1.39-1.347-1.534l-20.556-4.184c-0.398-0.081-0.655-0.451-0.576-0.825c0.08-0.374,0.466-0.612,0.863-0.53
			l0.045,0.009l0.011,0.002l7.144,1.457c1.428,0.291,2.819-0.573,3.091-1.923l0.085-0.423l-8.89-1.813l-0.023-0.005l-3.973-0.811
			c-3.036-0.659-6.024,0.96-6.96,3.7l-5.923-1.342l-2.439,10.805l7.96,1.804c0.28,1.337,1.378,2.485,2.866,2.82l22.871,4.659
			c0.917,0.186,1.799-0.42,1.843-1.323c0.037-0.745-0.563-1.409-1.344-1.567l-10.884-2.212l0.152-0.744l13.431,2.714
			c0.926,0.167,1.813-0.456,1.853-1.355c0.033-0.744-0.573-1.394-1.361-1.535l-13.337-2.697l0.152-0.744
			c0,0,3.567,0.726,7.136,1.451c1.784,0.362,3.568,0.725,4.906,0.996c1.337,0.271,2.249,0.421,2.249,0.421
			c0.922,0.167,1.805-0.457,1.846-1.357C374.548,268.274,373.944,267.625,373.159,267.483z"/>
		<g>
			<g id="XMLID_158_">
				<polygon id="XMLID_159_" fill="#FFFFFF" points="333.775,256.048 330.835,268.926 337.017,270.329 339.888,257.435 				"/>
			</g>
			<g id="XMLID_157_">
				<path fill="#313437" d="M228.125,196.218c-2.141-3.228-1.123-7.599,2.211-9.57l0,0c3.104-1.836,7.1-0.914,9.093,2.091
					c30.733,46.338,63.775,60.931,94.288,67.208l-2.73,13.277C290.119,260.825,263.256,249.191,228.125,196.218z"/>
			</g>
		</g>
	</g>
	<g id="man_5_">
		<g id="man_7_">
			<g id="XMLID_107_">
				<path id="XMLID_156_" fill="#F8D4AC" d="M313.251,32.751c-0.248-1.972-0.961-3.81-1.829-5.413
					c-0.895-1.605-1.976-2.979-3.283-4.048c-2.615-2.142-5.782-3.041-8.886-2.333l-53.027,12.002
					c-3.104,0.708-5.701,2.393-7.394,4.415c-0.845,1.013-1.542,2.154-1.921,3.316c-0.404,1.175-0.459,2.358-0.32,3.612
					c0,0,0.212,1.552,0.584,4.269c0.138,1.385,0.305,3.065,0.496,4.994c0.063,0.98,0.129,2.024,0.199,3.124
					c0.087,1.095,0.152,2.257,0.17,3.491c0.421,9.754-0.242,23.361-2.479,37.401c-2.199,14.028-5.809,28.357-9.035,39.11
					c-1.609,5.379-3.076,9.869-4.124,13.011c-1.075,3.143-1.69,4.938-1.69,4.938l73.185,25.577c0,0,0.726-2.123,1.998-5.837
					c1.245-3.729,2.994-9.077,4.938-15.582c3.892-13,8.419-30.742,11.317-49.205c2.952-18.438,3.989-37.634,3.362-52.285
					c-0.073-3.646-0.402-7.035-0.57-10.014c-0.298-2.998-0.558-5.611-0.771-7.762C313.621,35.218,313.251,32.751,313.251,32.751z"/>
				<path id="XMLID_155_" fill="#EEC595" d="M299.254,20.957l-14.713,3.33c1.861,8.169,3.283,17.453,3.963,27.261
					c0.694,9.808,0.66,20.127-0.037,30.361c-1.349,20.495-5.431,40.539-9.573,56.315c-2.614,9.939-5.153,18.247-7.082,24.044
					c-0.923,2.915-1.737,5.187-2.264,6.751c-0.534,1.562-0.821,2.4-0.821,2.4l25.171,8.797c0,0,0.726-2.123,1.998-5.837
					c1.245-3.729,2.994-9.077,4.938-15.582c3.892-13,8.419-30.742,11.317-49.205c2.952-18.438,3.99-37.634,3.362-52.285
					c-0.073-3.646-0.402-7.035-0.57-10.014c-0.298-2.998-0.558-5.611-0.771-7.762c-0.55-4.314-0.92-6.781-0.92-6.781
					c-0.248-1.972-0.961-3.81-1.829-5.413c-0.895-1.605-1.976-2.979-3.283-4.048C305.524,21.148,302.357,20.25,299.254,20.957z"/>
				<path id="XMLID_154_" fill="#4A4B4D" d="M220.713,154.64c0,0-0.547,1.531-1.505,4.211c-0.947,2.68-2.385,6.506-4.157,11.096
					c-3.568,9.176-8.691,21.396-14.36,33.536c-11.218,24.314-24.594,48.199-24.594,48.199l-0.244,0.442l-3.463,6.21
					c-3.138,5.582-1.265,12.748,4.241,15.944l47.077,27.196c5.509,3.199,12.852,0.914,16.252-5.134l3.743-6.712l0.265-0.48
					c0,0,14.457-25.775,27.027-52.993c6.335-13.567,12.181-27.484,16.302-38.091c2.053-5.309,3.722-9.76,4.837-12.908
					c1.123-3.144,1.765-4.94,1.765-4.94L220.713,154.64z"/>
				<path id="XMLID_153_" fill="#313437" d="M240.026,296.362c0,0,15.661-27.407,29.265-56.405
					c6.848-14.46,13.168-29.3,17.587-40.639c2.218-5.664,3.999-10.428,5.197-13.792c1.202-3.363,1.888-5.284,1.888-5.284
					l-25.14-8.786c0,0-0.651,1.824-1.792,5.017c-1.136,3.193-2.832,7.727-4.948,13.131c-4.214,10.815-10.272,25.045-16.878,38.994
					c-13.113,27.961-28.39,54.709-28.39,54.709c-3.314,5.896-10.59,8.065-16.1,4.868l23.059,13.321
					C229.284,304.694,236.626,302.409,240.026,296.362z"/>
				<g id="XMLID_152_">
					<path fill="#714514" d="M258.708,68.461c-0.063-0.04-0.121-0.091-0.172-0.15c-0.27-0.318-0.229-0.795,0.088-1.064l3.595-3.044
						c1.787-1.52,3.492-3.107,3.509-3.124c0.306-0.285,0.78-0.267,1.067,0.037c0.285,0.305,0.268,0.783-0.037,1.067
						c-0.018,0.016-1.747,1.628-3.562,3.172l-3.597,3.045C259.342,68.618,258.98,68.633,258.708,68.461z"/>
				</g>
				<g id="XMLID_151_">
					<path fill="#714514" d="M311.169,73.833c-0.1-0.063-0.186-0.151-0.249-0.26l-0.75-1.297c-0.441-0.772-1.046-1.795-1.682-2.815
						l-2.527-4.068c-0.22-0.354-0.111-0.819,0.243-1.039c0.355-0.22,0.819-0.109,1.041,0.242l2.527,4.067
						c0.646,1.037,1.263,2.077,1.709,2.859l0.749,1.296c0.208,0.361,0.084,0.823-0.277,1.032
						C311.699,73.995,311.398,73.979,311.169,73.833z"/>
				</g>
				<path id="XMLID_150_" fill="#FFFFFF" d="M220.624,154.507l-1.136,3.189c0,0,7.245,5.096,14.409,10.376
					c7.141,5.257,14.217,10.69,14.217,10.69s-0.09,0.979-0.248,2.691c-0.18,1.713-0.438,4.162-0.748,7.1
					c-0.684,5.871-1.645,13.752-2.863,21.628c-2.334,15.773-5.538,31.585-5.538,31.585s10.726-12.01,20.938-24.77
					c5.145-6.345,10.114-12.892,13.836-17.859c1.836-2.507,3.367-4.596,4.438-6.059c1.056-1.48,1.659-2.326,1.659-2.326
					s3.292-1.68,6.583-3.36c3.275-1.747,6.551-3.495,6.551-3.495l1.333-3.746L220.624,154.507z"/>
				<g id="XMLID_147_">
					<path id="XMLID_149_" fill="#231F20" stroke="#231F20" stroke-width="0.5465" stroke-miterlimit="10" d="M232.244,254.796
						c1.416,0.734,3.197,0.107,3.979-1.401c0.774-1.513,0.24-3.33-1.18-4.051c-1.423-0.723-3.189-0.087-3.958,1.414
						C230.31,252.254,230.828,254.063,232.244,254.796z"/>
					<path id="XMLID_148_" fill="#231F20" stroke="#231F20" stroke-width="0.5465" stroke-miterlimit="10" d="M228.144,262.616
						c-1.409-0.746-3.191-0.145-3.98,1.346c-0.796,1.485-0.313,3.298,1.091,4.057c1.402,0.757,3.199,0.164,4-1.333
						C230.05,265.186,229.552,263.363,228.144,262.616z"/>
				</g>
				<g id="XMLID_142_">
					<path id="XMLID_146_" fill="#231F20" d="M272.555,81.374c-0.429,3.156-3.096,5.317-5.732,4.852
						c-2.682-0.465-4.341-3.267-3.947-6.263c0.217-1.505,0.957-2.796,1.978-3.683c1.002-0.883,2.278-1.36,3.622-1.2
						C271.185,75.388,273.007,78.218,272.555,81.374z"/>
					<path id="XMLID_145_" fill="#FFFFFF" d="M267.933,77.673c-0.11,0.773-0.743,1.323-1.414,1.23
						c-0.67-0.093-1.125-0.786-1.016-1.549c0.109-0.764,0.746-1.316,1.412-1.233C267.592,76.205,268.042,76.9,267.933,77.673z"/>
					<path id="XMLID_144_" fill="#231F20" d="M308.33,86.279c-0.509,3.217-2.839,5.439-5.198,4.984
						c-2.365-0.457-3.852-3.319-3.378-6.423c0.417-3.116,2.676-5.386,5.051-5.05C307.176,80.125,308.771,83.043,308.33,86.279z"/>
					<path id="XMLID_143_" fill="#FFFFFF" d="M304.315,82.513c-0.107,0.818-0.688,1.4-1.298,1.302
						c-0.609-0.099-1.016-0.834-0.909-1.645c0.107-0.81,0.688-1.394,1.297-1.303S304.423,81.695,304.315,82.513z"/>
				</g>
				<path id="XMLID_141_" fill="#714514" d="M322.106,38.121c-1.382-5.534-3.622-8.712-6.102-10.201
					c-2.44-1.49-4.963-1.309-6.934-0.244c-1.978,1.07-3.372,3.011-3.628,5.188c-0.292,2.185,0.613,4.613,3.396,6.844
					c2.652,2.196,4.57,6.839,5.521,11.344c1.081,4.524,1.208,8.865,1.292,10.625c0.042,3.496,0.063,9.075-0.1,12.45
					c2.11-2.257,4.712-6.583,6.398-12.729C323.584,55.257,324.211,47.221,322.106,38.121z"/>
				<path id="XMLID_140_" fill="#724514" d="M244.441,83.07c-1.283-0.666-2.494-1.445-3.633-2.313
					c-1.163-0.863-2.261-1.813-3.283-2.831c-1.023-1.019-1.973-2.104-2.846-3.241c-0.911-1.125-1.754-2.295-2.514-3.5
					c-1.477-2.428-2.86-4.901-3.811-7.433c-1.073-2.48-1.754-5.01-2.255-7.399c-0.401-2.439-0.666-4.712-0.413-6.941
					c0.105-2.151,0.759-4.281,1.636-6.138c1.917-3.775,5.396-6.937,11.254-8.582c-0.183-0.574-0.313-1.148-0.394-1.724
					c-0.101-0.566-0.166-1.127-0.175-1.693c-0.021-1.131,0.154-2.271,0.504-3.42c0.607-2.249,1.926-4.543,3.813-6.809
					c3.665-4.446,9.703-8.96,17.562-12.026c9.828-3.861,18.623-3.696,26.008-1.747c3.626,0.968,6.891,2.325,9.723,3.615
					c2.784,1.297,5.094,2.531,6.95,3.191c3.363,1.209,6.44-0.033,7.922-2.588c0.742-1.273,1.085-2.867,0.877-4.585
					c-0.256-1.709-1.092-3.539-2.611-5.25c-0.53-0.594,0.02-1.608,0.684-1.656c2.119-0.146,4.226,0.4,6.235,1.521
					c2.001,1.12,3.953,2.809,5.549,4.922c3.305,4.212,5.587,10.104,6.037,16.013c0.484,5.915-0.914,11.781-4.377,16.039
					c-3.55,4.271-9.117,6.89-17.078,6.97c-14.212,0.117-24.156-3.019-32.667-4.095c-8.466-1.178-15.229-0.363-23.005,5.448
					c-6.497,4.8-7.312,13.218-7.188,21.113c0.079,3.931,0.488,7.688,0.813,10.502C244.145,81.229,244.441,83.07,244.441,83.07z"/>
				<path id="XMLID_139_" fill="#F8D4AC" d="M245.745,83.185c-0.349,4.275-4.646,7.291-9.326,6.682
					c-4.711-0.602-8.066-4.309-7.754-8.18c0.213-1.967,1.237-3.627,2.876-4.82c1.631-1.187,3.826-1.891,6.191-1.773
					C242.431,75.305,246.138,78.898,245.745,83.185z"/>
				<g id="XMLID_135_">
					<path id="XMLID_138_" fill="#D6A484" d="M236.331,86.544l-1.434-0.155c-1.1-0.124-1.925-1.001-1.845-1.947
						c0.085-0.947,1.065-1.64,2.175-1.541l1.436,0.131c1.11,0.1,1.943,0.979,1.854,1.955
						C238.435,85.962,237.445,86.664,236.331,86.544z"/>
					<g id="XMLID_136_">
						<path id="XMLID_137_" fill="#D6A484" d="M284.227,107.641c-1.668-0.275-3.151-0.766-4.176-1.373
							c-0.952-0.569-1.29-1.857-0.757-2.89c0.54-1.031,1.768-1.423,2.74-0.868c0.474,0.272,1.476,0.64,2.863,0.848
							c1.388,0.209,2.452,0.148,2.985,0.021c1.092-0.26,2.154,0.483,2.367,1.676c0.222,1.194-0.505,2.368-1.614,2.61
							C287.46,107.927,285.895,107.916,284.227,107.641z"/>
					</g>
				</g>
				<path id="XMLID_131_" fill="#4E2C02" d="M250.133,46.816c7.776-5.811,14.539-6.625,23.005-5.447
					c8.511,1.077,18.455,4.212,32.667,4.095c8.436-0.081,14.189-3.027,17.689-7.749c1.688-2.358,2.803-5.139,3.414-8.109
					c0.565-2.976,0.542-6.154,0.135-9.265c-0.225,2.714,0.937,8.642-4.403,14.815c-3.835,4.5-8.875,5.608-14.308,5.291
					c-5.438-0.333-11.525-2.092-17.649-3.689c-6.094-1.623-12.488-3.051-18.402-3.27c-5.941-0.234-11.513,0.739-16.362,3.478
					c-4.271,2.412-7.112,4.867-9.08,7.248c-0.974,1.188-1.667,2.335-2.221,3.458c-0.569,1.128-0.942,2.212-1.173,3.229
					c-0.426,2.018-0.45,3.838-0.273,5.137c0.166,1.301,0.469,2.099,0.469,2.099l0.002,0c0.374-2.211,1.111-4.36,2.135-6.277
					C246.788,49.949,248.206,48.224,250.133,46.816z"/>
				<path id="XMLID_130_" fill="#88531E" d="M289.898,19.338c7.986,4.385,14.185,6.31,18.725,6.021
					c4.56-0.257,7.612-2.685,9.017-6.117c3.074-6.849-0.803-17.523-8.2-19.242c-0.665,0.047-1.214,1.062-0.684,1.656
					c1.519,1.71,2.355,3.54,2.611,5.25c0.208,1.717-0.135,3.312-0.877,4.585c-1.482,2.556-4.56,3.798-7.922,2.588
					c-1.856-0.661-4.167-1.894-6.95-3.191c-2.832-1.29-6.097-2.647-9.723-3.615c-7.386-1.95-16.18-2.115-26.008,1.747
					c-7.859,3.066-13.896,7.58-17.562,12.026c-1.888,2.266-3.206,4.56-3.813,6.809c-0.351,1.148-0.524,2.289-0.504,3.42
					c0.009,0.566,0.074,1.127,0.175,1.693c0.08,0.576,0.21,1.15,0.394,1.724c-4.663,1.302-7.77,3.564-9.862,6.325
					c-1.059,1.394-1.756,2.868-2.277,4.474c-0.558,1.626-0.743,3.281-0.829,5.073c-0.092,1.794,0.151,3.604,0.447,5.537
					c0.168,0.956,0.398,1.918,0.686,2.883c0.245,0.986,0.543,1.976,0.901,2.964c1.438,3.944,3.482,8.008,6.21,11.673
					c-2.075-4.795-4.557-12.37-4.821-19.378c-0.24-7.064,1.705-13.808,9.617-19.302c-0.065-0.674-0.033-1.363,0.091-2.063
					c0.103-0.691,0.276-1.385,0.547-2.093c0.531-1.411,1.432-2.873,2.591-4.313c2.264-2.846,5.75-5.734,10.216-8.074
					c4.468-2.324,9.925-4.101,16.278-4.345c3.178-0.119,6.583,0.153,10.214,0.97C282.232,15.835,285.928,17.239,289.898,19.338z"/>
				<g id="XMLID_112_">
					<g id="XMLID_128_">
						<polygon id="XMLID_129_" fill="#231F20" points="243.172,290.59 175.363,253.012 176.83,250.353 244.761,287.71 						"/>
					</g>
					<polygon id="XMLID_120_" fill="#939598" points="225.739,281.011 213.892,274.444 215.497,271.535 227.367,278.062 					"/>
				</g>
				<g id="XMLID_108_">
					<path id="XMLID_111_" fill="#CD052F" d="M277.825,174.483l-18.127-6.33c0,0-0.521,1.509-1.069,3.009
						c-0.541,1.502-1.083,3.005-1.083,3.005c-0.922,2.611,0.261,5.459,2.751,6.398c0,0-0.945,1.794-2.362,4.486
						c-1.468,2.669-3.361,6.243-5.37,9.759c-3.942,7.064-8.103,13.976-8.103,13.976s-1.202,8.235-2.665,16.479
						c-1.422,8.25-3.081,16.5-3.081,16.5s5.592-6.285,11.041-12.768c5.48-6.454,10.799-13.129,10.799-13.129
						s2.424-7.921,4.589-15.914c1.12-3.979,2.119-8.004,2.909-10.997c0.738-3.013,1.231-5.021,1.231-5.021
						c2.471,0.931,5.34-0.48,6.303-3.204c0,0,0.563-1.562,1.125-3.123C277.283,176.054,277.825,174.483,277.825,174.483z"/>
					<path id="XMLID_109_" fill="#9E1723" d="M260.558,215.87c0,0,2.424-7.921,4.589-15.914c1.12-3.979,2.119-8.004,2.909-10.997
						c0.738-3.013,1.231-5.021,1.231-5.021c2.471,0.931,5.34-0.48,6.303-3.204c0,0,0.563-1.562,1.125-3.123
						c0.568-1.558,1.111-3.128,1.111-3.128l-9.063-3.165c0,0-6.291,18.168-13.954,35.729c-3.775,8.803-7.783,17.492-10.859,23.972
						c-3.093,6.472-5.229,10.746-5.229,10.746s5.591-6.284,11.039-12.768C255.239,222.544,260.558,215.87,260.558,215.87z"/>
				</g>
			</g>
			<g id="XMLID_100_">
				<path id="XMLID_106_" fill="#582A1A" d="M276.008,133.676c-10.273-3.117-16.392-12.929-13.665-21.917l37.204,11.287
					C296.82,132.033,286.281,136.792,276.008,133.676z"/>
				<path id="XMLID_101_" fill="#E57368" d="M263.024,122.471c3.23-0.415,8.73,1.139,14.333,4.293
					c4.064,2.288,7.377,4.964,9.396,7.397c-3.371,0.731-7.075,0.628-10.747-0.485C269.849,131.807,265.187,127.531,263.024,122.471z
					"/>
			</g>
		</g>
	</g>
	<g>
		<g id="XMLID_99_">
			<path fill="#4A4B4D" d="M264.236,327.631l-62.971-58.554l-21.249-11.971c-1.377,0.522-2.666,1.341-3.752,2.476
				c-3.906,4.077-3.766,10.548,0.311,14.452l66.409,62.66c0.795,0.75,1,1.934,0.505,2.906l-33,64.875h22.646l33.383-63.447
				C268.869,336.56,267.934,331.069,264.236,327.631z"/>
		</g>
		<g id="XMLID_95_">
			<path id="XMLID_98_" fill="#231F20" d="M238.474,409.11l-7.374-4.928l-20.683-0.139l-0.081,15.127l33.171,0.096
				C243.518,415.45,242.417,411.761,238.474,409.11z"/>
			<polygon id="XMLID_97_" fill="#58595B" points="243.499,422.526 243.507,419.267 210.336,419.171 210.329,422.489 			"/>
			<path id="XMLID_96_" fill="#D1D3D4" d="M233.643,415.192l5.074,0.023c0.906,0.004,1.651-0.774,1.656-1.73l0,0
				c0.004-0.956-0.732-1.742-1.639-1.747l-5.074-0.028c-0.906-0.005-1.653,0.772-1.657,1.732
				C231.999,414.401,232.737,415.188,233.643,415.192z"/>
		</g>
	</g>
	<g>
		<g>
			<g>
				<rect x="0" y="265.956" fill="#6F85BF" width="344.001" height="3.728"/>
				<rect x="0" y="269.684" fill="#2B4B9F" width="344.001" height="10.09"/>
			</g>
			<path fill="#A8B5D8" d="M87.558,265.035h-2.294c-0.169,0-0.33,0.063-0.449,0.178l-15.123,14.446
				c-0.4,0.382-0.117,1.035,0.449,1.035h2.294c0.168,0,0.33-0.064,0.449-0.178l15.123-14.446
				C88.406,265.688,88.124,265.035,87.558,265.035z"/>
			<path fill="#A8B5D8" d="M112.939,265.035h-2.294c-0.168,0-0.33,0.063-0.449,0.178l-15.123,14.446
				c-0.4,0.382-0.117,1.035,0.449,1.035h2.294c0.168,0,0.33-0.064,0.449-0.178l15.123-14.446
				C113.788,265.688,113.505,265.035,112.939,265.035z"/>
			<path fill="#A8B5D8" d="M138.32,265.035h-2.294c-0.168,0-0.33,0.063-0.449,0.178l-15.123,14.446
				c-0.399,0.382-0.117,1.035,0.449,1.035h2.294c0.168,0,0.33-0.064,0.449-0.178l15.123-14.446
				C139.169,265.688,138.886,265.035,138.32,265.035z"/>
			<path fill="#A8B5D8" d="M163.702,265.035h-2.294c-0.169,0-0.33,0.063-0.449,0.178l-15.124,14.446
				c-0.399,0.382-0.117,1.035,0.449,1.035h2.295c0.168,0,0.33-0.064,0.449-0.178l15.124-14.446
				C164.551,265.688,164.268,265.035,163.702,265.035z"/>
			<path fill="#A8B5D8" d="M11.412,265.035H9.118c-0.168,0-0.33,0.063-0.449,0.178L0,273.493v3.908l11.861-11.331
				C12.261,265.688,11.978,265.035,11.412,265.035z"/>
			<path fill="#A8B5D8" d="M36.793,265.035h-2.294c-0.168,0-0.33,0.063-0.449,0.178l-15.123,14.446
				c-0.399,0.382-0.116,1.035,0.45,1.035h2.294c0.168,0,0.33-0.064,0.449-0.178l15.122-14.446
				C37.643,265.688,37.359,265.035,36.793,265.035z"/>
			<path fill="#A8B5D8" d="M62.176,265.035h-2.294c-0.169,0-0.33,0.063-0.449,0.178l-15.124,14.446
				c-0.399,0.382-0.117,1.035,0.449,1.035h2.294c0.169,0,0.331-0.064,0.45-0.178l15.123-14.446
				C63.025,265.688,62.742,265.035,62.176,265.035z"/>
			<path fill="#A8B5D8" d="M265.229,265.035h-2.294c-0.168,0-0.33,0.063-0.449,0.178l-15.123,14.446
				c-0.4,0.382-0.117,1.035,0.449,1.035h2.294c0.168,0,0.33-0.064,0.449-0.178l15.124-14.446
				C266.078,265.688,265.795,265.035,265.229,265.035z"/>
			<path fill="#A8B5D8" d="M290.61,265.035h-2.294c-0.168,0-0.33,0.063-0.449,0.178l-15.123,14.446
				c-0.4,0.382-0.117,1.035,0.449,1.035h2.294c0.168,0,0.33-0.064,0.449-0.178l15.123-14.446
				C291.459,265.688,291.176,265.035,290.61,265.035z"/>
			<path fill="#A8B5D8" d="M315.992,265.035h-2.294c-0.168,0-0.33,0.063-0.449,0.178l-15.122,14.446
				c-0.4,0.382-0.117,1.035,0.449,1.035h2.294c0.168,0,0.33-0.064,0.449-0.178l15.122-14.446
				C316.841,265.688,316.558,265.035,315.992,265.035z"/>
			<path fill="#A8B5D8" d="M341.374,265.035h-2.294c-0.169,0-0.33,0.063-0.45,0.178l-15.122,14.446
				c-0.4,0.382-0.117,1.035,0.449,1.035h2.294c0.168,0,0.33-0.064,0.449-0.178l15.122-14.446
				C342.223,265.688,341.939,265.035,341.374,265.035z"/>
			<path fill="#A8B5D8" d="M214.465,265.035h-2.294c-0.168,0-0.33,0.063-0.449,0.178l-15.122,14.446
				c-0.401,0.382-0.117,1.035,0.449,1.035h2.294c0.168,0,0.33-0.064,0.449-0.178l15.122-14.446
				C215.314,265.688,215.031,265.035,214.465,265.035z"/>
			<path fill="#A8B5D8" d="M239.847,265.035h-2.295c-0.168,0-0.329,0.063-0.448,0.178l-15.124,14.446
				c-0.399,0.382-0.117,1.035,0.449,1.035h2.294c0.168,0,0.33-0.064,0.449-0.178l15.123-14.446
				C240.696,265.688,240.413,265.035,239.847,265.035z"/>
			<path fill="#A8B5D8" d="M189.083,265.035h-2.294c-0.168,0-0.33,0.063-0.449,0.178l-15.122,14.446
				c-0.4,0.382-0.117,1.035,0.449,1.035h2.294c0.168,0,0.33-0.064,0.449-0.178l15.122-14.446
				C189.933,265.688,189.649,265.035,189.083,265.035z"/>
		</g>
		<path fill="#3F5CA8" d="M356.38,284.729h-9.825c-3.9,0-7.062-3.161-7.062-7.062v-9.826c0-3.899,3.162-7.062,7.062-7.062h9.825
			c3.9,0,7.062,3.162,7.062,7.062v9.826C363.442,281.567,360.281,284.729,356.38,284.729z"/>
		<g>
			<g>
				<path fill="#6F85BF" d="M444.459,220.529h-39.077c-34.588,0-55.084,23.532-55.107,52.302h94.185V220.529z"/>
				<path fill="#3F5CA8" d="M444.459,272.831h-94.185l-0.001,0.034c0,28.785,20.507,52.336,55.108,52.336h39.077V272.831z"/>
			</g>
			<polygon fill="#C0CDDD" points="414.384,220.529 405.422,325.201 415.151,325.201 415.151,272.831 415.151,220.529 			"/>
			<g>
				<path fill="#A8B5D8" d="M472.582,211.965h-49.794c-4.496,0-8.141,3.645-8.141,8.141v52.72h57.935V211.965z"/>
				<path fill="#6F85BF" d="M472.582,272.825h-57.935v52.8c0,4.496,3.645,8.141,8.141,8.141h49.794V272.825z"/>
			</g>
			<path fill="#3F5CA8" d="M404.194,269.321c-1.251-4.67-4.899-8.318-9.569-9.57c-4.671-1.251-9.654,0.084-13.073,3.503
				c-2.561,2.561-3.952,5.999-3.964,9.526h27.065C404.649,271.627,404.5,270.465,404.194,269.321z"/>
			<path fill="#2B4B9F" d="M377.588,272.78c-0.004,1.182,0.147,2.374,0.461,3.546c1.251,4.671,4.899,8.318,9.569,9.57
				c4.67,1.251,9.654-0.084,13.073-3.503c2.582-2.582,3.973-6.056,3.962-9.613H377.588z"/>
			<polygon fill="#FBCB43" points="399.384,263.814 387.45,261.163 379.188,270.173 380.044,272.894 402.243,272.894 			"/>
			<polygon fill="#E49306" points="380.044,272.894 382.859,281.834 394.793,284.484 403.056,275.475 402.243,272.894 			"/>
			<path fill="#3F5CA8" d="M393.932,275.634c-1.004,1.003-2.467,1.395-3.838,1.027c-1.371-0.367-2.442-1.438-2.809-2.809
				s0.025-2.834,1.028-3.838c1.004-1.004,2.467-1.396,3.838-1.028s2.442,1.438,2.809,2.81
				C395.327,273.167,394.935,274.63,393.932,275.634z"/>
		</g>
	</g>
	<g>
		<g>
			<g>
				<g>
					<path fill="#F8D4AC" d="M111.499,257.642l12.3-10.723l-8.497-9.77l-13.978,12.184c-1.416-0.693-3.175-0.522-4.433,0.572
						l-8.502,7.396c-0.711,0.619-0.787,1.707-0.168,2.419l8.497,9.768c0.619,0.712,1.707,0.787,2.418,0.169l4.95-4.306
						c0.204-0.178,0.469-0.221,0.714-0.163h5.036c1.267,0,2.369-0.868,2.671-2.099C112.955,261.258,112.632,259.261,111.499,257.642
						z"/>
					<path id="XMLID_94_" fill="#EEC595" d="M79.557,267.601c0.652,0.576,1.647,0.533,2.303-0.037l6.974-6.106
						c0.185-0.161,0.465-0.142,0.626,0.044l0,0c0.161,0.185,0.142,0.465-0.043,0.626l-9.68,8.479
						c-0.656,0.571-0.836,1.55-0.356,2.276c0.581,0.878,1.789,1.02,2.558,0.352l9.728-8.521c0.185-0.161,0.465-0.142,0.626,0.044
						l0,0c0.161,0.186,0.142,0.465-0.043,0.627l-11.294,9.981c-0.656,0.57-0.836,1.55-0.356,2.276
						c0.581,0.878,1.789,1.02,2.558,0.352l11.342-10.023c0.185-0.161,0.465-0.142,0.626,0.043l0,0
						c0.161,0.186,0.141,0.466-0.044,0.627l-8.564,7.59c-0.657,0.57-0.836,1.55-0.356,2.275c0.58,0.879,1.789,1.021,2.557,0.353
						l12.203-10.755c-0.656,0.571-1.651,0.614-2.303,0.038c-0.685-0.604-0.756-1.599-0.262-2.288
						c0.138-0.191,0.131-0.45-0.024-0.629l0,0c-0.154-0.177-0.409-0.221-0.617-0.111c-0.688,0.361-1.563,0.218-2.093-0.392
						c-0.53-0.609-0.55-1.496-0.097-2.126c0.137-0.191,0.128-0.449-0.025-0.627l0,0c-0.154-0.177-0.409-0.222-0.617-0.112
						c-0.687,0.361-1.562,0.219-2.092-0.391c-0.528-0.606-0.55-1.488-0.104-2.118c0.117-0.165,0.138-0.391,0.032-0.564
						c-0.143-0.234-0.435-0.306-0.668-0.183c-0.687,0.361-1.563,0.218-2.092-0.392c-0.619-0.711-0.543-1.799,0.168-2.418
						l-10.563,9.229C78.794,265.688,78.767,266.903,79.557,267.601z"/>
					<g id="XMLID_91_">
						
							<rect id="XMLID_93_" x="111.567" y="238.138" transform="matrix(0.6563 0.7545 -0.7545 0.6563 223.1494 -6.6362)" fill="#FFFFFF" width="14.583" height="6.933"/>
						<circle id="XMLID_92_" cx="115.774" cy="238" r="1.558"/>
					</g>
				</g>
				<g id="XMLID_84_">
					<path fill="#EEC595" d="M111.499,257.642c0.002,0.002,0.003,0.005,0.005,0.008c-0.413,0.053-0.835,0.068-1.265,0.039
						c-3.581-0.242-6.313-3.371-6.07-6.952l0.104-1.526c0.1-1.484,0.701-2.817,1.619-3.858l1.302-1.134
						c1.153-0.766,2.552-1.18,4.032-1.079c3.582,0.243,6.313,3.371,6.071,6.953l-0.104,1.526c-0.029,0.428-0.102,0.842-0.208,1.242
						L111.499,257.642z"/>
					<path fill="#754C29" d="M103.064,246.451l9.79,11.212c0.405,0.463,1.108,0.511,1.571,0.106l4.09-3.571
						c0.463-0.404,0.511-1.107,0.106-1.57l-9.79-11.213c-0.405-0.463-1.107-0.51-1.571-0.105l-4.09,3.57
						C102.708,245.284,102.66,245.987,103.064,246.451z"/>
					<g>
						<circle id="XMLID_90_" fill="#BDC3C7" cx="110.777" cy="249.596" r="6.527"/>
						<circle id="XMLID_89_" fill="#FFFFFF" cx="110.777" cy="249.596" r="5.427"/>
						<g id="XMLID_87_">
							<path id="XMLID_88_" fill="#2C3E50" d="M111.124,244.746c-0.033-0.069-0.103-0.119-0.185-0.122
								c-0.118-0.004-0.216,0.088-0.221,0.206l-0.166,4.791c-0.004,0.117,0.088,0.216,0.206,0.22
								c0.117,0.004,0.216-0.088,0.22-0.205l0.167-4.791C111.146,244.81,111.139,244.776,111.124,244.746z"/>
						</g>
						<g id="XMLID_85_">
							<path id="XMLID_86_" fill="#2C3E50" d="M110.259,249.55c-0.02,0.293,0.202,0.548,0.496,0.567l3.074,0.208
								c0.294,0.02,0.548-0.202,0.568-0.495c0.02-0.294-0.202-0.548-0.496-0.567l-3.074-0.209
								C110.534,249.034,110.279,249.256,110.259,249.55z"/>
						</g>
					</g>
				</g>
			</g>
			<g id="XMLID_83_">
				<path fill="#4A4B4D" d="M126.219,244.983c34.005-30.193,60.778-48.176,99.075-69.848l-6.996-12.363
					c-31.81,18-63.456,37.084-101.853,71.175L126.219,244.983z"/>
			</g>
		</g>
	</g>
	<path fill="#EEC595" d="M352.01,258.031l0.045,0.01l0.011,0.002l7.144,1.457c1.428,0.291,2.819-0.573,3.091-1.923l0.085-0.423
		l-8.89-1.813l-0.023-0.005l-3.973-0.811c-0.455-0.099-0.909-0.146-1.355-0.146c-1.996-0.001-2.257,2.921-0.303,3.331l2.456,0.516
		c0.448,0.095,0.892-0.021,1.324-0.17C351.741,258.015,351.874,258.004,352.01,258.031z"/>
</g>
<g id="girl">
	<g>
		<path fill="#EEC595" d="M636.838,267.483c0,0,0.904-0.146,2.232-0.419c1.328-0.271,3.101-0.63,4.873-0.989
			c3.544-0.721,7.088-1.441,7.088-1.441l-0.152-0.745l-12.666,2.574c-0.918,0.167-1.801-0.458-1.842-1.357
			c-0.036-0.744,0.566-1.39,1.346-1.534l20.557-4.184c0.398-0.081,0.656-0.451,0.576-0.825s-0.466-0.612-0.863-0.53l-0.045,0.009
			l-0.012,0.002l-7.143,1.457c-1.428,0.291-2.818-0.573-3.091-1.923l-0.086-0.423l8.891-1.813l0.022-0.005l3.973-0.811
			c3.037-0.659,6.025,0.96,6.961,3.7l5.923-1.342l2.438,10.805l-7.959,1.804c-0.281,1.337-1.378,2.485-2.865,2.82l-22.871,4.659
			c-0.918,0.186-1.8-0.42-1.844-1.323c-0.037-0.745,0.563-1.409,1.344-1.567l10.884-2.212l-0.151-0.744l-13.432,2.714
			c-0.926,0.167-1.813-0.456-1.853-1.355c-0.033-0.744,0.573-1.394,1.36-1.535l13.338-2.697l-0.152-0.744
			c0,0-3.567,0.726-7.136,1.451c-1.784,0.362-3.567,0.725-4.905,0.996s-2.249,0.421-2.249,0.421
			c-0.923,0.167-1.806-0.457-1.846-1.357C635.447,268.274,636.053,267.625,636.838,267.483z"/>
		<g>
			<path fill="#612F12" d="M773.418,6.926L773.418,6.926c6.447,1.403,12.549,3.736,17.531,7.264
				c5.973,4.23,7.898,8.177,8.413,10.472c1.31,0.62,2.587,1.439,3.804,2.417c1.242,0.992,2.456,2.16,3.57,3.446
				c2.233,2.578,4.122,5.648,5.385,8.952c0.424,1.217,0.75,2.431,1.06,3.685c0.336,1.269,0.601,2.549,0.79,3.841
				c0.379,2.583,0.458,5.209,0.205,7.871c0,0-0.049,0.504-0.139,1.451c-0.116,0.936-0.174,2.356-0.266,4.157
				c-0.094,1.801-0.209,3.987-0.34,6.496c-0.107,2.516-0.359,5.313-0.348,8.46c-0.375,12.459-0.071,29.314,0.977,46.269
				c0.751,8.487,1.287,16.975,2.314,24.935c0.48,3.978,0.817,7.832,1.358,11.472c0.522,3.642,1.017,7.084,1.472,10.262
				c0.227,1.589,0.443,3.112,0.648,4.561c0.223,1.446,0.482,2.811,0.699,4.098c0.445,2.572,0.834,4.813,1.153,6.66
				c0.636,3.693,1,5.803,1,5.803l-92.79,17.242c0,0-0.423-2.438-1.162-6.706c-0.369-2.134-0.817-4.725-1.331-7.697
				c-0.249-1.487-0.542-3.065-0.801-4.737c-0.241-1.675-0.495-3.437-0.759-5.275c-0.525-3.677-1.096-7.66-1.697-11.873
				c-0.617-4.21-1.031-8.694-1.584-13.309c-1.168-9.217-1.839-19.163-2.686-29.07c-1.252-19.908-1.61-39.999-1.155-55.23
				c0.006-3.78,0.287-7.315,0.423-10.419c0.165-3.11,0.309-5.821,0.428-8.055c0.121-2.232,0.201-3.983,0.338-5.198
				c0.111-1.208,0.17-1.852,0.17-1.852c0.316-3.441,0.959-6.774,1.891-9.946c0.466-1.586,1.004-3.132,1.608-4.632
				c0.649-1.512,1.4-2.986,2.192-4.403c1.595-2.835,3.434-5.459,5.479-7.832c2.052-2.374,4.251-4.489,6.82-6.353
				C748.184,6.69,760.699,4.112,773.418,6.926z"/>
			<g id="XMLID_183_">
				<polygon id="XMLID_184_" fill="#FFFFFF" points="676.221,256.048 679.161,268.926 672.979,270.329 670.108,257.435 				"/>
			</g>
			<g id="XMLID_182_">
				<path fill="#4A4B4D" d="M753.505,175.674c0.354-3.856-2.616-7.222-6.486-7.377l0,0c-3.603-0.144-6.685,2.563-7.013,6.154
					c-5.076,55.372-33.215,75.218-63.727,81.495l2.73,13.277C719.878,260.825,747.705,238.973,753.505,175.674z"/>
			</g>
		</g>
	</g>
	<g id="man__x26__girl">
		<g id="girl__x26__flag_2_">
			<g>
				<g>
					<g>
						<g id="XMLID_1266_">
							<path fill="#EEC595" d="M851.797,422.32c2.385,0,4.738-1.101,6.25-3.177l8.025-11.011c0.963-1.322,1.482-2.915,1.482-4.551
								l-43.626-129.655c-1.431-4.021-5.849-6.12-9.87-4.689c-4.021,1.431-6.12,5.85-4.689,9.87l42.732,121.958l-6.543,8.978
								c-2.514,3.448-1.755,8.282,1.693,10.796C848.625,421.839,850.218,422.32,851.797,422.32z"/>
						</g>
						<path fill="#231F20" d="M843.577,410.136h12.771c2.004,0,3.938-0.744,5.428-2.09l5.76-5.31c1.827,0,3.331,1.998,3.331,4.425
							c0,0.779-0.155,1.514-0.425,2.151c-0.54,1.272-0.789,2.647-0.789,4.03v9.975h-4.832v-9.385c0-0.721-0.879-1.072-1.374-0.549
							l-7.104,9.934h-21.795v-4.128C834.547,414.188,838.59,410.136,843.577,410.136z"/>
						<path fill="#D1D3D4" d="M841.234,413.818h5.365c0.959,0,1.743,0.786,1.743,1.747l0,0c0,0.961-0.784,1.748-1.743,1.748h-5.365
							c-0.958,0-1.742-0.787-1.742-1.748l0,0C839.492,414.604,840.276,413.818,841.234,413.818z"/>
					</g>
					<g>
						<g id="XMLID_1265_">
							<path fill="#EEC595" d="M811.379,422.32c-1.578,0-3.17-0.481-4.544-1.481c-3.448-2.514-4.207-7.348-1.694-10.796l6.543-8.978
								l-40.394-108.41c-1.431-4.021,0.669-8.439,4.69-9.869c4.021-1.432,8.439,0.668,9.869,4.689l41.287,116.106
								c0,1.636-0.519,3.229-1.482,4.551l-8.024,11.011C816.117,421.22,813.765,422.32,811.379,422.32z"/>
						</g>
						<path fill="#231F20" d="M803.159,410.136h12.771c2.005,0,3.938-0.744,5.428-2.09l5.76-5.31c1.827,0,3.332,1.998,3.332,4.425
							c0,0.779-0.155,1.514-0.426,2.151c-0.539,1.272-0.789,2.647-0.789,4.03v9.975h-4.832v-9.385c0-0.721-0.879-1.072-1.373-0.549
							l-7.105,9.934h-21.795v-4.128C794.129,414.188,798.172,410.136,803.159,410.136z"/>
						<path fill="#D1D3D4" d="M800.816,413.818h5.365c0.959,0,1.744,0.786,1.744,1.747l0,0c0,0.961-0.785,1.748-1.744,1.748h-5.365
							c-0.958,0-1.742-0.787-1.742-1.748l0,0C799.074,414.604,799.858,413.818,800.816,413.818z"/>
					</g>
				</g>
				<g>
					<g>
						<g>
							<path fill="#313437" d="M839.6,302.671c0,0-9.084-25.631-10.131-28.747c-1.025-3.127-2.6-7.543-4.301-12.93
								c-0.814-2.711-1.695-5.647-2.627-8.754c-0.92-3.11-1.971-6.36-2.834-9.81c-1.809-6.864-3.863-14.146-5.493-21.567
								c-0.847-3.699-1.771-7.377-2.544-11.034c-0.744-3.665-1.477-7.271-2.186-10.762c-0.355-1.745-0.704-3.461-1.046-5.14
								c-0.296-1.689-0.585-3.341-0.868-4.95c-0.557-3.218-1.082-6.261-1.568-9.069c-0.244-1.404-0.477-2.75-0.699-4.03
								c-0.186-1.285-0.361-2.504-0.525-3.649c-0.328-2.292-0.613-4.29-0.849-5.936c-0.472-3.29-0.741-5.171-0.741-5.171
								c-0.426-2.727-1.323-5.255-2.703-7.5c-1.386-2.244-3.246-4.206-5.451-5.8c-4.408-3.183-10.197-4.911-16.305-4.304
								l-25.916,2.594c-6.107,0.607-11.364,3.577-14.912,7.991c-1.775,2.205-3.123,4.766-3.938,7.544
								c-0.821,2.778-1.118,5.775-0.651,8.813c0,0,0.299,2.096,0.824,5.763c0.262,1.833,0.582,4.06,0.947,6.614
								c0.186,1.276,0.383,2.635,0.591,4.066c0.245,1.426,0.504,2.925,0.773,4.488c0.541,3.128,1.128,6.516,1.747,10.1
								c0.315,1.791,0.64,3.63,0.971,5.511c0.379,1.872,0.768,3.785,1.16,5.73c0.792,3.89,1.609,7.91,2.439,11.994
								c0.864,4.078,1.889,8.196,2.838,12.327c1.83,8.273,4.119,16.47,6.159,24.17c0.977,3.857,2.152,7.548,3.192,11.06
								c1.055,3.509,2.053,6.826,2.973,9.889c1.93,6.109,3.721,11.169,4.893,14.725c1.199,3.55,10.37,29.428,10.37,29.428
								L839.6,302.671z"/>
						</g>
						<path fill="#4A4B4D" d="M733.311,170.46c-0.467-3.037-0.17-6.034,0.651-8.813c0.815-2.778,2.163-5.339,3.938-7.544
							c3.548-4.414,8.805-7.384,14.912-7.991l7.073-0.708c0,0,0.266,2.346,0.73,6.45c0.233,2.051,0.515,4.543,0.839,7.401
							c0.171,1.428,0.316,2.952,0.536,4.55c0.228,1.596,0.468,3.275,0.719,5.027c0.502,3.503,1.046,7.299,1.62,11.313
							c0.576,4.014,1.387,8.214,2.115,12.577c1.389,8.739,3.438,17.957,5.277,27.213c2.19,9.184,4.172,18.415,6.574,26.944
							c1.17,4.271,2.172,8.433,3.355,12.319c1.169,3.891,2.273,7.568,3.294,10.964c0.511,1.697,0.999,3.324,1.464,4.872
							c0.516,1.532,1.006,2.986,1.466,4.354c0.92,2.732,1.723,5.115,2.384,7.076c1.322,3.924,10.563,30.016,10.563,30.016
							l-27.634,9.842c0,0-9.171-25.878-10.37-29.428c-1.172-3.556-2.963-8.615-4.893-14.725c-0.92-3.063-1.918-6.38-2.973-9.889
							c-1.04-3.512-2.216-7.202-3.192-11.06c-2.04-7.7-4.329-15.896-6.159-24.17c-0.949-4.131-1.974-8.249-2.838-12.327
							c-0.83-4.084-1.647-8.104-2.439-11.994c-0.393-1.945-0.781-3.858-1.16-5.73c-0.331-1.88-0.655-3.72-0.971-5.511
							c-0.619-3.584-1.206-6.972-1.747-10.1c-0.27-1.563-0.528-3.063-0.773-4.488c-0.208-1.432-0.405-2.79-0.591-4.066
							c-0.365-2.554-0.686-4.78-0.947-6.614C733.609,172.556,733.311,170.46,733.311,170.46z"/>
					</g>
					<g>
						<path fill="#231F20" stroke="#231F20" stroke-width="0.5344" stroke-miterlimit="10" d="M773.904,229.259
							c-1.713,0.402-3.414-0.61-3.801-2.264c-0.387-1.652,0.691-3.303,2.408-3.687c1.717-0.383,3.418,0.631,3.801,2.264
							C776.694,227.206,775.617,228.856,773.904,229.259z"/>
						<path fill="#231F20" stroke="#231F20" stroke-width="0.5344" stroke-miterlimit="10" d="M775.912,237.833
							c1.697-0.421,3.407,0.557,3.85,2.176c0.433,1.621-0.598,3.295-2.301,3.738c-1.701,0.442-3.436-0.529-3.873-2.171
							C773.141,239.938,774.194,238.259,775.912,237.833z"/>
					</g>
					<path fill="#26292C" d="M800.822,316.481c0,0-9.398-26.561-10.77-30.627c-0.685-2.034-1.483-4.406-2.34-6.948
						c-0.428-1.271-0.869-2.585-1.317-3.92c-0.405-1.347-0.815-2.716-1.228-4.084c-1.629-5.478-3.324-10.938-4.484-15.063
						c-1.104-4.139-1.838-6.898-1.838-6.898l39.754-10.674c0,0,0.684,2.575,1.711,6.438c1.082,3.842,2.662,8.91,4.173,14.006
						c0.382,1.272,0.763,2.544,1.138,3.798c0.416,1.232,0.825,2.447,1.221,3.622c0.793,2.35,1.532,4.543,2.166,6.423
						c1.264,3.761,10.592,30.117,10.592,30.117L800.822,316.481z"/>
					<path fill="#313437" d="M800.822,316.481l-27.634,9.842c0,0-9.45-26.705-10.896-30.99c-0.722-2.143-1.563-4.644-2.465-7.322
						c-0.45-1.34-0.914-2.725-1.386-4.131c-0.426-1.414-0.859-2.852-1.292-4.288c-1.714-5.751-3.491-11.492-4.708-15.817
						c-1.156-4.336-1.928-7.227-1.928-7.227l28.332-7.607c0,0,0.734,2.76,1.838,6.898c1.16,4.125,2.855,9.586,4.484,15.063
						c0.412,1.368,0.822,2.737,1.228,4.084c0.448,1.335,0.89,2.648,1.317,3.92c0.856,2.542,1.655,4.914,2.34,6.948
						C791.424,289.921,800.822,316.481,800.822,316.481z"/>
					<g>
						<path fill="#FFFFFF" d="M738.766,153.094c3.512-3.856,8.418-6.421,14.047-6.981l25.916-2.594
							c5.623-0.561,10.975,0.867,15.229,3.578c0,0-3.729,2.564-7.459,5.129c-3.725,2.62-7.449,5.24-7.449,5.24
							s-0.189,0.78-0.521,2.144c-0.355,1.369-0.746,3.314-1.254,5.663c-0.978,4.691-2.389,11.008-3.598,17.367
							c-1.136,6.403-2.271,12.806-3.123,17.608c-0.715,4.84-1.191,8.066-1.191,8.066s-1.121-2.927-2.803-7.318
							c-1.561-4.442-3.641-10.365-5.721-16.289c-2.019-5.959-3.851-11.984-5.311-16.505c-0.711-2.263-1.336-4.148-1.693-5.481
							c-0.379-1.33-0.597-2.09-0.597-2.09s-3.616-1.86-7.231-3.721c-3.621-1.907-7.242-3.814-7.242-3.814L738.766,153.094z"/>
					</g>
					<path fill="#EEC595" d="M763.332,116.579l0.646-0.034c3.083-0.158,5.704,2.056,5.854,4.945c0,0,0.059,1.545,0.221,3.858
						c0.191,2.311,0.448,5.392,0.704,8.474c0.255,3.082,0.511,6.163,0.703,8.475c0.083,1.156,0.227,2.113,0.292,2.787
						c0.076,0.672,0.119,1.056,0.119,1.056c0.326,2.876-1.896,5.489-4.964,5.836l-0.644,0.071c-3.066,0.348-5.824-1.754-6.156-4.693
						c0,0-0.045-0.392-0.123-1.076c-0.066-0.687-0.211-1.661-0.297-2.84c-0.195-2.357-0.457-5.499-0.719-8.64
						c-0.26-3.142-0.52-6.284-0.716-8.64c-0.166-2.359-0.226-3.937-0.226-3.937C757.873,119.263,760.249,116.736,763.332,116.579z"
						/>
					<g>
						<path fill="#EEC595" d="M759.748,127.587c4.739-0.505,9.473-1.87,13.981-3.865c4.52-1.997,8.763-4.617,12.388-7.664
							c3.625-3.047,6.631-6.52,8.676-10.27c2.154-3.744,3.386-7.758,3.3-11.963c0,0-0.017-0.826-0.044-2.272
							c-0.016-0.723-0.033-1.601-0.053-2.607c-0.01-1.005,0.027-2.131,0.042-3.364c0.038-2.464,0.083-5.338,0.132-8.417
							c0.022-1.54,0.045-3.131,0.068-4.748c0.084-1.603,0.169-3.23,0.254-4.858c0.17-3.254,0.342-6.51,0.501-9.561
							c0.154-3.052,0.517-5.832,0.712-8.25c0.445-4.817,0.743-8.029,0.743-8.029c0.421-3.237-0.692-6.352-2.886-8.866
							c-2.187-2.505-5.42-4.397-9.184-4.978l-42.311-6.497c-3.763-0.581-7.405,0.472-10.25,2.711
							c-2.836,2.231-4.907,5.657-5.412,9.624c0,0-0.361,3.846-0.906,9.613c-0.237,2.878-0.648,6.264-0.839,9.842
							c-0.189,3.578-0.392,7.396-0.595,11.212c-0.096,1.908-0.191,3.816-0.286,5.694c-0.03,1.866-0.061,3.703-0.089,5.479
							c-0.055,3.554-0.105,6.872-0.15,9.715c-0.015,1.42-0.053,2.728-0.042,3.877c0.021,1.148,0.039,2.149,0.054,2.973
							c0.031,1.649,0.049,2.59,0.049,2.59c0.08,4.279,0.912,8.376,2.363,12.126c1.504,3.74,3.727,7.116,6.364,10.018
							c5.318,5.806,12.46,9.646,20.583,10.692c0.936,0.123,1.885,0.141,2.821,0.042L759.748,127.587z"/>
						<path fill="#F8D4AC" d="M730.406,33.714c0.505-3.967,2.576-7.393,5.412-9.624c2.845-2.239,6.487-3.292,10.25-2.711
							l15.369,2.36c0,0-0.225,1.623-0.619,4.463c-0.197,1.42-0.436,3.144-0.71,5.122c-0.136,0.989-0.282,2.042-0.435,3.151
							c-0.107,1.111-0.219,2.28-0.336,3.499c-0.229,2.439-0.476,5.081-0.736,7.876c-0.254,2.795-0.581,5.741-0.691,8.792
							c-0.161,3.05-0.328,6.202-0.496,9.404c-0.084,1.602-0.168,3.215-0.252,4.835c-0.025,1.619-0.051,3.245-0.076,4.87
							c-0.078,6.501-0.295,13.008-0.082,19.09c0.147,6.083,0.134,11.772,0.467,16.624c0.251,4.857,0.461,8.906,0.607,11.739
							c0.07,1.417,0.127,2.53,0.203,3.286c0.063,0.757,0.096,1.16,0.096,1.16c-0.49-0.006-0.979-0.04-1.465-0.104
							c-8.123-1.047-15.265-4.887-20.583-10.692c-2.638-2.901-4.86-6.277-6.364-10.018c-1.451-3.75-2.283-7.847-2.363-12.126
							c0,0-0.018-0.941-0.049-2.59c-0.015-0.824-0.033-1.825-0.054-2.973c-0.011-1.149,0.027-2.457,0.042-3.877
							c0.045-2.844,0.096-6.161,0.15-9.715c0.028-1.777,0.059-3.613,0.089-5.479c0.095-1.878,0.19-3.787,0.286-5.694
							c0.203-3.817,0.405-7.634,0.595-11.212c0.19-3.578,0.602-6.964,0.839-9.842C730.045,37.56,730.406,33.714,730.406,33.714z"/>
						<g>
							<g>
								<path fill="#714514" d="M783.711,60.857c-0.162-0.009-0.323-0.071-0.448-0.186l-5.679-5.275
									c-0.27-0.252-0.271-0.651,0.012-0.888c0.275-0.237,0.707-0.226,0.965,0.024c0,0,1.411,1.327,2.822,2.653
									c1.42,1.311,2.84,2.622,2.84,2.622c0.268,0.245,0.271,0.637,0.006,0.875C784.086,60.811,783.896,60.869,783.711,60.857z"/>
							</g>
							<g>
								<path fill="#714514" d="M736.572,60.929c-0.158-0.009-0.315-0.072-0.439-0.193c-0.27-0.264-0.277-0.701-0.015-0.974
									l4.602-4.741c0.261-0.266,0.693-0.269,0.964-0.003c0.271,0.265,0.277,0.696,0.016,0.964l-4.6,4.738
									C736.956,60.869,736.763,60.938,736.572,60.929z"/>
							</g>
							<g>
								<path fill="#231F20" d="M770.982,69.622c-0.133,2.654,1.929,4.846,4.339,4.879c2.467,0.039,4.353-2.055,4.489-4.644
									c0.104-2.593-1.787-4.774-4.224-4.871S771.089,66.966,770.982,69.622z"/>
								<path fill="#FFFFFF" d="M775.685,67.224c-0.026,0.658,0.448,1.206,1.06,1.224s1.127-0.498,1.153-1.152
									s-0.448-1.203-1.06-1.224C776.228,66.049,775.711,66.565,775.685,67.224z"/>
								<path fill="#231F20" d="M737.563,68.897c-0.157,2.537,1.608,4.638,3.752,4.718c2.183,0.076,3.931-1.866,4.08-4.353
									c0.155-2.487-1.47-4.604-3.632-4.731C739.603,64.406,737.721,66.36,737.563,68.897z"/>
								<path fill="#FFFFFF" d="M741.746,66.701c-0.04,0.645,0.378,1.19,0.934,1.217c0.555,0.027,1.037-0.471,1.078-1.113
									c0.04-0.642-0.377-1.187-0.933-1.217S741.787,66.056,741.746,66.701z"/>
							</g>
							<path fill="#EEC595" d="M791.293,74.592c-0.051,3.409,2.979,6.21,6.77,6.257c3.789,0.047,6.904-2.582,6.951-5.872
								c0.01-1.652-0.719-3.165-1.883-4.281c-1.182-1.121-2.86-1.863-4.754-1.943C794.625,68.588,791.291,71.172,791.293,74.592z"/>
							<g>
								<g>
									<path fill="#D6A484" d="M756.93,85.862c1.354,0.005,2.592-0.165,3.488-0.475c0.84-0.292,1.281-1.172,0.985-1.972
										s-1.217-1.218-2.056-0.933c-0.41,0.139-1.248,0.285-2.371,0.274c-1.123-0.011-1.957-0.174-2.361-0.324
										c-0.83-0.306-1.764,0.097-2.084,0.907c-0.32,0.809,0.094,1.713,0.925,2.016C754.342,85.679,755.576,85.857,756.93,85.862z"
										/>
								</g>
								<path fill="#D6A484" d="M797.567,75.348l1.155,0.031c0.891,0.024,1.611,0.686,1.6,1.469s-0.752,1.41-1.643,1.392
									l-1.154-0.023c-0.893-0.018-1.611-0.681-1.6-1.473C795.938,75.952,796.676,75.323,797.567,75.348z"/>
							</g>
							<g>
								<path fill="#582A1A" d="M762.066,109.768c-4.309,0.815-8.523,0.103-11.855-1.773c-3.32-1.873-5.635-4.927-6.303-8.66
									c0,0,7.846-1.325,15.691-2.65c7.848-1.258,15.695-2.516,15.695-2.516C776.595,101.183,770.609,108.104,762.066,109.768z"/>
								<path fill="#E57368" d="M748.351,106.738c2.21-1.498,6.806-2.41,12.065-2.242c3.815,0.12,7.223,0.772,9.596,1.705
									c-2.162,1.706-4.859,2.984-7.945,3.567C756.906,110.746,751.855,109.522,748.351,106.738z"/>
							</g>
						</g>
					</g>
					<g>
						<path fill="#79390D" d="M807.922,60.737l-0.474-0.03c-5.812-0.357-11.145-2.643-14.909-6.161
							c-3.749-3.504-6.083-8.3-6.286-13.479c4.907-2.161,8.138-5.035,10.057-8.017c0.974-1.487,1.649-2.994,2.114-4.43
							c0.232-0.718,0.412-1.418,0.551-2.089c0.173-0.654,0.303-1.278,0.399-1.863c1.308,0.62,2.585,1.44,3.8,2.418
							c1.242,0.992,2.453,2.16,3.566,3.445c2.232,2.576,4.119,5.645,5.38,8.946c0.425,1.217,0.751,2.431,1.061,3.685
							c0.336,1.269,0.601,2.549,0.79,3.841c0.379,2.583,0.458,5.209,0.205,7.871c0,0-0.049,0.505-0.139,1.451
							c-0.116,0.936-0.174,2.356-0.266,4.158c-0.094,1.8-0.209,3.987-0.34,6.496c-0.107,2.516-0.359,5.313-0.348,8.46
							c-0.375,12.46-0.071,29.314,0.977,46.269c0.751,8.487,1.287,16.975,2.313,24.935c0.481,3.978,0.818,7.832,1.359,11.472
							c0.522,3.642,1.017,7.084,1.472,10.262c0.227,1.589,0.443,3.112,0.648,4.561c0.223,1.446,0.482,2.811,0.699,4.098
							c0.445,2.572,0.834,4.813,1.153,6.66c0.636,3.693,1,5.803,1,5.803l-5.73,1.065c0,0-0.35-2.029-0.962-5.58
							c-0.307-1.775-0.681-3.93-1.108-6.403c-0.215-1.236-0.443-2.551-0.685-3.938c-0.201-1.392-0.413-2.856-0.635-4.383
							c-0.842-6.114-2.005-13.232-2.77-20.896c-0.408-3.828-0.94-7.782-1.287-11.802c-0.333-4.02-0.672-8.103-1.01-12.186
							c-1.125-16.315-1.68-32.613-1.344-44.653c0.045-3.018,0.086-5.784,0.123-8.236c0.13-2.424,0.244-4.537,0.338-6.277
							C807.818,62.726,807.922,60.737,807.922,60.737z"/>
					</g>
					<path fill="#542807" d="M789.721,23.937c0.475,0.079,0.943,0.172,1.406,0.276c0.639,0.145,1.043,0.694,0.941,1.258
						l-1.947,14.061c-0.493,4.704,0.94,9.271,3.623,12.947c2.648,3.673,6.804,6.534,11.619,8.01
						c-5.757-0.815-10.957-3.575-14.309-7.479c-3.383-3.903-5.289-9.063-4.691-14.396l1.908-13.78
						C788.383,24.225,789.036,23.822,789.721,23.937z"/>
					<path fill="#79390D" d="M773.436,6.882L773.436,6.882c2.777,0.605,5.49,1.384,8.077,2.355c2.591,1.021,5.063,2.223,7.405,3.568
						c0.701,0.428,1.385,0.875,2.047,1.344c5.973,4.231,7.898,8.178,8.414,10.474l0.003,0.001c-0.356,1.836-0.81,4.205-2.01,6.577
						c-1.186,2.379-3.041,4.802-5.923,6.912c-2.931,2.096-6.658,3.956-11.889,5.071c-5.211,1.118-11.828,1.535-20.206,0.728
						c-14.61-1.447-24.006,1.554-30.209,6.672c-6.052,5.064-8.737,12.063-10.301,18.17c0,0,0.28-5.364,0.56-10.728
						c0.145-2.682,0.289-5.364,0.398-7.375c0.186-2.031,0.311-3.386,0.311-3.386c0.316-3.441,0.959-6.773,1.891-9.945
						c0.465-1.586,1.003-3.132,1.607-4.633c0.654-1.513,1.402-2.986,2.195-4.402c1.594-2.835,3.434-5.459,5.479-7.832
						c2.049-2.373,4.254-4.489,6.822-6.352C748.201,6.643,760.716,4.065,773.436,6.882z"/>
					<path fill="#542807" d="M759.809,39.061c7.033,0.767,12.84,0.667,17.621,0.015c4.803-0.652,8.66-1.837,11.682-3.337
						c3.029-1.499,5.255-3.309,6.88-5.225c1.644-1.907,2.595-3.965,3.377-5.812c-0.363,1.84-0.816,4.21-2.028,6.575
						c-1.193,2.373-3.056,4.786-5.941,6.888c-2.934,2.087-6.656,3.938-11.883,5.046c-5.205,1.111-11.807,1.524-20.162,0.72
						c-14.611-1.447-24.006,1.555-30.209,6.672c-6.052,5.065-8.736,12.064-10.301,18.171c0.33-3.326,1.193-7.078,2.762-10.772
						c1.572-3.695,3.798-7.322,7.127-10.449C735.276,41.293,745.219,37.425,759.809,39.061z"/>
					<path fill="#EEC595" d="M775.771,143.814c0,0-2.193,8.854-4.389,17.708c-1.927,8.992-3.855,17.984-3.855,17.984
						c-0.199,0.988-1.638,1.096-1.943,0.142c0,0-2.6-8.401-5.199-16.802c-2.363-8.509-4.727-17.018-4.727-17.018L775.771,143.814z"
						/>
				</g>
			</g>
		</g>
	</g>
	<path fill="#F8D4AC" d="M897.557,260.188l-6.116-7.939c-0.503-0.652-1.19-1.084-1.935-1.277c-1.365-0.354-2.625-1.032-3.484-2.15
		l-8.396-10.921l-9.121,7.027l8.844,11.506c-2.173,2.073-2.479,5.521-0.607,7.95l0.225,0.293h0.001l3.169,4.114l6.748,5.273
		c1.839-2.359-0.166-3.766-0.357-4.005l-4.736-4.117l-0.47-0.609c-0.243-0.314-0.185-0.767,0.131-1.01s0.768-0.184,1.011,0.131
		l3.561,4.622c0.512,0.664,1.474,0.788,2.138,0.277l9.12-7.027C897.943,261.814,898.068,260.853,897.557,260.188z"/>
	<g>
		<g>
			<g>
				<rect x="665.994" y="265.956" fill="#E57368" width="334.006" height="3.728"/>
				<rect x="665.994" y="269.684" fill="#DC4437" width="334.006" height="10.09"/>
			</g>
			<path fill="#ED9C98" d="M753.551,265.035h-2.294c-0.169,0-0.33,0.063-0.449,0.178l-15.123,14.446
				c-0.399,0.382-0.116,1.035,0.448,1.035h2.295c0.169,0,0.33-0.064,0.449-0.178L754,266.07
				C754.4,265.688,754.117,265.035,753.551,265.035z"/>
			<path fill="#ED9C98" d="M778.933,265.035h-2.294c-0.169,0-0.33,0.063-0.449,0.178l-15.123,14.446
				c-0.4,0.382-0.117,1.035,0.449,1.035h2.294c0.169,0,0.33-0.064,0.449-0.178l15.123-14.446
				C779.781,265.688,779.498,265.035,778.933,265.035z"/>
			<path fill="#ED9C98" d="M804.314,265.035h-2.295c-0.168,0-0.33,0.063-0.449,0.178l-15.123,14.446
				c-0.399,0.382-0.117,1.035,0.449,1.035h2.295c0.168,0,0.33-0.064,0.449-0.178l15.123-14.446
				C805.163,265.688,804.881,265.035,804.314,265.035z"/>
			<path fill="#ED9C98" d="M829.695,265.035h-2.294c-0.169,0-0.33,0.063-0.449,0.178l-15.123,14.446
				c-0.399,0.382-0.116,1.035,0.449,1.035h2.294c0.169,0,0.33-0.064,0.449-0.178l15.123-14.446
				C830.545,265.688,830.262,265.035,829.695,265.035z"/>
			<path fill="#ED9C98" d="M677.406,265.035h-2.295c-0.168,0-0.33,0.063-0.449,0.178l-8.668,8.28v3.908l11.861-11.331
				C678.256,265.688,677.972,265.035,677.406,265.035z"/>
			<path fill="#ED9C98" d="M702.787,265.035h-2.294c-0.169,0-0.33,0.063-0.449,0.178l-15.122,14.446
				c-0.4,0.382-0.117,1.035,0.449,1.035h2.294c0.169,0,0.33-0.064,0.449-0.178l15.122-14.446
				C703.637,265.688,703.354,265.035,702.787,265.035z"/>
			<path fill="#ED9C98" d="M728.17,265.035h-2.295c-0.168,0-0.33,0.063-0.449,0.178l-15.123,14.446
				c-0.399,0.382-0.116,1.035,0.449,1.035h2.295c0.168,0,0.33-0.064,0.449-0.178l15.123-14.446
				C729.02,265.688,728.736,265.035,728.17,265.035z"/>
			<path fill="#ED9C98" d="M931.223,265.035h-2.295c-0.168,0-0.33,0.063-0.449,0.178l-15.123,14.446
				c-0.399,0.382-0.116,1.035,0.449,1.035h2.295c0.168,0,0.33-0.064,0.449-0.178l15.123-14.446
				C932.071,265.688,931.789,265.035,931.223,265.035z"/>
			<path fill="#ED9C98" d="M956.604,265.035h-2.294c-0.169,0-0.33,0.063-0.449,0.178l-15.123,14.446
				c-0.399,0.382-0.116,1.035,0.449,1.035h2.294c0.169,0,0.33-0.064,0.449-0.178l15.123-14.446
				C957.453,265.688,957.17,265.035,956.604,265.035z"/>
			<path fill="#ED9C98" d="M981.985,265.035h-2.294c-0.169,0-0.33,0.063-0.449,0.178l-15.122,14.446
				c-0.4,0.382-0.117,1.035,0.449,1.035h2.294c0.169,0,0.33-0.064,0.449-0.178l15.122-14.446
				C982.835,265.688,982.552,265.035,981.985,265.035z"/>
			<path fill="#ED9C98" d="M1000,269.629l-10.499,10.03c-0.399,0.382-0.116,1.035,0.449,1.035h2.295c0.168,0,0.33-0.064,0.449-0.178
				l7.306-6.98V269.629z"/>
			<path fill="#ED9C98" d="M880.459,265.035h-2.295c-0.168,0-0.33,0.063-0.449,0.178l-15.122,14.446
				c-0.4,0.382-0.116,1.035,0.449,1.035h2.294c0.169,0,0.33-0.064,0.449-0.178l15.123-14.446
				C881.309,265.688,881.024,265.035,880.459,265.035z"/>
			<path fill="#ED9C98" d="M905.841,265.035h-2.294c-0.169,0-0.33,0.063-0.449,0.178l-15.123,14.446
				c-0.4,0.382-0.117,1.035,0.449,1.035h2.294c0.169,0,0.33-0.064,0.449-0.178l15.123-14.446
				C906.69,265.688,906.407,265.035,905.841,265.035z"/>
			<path fill="#ED9C98" d="M855.077,265.035h-2.294c-0.169,0-0.33,0.063-0.449,0.178l-15.123,14.446
				c-0.4,0.382-0.116,1.035,0.449,1.035h2.295c0.168,0,0.33-0.064,0.449-0.178l15.122-14.446
				C855.927,265.688,855.643,265.035,855.077,265.035z"/>
		</g>
		<path fill="#DC4437" d="M653.616,284.729h9.825c3.9,0,7.063-3.161,7.063-7.062v-9.826c0-3.899-3.162-7.062-7.063-7.062h-9.825
			c-3.9,0-7.063,3.162-7.063,7.062v9.826C646.554,281.567,649.716,284.729,653.616,284.729z"/>
		<g>
			<path fill="#FBCB43" d="M513.941,237.028h40.15v6.609H507.1C507.229,239.968,510.238,237.028,513.941,237.028z"/>
			<path fill="#E49306" d="M554.092,243.638v7.099h-40.15c-3.785,0-6.854-3.068-6.854-6.854c0-0.083,0.009-0.163,0.012-0.245
				H554.092z"/>
			<path fill="#FBCB43" d="M513.941,294.994h40.15v6.609H507.1C507.229,297.933,510.238,294.994,513.941,294.994z"/>
			<path fill="#E49306" d="M554.092,301.604v7.099h-40.15c-3.785,0-6.854-3.069-6.854-6.854c0-0.082,0.009-0.162,0.012-0.244
				H554.092z"/>
		</g>
		<g>
			<g>
				<path fill="#E57368" d="M571.601,224.278h36.278c32.109,0,51.138,21.847,51.159,48.555h-87.438V224.278z"/>
				<path fill="#DC4437" d="M571.601,272.833h87.438l0.001,0.032c0,26.723-19.038,48.587-51.16,48.587h-36.278V272.833z"/>
			</g>
			<polygon fill="#C0CDDD" points="572.313,224.278 580.633,321.452 571.601,321.452 571.601,272.833 571.601,224.278 			"/>
			<g>
				<path fill="#ED9C98" d="M554.092,216.327h9.951c4.174,0,7.558,3.384,7.558,7.558v48.943h-17.509V216.327z"/>
				<path fill="#E57368" d="M554.092,272.828h17.509v49.018c0,4.174-3.384,7.558-7.558,7.558h-9.951V272.828z"/>
			</g>
			<path fill="#DC4437" d="M596.391,268.892c1.406-5.248,5.506-9.347,10.752-10.753c5.248-1.405,10.848,0.095,14.689,3.937
				c2.877,2.877,4.439,6.74,4.453,10.702h-30.41C595.879,271.481,596.047,270.176,596.391,268.892z"/>
			<path fill="#D3362D" d="M626.285,272.777c0.004,1.329-0.166,2.668-0.519,3.985c-1.405,5.247-5.505,9.346-10.752,10.752
				s-10.847-0.094-14.688-3.936c-2.9-2.9-4.464-6.805-4.451-10.802H626.285z"/>
			<polygon fill="#FBCB43" points="601.795,262.704 615.204,259.726 624.488,269.849 623.525,272.905 598.584,272.905 			"/>
			<polygon fill="#E49306" points="623.525,272.905 620.362,282.95 606.953,285.928 597.67,275.805 598.584,272.905 			"/>
			<path fill="#DC4437" d="M607.922,275.983c1.128,1.128,2.771,1.568,4.313,1.155c1.54-0.413,2.744-1.616,3.156-3.156
				c0.412-1.541-0.027-3.185-1.155-4.312c-1.128-1.129-2.771-1.568-4.312-1.156c-1.541,0.413-2.744,1.616-3.157,3.156
				C606.354,273.212,606.795,274.855,607.922,275.983z"/>
		</g>
	</g>
	<g>
		<g>
			<g>
				<g>
					<path fill="#F8D4AC" d="M874.924,253.279l-6.42-8.352l9.121-7.027l8.396,10.921c0.859,1.118,2.119,1.796,3.484,2.15
						c0.744,0.193,1.432,0.625,1.936,1.277l6.115,7.939c0.512,0.664,0.387,1.626-0.277,2.138l-9.12,7.026
						c-0.664,0.512-1.626,0.388-2.138-0.276l-3.561-4.622c-0.147-0.19-0.371-0.274-0.594-0.268l-4.391-0.883
						c-1.104-0.222-1.914-1.173-1.961-2.298c-0.029-0.695,0.063-1.394,0.271-2.058C876.396,257.003,876.166,254.896,874.924,253.279
						z"/>
					<path id="XMLID_181_" fill="#EEC595" d="M903.451,270.717c-0.67,0.388-1.529,0.177-2.002-0.437l-5.009-6.547
						c-0.133-0.173-0.381-0.205-0.554-0.071l0,0c-0.173,0.133-0.205,0.381-0.072,0.554l6.953,9.089
						c0.473,0.612,0.457,1.499-0.088,2.047c-0.661,0.664-1.739,0.576-2.292-0.142l-6.987-9.134
						c-0.133-0.173-0.381-0.205-0.554-0.072l0,0c-0.173,0.134-0.205,0.382-0.072,0.554l8.097,10.684
						c0.472,0.612,0.457,1.498-0.088,2.047c-0.661,0.664-1.739,0.576-2.292-0.142l-8.132-10.729
						c-0.133-0.173-0.381-0.204-0.553-0.071l0,0c-0.174,0.133-0.205,0.381-0.072,0.554l6.136,8.119
						c0.473,0.612,0.457,1.498-0.088,2.047c-0.661,0.664-1.739,0.575-2.292-0.142l-8.753-11.516
						c0.473,0.612,1.332,0.824,2.002,0.437c0.702-0.406,0.938-1.261,0.63-1.949c-0.087-0.19-0.035-0.415,0.131-0.544l0,0
						c0.165-0.127,0.395-0.121,0.557,0.011c0.536,0.436,1.324,0.464,1.894,0.026c0.569-0.439,0.742-1.208,0.457-1.838
						c-0.085-0.189-0.032-0.414,0.133-0.541l0,0c0.165-0.128,0.396-0.121,0.558,0.01c0.535,0.436,1.323,0.465,1.893,0.026
						c0.566-0.437,0.74-1.2,0.462-1.828c-0.073-0.165-0.052-0.365,0.07-0.498c0.166-0.18,0.434-0.19,0.615-0.042
						c0.536,0.436,1.323,0.464,1.893,0.025c0.664-0.512,0.789-1.473,0.277-2.137l7.591,9.897
						C904.451,269.183,904.262,270.247,903.451,270.717z"/>
					<g id="XMLID_178_">
						
							<rect id="XMLID_180_" x="870.791" y="244.514" transform="matrix(-0.7921 0.6104 -0.6104 -0.7921 1724.9883 -91.5394)" fill="#FFFFFF" width="14.582" height="6.933"/>
						<circle id="XMLID_179_" cx="881.816" cy="245.054" r="1.558"/>
					</g>
				</g>
			</g>
			<g id="XMLID_170_">
				<path fill="#313437" d="M870.375,250.38c-27.385-36.305-49.845-59.528-83.117-88.326l9.296-10.741
					c27.636,23.918,54.899,48.866,85.821,89.858L870.375,250.38z"/>
			</g>
		</g>
	</g>
	<path fill="#EEC595" d="M657.986,258.031l-0.045,0.01l-0.012,0.002l-7.143,1.457c-1.428,0.291-2.818-0.573-3.091-1.923
		l-0.086-0.423l8.891-1.813l0.022-0.005l3.973-0.811c0.455-0.099,0.91-0.146,1.355-0.146c1.996-0.001,2.257,2.921,0.304,3.331
		l-2.456,0.516c-0.448,0.095-0.893-0.021-1.324-0.17C658.256,258.015,658.123,258.004,657.986,258.031z"/>
</g>
</svg>
