<?xml version="1.0" encoding="utf-8"?>
<!-- Generator: Adobe Illustrator 16.0.0, SVG Export Plug-In . SVG Version: 6.00 Build 0)  -->
<!DOCTYPE svg PUBLIC "-//W3C//DTD SVG 1.1//EN" "http://www.w3.org/Graphics/SVG/1.1/DTD/svg11.dtd">
<svg version="1.1" id="Layer_1" xmlns="http://www.w3.org/2000/svg" xmlns:xlink="http://www.w3.org/1999/xlink" x="0px" y="0px"
	 width="797.239px" height="162.238px" viewBox="0 0 797.239 162.238" enable-background="new 0 0 797.239 162.238"
	 xml:space="preserve">
<text transform="matrix(1 0 0 1 514.1357 -276.3101)"><tspan x="0" y="0" fill="#1E6D37" font-family="'ArialRoundedMTBold'" font-size="136.1871">eind</tspan><tspan x="285.209" y="0" fill="#77B142" font-family="'ArialRoundedMTBold'" font-size="136.1871">monitor</tspan></text>
<text transform="matrix(1 0 0 1 1082.9404 -231.7373)" fill="#010101" font-family="'ArialRoundedMTBold'" font-size="36">2015 - 2017</text>
<text transform="matrix(1 0 0 1 514.1357 -276.3101)"><tspan x="0" y="0" fill="#1E6D37" font-family="'ArialRoundedMTBold'" font-size="136.1871">eind</tspan><tspan x="285.209" y="0" fill="#77B142" font-family="'ArialRoundedMTBold'" font-size="136.1871">monitor</tspan></text>
<text transform="matrix(1 0 0 1 1082.9404 -231.7373)" fill="#010101" font-family="'ArialRoundedMTBold'" font-size="36">2015 - 2017</text>
<text transform="matrix(1 0 0 1 514.1357 -276.3101)"><tspan x="0" y="0" fill="#1E6D37" font-family="'ArialRoundedMTBold'" font-size="136.1871">eind</tspan><tspan x="285.209" y="0" fill="#77B142" font-family="'ArialRoundedMTBold'" font-size="136.1871">monitor</tspan></text>
<text transform="matrix(1 0 0 1 1082.9404 -231.7373)" fill="#010101" font-family="'ArialRoundedMTBold'" font-size="36">2015 - 2017</text>
<g>
	<path fill="#1E6D37" d="M60.047,86.877h-35.51c0.043,4.123,0.875,7.759,2.494,10.906c1.618,3.149,3.768,5.52,6.45,7.116
		c2.682,1.596,5.641,2.394,8.877,2.394c2.172,0,4.156-0.255,5.952-0.765s3.535-1.307,5.22-2.395c1.684-1.086,3.235-2.249,4.655-3.49
		c1.418-1.241,3.258-2.926,5.519-5.054c0.931-0.798,2.261-1.197,3.99-1.197c1.862,0,3.368,0.51,4.521,1.53
		c1.152,1.02,1.729,2.46,1.729,4.322c0,1.641-0.643,3.558-1.928,5.752c-1.287,2.194-3.225,4.301-5.819,6.317
		c-2.593,2.018-5.852,3.69-9.775,5.021s-8.435,1.995-13.532,1.995c-11.66,0-20.726-3.325-27.198-9.975
		c-6.473-6.65-9.708-15.671-9.708-27.065c0-5.363,0.798-10.34,2.394-14.929c1.596-4.588,3.923-8.522,6.982-11.803
		c3.059-3.28,6.827-5.795,11.305-7.547c4.477-1.751,9.443-2.626,14.896-2.626c7.092,0,13.177,1.496,18.253,4.488
		c5.076,2.993,8.877,6.861,11.404,11.604c2.527,4.744,3.791,9.576,3.791,14.497c0,4.566-1.308,7.525-3.923,8.877
		C68.47,86.202,64.791,86.877,60.047,86.877z M24.538,76.57h32.917c-0.444-6.206-2.118-10.849-5.021-13.931
		c-2.904-3.081-6.728-4.622-11.471-4.622c-4.521,0-8.235,1.563-11.138,4.688C26.92,65.831,25.158,70.452,24.538,76.57z"/>
	<path fill="#1E6D37" d="M99.48,37.07c-2.527,0-4.688-0.775-6.483-2.327c-1.795-1.551-2.693-3.746-2.693-6.583
		c0-2.57,0.92-4.688,2.76-6.351c1.839-1.662,3.979-2.494,6.417-2.494c2.349,0,4.433,0.754,6.251,2.261
		c1.817,1.507,2.726,3.702,2.726,6.583c0,2.793-0.887,4.977-2.66,6.55C104.024,36.284,101.918,37.07,99.48,37.07z M108.458,55.823
		v52.466c0,3.636-0.864,6.385-2.593,8.246s-3.923,2.793-6.583,2.793c-2.66,0-4.821-0.954-6.484-2.859
		c-1.662-1.906-2.494-4.633-2.494-8.18V56.354c0-3.591,0.832-6.294,2.494-8.112c1.663-1.817,3.824-2.727,6.484-2.727
		c2.66,0,4.854,0.909,6.583,2.727C107.593,50.06,108.458,52.587,108.458,55.823z"/>
	<path fill="#1E6D37" d="M143.702,55.557v2.194c3.191-4.211,6.684-7.303,10.473-9.276c3.791-1.972,8.146-2.959,13.068-2.959
		c4.787,0,9.064,1.042,12.834,3.125c3.768,2.084,6.582,5.032,8.443,8.844c1.197,2.217,1.973,4.611,2.328,7.182
		c0.355,2.571,0.531,5.852,0.531,9.842v33.78c0,3.636-0.83,6.385-2.492,8.246s-3.824,2.793-6.484,2.793
		c-2.705,0-4.898-0.954-6.582-2.859c-1.686-1.906-2.527-4.633-2.527-8.18V78.033c0-5.984-0.832-10.562-2.494-13.731
		c-1.662-3.169-4.977-4.755-9.941-4.755c-3.236,0-6.184,0.964-8.844,2.893c-2.66,1.928-4.611,4.578-5.852,7.946
		c-0.889,2.705-1.33,7.758-1.33,15.162v22.742c0,3.681-0.855,6.439-2.561,8.279c-1.707,1.839-3.913,2.76-6.617,2.76
		c-2.616,0-4.766-0.954-6.45-2.859c-1.685-1.906-2.527-4.633-2.527-8.18V55.823c0-3.458,0.753-6.04,2.261-7.747
		c1.507-1.706,3.568-2.56,6.185-2.56c1.596,0,3.036,0.377,4.322,1.13c1.285,0.754,2.316,1.885,3.092,3.392
		C143.313,51.545,143.702,53.385,143.702,55.557z"/>
	<path fill="#1E6D37" d="M259.208,108.954v-1.796c-2.438,2.793-4.844,5.066-7.215,6.816c-2.372,1.752-4.943,3.082-7.714,3.99
		s-5.797,1.363-9.077,1.363c-4.345,0-8.368-0.921-12.069-2.76c-3.701-1.84-6.905-4.466-9.608-7.88
		c-2.705-3.413-4.755-7.425-6.151-12.036c-1.396-4.61-2.095-9.598-2.095-14.962c0-11.348,2.771-20.192,8.312-26.533
		c5.541-6.339,12.834-9.509,21.878-9.509c5.23,0,9.642,0.898,13.232,2.693s7.093,4.555,10.507,8.279V29.822
		c0-3.724,0.742-6.539,2.228-8.445c1.485-1.906,3.602-2.859,6.351-2.859c2.748,0,4.865,0.876,6.351,2.626
		c1.485,1.752,2.228,4.334,2.228,7.747v80.063c0,3.458-0.798,6.052-2.394,7.78s-3.657,2.594-6.185,2.594
		c-2.483,0-4.533-0.898-6.15-2.693C260.016,114.84,259.208,112.279,259.208,108.954z M223.499,82.289
		c0,4.921,0.765,9.11,2.294,12.568s3.624,6.063,6.284,7.813c2.66,1.752,5.562,2.627,8.711,2.627c3.192,0,6.106-0.831,8.745-2.494
		c2.637-1.662,4.743-4.21,6.316-7.646c1.573-3.435,2.361-7.724,2.361-12.868c0-4.831-0.788-8.987-2.361-12.468
		c-1.573-3.479-3.701-6.14-6.384-7.979c-2.683-1.839-5.618-2.76-8.811-2.76c-3.325,0-6.295,0.942-8.91,2.826
		c-2.617,1.885-4.645,4.588-6.085,8.113C224.218,73.544,223.499,77.634,223.499,82.289z"/>
	<path fill="#77B142" d="M354.964,83.752v24.139c0,3.812-0.864,6.672-2.593,8.578c-1.729,1.905-4.014,2.859-6.85,2.859
		c-2.749,0-4.978-0.954-6.684-2.859c-1.707-1.906-2.56-4.766-2.56-8.578V78.964c0-4.565-0.156-8.113-0.466-10.64
		c-0.311-2.527-1.153-4.599-2.526-6.217c-1.375-1.618-3.548-2.427-6.518-2.427c-5.94,0-9.853,2.04-11.736,6.118
		c-1.885,4.079-2.826,9.931-2.826,17.555v24.538c0,3.768-0.854,6.616-2.561,8.545c-1.707,1.928-3.956,2.893-6.749,2.893
		c-2.749,0-4.999-0.965-6.75-2.893c-1.751-1.929-2.626-4.777-2.626-8.545V55.956c0-3.413,0.786-6.006,2.36-7.78
		c1.573-1.772,3.646-2.66,6.218-2.66c2.482,0,4.555,0.831,6.218,2.494c1.662,1.663,2.493,3.957,2.493,6.882v1.729
		c3.147-3.768,6.517-6.539,10.107-8.312c3.591-1.772,7.581-2.66,11.97-2.66c4.565,0,8.489,0.909,11.771,2.727
		c3.28,1.818,5.984,4.566,8.112,8.246c3.059-3.724,6.339-6.483,9.842-8.279c3.501-1.795,7.381-2.693,11.637-2.693
		c4.965,0,9.243,0.976,12.834,2.926c3.591,1.951,6.272,4.744,8.047,8.378c1.551,3.281,2.327,8.445,2.327,15.494v35.443
		c0,3.812-0.863,6.672-2.593,8.578c-1.729,1.905-4.013,2.859-6.849,2.859c-2.75,0-4.999-0.965-6.75-2.893
		c-1.752-1.929-2.627-4.777-2.627-8.545V77.368c0-3.901-0.166-7.026-0.498-9.376c-0.333-2.349-1.23-4.322-2.693-5.918
		c-1.463-1.596-3.681-2.394-6.649-2.394c-2.395,0-4.667,0.709-6.816,2.128c-2.15,1.419-3.823,3.325-5.021,5.719
		C355.629,70.585,354.964,75.994,354.964,83.752z"/>
	<path fill="#77B142" d="M483.038,82.422c0,5.409-0.842,10.396-2.527,14.962c-1.684,4.566-4.123,8.489-7.314,11.771
		s-7.004,5.797-11.438,7.547c-4.434,1.751-9.42,2.627-14.961,2.627c-5.498,0-10.441-0.888-14.83-2.66s-8.189-4.311-11.404-7.613
		s-5.652-7.204-7.314-11.704c-1.662-4.499-2.494-9.476-2.494-14.929c0-5.497,0.842-10.528,2.527-15.095
		c1.684-4.565,4.1-8.467,7.248-11.704c3.148-3.235,6.959-5.729,11.438-7.481c4.479-1.75,9.42-2.626,14.83-2.626
		c5.496,0,10.482,0.887,14.961,2.66c4.477,1.774,8.312,4.301,11.504,7.581c3.193,3.281,5.619,7.182,7.281,11.704
		C482.208,71.981,483.038,76.969,483.038,82.422z M464.817,82.422c0-7.403-1.629-13.167-4.887-17.29
		c-3.258-4.123-7.637-6.184-13.133-6.184c-3.549,0-6.674,0.92-9.377,2.76c-2.705,1.84-4.787,4.555-6.25,8.146
		c-1.463,3.591-2.195,7.78-2.195,12.568c0,4.744,0.721,8.889,2.162,12.435c1.439,3.547,3.5,6.262,6.184,8.146
		c2.682,1.885,5.84,2.826,9.477,2.826c5.496,0,9.875-2.071,13.133-6.218C463.188,95.467,464.817,89.736,464.817,82.422z"/>
	<path fill="#77B142" d="M513.827,55.557v2.194c3.191-4.211,6.684-7.303,10.473-9.276c3.791-1.972,8.146-2.959,13.068-2.959
		c4.787,0,9.064,1.042,12.834,3.125c3.768,2.084,6.582,5.032,8.443,8.844c1.197,2.217,1.973,4.611,2.328,7.182
		c0.355,2.571,0.531,5.852,0.531,9.842v33.78c0,3.636-0.83,6.385-2.492,8.246s-3.824,2.793-6.484,2.793
		c-2.705,0-4.898-0.954-6.582-2.859c-1.686-1.906-2.527-4.633-2.527-8.18V78.033c0-5.984-0.832-10.562-2.494-13.731
		c-1.662-3.169-4.977-4.755-9.941-4.755c-3.236,0-6.184,0.964-8.844,2.893c-2.66,1.928-4.611,4.578-5.852,7.946
		c-0.889,2.705-1.33,7.758-1.33,15.162v22.742c0,3.681-0.855,6.439-2.561,8.279c-1.707,1.839-3.912,2.76-6.617,2.76
		c-2.615,0-4.766-0.954-6.449-2.859c-1.686-1.906-2.527-4.633-2.527-8.18V55.823c0-3.458,0.754-6.04,2.262-7.747
		c1.506-1.706,3.566-2.56,6.184-2.56c1.596,0,3.035,0.377,4.322,1.13c1.285,0.754,2.316,1.885,3.092,3.392
		C513.438,51.545,513.827,53.385,513.827,55.557z"/>
	<path fill="#77B142" d="M588.771,37.07c-2.527,0-4.688-0.775-6.484-2.327c-1.795-1.551-2.693-3.746-2.693-6.583
		c0-2.57,0.92-4.688,2.76-6.351c1.84-1.662,3.979-2.494,6.418-2.494c2.35,0,4.432,0.754,6.25,2.261
		c1.818,1.507,2.727,3.702,2.727,6.583c0,2.793-0.887,4.977-2.66,6.55C593.313,36.284,591.208,37.07,588.771,37.07z M597.747,55.823
		v52.466c0,3.636-0.863,6.385-2.594,8.246c-1.729,1.861-3.922,2.793-6.582,2.793s-4.822-0.954-6.484-2.859
		c-1.662-1.906-2.494-4.633-2.494-8.18V56.354c0-3.591,0.832-6.294,2.494-8.112c1.662-1.817,3.824-2.727,6.484-2.727
		s4.854,0.909,6.582,2.727C596.884,50.06,597.747,52.587,597.747,55.823z"/>
	<path fill="#77B142" d="M617.497,47.111h1.994V36.206c0-2.926,0.078-5.22,0.234-6.883c0.154-1.662,0.586-3.092,1.297-4.289
		c0.707-1.24,1.729-2.25,3.059-3.025c1.33-0.775,2.814-1.164,4.455-1.164c2.305,0,4.389,0.864,6.25,2.593
		c1.24,1.153,2.029,2.56,2.361,4.223c0.332,1.662,0.498,4.023,0.498,7.082v12.368h6.65c2.57,0,4.531,0.61,5.885,1.829
		c1.352,1.22,2.027,2.782,2.027,4.688c0,2.438-0.963,4.146-2.893,5.12c-1.928,0.976-4.688,1.463-8.277,1.463h-3.393v33.382
		c0,2.838,0.1,5.021,0.299,6.55c0.201,1.529,0.732,2.771,1.598,3.724c0.863,0.954,2.27,1.43,4.223,1.43
		c1.062,0,2.504-0.188,4.322-0.564c1.816-0.377,3.234-0.566,4.256-0.566c1.463,0,2.781,0.588,3.955,1.763s1.764,2.626,1.764,4.355
		c0,2.926-1.598,5.165-4.789,6.716c-3.191,1.552-7.779,2.328-13.764,2.328c-5.676,0-9.975-0.954-12.902-2.859
		c-2.926-1.906-4.844-4.544-5.752-7.914c-0.908-3.367-1.363-7.867-1.363-13.499V60.211h-2.393c-2.617,0-4.611-0.62-5.984-1.862
		c-1.375-1.241-2.062-2.814-2.062-4.721c0-1.906,0.721-3.468,2.162-4.688C612.653,47.722,614.747,47.111,617.497,47.111z"/>
	<path fill="#77B142" d="M732.671,82.422c0,5.409-0.842,10.396-2.527,14.962c-1.684,4.566-4.123,8.489-7.314,11.771
		s-7.004,5.797-11.438,7.547c-4.434,1.751-9.42,2.627-14.961,2.627c-5.498,0-10.441-0.888-14.83-2.66s-8.189-4.311-11.404-7.613
		s-5.652-7.204-7.314-11.704c-1.662-4.499-2.494-9.476-2.494-14.929c0-5.497,0.842-10.528,2.527-15.095
		c1.684-4.565,4.1-8.467,7.248-11.704c3.148-3.235,6.959-5.729,11.438-7.481c4.479-1.75,9.42-2.626,14.83-2.626
		c5.496,0,10.482,0.887,14.961,2.66c4.477,1.774,8.312,4.301,11.504,7.581c3.193,3.281,5.619,7.182,7.281,11.704
		C731.841,71.981,732.671,76.969,732.671,82.422z M714.45,82.422c0-7.403-1.629-13.167-4.887-17.29
		c-3.258-4.123-7.637-6.184-13.133-6.184c-3.549,0-6.674,0.92-9.377,2.76c-2.705,1.84-4.787,4.555-6.25,8.146
		c-1.463,3.591-2.195,7.78-2.195,12.568c0,4.744,0.721,8.889,2.162,12.435c1.439,3.547,3.5,6.262,6.184,8.146
		c2.682,1.885,5.84,2.826,9.477,2.826c5.496,0,9.875-2.071,13.133-6.218C712.821,95.467,714.45,89.736,714.45,82.422z"/>
	<path fill="#77B142" d="M764.989,93.128v15.161c0,3.681-0.865,6.439-2.594,8.279c-1.73,1.839-3.924,2.76-6.584,2.76
		c-2.615,0-4.766-0.932-6.449-2.793c-1.686-1.861-2.527-4.61-2.527-8.246V57.751c0-8.156,2.947-12.235,8.844-12.235
		c3.014,0,5.188,0.954,6.518,2.859c1.328,1.907,2.061,4.721,2.193,8.445c2.172-3.724,4.4-6.539,6.684-8.445
		c2.283-1.906,5.33-2.859,9.143-2.859s7.516,0.954,11.105,2.859c3.592,1.907,5.387,4.434,5.387,7.581
		c0,2.217-0.766,4.046-2.295,5.486c-1.529,1.441-3.182,2.161-4.953,2.161c-0.666,0-2.273-0.41-4.822-1.23
		c-2.549-0.82-4.799-1.23-6.748-1.23c-2.66,0-4.834,0.698-6.518,2.095c-1.686,1.396-2.992,3.469-3.924,6.217
		c-0.93,2.75-1.574,6.018-1.928,9.809C765.165,83.054,764.989,87.675,764.989,93.128z"/>
</g>
<g>
	<path fill="#010101" d="M576.837,158.09h9.176c0.914,0,1.611,0.188,2.092,0.562s0.721,0.885,0.721,1.529
		c0,0.574-0.189,1.061-0.57,1.459s-0.959,0.598-1.732,0.598h-12.938c-0.879,0-1.564-0.243-2.057-0.729s-0.738-1.058-0.738-1.714
		c0-0.422,0.158-0.981,0.475-1.679s0.662-1.245,1.037-1.644c1.559-1.617,2.965-3.003,4.219-4.157s2.15-1.913,2.689-2.276
		c0.961-0.68,1.762-1.362,2.4-2.048s1.125-1.389,1.459-2.109s0.5-1.427,0.5-2.118c0-0.75-0.178-1.421-0.535-2.013
		s-0.844-1.052-1.459-1.38s-1.287-0.492-2.014-0.492c-1.535,0-2.742,0.674-3.621,2.021c-0.117,0.176-0.312,0.656-0.588,1.441
		s-0.586,1.389-0.932,1.811s-0.854,0.633-1.521,0.633c-0.586,0-1.072-0.193-1.459-0.58s-0.58-0.914-0.58-1.582
		c0-0.809,0.182-1.652,0.545-2.531s0.906-1.676,1.627-2.391s1.635-1.292,2.742-1.731s2.404-0.659,3.893-0.659
		c1.793,0,3.322,0.281,4.588,0.844c0.82,0.375,1.541,0.891,2.162,1.547s1.105,1.415,1.451,2.276s0.518,1.755,0.518,2.681
		c0,1.453-0.359,2.774-1.08,3.964s-1.457,2.121-2.207,2.795s-2.006,1.731-3.77,3.173s-2.975,2.561-3.631,3.357
		C577.417,157.264,577.13,157.645,576.837,158.09z"/>
	<path fill="#010101" d="M609.884,149.6c0,1.922-0.117,3.574-0.352,4.957s-0.668,2.637-1.301,3.762
		c-0.797,1.383-1.828,2.449-3.094,3.199s-2.672,1.125-4.219,1.125c-1.781,0-3.377-0.504-4.789-1.512s-2.477-2.402-3.191-4.184
		c-0.363-0.973-0.629-2.048-0.799-3.226s-0.256-2.452-0.256-3.823c0-1.77,0.094-3.363,0.281-4.781s0.48-2.637,0.879-3.656
		c0.691-1.688,1.697-2.974,3.016-3.858s2.891-1.327,4.719-1.327c1.207,0,2.303,0.196,3.287,0.589s1.85,0.967,2.594,1.723
		s1.373,1.69,1.889,2.804C609.438,143.324,609.884,146.061,609.884,149.6z M605.067,149.248c0-2.145-0.129-3.899-0.387-5.265
		s-0.691-2.396-1.301-3.094s-1.453-1.046-2.531-1.046c-1.547,0-2.621,0.779-3.225,2.338s-0.906,3.961-0.906,7.207
		c0,2.203,0.129,4.008,0.387,5.414s0.691,2.47,1.301,3.19s1.436,1.081,2.479,1.081c1.078,0,1.922-0.375,2.531-1.125
		s1.037-1.822,1.283-3.217S605.067,151.51,605.067,149.248z"/>
	<path fill="#010101" d="M621.749,159.83v-15.996c-2.977,2.285-4.98,3.428-6.012,3.428c-0.492,0-0.928-0.196-1.309-0.589
		s-0.572-0.847-0.572-1.362c0-0.598,0.188-1.037,0.562-1.318s1.037-0.645,1.986-1.09c1.418-0.668,2.553-1.371,3.402-2.109
		s1.602-1.564,2.258-2.479s1.084-1.477,1.283-1.688s0.574-0.316,1.125-0.316c0.621,0,1.119,0.24,1.494,0.721
		s0.562,1.143,0.562,1.986v20.127c0,2.355-0.803,3.533-2.408,3.533c-0.715,0-1.289-0.24-1.723-0.721S621.749,160.768,621.749,159.83
		z"/>
	<path fill="#010101" d="M649.646,140.811h-8.35l-1.002,5.695c1.664-0.891,3.199-1.336,4.605-1.336c1.125,0,2.178,0.211,3.156,0.633
		s1.836,1.005,2.574,1.749s1.318,1.626,1.74,2.646s0.633,2.115,0.633,3.287c0,1.699-0.381,3.246-1.143,4.641
		s-1.859,2.502-3.295,3.322s-3.092,1.23-4.967,1.23c-2.098,0-3.799-0.387-5.105-1.16s-2.232-1.661-2.777-2.663
		s-0.818-1.878-0.818-2.628c0-0.457,0.191-0.891,0.572-1.301s0.857-0.615,1.432-0.615c0.984,0,1.717,0.568,2.197,1.705
		c0.469,1.043,1.102,1.854,1.898,2.435s1.688,0.87,2.672,0.87c0.902,0,1.693-0.234,2.373-0.703s1.205-1.113,1.574-1.934
		s0.553-1.752,0.553-2.795c0-1.125-0.199-2.086-0.598-2.883s-0.932-1.392-1.6-1.784s-1.412-0.589-2.232-0.589
		c-1.008,0-1.729,0.123-2.162,0.369s-1.057,0.677-1.871,1.292s-1.486,0.923-2.014,0.923c-0.574,0-1.084-0.208-1.529-0.624
		s-0.668-0.888-0.668-1.415c0-0.059,0.064-0.457,0.193-1.195l1.477-8.42c0.164-1.008,0.469-1.74,0.914-2.197s1.172-0.686,2.18-0.686
		h9.281c1.828,0,2.742,0.697,2.742,2.092c0,0.609-0.223,1.102-0.668,1.477S650.513,140.811,649.646,140.811z"/>
	<path fill="#010101" d="M672.163,154.996h-5.555c-0.844,0-1.484-0.196-1.924-0.589s-0.66-0.899-0.66-1.521
		c0-0.633,0.215-1.146,0.643-1.538s1.074-0.589,1.941-0.589h5.555c0.867,0,1.516,0.196,1.943,0.589s0.641,0.905,0.641,1.538
		c0,0.621-0.211,1.128-0.633,1.521S673.042,154.996,672.163,154.996z"/>
	<path fill="#010101" d="M692.396,158.09h9.176c0.914,0,1.611,0.188,2.092,0.562s0.721,0.885,0.721,1.529
		c0,0.574-0.189,1.061-0.57,1.459s-0.959,0.598-1.732,0.598h-12.938c-0.879,0-1.564-0.243-2.057-0.729s-0.738-1.058-0.738-1.714
		c0-0.422,0.158-0.981,0.475-1.679s0.662-1.245,1.037-1.644c1.559-1.617,2.965-3.003,4.219-4.157s2.15-1.913,2.689-2.276
		c0.961-0.68,1.762-1.362,2.4-2.048s1.125-1.389,1.459-2.109s0.5-1.427,0.5-2.118c0-0.75-0.178-1.421-0.535-2.013
		s-0.844-1.052-1.459-1.38s-1.287-0.492-2.014-0.492c-1.535,0-2.742,0.674-3.621,2.021c-0.117,0.176-0.312,0.656-0.588,1.441
		s-0.586,1.389-0.932,1.811s-0.854,0.633-1.521,0.633c-0.586,0-1.072-0.193-1.459-0.58s-0.58-0.914-0.58-1.582
		c0-0.809,0.182-1.652,0.545-2.531s0.906-1.676,1.627-2.391s1.635-1.292,2.742-1.731s2.404-0.659,3.893-0.659
		c1.793,0,3.322,0.281,4.588,0.844c0.82,0.375,1.541,0.891,2.162,1.547s1.105,1.415,1.451,2.276s0.518,1.755,0.518,2.681
		c0,1.453-0.359,2.774-1.08,3.964s-1.457,2.121-2.207,2.795s-2.006,1.731-3.77,3.173s-2.975,2.561-3.631,3.357
		C692.976,157.264,692.688,157.645,692.396,158.09z"/>
	<path fill="#010101" d="M725.442,149.6c0,1.922-0.117,3.574-0.352,4.957s-0.668,2.637-1.301,3.762
		c-0.797,1.383-1.828,2.449-3.094,3.199s-2.672,1.125-4.219,1.125c-1.781,0-3.377-0.504-4.789-1.512s-2.477-2.402-3.191-4.184
		c-0.363-0.973-0.629-2.048-0.799-3.226s-0.256-2.452-0.256-3.823c0-1.77,0.094-3.363,0.281-4.781s0.48-2.637,0.879-3.656
		c0.691-1.688,1.697-2.974,3.016-3.858s2.891-1.327,4.719-1.327c1.207,0,2.303,0.196,3.287,0.589s1.85,0.967,2.594,1.723
		s1.373,1.69,1.889,2.804C724.997,143.324,725.442,146.061,725.442,149.6z M720.626,149.248c0-2.145-0.129-3.899-0.387-5.265
		s-0.691-2.396-1.301-3.094s-1.453-1.046-2.531-1.046c-1.547,0-2.621,0.779-3.225,2.338s-0.906,3.961-0.906,7.207
		c0,2.203,0.129,4.008,0.387,5.414s0.691,2.47,1.301,3.19s1.436,1.081,2.479,1.081c1.078,0,1.922-0.375,2.531-1.125
		s1.037-1.822,1.283-3.217S720.626,151.51,720.626,149.248z"/>
	<path fill="#010101" d="M737.308,159.83v-15.996c-2.977,2.285-4.98,3.428-6.012,3.428c-0.492,0-0.928-0.196-1.309-0.589
		s-0.572-0.847-0.572-1.362c0-0.598,0.188-1.037,0.562-1.318s1.037-0.645,1.986-1.09c1.418-0.668,2.553-1.371,3.402-2.109
		s1.602-1.564,2.258-2.479s1.084-1.477,1.283-1.688s0.574-0.316,1.125-0.316c0.621,0,1.119,0.24,1.494,0.721
		s0.562,1.143,0.562,1.986v20.127c0,2.355-0.803,3.533-2.408,3.533c-0.715,0-1.289-0.24-1.723-0.721S737.308,160.768,737.308,159.83
		z"/>
	<path fill="#010101" d="M754.147,136.715h11.707c1.125,0,1.939,0.176,2.443,0.527s0.756,0.932,0.756,1.74
		c0,0.492-0.295,1.143-0.887,1.951s-1.266,1.702-2.021,2.681s-1.535,2.194-2.338,3.647s-1.539,3.229-2.207,5.326
		c-0.281,0.926-0.48,1.693-0.598,2.303s-0.246,1.4-0.387,2.373s-0.264,1.717-0.369,2.232c-0.246,1.195-0.594,2.024-1.045,2.487
		s-1.053,0.694-1.803,0.694c-0.715,0-1.289-0.249-1.723-0.747s-0.65-1.233-0.65-2.206c0-0.75,0.158-1.77,0.475-3.059
		s0.832-2.833,1.547-4.632s1.609-3.645,2.682-5.537s2.346-3.776,3.822-5.651h-9.404c-0.984,0-1.719-0.179-2.205-0.536
		s-0.73-0.917-0.73-1.679c0-0.809,0.258-1.33,0.773-1.564S753.222,136.715,754.147,136.715z"/>
</g>
</svg>
