<?xml version="1.0" encoding="utf-8"?>
<!-- Generator: Adobe Illustrator 16.0.0, SVG Export Plug-In . SVG Version: 6.00 Build 0)  -->
<!DOCTYPE svg PUBLIC "-//W3C//DTD SVG 1.1//EN" "http://www.w3.org/Graphics/SVG/1.1/DTD/svg11.dtd">
<svg version="1.1" id="Layer_1" xmlns="http://www.w3.org/2000/svg" xmlns:xlink="http://www.w3.org/1999/xlink" x="0px" y="0px"
	 width="259.091px" height="228.409px" viewBox="0 0 259.091 228.409" style="enable-background:new 0 0 259.091 228.409;"
	 xml:space="preserve">
<g>
	<path style="fill:#154ACE;" d="M99.475,188.294H67.683c-26.439,0-47.953-21.502-47.953-47.953c0-12.811,4.984-24.863,14.043-33.91
		c1.381-1.393,2.843-2.682,4.351-3.856l5.18-4.017l-0.817-6.504l-3.212-25.622l15.033,21.225l3.741,5.283l6.457-0.449
		c1.036-0.069,2.106-0.115,3.177-0.115h18.625c-0.023-0.449-0.023-0.898-0.023-1.346c0-3.442,0.207-6.838,0.61-10.164H67.683
		c-1.335,0-2.67,0.046-3.982,0.138L22.147,22.302l8.92,71.18c-1.91,1.485-3.729,3.096-5.433,4.8
		C14.873,109.045,8.22,123.916,8.22,140.342c0,32.839,26.624,59.463,59.463,59.463h31.792c8.081,0,15.804-1.623,22.826-4.547
		l1.727-13.698C116.683,185.946,108.257,188.294,99.475,188.294z"/>
	<path style="fill:#154ACE;" d="M61.158,160.133c0-1.234,0.402-2.257,1.207-3.073c0.805-0.809,1.904-1.218,3.296-1.218
		c1.393,0,2.491,0.409,3.296,1.218c0.805,0.816,1.207,1.839,1.207,3.073c0,1.192-0.392,2.188-1.174,2.993
		c-0.784,0.798-1.893,1.201-3.329,1.201s-2.545-0.403-3.329-1.201C61.549,162.32,61.158,161.325,61.158,160.133z M68.957,149.903
		h-6.82l-0.751-33.548h8.354L68.957,149.903z"/>
	<path style="fill:#154ACE;" d="M79.073,160.133c0-1.234,0.402-2.257,1.207-3.073c0.805-0.809,1.904-1.218,3.296-1.218
		c1.392,0,2.491,0.409,3.296,1.218c0.805,0.816,1.207,1.839,1.207,3.073c0,1.192-0.391,2.188-1.175,2.993
		c-0.783,0.798-1.893,1.201-3.328,1.201c-1.436,0-2.545-0.403-3.329-1.201C79.465,162.32,79.073,161.325,79.073,160.133z
		 M86.873,149.903h-6.82l-0.751-33.548h8.354L86.873,149.903z"/>
	<path style="fill:#154ACE;" d="M97.598,133.378l0.369,16.528h6.825l0.139-5.767C102.202,140.745,99.751,137.141,97.598,133.378z
		 M104.792,157.055c-0.805-0.807-1.91-1.209-3.303-1.209c-1.393,0-2.486,0.402-3.292,1.209c-0.806,0.816-1.208,1.841-1.208,3.073
		c0,1.196,0.391,2.187,1.174,2.992c0.782,0.806,1.899,1.208,3.326,1.208c1.438,0,2.543-0.402,3.327-1.208
		c0.782-0.806,1.174-1.796,1.174-2.992C105.99,158.896,105.598,157.872,104.792,157.055z"/>
	<path style="fill:#154ACE;" d="M171.356,11.701c-43.808,0-79.317,35.521-79.317,79.33c0,29.696,16.31,55.572,40.47,69.166
		l-7.319,58.335l34.692-49.012c3.752,0.552,7.586,0.828,11.475,0.828c43.81,0,79.33-35.509,79.33-79.317
		C250.687,47.222,215.166,11.701,171.356,11.701z M141.534,114.098c-0.782,0.805-1.898,1.197-3.326,1.197
		c-1.438,0-2.545-0.392-3.316-1.197c-0.771-0.806-1.162-1.796-1.162-2.993c0-1.277,0.403-2.313,1.21-3.108
		c0.805-0.783,1.898-1.185,3.269-1.185c1.393,0,2.486,0.414,3.291,1.22c0.806,0.817,1.21,1.841,1.21,3.073
		C142.709,112.302,142.316,113.292,141.534,114.098z M147.922,89.868l-4.005,3.959c-1.438,1.623-2.176,4.006-2.223,7.148h-7.412
		c0-2.9,0.369-5.203,1.082-6.929c0.714-1.715,2.141-3.603,4.259-5.663s3.466-3.522,4.028-4.397c0.876-1.323,1.301-2.751,1.301-4.305
		c0-2.037-0.494-3.591-1.509-4.661c-1.012-1.082-2.497-1.624-4.453-1.624c-1.877,0-3.384,0.53-4.523,1.577
		c-1.14,1.048-1.715,2.475-1.715,4.282h-7.931c0.046-3.856,1.357-6.906,3.936-9.151c2.578-2.245,5.986-3.361,10.233-3.361
		c4.374,0,7.781,1.105,10.221,3.338c2.452,2.209,3.673,5.318,3.673,9.3C152.884,82.939,151.237,86.427,147.922,89.868z
		 M174.039,114.098c-0.794,0.805-1.899,1.197-3.338,1.197c-1.427,0-2.532-0.392-3.304-1.197c-0.771-0.806-1.162-1.796-1.162-2.993
		c0-1.277,0.402-2.313,1.208-3.108c0.807-0.783,1.888-1.185,3.258-1.185c1.393,0,2.498,0.414,3.304,1.22
		c0.805,0.817,1.208,1.841,1.208,3.073C175.213,112.302,174.822,113.292,174.039,114.098z M180.428,89.868l-4.006,3.959
		c-1.439,1.623-2.188,4.006-2.222,7.148h-7.412c0-2.9,0.356-5.203,1.082-6.929c0.714-1.715,2.129-3.603,4.258-5.663
		c2.118-2.061,3.465-3.522,4.028-4.397c0.863-1.323,1.302-2.751,1.302-4.305c0-2.037-0.506-3.591-1.52-4.661
		c-1.001-1.082-2.486-1.624-4.454-1.624c-1.865,0-3.373,0.53-4.512,1.577c-1.14,1.048-1.715,2.475-1.715,4.282h-7.932
		c0.046-3.856,1.357-6.906,3.937-9.151c2.578-2.245,5.985-3.361,10.222-3.361c4.374,0,7.792,1.105,10.231,3.338
		c2.453,2.209,3.674,5.318,3.674,9.3C185.39,82.939,183.743,86.427,180.428,89.868z M206.533,114.098
		c-0.782,0.805-1.889,1.197-3.327,1.197c-1.439,0-2.543-0.392-3.313-1.197c-0.771-0.806-1.151-1.796-1.151-2.993
		c0-1.277,0.402-2.313,1.208-3.108c0.807-0.783,1.888-1.185,3.257-1.185c1.394,0,2.499,0.414,3.293,1.22
		c0.806,0.817,1.208,1.841,1.208,3.073C207.707,112.302,207.315,113.292,206.533,114.098z M212.934,89.868l-4.018,3.959
		c-1.428,1.623-2.176,4.006-2.221,7.148h-7.402c0-2.9,0.356-5.203,1.071-6.929c0.724-1.715,2.141-3.603,4.258-5.663
		c2.129-2.061,3.466-3.522,4.041-4.397c0.863-1.323,1.301-2.751,1.301-4.305c0-2.037-0.507-3.591-1.52-4.661
		c-1.013-1.082-2.498-1.624-4.455-1.624c-1.864,0-3.373,0.53-4.524,1.577c-1.139,1.048-1.702,2.475-1.702,4.282h-7.931
		c0.046-3.856,1.347-6.906,3.925-9.151c2.579-2.245,5.996-3.361,10.232-3.361c4.374,0,7.782,1.105,10.232,3.338
		c2.453,2.209,3.673,5.318,3.673,9.3C217.895,82.939,216.236,86.427,212.934,89.868z"/>
</g>
</svg>
