<?xml version="1.0" encoding="utf-8"?>
<!-- Generator: Adobe Illustrator 16.0.0, SVG Export Plug-In . SVG Version: 6.00 Build 0)  -->
<!DOCTYPE svg PUBLIC "-//W3C//DTD SVG 1.1//EN" "http://www.w3.org/Graphics/SVG/1.1/DTD/svg11.dtd">
<svg version="1.1" xmlns="http://www.w3.org/2000/svg" xmlns:xlink="http://www.w3.org/1999/xlink" x="0px" y="0px"
	 width="745.313px" height="850.39px" viewBox="0 0 745.313 850.39" enable-background="new 0 0 745.313 850.39"
	 xml:space="preserve">
<g id="Layer_3">
	<text transform="matrix(1 0 0 1 83.6235 209.6543)"><tspan x="0" y="0" fill="#9D9C9C" font-family="'ArialRoundedMTBold'" font-size="12">Daar waar Rijkswaterstaat  </tspan><tspan x="0" y="14.4" fill="#9D9C9C" font-family="'ArialRoundedMTBold'" font-size="12">logischerwijs de  </tspan><tspan x="0" y="28.8" fill="#9D9C9C" font-family="'ArialRoundedMTBold'" font-size="12">(infrastructurele)  </tspan><tspan x="0" y="43.2" fill="#9D9C9C" font-family="'ArialRoundedMTBold'" font-size="12">maatregelen voor de auto  </tspan><tspan x="0" y="57.6" fill="#9D9C9C" font-family="'ArialRoundedMTBold'" font-size="12">en bedrijfsmatig transport  </tspan><tspan x="0" y="72" fill="#9D9C9C" font-family="'ArialRoundedMTBold'" font-size="12">verzorgde, legde IJmond  </tspan><tspan x="0" y="86.4" fill="#9D9C9C" font-family="'ArialRoundedMTBold'" font-size="12">Bereikbaar aanvullend de </tspan><tspan x="0" y="100.8" fill="#9D9C9C" font-family="'ArialRoundedMTBold'" font-size="12">aandacht op alternatief </tspan><tspan x="0" y="115.2" fill="#9D9C9C" font-family="'ArialRoundedMTBold'" font-size="12">vervoer: de fiets en het OV. </tspan></text>
	
		<line fill="none" stroke="#FFFFFF" stroke-width="2" stroke-miterlimit="10" x1="250.511" y1="425.927" x2="354.192" y2="425.927"/>
	<text transform="matrix(1 0 0 1 41.8105 387.1299)"><tspan x="0" y="0" fill="#9D9C9C" font-family="'ArialRoundedMTBold'" font-size="12">Deelnemende bedrijven  </tspan><tspan x="0" y="14.4" fill="#9D9C9C" font-family="'ArialRoundedMTBold'" font-size="12">kregen hulp bij het invoeren  </tspan><tspan x="0" y="28.8" fill="#9D9C9C" font-family="'ArialRoundedMTBold'" font-size="12">van fietsvriendelijke  </tspan><tspan x="0" y="43.2" fill="#9D9C9C" font-family="'ArialRoundedMTBold'" font-size="12">maatregelen. De fietsers  </tspan><tspan x="0" y="57.601" fill="#9D9C9C" font-family="'ArialRoundedMTBold'" font-size="12">van IJmond Bereikbaar  </tspan><tspan x="0" y="72" fill="#9D9C9C" font-family="'ArialRoundedMTBold'" font-size="12">kregen niet langer een  </tspan><tspan x="0" y="86.399" fill="#9D9C9C" font-family="'ArialRoundedMTBold'" font-size="12">kilometervergoeding.  </tspan><tspan x="0" y="100.8" fill="#9D9C9C" font-family="'ArialRoundedMTBold'" font-size="12">In plaats daarvan werden zij  </tspan><tspan x="0" y="115.2" fill="#9D9C9C" font-family="'ArialRoundedMTBold'" font-size="12">met een uitdagend programma  </tspan><tspan x="0" y="129.601" fill="#9D9C9C" font-family="'ArialRoundedMTBold'" font-size="12">gestimuleerd actief te blijven  </tspan><tspan x="0" y="144" fill="#9D9C9C" font-family="'ArialRoundedMTBold'" font-size="12">fietsen.  </tspan></text>
	<text transform="matrix(1 0 0 1 64.8252 589.623)"><tspan x="0" y="0" fill="#9D9C9C" font-family="'ArialRoundedMTBold'" font-size="12">De komende jaren maakt de </tspan><tspan x="0" y="14.4" fill="#9D9C9C" font-family="'ArialRoundedMTBold'" font-size="12">fietscampagne nog steeds  </tspan><tspan x="0" y="28.8" fill="#9D9C9C" font-family="'ArialRoundedMTBold'" font-size="12">deel uit van de plannen van  </tspan><tspan x="0" y="43.2" fill="#9D9C9C" font-family="'ArialRoundedMTBold'" font-size="12">IJmond Bereikbaar.  </tspan><tspan x="0" y="57.6" fill="#9D9C9C" font-family="'ArialRoundedMTBold'" font-size="12">De fietsstimuleringsmaatregelen </tspan><tspan x="0" y="72" fill="#9D9C9C" font-family="'ArialRoundedMTBold'" font-size="12">worden uitgebreid met pilots  </tspan><tspan x="0" y="86.4" fill="#9D9C9C" font-family="'ArialRoundedMTBold'" font-size="12">op het gebied van innovatieve  </tspan><tspan x="0" y="100.8" fill="#9D9C9C" font-family="'ArialRoundedMTBold'" font-size="12">oplossingen op fietspaden en de  </tspan><tspan x="0" y="115.2" fill="#9D9C9C" font-family="'ArialRoundedMTBold'" font-size="12">gemeenten maken plannen voor een snelfietsroute. </tspan><tspan x="0" y="144" fill="#9D9C9C" font-family="'ArialRoundedMTBold'" font-size="12">Onder de naam ‘Slimme &amp; Duurzame Mobiliteit IJmond’ worden  </tspan><tspan x="0" y="158.4" fill="#9D9C9C" font-family="'ArialRoundedMTBold'" font-size="12">met oog op het verbeteren van de luchtkwaliteit en emissievrij </tspan><tspan x="0" y="172.8" fill="#9D9C9C" font-family="'ArialRoundedMTBold'" font-size="12">rijden ook nieuwe elementen toegevoegd. Het betreft maatregelen  </tspan><tspan x="0" y="187.2" fill="#9D9C9C" font-family="'ArialRoundedMTBold'" font-size="12">op het gebied van gedragsverandering, aanleg kleinschalige infra,  </tspan><tspan x="0" y="201.6" fill="#9D9C9C" font-family="'ArialRoundedMTBold'" font-size="12">slimme &amp; duurzame logistiek en innovatieve projecten C-ITS.  </tspan><tspan x="0" y="216" fill="#9D9C9C" font-family="'ArialRoundedMTBold'" font-size="12">De samenwerking tussen de gemeenten, Omgevingsdienst IJmond,  </tspan><tspan x="0" y="230.4" fill="#9D9C9C" font-family="'ArialRoundedMTBold'" font-size="12">Rijkswaterstaat, Provincie en het bedrijfsleven blijft essentieel. </tspan><tspan x="0" y="259.2" fill="#9D9C9C" font-family="'ArialRoundedMTBold'" font-size="12">  </tspan></text>
</g>
<g id="Layer_4">
	<g>
		<g>
			<path fill="none" stroke="#95A5A6" stroke-width="2" stroke-linecap="round" stroke-miterlimit="10" stroke-dasharray="3,3" d="
				M588.797,268.431c-86.577,0-156.765,70.187-156.765,156.764c0,86.581,70.193,156.77,156.765,156.77
				c86.586,0,156.774-70.188,156.784-156.77C745.572,338.623,675.383,268.433,588.797,268.431z"/>
		</g>
	</g>
	<g>
		<g>
			<path fill="none" stroke="#FCB117" stroke-width="6" stroke-linecap="round" stroke-miterlimit="10" d="M493.212,366.949
				c-4.438,7.285-8.104,15.199-10.854,23.664c-2.751,8.464-4.438,17.021-5.129,25.524"/>
			<path fill="none" stroke="#FCB117" stroke-width="6" stroke-linecap="round" stroke-miterlimit="10" d="M684.399,483.45
				c4.438-7.284,8.104-15.199,10.854-23.663c2.751-8.465,4.438-17.022,5.129-25.525"/>
		</g>
	</g>
	<g>
		<g>
			<path fill="none" stroke="#473E8F" stroke-width="6" stroke-linecap="round" stroke-miterlimit="10" d="M614.666,316.285
				c-8.301-1.97-16.96-3.011-25.86-3.01c-8.899,0-17.56,1.04-25.859,3.01"/>
			<path fill="none" stroke="#473E8F" stroke-width="6" stroke-linecap="round" stroke-miterlimit="10" d="M562.946,534.114
				c8.3,1.971,16.96,3.011,25.858,3.011c8.901,0,17.562-1.041,25.861-3.011"/>
		</g>
	</g>
	<g>
		<g>
			<path fill="none" stroke="#9F208B" stroke-width="6" stroke-linecap="round" stroke-miterlimit="10" d="M673.746,352.286
				c-5.558-6.473-11.951-12.404-19.152-17.636c-7.199-5.231-14.817-9.479-22.689-12.765"/>
			<path fill="none" stroke="#9F208B" stroke-width="6" stroke-linecap="round" stroke-miterlimit="10" d="M503.866,498.113
				c5.557,6.473,11.951,12.404,19.151,17.635c7.201,5.232,14.818,9.48,22.691,12.766"/>
		</g>
	</g>
	<g>
		<g>
			<path fill="none" stroke="#F05222" stroke-width="6" stroke-linecap="round" stroke-miterlimit="10" d="M700.38,416.138
				c-0.69-8.503-2.377-17.06-5.128-25.525c-2.749-8.464-6.415-16.378-10.854-23.664"/>
			<path fill="none" stroke="#F05222" stroke-width="6" stroke-linecap="round" stroke-miterlimit="10" d="M477.231,434.262
				c0.69,8.503,2.377,17.06,5.128,25.523c2.75,8.466,6.416,16.38,10.854,23.666"/>
		</g>
	</g>
	<g>
		<path fill="#C8CDD0" d="M684.618,425.202c0-52.923-42.899-95.825-95.813-95.825c-52.918,0-95.813,42.902-95.813,95.825
			c-0.005,52.915,42.895,95.814,95.813,95.814C641.718,521.016,684.618,478.116,684.618,425.202z"/>
		<g>
			<path fill="#FFFFFF" d="M651.339,436.399c0-40.728-33.015-73.743-73.73-73.743c-40.724,0-73.733,33.015-73.733,73.743
				c-0.002,40.72,33.01,73.731,73.733,73.731C618.325,510.131,651.339,477.119,651.339,436.399z"/>
			<path fill="#FEFEFE" d="M651.578,436.161c0-40.728-33.015-73.743-73.73-73.743c-40.724,0-73.733,33.015-73.733,73.743
				c-0.002,40.72,33.01,73.731,73.733,73.731C618.563,509.893,651.578,476.881,651.578,436.161z"/>
			<path fill="#FDFDFD" d="M651.816,435.923c0-40.728-33.015-73.743-73.73-73.743c-40.724,0-73.733,33.015-73.733,73.743
				c-0.002,40.72,33.01,73.731,73.733,73.731C618.801,509.654,651.816,476.643,651.816,435.923z"/>
			<path fill="#FCFCFC" d="M652.054,435.685c0-40.728-33.015-73.743-73.73-73.743c-40.724,0-73.733,33.015-73.733,73.743
				c-0.002,40.72,33.01,73.731,73.733,73.731C619.04,509.416,652.054,476.404,652.054,435.685z"/>
			<path fill="#FBFBFB" d="M652.292,435.446c0-40.727-33.015-73.743-73.73-73.743c-40.724,0-73.733,33.016-73.733,73.743
				c-0.002,40.72,33.01,73.731,73.733,73.731C619.278,509.178,652.292,476.166,652.292,435.446z"/>
			<path fill="#FAFAFA" d="M652.531,435.208c0-40.727-33.015-73.743-73.73-73.743c-40.724,0-73.733,33.016-73.733,73.743
				c-0.002,40.72,33.01,73.731,73.733,73.731C619.516,508.939,652.531,475.928,652.531,435.208z"/>
			<path fill="#F9F9FA" d="M652.769,434.97c0-40.727-33.015-73.743-73.73-73.743c-40.724,0-73.733,33.016-73.733,73.743
				c-0.002,40.72,33.01,73.731,73.733,73.731C619.754,508.701,652.769,475.689,652.769,434.97z"/>
			<path fill="#F8F8F9" d="M653.007,434.731c0-40.727-33.015-73.743-73.73-73.743c-40.724,0-73.733,33.016-73.733,73.743
				c-0.002,40.72,33.01,73.731,73.733,73.731C619.993,508.463,653.007,475.451,653.007,434.731z"/>
			<path fill="#F7F8F8" d="M653.246,434.493c0-40.727-33.015-73.743-73.731-73.743c-40.723,0-73.732,33.016-73.732,73.743
				c-0.002,40.72,33.01,73.731,73.732,73.731C620.231,508.225,653.246,475.213,653.246,434.493z"/>
			<path fill="#F6F7F7" d="M653.484,434.255c0-40.727-33.015-73.743-73.731-73.743c-40.723,0-73.732,33.016-73.732,73.743
				c-0.002,40.72,33.01,73.731,73.732,73.731C620.469,507.986,653.484,474.975,653.484,434.255z"/>
			<path fill="#F5F6F6" d="M653.722,434.017c0-40.727-33.015-73.743-73.731-73.743c-40.723,0-73.732,33.016-73.732,73.743
				c-0.002,40.72,33.01,73.731,73.732,73.731C620.708,507.748,653.722,474.736,653.722,434.017z"/>
			<path fill="#F4F5F5" d="M653.96,433.778c0-40.727-33.015-73.743-73.731-73.743c-40.723,0-73.732,33.016-73.732,73.743
				c-0.002,40.72,33.01,73.731,73.732,73.731C620.946,507.51,653.96,474.498,653.96,433.778z"/>
			<path fill="#F3F4F4" d="M654.198,433.54c0-40.727-33.014-73.742-73.73-73.742c-40.724,0-73.732,33.016-73.732,73.742
				c-0.003,40.721,33.009,73.732,73.732,73.732C621.184,507.272,654.198,474.261,654.198,433.54z"/>
			<path fill="#F2F3F3" d="M654.436,433.302c0-40.727-33.014-73.742-73.73-73.742c-40.724,0-73.732,33.016-73.732,73.742
				c-0.003,40.721,33.009,73.732,73.732,73.732C621.422,507.034,654.436,474.022,654.436,433.302z"/>
			<path fill="#F1F2F2" d="M654.674,433.063c0-40.727-33.014-73.742-73.73-73.742c-40.724,0-73.732,33.016-73.732,73.742
				c-0.003,40.721,33.009,73.732,73.732,73.732C621.661,506.796,654.674,473.784,654.674,433.063z"/>
			<path fill="#F0F1F1" d="M654.913,432.825c0-40.727-33.014-73.742-73.73-73.742c-40.724,0-73.732,33.016-73.732,73.742
				c-0.003,40.721,33.009,73.732,73.732,73.732C621.899,506.558,654.913,473.546,654.913,432.825z"/>
			<path fill="#EFF0F0" d="M655.151,432.587c0-40.727-33.014-73.742-73.73-73.742c-40.724,0-73.732,33.016-73.732,73.742
				c-0.003,40.721,33.009,73.732,73.732,73.732C622.137,506.319,655.151,473.308,655.151,432.587z"/>
			<path fill="#EEEFEF" d="M655.389,432.349c0-40.727-33.014-73.742-73.73-73.742c-40.724,0-73.732,33.016-73.732,73.742
				c-0.003,40.721,33.009,73.732,73.732,73.732C622.375,506.081,655.389,473.069,655.389,432.349z"/>
			<path fill="#EDEEEF" d="M655.627,432.11c0-40.727-33.014-73.742-73.73-73.742c-40.724,0-73.732,33.016-73.732,73.742
				c-0.003,40.721,33.009,73.732,73.732,73.732C622.614,505.843,655.627,472.831,655.627,432.11z"/>
			<path fill="#ECEDEE" d="M655.866,431.872c0-40.727-33.014-73.742-73.73-73.742c-40.724,0-73.732,33.016-73.732,73.742
				c-0.003,40.721,33.009,73.732,73.732,73.732C622.852,505.604,655.866,472.593,655.866,431.872z"/>
			<path fill="#EBECED" d="M656.104,431.634c0-40.726-33.014-73.742-73.73-73.742c-40.724,0-73.732,33.016-73.732,73.742
				c-0.003,40.721,33.009,73.732,73.732,73.732C623.09,505.366,656.104,472.354,656.104,431.634z"/>
			<path fill="#EAEBEC" d="M656.342,431.396c0-40.726-33.014-73.742-73.73-73.742c-40.724,0-73.732,33.016-73.732,73.742
				c-0.003,40.721,33.009,73.732,73.732,73.732C623.329,505.128,656.342,472.116,656.342,431.396z"/>
			<path fill="#E9EAEB" d="M656.581,431.157c0-40.726-33.014-73.742-73.73-73.742c-40.724,0-73.732,33.016-73.732,73.742
				c-0.003,40.721,33.009,73.732,73.732,73.732C623.567,504.89,656.581,471.878,656.581,431.157z"/>
			<path fill="#E8E9EA" d="M656.819,430.919c0-40.726-33.014-73.742-73.73-73.742c-40.724,0-73.732,33.016-73.732,73.742
				c-0.003,40.721,33.009,73.732,73.732,73.732C623.805,504.651,656.819,471.64,656.819,430.919z"/>
			<path fill="#E8E9E9" d="M657.057,430.681c0-40.726-33.015-73.742-73.731-73.742c-40.723,0-73.731,33.016-73.731,73.742
				c-0.003,40.721,33.009,73.732,73.731,73.732C624.042,504.413,657.057,471.401,657.057,430.681z"/>
			<path fill="#E7E8E8" d="M657.295,430.442c0-40.726-33.015-73.742-73.731-73.742c-40.723,0-73.731,33.016-73.731,73.742
				c-0.003,40.721,33.009,73.732,73.731,73.732C624.281,504.175,657.295,471.163,657.295,430.442z"/>
			<path fill="#E6E7E7" d="M657.534,430.204c0-40.726-33.015-73.742-73.731-73.742c-40.723,0-73.731,33.016-73.731,73.742
				c-0.003,40.721,33.009,73.732,73.731,73.732C624.519,503.937,657.534,470.925,657.534,430.204z"/>
			<path fill="#E5E6E6" d="M657.772,429.966c0-40.726-33.015-73.742-73.731-73.742c-40.723,0-73.731,33.016-73.731,73.742
				c-0.003,40.721,33.009,73.732,73.731,73.732C624.757,503.698,657.772,470.687,657.772,429.966z"/>
			<path fill="#E4E5E5" d="M658.01,429.728c0-40.726-33.015-73.742-73.731-73.742c-40.723,0-73.731,33.017-73.731,73.742
				c-0.003,40.721,33.009,73.732,73.731,73.732C624.996,503.46,658.01,470.448,658.01,429.728z"/>
			<path fill="#E3E4E4" d="M658.249,429.489c0-40.726-33.015-73.742-73.731-73.742c-40.723,0-73.731,33.017-73.731,73.742
				c-0.003,40.721,33.009,73.732,73.731,73.732C625.234,503.222,658.249,470.21,658.249,429.489z"/>
			<path fill="#E2E3E4" d="M658.487,429.251c0-40.726-33.015-73.742-73.731-73.742c-40.723,0-73.731,33.017-73.731,73.742
				c-0.003,40.721,33.009,73.732,73.731,73.732C625.472,502.983,658.487,469.972,658.487,429.251z"/>
			<path fill="#E1E2E3" d="M658.725,429.013c0-40.726-33.015-73.742-73.731-73.742c-40.723,0-73.731,33.017-73.731,73.742
				c-0.003,40.721,33.009,73.732,73.731,73.732C625.71,502.745,658.725,469.733,658.725,429.013z"/>
			<path fill="#E0E1E2" d="M658.963,428.774c0-40.726-33.015-73.742-73.731-73.742c-40.723,0-73.731,33.017-73.731,73.742
				c-0.003,40.721,33.009,73.732,73.731,73.732C625.949,502.507,658.963,469.495,658.963,428.774z"/>
			<path fill="#DFE0E1" d="M659.202,428.536c0-40.726-33.015-73.742-73.731-73.742c-40.723,0-73.731,33.017-73.731,73.742
				c-0.003,40.721,33.009,73.732,73.731,73.732C626.187,502.269,659.202,469.257,659.202,428.536z"/>
			<path fill="#DEDFE0" d="M659.44,428.298c0-40.726-33.015-73.742-73.731-73.742c-40.723,0-73.731,33.017-73.731,73.742
				c-0.003,40.721,33.009,73.732,73.731,73.732C626.425,502.03,659.44,469.019,659.44,428.298z"/>
			<path fill="#DDDEDF" d="M659.678,428.06c0-40.726-33.015-73.742-73.731-73.742c-40.723,0-73.731,33.017-73.731,73.742
				c-0.003,40.721,33.009,73.732,73.731,73.732C626.664,501.792,659.678,468.78,659.678,428.06z"/>
			<path fill="#DCDDDE" d="M659.916,427.821c0-40.725-33.014-73.742-73.73-73.742c-40.724,0-73.731,33.017-73.731,73.742
				c-0.004,40.722,33.008,73.733,73.731,73.733C626.902,501.555,659.916,468.543,659.916,427.821z"/>
			<path fill="#DBDCDD" d="M660.154,427.583c0-40.725-33.014-73.742-73.73-73.742c-40.724,0-73.731,33.017-73.731,73.742
				c-0.004,40.722,33.008,73.733,73.731,73.733C627.14,501.316,660.154,468.305,660.154,427.583z"/>
			<path fill="#DADBDC" d="M660.392,427.345c0-40.725-33.014-73.742-73.73-73.742c-40.724,0-73.731,33.017-73.731,73.742
				c-0.004,40.722,33.008,73.733,73.731,73.733C627.378,501.078,660.392,468.066,660.392,427.345z"/>
			<path fill="#D9DADB" d="M660.63,427.106c0-40.725-33.014-73.742-73.73-73.742c-40.724,0-73.731,33.017-73.731,73.742
				c-0.004,40.722,33.008,73.733,73.731,73.733C627.617,500.84,660.63,467.828,660.63,427.106z"/>
			<path fill="#D8DADA" d="M660.869,426.868c0-40.725-33.014-73.742-73.731-73.742c-40.723,0-73.73,33.017-73.73,73.742
				c-0.004,40.722,33.008,73.733,73.73,73.733C627.855,500.602,660.869,467.59,660.869,426.868z"/>
			<path fill="#D7D9D9" d="M661.107,426.63c0-40.725-33.014-73.742-73.731-73.742c-40.723,0-73.73,33.017-73.73,73.742
				c-0.004,40.722,33.008,73.733,73.73,73.733C628.093,500.363,661.107,467.352,661.107,426.63z"/>
			<path fill="#D6D8D9" d="M661.345,426.392c0-40.725-33.014-73.742-73.731-73.742c-40.723,0-73.73,33.017-73.73,73.742
				c-0.004,40.722,33.008,73.733,73.73,73.733C628.332,500.125,661.345,467.113,661.345,426.392z"/>
			<path fill="#D5D7D8" d="M661.583,426.153c0-40.725-33.014-73.742-73.731-73.742c-40.723,0-73.73,33.017-73.73,73.742
				c-0.004,40.722,33.008,73.733,73.73,73.733C628.57,499.887,661.583,466.875,661.583,426.153z"/>
			<path fill="#D4D6D7" d="M661.822,425.915c0-40.724-33.014-73.741-73.731-73.741c-40.723,0-73.73,33.017-73.73,73.741
				c-0.004,40.722,33.008,73.734,73.73,73.734C628.808,499.648,661.822,466.637,661.822,425.915z"/>
			<path fill="#D3D5D6" d="M662.06,425.676c0-40.724-33.014-73.741-73.731-73.741c-40.723,0-73.73,33.017-73.73,73.741
				c-0.004,40.722,33.008,73.734,73.73,73.734C629.046,499.41,662.06,466.398,662.06,425.676z"/>
			<path fill="#D2D4D5" d="M662.298,425.438c0-40.724-33.014-73.741-73.731-73.741c-40.723,0-73.73,33.017-73.73,73.741
				c-0.004,40.722,33.008,73.734,73.73,73.734C629.285,499.172,662.298,466.16,662.298,425.438z"/>
			<path fill="#D1D3D4" d="M662.537,425.2c0-40.724-33.014-73.741-73.731-73.741c-40.723,0-73.73,33.017-73.73,73.741
				c-0.004,40.722,33.008,73.734,73.73,73.734C629.523,498.934,662.537,465.922,662.537,425.2z"/>
		</g>
		
			<linearGradient id="SVGID_1_" gradientUnits="userSpaceOnUse" x1="637.1704" y1="484.6377" x2="555.5946" y2="369.3682" gradientTransform="matrix(-1 0 0 1 1183.9092 0)">
			<stop  offset="0" style="stop-color:#FFFFFF"/>
			<stop  offset="1" style="stop-color:#D9DDE0"/>
		</linearGradient>
		
			<path fill="url(#SVGID_1_)" stroke="#FFFFFF" stroke-width="2" stroke-linecap="round" stroke-linejoin="round" stroke-miterlimit="10" d="
			M662.537,425.2c0-40.724-33.014-73.741-73.731-73.741c-40.723,0-73.73,33.017-73.73,73.741
			c-0.004,40.722,33.008,73.734,73.73,73.734C629.523,498.934,662.537,465.922,662.537,425.2z"/>
	</g>
	<g>
		
			<linearGradient id="SVGID_2_" gradientUnits="userSpaceOnUse" x1="69.4966" y1="425.1973" x2="330.6992" y2="425.1973" gradientTransform="matrix(1 0 0 1 130.7832 0)">
			<stop  offset="0" style="stop-color:#FCB117"/>
			<stop  offset="1" style="stop-color:#FFD93E"/>
		</linearGradient>
		<path fill="url(#SVGID_2_)" d="M439.708,392.533c-1.832-2.522-5.759-3.798-8.724-2.834l-33.009,10.725
			c-2.965,0.964-5.392,4.303-5.392,7.421v2.356c0,3.118-2.552,5.669-5.67,5.669h-2.712c-3.118,0-5.67-2.551-5.67-5.669v-37.888
			c0-3.118-2.426-6.458-5.392-7.421l-100.593-32.685c-2.965-0.963-6.891,0.312-8.724,2.834l-62.169,85.569
			c-1.833,2.522-1.833,6.65,0,9.173l62.169,85.569c1.833,2.523,5.759,3.799,8.724,2.835l100.593-32.686
			c2.966-0.964,5.392-4.303,5.392-7.421v-37.887c0-3.118,2.552-5.669,5.67-5.669h2.712c3.118,0,5.67,2.551,5.67,5.669v2.354
			c0,3.118,2.427,6.457,5.392,7.421l33.009,10.727c2.965,0.964,6.891-0.313,8.724-2.835l20.399-28.078
			c1.833-2.522,1.833-6.65,0-9.173L439.708,392.533z"/>
	</g>
	<g>
		
			<linearGradient id="SVGID_3_" gradientUnits="userSpaceOnUse" x1="25.2549" y1="288.2354" x2="286.4585" y2="288.2354" gradientTransform="matrix(0.809 0.5878 -0.5878 0.809 423.4759 -51.2009)">
			<stop  offset="0" style="stop-color:#00AAA9"/>
			<stop  offset="1" style="stop-color:#00AED0"/>
		</linearGradient>
		<path fill="url(#SVGID_3_)" d="M487.383,311.134c0-3.118-2.427-6.458-5.392-7.421l-33.008-10.725
			c-2.965-0.963-6.892,0.312-8.724,2.834l-1.386,1.907c-1.832,2.522-5.396,3.087-7.919,1.254l-2.194-1.595
			c-2.522-1.833-3.087-5.396-1.255-7.919l22.271-30.652c1.832-2.522,1.832-6.65,0-9.173l-62.171-85.57
			c-1.833-2.522-5.758-3.798-8.724-2.834L278.29,193.924c-2.965,0.963-5.392,4.303-5.392,7.421l-0.001,105.77
			c0,3.118,2.426,6.458,5.392,7.421l100.594,32.684c2.966,0.963,6.891-0.312,8.724-2.834l22.27-30.65
			c1.833-2.522,5.397-3.087,7.92-1.254l2.194,1.595c2.522,1.833,3.087,5.396,1.254,7.918l-1.383,1.904
			c-1.833,2.522-1.834,6.65-0.001,9.173l20.399,28.079c1.833,2.522,5.759,3.798,8.724,2.834l33.008-10.726
			c2.965-0.963,5.392-4.303,5.392-7.421V311.134z"/>
	</g>
	<g>
		
			<linearGradient id="SVGID_4_" gradientUnits="userSpaceOnUse" x1="-91.3975" y1="203.2847" x2="169.7949" y2="203.2847" gradientTransform="matrix(0.309 0.9511 -0.9511 0.309 690.3326 79.7999)">
			<stop  offset="0" style="stop-color:#473E8F"/>
			<stop  offset="1" style="stop-color:#6856A0"/>
		</linearGradient>
		<path fill="url(#SVGID_4_)" d="M573.797,273.303c1.832-2.522,1.832-6.65,0-9.173l-20.399-28.078
			c-1.833-2.522-5.759-3.798-8.724-2.834l-2.241,0.728c-2.965,0.963-6.18-0.674-7.144-3.64l-0.839-2.581
			c-0.964-2.965,0.675-6.18,3.64-7.144l36.034-11.708c2.965-0.963,5.392-4.303,5.392-7.421V95.683c0-3.118-2.427-6.458-5.392-7.421
			L473.533,55.577c-2.965-0.963-6.892,0.312-8.724,2.834l-62.173,85.569c-1.832,2.522-1.832,6.65,0,9.173l62.173,85.57
			c1.832,2.522,5.759,3.798,8.724,2.834l36.032-11.707c2.965-0.963,6.18,0.674,7.144,3.64l0.839,2.581
			c0.964,2.965-0.675,6.18-3.64,7.144l-2.239,0.727c-2.965,0.964-5.392,4.303-5.392,7.421l-0.002,34.707
			c0,3.118,2.427,6.458,5.392,7.421l33.009,10.724c2.965,0.964,6.892-0.312,8.724-2.834L573.797,273.303z"/>
	</g>
	<g>
		
			<linearGradient id="SVGID_5_" gradientUnits="userSpaceOnUse" x1="160.8325" y1="288.2354" x2="422.0366" y2="288.2354" gradientTransform="matrix(0.809 -0.5878 -0.5878 -0.809 313.7933 981.2868)">
			<stop  offset="0" style="stop-color:#F05222"/>
			<stop  offset="1" style="stop-color:#FB9E1D"/>
		</linearGradient>
		<path fill="url(#SVGID_5_)" d="M487.383,539.26c0,3.118-2.427,6.457-5.392,7.421l-33.007,10.726
			c-2.965,0.964-6.892-0.313-8.724-2.835l-1.386-1.906c-1.833-2.522-5.396-3.087-7.919-1.255l-2.194,1.596
			c-2.523,1.832-3.087,5.396-1.255,7.919l22.271,30.651c1.832,2.523,1.832,6.65,0,9.174l-62.172,85.569
			c-1.833,2.522-5.758,3.799-8.724,2.835L278.29,656.469c-2.965-0.964-5.392-4.303-5.392-7.421l-0.001-105.77
			c0-3.118,2.426-6.457,5.392-7.421l100.594-32.684c2.966-0.964,6.891,0.312,8.724,2.835l22.27,30.649
			c1.833,2.523,5.396,3.087,7.92,1.255l2.193-1.595c2.523-1.832,3.088-5.396,1.255-7.919l-1.383-1.904
			c-1.833-2.522-1.833-6.651,0-9.174l20.398-28.079c1.833-2.522,5.759-3.799,8.724-2.835l33.008,10.726
			c2.965,0.964,5.392,4.303,5.392,7.421V539.26z"/>
	</g>
	<g>
		
			<linearGradient id="SVGID_6_" gradientUnits="userSpaceOnUse" x1="476.1157" y1="538.7207" x2="444.6898" y2="506.6664" gradientTransform="matrix(1 0 0 1 -6.2969 0)">
			<stop  offset="0" style="stop-color:#FFFFFF"/>
			<stop  offset="1" style="stop-color:#D9DDE0"/>
		</linearGradient>
		<path fill="url(#SVGID_6_)" stroke="#FFFFFF" stroke-linecap="round" stroke-linejoin="round" stroke-miterlimit="10" d="
			M477.849,522.936c0,12.985-10.521,23.509-23.503,23.509c-12.983,0-23.506-10.523-23.506-23.509
			c0-12.979,10.522-23.504,23.506-23.504C467.328,499.432,477.849,509.956,477.849,522.936z"/>
		<g>
			<circle fill="none" stroke="#696969" stroke-linejoin="round" stroke-miterlimit="10" cx="454.346" cy="523.708" r="9.292"/>
			
				<line fill="none" stroke="#696969" stroke-linejoin="round" stroke-miterlimit="10" x1="449.97" y1="536.138" x2="458.719" y2="536.138"/>
			
				<line fill="none" stroke="#696969" stroke-linejoin="round" stroke-miterlimit="10" x1="451.611" y1="540.072" x2="457.078" y2="540.072"/>
			
				<line fill="none" stroke="#696969" stroke-linejoin="round" stroke-miterlimit="10" x1="437.804" y1="523.708" x2="441.084" y2="523.708"/>
			
				<line fill="none" stroke="#696969" stroke-linejoin="round" stroke-miterlimit="10" x1="467.606" y1="523.708" x2="470.885" y2="523.708"/>
			
				<line fill="none" stroke="#696969" stroke-linejoin="round" stroke-miterlimit="10" x1="454.346" y1="531.228" x2="454.346" y2="525.784"/>
			
				<line fill="none" stroke="#696969" stroke-linejoin="round" stroke-miterlimit="10" x1="454.346" y1="510.448" x2="454.346" y2="505.006"/>
			
				<line fill="none" stroke="#696969" stroke-linejoin="round" stroke-miterlimit="10" x1="464.005" y1="514.048" x2="467.286" y2="510.767"/>
			
				<line fill="none" stroke="#696969" stroke-linejoin="round" stroke-miterlimit="10" x1="444.684" y1="514.048" x2="441.404" y2="510.767"/>
			
				<line fill="none" stroke="#696969" stroke-linejoin="round" stroke-miterlimit="10" x1="451.553" y1="525.514" x2="457.019" y2="525.514"/>
		</g>
	</g>
	<g>
		
			<linearGradient id="SVGID_7_" gradientUnits="userSpaceOnUse" x1="560.5142" y1="282.7607" x2="526.5737" y2="251.0202" gradientTransform="matrix(-1 0 0 1 1081.0439 0)">
			<stop  offset="0" style="stop-color:#FFFFFF"/>
			<stop  offset="1" style="stop-color:#D9DDE0"/>
		</linearGradient>
		<path fill="url(#SVGID_7_)" stroke="#FFFFFF" stroke-linecap="round" stroke-linejoin="round" stroke-miterlimit="10" d="
			M513.868,267.011c0,12.981,10.525,23.505,23.504,23.505c12.985,0,23.506-10.524,23.506-23.509
			c0-12.979-10.521-23.504-23.506-23.502C524.393,243.505,513.868,254.028,513.868,267.011z"/>
		<g>
			<line fill="none" stroke="#696969" stroke-miterlimit="10" x1="525.803" y1="279.682" x2="548.943" y2="279.682"/>
			<g>
				<line fill="none" stroke="#696969" stroke-miterlimit="10" x1="530.382" y1="279.682" x2="530.382" y2="264.472"/>
				<line fill="none" stroke="#696969" stroke-miterlimit="10" x1="537.376" y1="279.677" x2="537.376" y2="259.09"/>
				<line fill="none" stroke="#696969" stroke-miterlimit="10" x1="544.365" y1="279.682" x2="544.365" y2="253.742"/>
			</g>
		</g>
	</g>
	<line fill="none" stroke="#FFFFFF" stroke-width="2" stroke-miterlimit="10" x1="290.457" y1="257.04" x2="422.874" y2="257.04"/>
	
		<line fill="none" stroke="#FFFFFF" stroke-width="2" stroke-miterlimit="10" x1="449.511" y1="127.927" x2="553.192" y2="127.927"/>
	
		<linearGradient id="SVGID_8_" gradientUnits="userSpaceOnUse" x1="599.895" y1="224.8643" x2="622.5728" y2="224.8643" gradientTransform="matrix(1 0 0 1 -551.6357 0)">
		<stop  offset="0" style="stop-color:#00AAA9"/>
		<stop  offset="1" style="stop-color:#00AED0"/>
	</linearGradient>
	<rect x="48.259" y="199.353" fill="url(#SVGID_8_)" width="22.678" height="51.023"/>
	<g>
		<path fill="#FFFFFF" d="M57.818,218.056h-5.289c-0.149-5.401,2.738-8.401,7.239-8.401c5.851,0,9.639,6.076,5.926,12.677
			l-4.426,7.876h5.851v6.076H52.304v-1.463l7.651-13.352c2.851-4.988,0.75-5.926-0.338-5.926
			C58.717,215.543,57.818,216.293,57.818,218.056z"/>
	</g>
	
		<linearGradient id="SVGID_9_" gradientUnits="userSpaceOnUse" x1="586.5444" y1="607.1738" x2="609.2222" y2="607.1738" gradientTransform="matrix(1 0 0 1 -551.6357 0)">
		<stop  offset="0" style="stop-color:#F05222"/>
		<stop  offset="1" style="stop-color:#FB9E1D"/>
	</linearGradient>
	<rect x="34.909" y="581.662" fill="url(#SVGID_9_)" width="22.678" height="51.023"/>
	<g>
		<path fill="#FFFFFF" d="M46.88,615.681h-9.489v-2.963l8.514-18.378h6.826v15.827h2.25v5.514h-2.25v4.913H46.88V615.681z
			 M47.331,610.43v-4.2l0.337-4.464h-0.112l-3.226,8.664H47.331z"/>
	</g>
	
		<linearGradient id="SVGID_10_" gradientUnits="userSpaceOnUse" x1="631.6431" y1="401.0781" x2="654.3208" y2="401.0781" gradientTransform="matrix(1 0 0 1 -631.6436 0)">
		<stop  offset="0" style="stop-color:#FCB117"/>
		<stop  offset="1" style="stop-color:#FFD93E"/>
	</linearGradient>
	<rect y="375.567" fill="url(#SVGID_10_)" width="22.678" height="51.023"/>
	<g>
		<path fill="#FFFFFF" d="M8.671,400.51c-0.075,1.537,0.713,2.588,1.987,2.588c1.275,0,2.139-1.275,2.139-3.15
			c0-4.014-3.113-3.863-5.514-3.563v-0.863l2.813-7.726H3.87v-5.551h14.252v0.975l-3.638,8.852c3.488,1.088,4.388,4.426,4.388,7.839
			c0,5.363-3.3,8.964-8.288,8.964c-4.501,0-7.539-3.338-7.576-8.363H8.671z"/>
	</g>
	
		<linearGradient id="SVGID_11_" gradientUnits="userSpaceOnUse" x1="592.8911" y1="63.0391" x2="615.5688" y2="63.0391" gradientTransform="matrix(1 0 0 1 -471.6279 0)">
		<stop  offset="0" style="stop-color:#473E8F"/>
		<stop  offset="1" style="stop-color:#6856A0"/>
	</linearGradient>
	<rect x="121.263" y="37.527" fill="url(#SVGID_11_)" width="22.678" height="51.023"/>
	<g>
		<path fill="#FFFFFF" d="M136.201,50.132v21.116h3.376v5.138h-12.902v-5.138h3.301V55.383h-2.851v-5.251H136.201z"/>
	</g>
	<g>
		<g>
			<path fill="none" stroke="#00AAA9" stroke-width="6" stroke-linecap="round" stroke-miterlimit="10" d="M545.708,321.886
				c-7.873,3.285-15.49,7.533-22.69,12.765c-7.2,5.23-13.595,11.163-19.152,17.635"/>
			<path fill="none" stroke="#00AAA9" stroke-width="6" stroke-linecap="round" stroke-miterlimit="10" d="M631.903,528.514
				c7.873-3.284,15.49-7.533,22.69-12.764c7.2-5.232,13.595-11.164,19.152-17.637"/>
		</g>
	</g>
	<text transform="matrix(1 0 0 1 157.4824 46.4639)"><tspan x="0" y="0" fill="#9D9C9C" font-family="'ArialRoundedMTBold'" font-size="12">Begin 2015 startten, op initiatief  </tspan><tspan x="0" y="14.4" fill="#9D9C9C" font-family="'ArialRoundedMTBold'" font-size="12">van IJmond Bereikbaar, tien bedrijven </tspan><tspan x="0" y="28.8" fill="#9D9C9C" font-family="'ArialRoundedMTBold'" font-size="12">een test om werknemers, onder  </tspan><tspan x="0" y="43.2" fill="#9D9C9C" font-family="'ArialRoundedMTBold'" font-size="12">meer met een fietskilometervergoeding, </tspan><tspan x="0" y="57.6" fill="#9D9C9C" font-family="'ArialRoundedMTBold'" font-size="12">aan te sporen om de auto vaker te laten  </tspan><tspan x="0" y="72" fill="#9D9C9C" font-family="'ArialRoundedMTBold'" font-size="12">staan en op de fiets naar het werk te komen.  </tspan><tspan x="0" y="86.4" fill="#9D9C9C" font-family="'ArialRoundedMTBold'" font-size="12">Na de eerste positieve reacties is deze </tspan><tspan x="0" y="100.8" fill="#9D9C9C" font-family="'ArialRoundedMTBold'" font-size="12">campagne vanaf mei 2015 in de hele  </tspan><tspan x="0" y="115.2" fill="#9D9C9C" font-family="'ArialRoundedMTBold'" font-size="12">IJmond uitgerold.</tspan></text>
	<text transform="matrix(1 0 0 1 449.7144 112.3867)" fill="#FFFFFF" font-family="'ArialRoundedMTBold'" font-size="16">PILOT</text>
	<text transform="matrix(1 0 0 1 448.7876 141.6035)"><tspan x="0" y="0" fill="#FFFFFF" font-family="'ArialRoundedMTBold'" font-size="10">Een test om werknemers </tspan><tspan x="0" y="12" fill="#FFFFFF" font-family="'ArialRoundedMTBold'" font-size="10">aan te sporen om de auto  </tspan><tspan x="0" y="24" fill="#FFFFFF" font-family="'ArialRoundedMTBold'" font-size="10">vaker te laten staan en op  </tspan><tspan x="0" y="36" fill="#FFFFFF" font-family="'ArialRoundedMTBold'" font-size="10">de fiets naar het werk te  </tspan><tspan x="0" y="48" fill="#FFFFFF" font-family="'ArialRoundedMTBold'" font-size="10">komen.  </tspan></text>
	<g id="XMLID_12_">
		<path id="XMLID_1_" fill="#DADAD9" d="M438.641,345.932v-3.112v-3.113v-3.112v-3.113v-3.113v-3.112v-3.112v-3.113
			c0-0.498,0.023-0.993,0.069-1.482c0.045-0.49,0.113-0.975,0.204-1.454s0.203-0.952,0.337-1.417
			c0.135-0.465,0.29-0.923,0.467-1.371c0.177-0.449,0.374-0.889,0.593-1.318c0.219-0.43,0.457-0.849,0.716-1.256
			c0.259-0.408,0.537-0.804,0.835-1.187c0.299-0.383,0.615-0.753,0.952-1.109c0.341-0.36,0.695-0.701,1.063-1.02
			c0.368-0.32,0.748-0.618,1.14-0.896s0.795-0.533,1.207-0.767c0.413-0.234,0.837-0.445,1.269-0.635s0.872-0.356,1.32-0.5
			s0.904-0.264,1.366-0.361c0.462-0.097,0.93-0.17,1.403-0.219c0.472-0.049,0.95-0.074,1.432-0.074h1.427h1.426h1.427h1.427h1.428
			h1.427H463h1.427c0.481,0,0.96,0.024,1.433,0.074s0.94,0.123,1.402,0.219c0.462,0.097,0.918,0.218,1.366,0.361
			s0.889,0.311,1.32,0.5s0.855,0.401,1.269,0.635c0.412,0.234,0.815,0.49,1.207,0.767s0.771,0.576,1.139,0.896
			c0.368,0.319,0.723,0.659,1.063,1.02c0.337,0.356,0.654,0.726,0.952,1.109c0.298,0.383,0.576,0.779,0.835,1.187
			c0.259,0.407,0.497,0.826,0.716,1.256c0.218,0.429,0.416,0.869,0.593,1.318c0.177,0.448,0.332,0.906,0.467,1.371
			c0.134,0.465,0.246,0.938,0.337,1.416c0.09,0.479,0.159,0.964,0.204,1.454c0.046,0.49,0.069,0.984,0.069,1.482v3.113v3.112v3.112
			v3.113v3.113v3.112v3.113v3.112l-4.765-6.225v-3.112v-3.113v-3.113v-3.112v-3.112v-3.113c0-0.345-0.016-0.688-0.047-1.027
			c-0.032-0.339-0.078-0.675-0.142-1.007c-0.062-0.331-0.14-0.658-0.231-0.98s-0.199-0.638-0.32-0.948
			c-0.122-0.311-0.258-0.614-0.409-0.911c-0.149-0.296-0.313-0.586-0.492-0.867c-0.178-0.281-0.369-0.555-0.574-0.818
			s-0.424-0.519-0.654-0.764c-0.228-0.24-0.464-0.467-0.708-0.68s-0.497-0.412-0.756-0.597c-0.26-0.184-0.526-0.355-0.8-0.511
			c-0.273-0.156-0.554-0.296-0.839-0.423c-0.285-0.126-0.576-0.237-0.871-0.333c-0.296-0.096-0.596-0.176-0.9-0.241
			c-0.304-0.065-0.611-0.114-0.923-0.146c-0.311-0.033-0.625-0.049-0.94-0.049H463h-1.426h-1.427h-1.428h-1.427h-1.427h-1.426
			h-1.427c-0.315,0-0.63,0.017-0.94,0.049c-0.312,0.032-0.619,0.081-0.923,0.146c-0.305,0.065-0.604,0.145-0.9,0.241
			c-0.295,0.096-0.586,0.207-0.872,0.333c-0.285,0.127-0.564,0.268-0.838,0.423c-0.273,0.156-0.54,0.327-0.8,0.511
			c-0.26,0.185-0.512,0.384-0.756,0.597s-0.48,0.439-0.707,0.68c-0.231,0.245-0.45,0.5-0.655,0.764s-0.397,0.537-0.574,0.818
			c-0.179,0.281-0.343,0.57-0.493,0.867s-0.286,0.6-0.408,0.911c-0.121,0.31-0.229,0.626-0.32,0.948
			c-0.092,0.321-0.17,0.648-0.232,0.979c-0.063,0.332-0.108,0.667-0.141,1.007c-0.031,0.339-0.047,0.682-0.047,1.027v3.113v3.112
			v3.112v3.113v3.113v3.112"/>
	</g>
	<path fill="#DADAD9" d="M468.125,322.619h-1.405l-0.188-1.053c-0.392-2.188-2.428-3.777-4.843-3.777h-6.634
		c-2.012,0-3.708,1.326-4.035,3.153l-0.299,1.677h-1.405c-0.647,0-1.173,0.525-1.173,1.172v0.491c0,0.647,0.525,1.172,1.173,1.172
		h0.819c-0.595,0.483-0.976,1.219-0.976,2.045v3.199c0,0.816,0.373,1.546,0.956,2.029v1.717c0,0.981,0.796,1.777,1.777,1.777h0.27
		c0.982,0,1.777-0.796,1.777-1.777v-1.114h9.562v1.114c0,0.981,0.795,1.777,1.777,1.777h0.27c0.981,0,1.777-0.796,1.777-1.777
		v-1.717c0.583-0.483,0.956-1.213,0.956-2.029v-3.199c0-0.826-0.381-1.563-0.976-2.045h0.819c0.647,0,1.172-0.524,1.172-1.172
		v-0.491C469.296,323.144,468.772,322.619,468.125,322.619z M452.027,329.064c-0.644,0-1.165-0.521-1.165-1.165
		c0-0.645,0.521-1.167,1.165-1.167s1.166,0.522,1.166,1.167C453.193,328.542,452.67,329.064,452.027,329.064z M451.792,324.866
		c-0.07,0-0.139,0.005-0.207,0.01l0.665-3.715c0.22-1.23,1.399-2.124,2.805-2.124h6.634c1.81,0,3.329,1.156,3.614,2.748l0.552,3.091
		c-0.067-0.005-0.137-0.01-0.206-0.01H451.792z M465.413,329.064c-0.645,0-1.166-0.521-1.166-1.165c0-0.645,0.521-1.167,1.166-1.167
		c0.644,0,1.165,0.522,1.165,1.167C466.578,328.542,466.056,329.064,465.413,329.064z"/>
	<g>
		<g>
			<path fill-rule="evenodd" clip-rule="evenodd" fill="#C6C6C5" d="M424.707,418.159v0.002c0.016,0,0.029,0,0.045-0.001
				c0.015,0.001,0.027,0.001,0.045,0.001v-0.002c2.45-0.047,4.422-2.049,4.422-4.513c-0.001-2.464-1.975-4.465-4.428-4.512v-0.002
				c-0.014,0.001-0.029,0.001-0.044,0.001c-0.015,0-0.03-0.002-0.045-0.002v0.003c-2.452,0.05-4.423,2.052-4.421,4.516
				C420.281,416.113,422.255,418.112,424.707,418.159z"/>
			<path fill-rule="evenodd" clip-rule="evenodd" fill="#C6C6C5" d="M440.703,411.322c-1.656-0.887-4.109-0.277-4.381,0.995
				c-0.182,0.881,0,1.825,0.397,2.536c0.183,0.321,1.101,0.491,1.384,0.503c0.982,0.038,1.756-1.032,1.756-1.032
				c0.691,1.02-0.66,4.209-0.139,5.953c-0.812-0.995-2.957-1.366-4.311-0.585c-1.33,0.765-1.87-0.756-4.408-0.586
				c-0.027-0.005-0.049-0.026-0.077-0.026c-1.552,0.001-6.128,0.005-6.128,0.005h-0.09l-7.1,0.002c-0.027,0-0.045,0.029-0.068,0.038
				c-1.744,0.196-2.31,1.224-3.453,0.566c-1.354-0.78-3.499-0.409-4.311,0.585c0.521-1.743-0.83-4.933-0.139-5.953
				c0,0,0.773,1.069,1.756,1.032c0.283-0.012,1.201-0.183,1.385-0.503c0.396-0.71,0.578-1.655,0.396-2.536
				c-0.271-1.271-2.725-1.881-4.38-0.995c-1.661,0.888-3.7,8.243-3.202,11.327c0.34,1.265,1.812,1.547,2.938,2.101
				c0.724,0.353,1.403,0.862,2.593,1.114c1.812,0.384,3.372-0.787,4.26-0.56c0.647,0.171,2.067,0.942,2.774,1.339
				c0.281,1.375,0.521,2.402,0.535,2.461l0.885,12.118c-0.006,0.077,10.465,0.073,10.457-0.003l0.785-12.119
				c0.014-0.054,0.216-0.926,0.464-2.123c0.009-0.017,0.032-0.143,0.063-0.336c0.709-0.398,2.122-1.167,2.77-1.337
				c0.887-0.227,2.447,0.943,4.26,0.56c1.188-0.251,1.868-0.761,2.592-1.114c1.126-0.554,2.599-0.836,2.938-2.101
				C444.402,419.565,442.363,412.209,440.703,411.322z"/>
		</g>
		<g>
			<path fill="#C6C6C5" d="M434.784,417.172c-0.14,0.091-0.276,0.18-0.257,0.366c0.014,0.13,0.1,0.236,0.209,0.268
				c0.171,0.049,0.268-0.051,0.364-0.118c0.094-0.063,0.161-0.094,0.226-0.131c0.447-0.259,0.971-0.439,1.678-0.433
				c0.691,0.005,1.213,0.199,1.664,0.466c0.135,0.081,0.293,0.253,0.457,0.252c0.18,0,0.35-0.163,0.294-0.39
				c-0.04-0.167-0.294-0.284-0.45-0.378c-0.531-0.324-1.133-0.545-1.953-0.555C436.079,416.508,435.368,416.79,434.784,417.172z"/>
			<path fill="#C6C6C5" d="M435.75,417.984c-0.173,0.086-0.407,0.175-0.379,0.421c0.02,0.148,0.153,0.31,0.373,0.262
				c0.107-0.023,0.202-0.105,0.268-0.136c0.264-0.128,0.576-0.238,0.993-0.228c0.416,0.01,0.703,0.121,0.971,0.262
				c0.09,0.048,0.183,0.124,0.289,0.124c0.227-0.001,0.398-0.277,0.246-0.488c-0.053-0.073-0.18-0.135-0.282-0.19
				c-0.321-0.169-0.675-0.286-1.122-0.311C436.582,417.669,436.103,417.809,435.75,417.984z"/>
		</g>
		<g>
			<path fill="#C6C6C5" d="M410.4,417.172c-0.141,0.091-0.277,0.18-0.258,0.366c0.014,0.13,0.1,0.236,0.209,0.268
				c0.17,0.049,0.267-0.051,0.364-0.118c0.094-0.063,0.16-0.094,0.226-0.131c0.447-0.259,0.971-0.439,1.678-0.433
				c0.691,0.005,1.214,0.199,1.664,0.466c0.135,0.081,0.293,0.253,0.457,0.252c0.18,0,0.35-0.163,0.294-0.39
				c-0.041-0.167-0.294-0.284-0.45-0.378c-0.531-0.324-1.134-0.545-1.954-0.555C411.695,416.508,410.983,416.79,410.4,417.172z"/>
			<path fill="#C6C6C5" d="M411.365,417.984c-0.171,0.086-0.407,0.175-0.378,0.421c0.02,0.148,0.153,0.31,0.373,0.262
				c0.108-0.023,0.201-0.105,0.267-0.136c0.265-0.128,0.576-0.238,0.994-0.228c0.416,0.01,0.703,0.121,0.971,0.262
				c0.09,0.048,0.182,0.124,0.289,0.124c0.226-0.001,0.398-0.277,0.246-0.488c-0.053-0.073-0.179-0.135-0.282-0.19
				c-0.322-0.169-0.675-0.286-1.122-0.311C412.198,417.669,411.717,417.809,411.365,417.984z"/>
		</g>
	</g>
	<line fill="none" stroke="#FFFFFF" stroke-width="2" stroke-miterlimit="10" x1="247.458" y1="440.04" x2="370.746" y2="440.04"/>
</g>
<g id="Layer_5">
	<text transform="matrix(1 0 0 1 287.6567 194.1694)"><tspan x="0" y="0" fill="#FFFFFF" font-family="'ArialRoundedMTBold'" font-size="18"> </tspan><tspan x="0" y="19.2" fill="#FFFFFF" font-family="'ArialRoundedMTBold'" font-size="16">2016 </tspan><tspan x="0" y="38.4" fill="#FFFFFF" font-family="'ArialRoundedMTBold'" font-size="16">RENOVATIE </tspan><tspan x="0" y="57.6" fill="#FFFFFF" font-family="'ArialRoundedMTBold'" font-size="16">VELSERTUNNEL</tspan></text>
	<text transform="matrix(1 0 0 1 288.7295 270.7861)"><tspan x="0" y="0" fill="#FFFFFF" font-family="'ArialRoundedMTBold'" font-size="10">In 2016 is nauw samengewerkt  </tspan><tspan x="0" y="12" fill="#FFFFFF" font-family="'ArialRoundedMTBold'" font-size="10">met Rijkswaterstaat </tspan><tspan x="0" y="24" fill="#FFFFFF" font-family="'ArialRoundedMTBold'" font-size="10">gedurende de renovatie  </tspan><tspan x="0" y="36" fill="#FFFFFF" font-family="'ArialRoundedMTBold'" font-size="10">van de Velsertunnel. </tspan></text>
	<text transform="matrix(1 0 0 1 247.7295 452.7861)"><tspan x="0" y="0" fill="#FFFFFF" font-family="'ArialRoundedMTBold'" font-size="10">In 2017 lag de nadruk op </tspan><tspan x="0" y="12" fill="#FFFFFF" font-family="'ArialRoundedMTBold'" font-size="10"> het structureel gebruik </tspan><tspan x="0" y="24" fill="#FFFFFF" font-family="'ArialRoundedMTBold'" font-size="10"> van de fiets en e-bike.  </tspan><tspan x="0" y="36" fill="#FFFFFF" font-family="'ArialRoundedMTBold'" font-size="10"> </tspan><tspan x="0" y="48" fill="#FFFFFF" font-family="'ArialRoundedMTBold'" font-size="10"> </tspan></text>
	<g>
		<g>
			<path fill-rule="evenodd" clip-rule="evenodd" fill="#C6C6C5" d="M587.72,402.568v0.008c0.046,0,0.086,0,0.132-0.003
				c0.043,0.003,0.079,0.003,0.132,0.003v-0.008c7.176-0.138,12.95-6,12.95-13.214c-0.003-7.218-5.783-13.076-12.968-13.216v-0.006
				c-0.039,0.003-0.086,0.003-0.129,0.003s-0.088-0.005-0.131-0.005v0.011c-7.182,0.143-12.953,6.006-12.947,13.225
				C574.759,396.579,580.542,402.434,587.72,402.568z"/>
			<path fill-rule="evenodd" clip-rule="evenodd" fill="#C6C6C5" d="M634.567,382.548c-4.85-2.597-12.034-0.812-12.83,2.912
				c-0.531,2.58,0,5.346,1.164,7.425c0.535,0.941,3.225,1.441,4.054,1.476c2.877,0.109,5.143-3.021,5.143-3.021
				c2.024,2.986-1.935,12.327-0.406,17.432c-2.377-2.915-8.661-4.001-12.625-1.713c-3.896,2.237-5.477-2.213-12.91-1.716
				c-0.08-0.017-0.143-0.077-0.226-0.077c-4.545,0.003-17.946,0.014-17.946,0.014h-0.264l-20.792,0.006
				c-0.08,0-0.131,0.085-0.2,0.114c-5.108,0.572-6.765,3.581-10.113,1.659c-3.964-2.288-10.247-1.201-12.623,1.713
				c1.526-5.105-2.432-14.446-0.406-17.432c0,0,2.264,3.129,5.142,3.021c0.83-0.034,3.518-0.535,4.055-1.476
				c1.162-2.079,1.693-4.845,1.162-7.425c-0.795-3.724-7.98-5.508-12.827-2.912c-4.864,2.597-10.836,24.139-9.378,33.171
				c0.995,3.704,5.305,4.53,8.603,6.154c2.12,1.029,4.11,2.522,7.594,3.261c5.305,1.124,9.876-2.305,12.476-1.639
				c1.896,0.5,6.054,2.76,8.125,3.921c0.823,4.026,1.526,7.036,1.567,7.207l2.591,35.49c-0.017,0.226,30.648,0.214,30.626-0.009
				l2.299-35.493c0.04-0.157,0.632-2.711,1.358-6.217c0.026-0.049,0.094-0.419,0.186-0.984c2.076-1.167,6.216-3.415,8.111-3.915
				c2.597-0.666,7.167,2.763,12.476,1.639c3.481-0.738,5.472-2.231,7.59-3.261c3.298-1.625,7.61-2.45,8.606-6.154
				C645.402,406.687,639.43,385.145,634.567,382.548z"/>
		</g>
		<g>
			<path fill="#C6C6C5" d="M617.233,399.68c-0.408,0.269-0.809,0.526-0.752,1.075c0.04,0.377,0.291,0.689,0.611,0.784
				c0.501,0.143,0.784-0.152,1.067-0.346c0.274-0.186,0.472-0.275,0.661-0.386c1.31-0.758,2.842-1.284,4.913-1.264
				c2.025,0.014,3.552,0.583,4.874,1.364c0.394,0.237,0.857,0.741,1.338,0.738c0.526-0.002,1.023-0.477,0.86-1.141
				c-0.116-0.492-0.86-0.832-1.318-1.109c-1.556-0.949-3.317-1.596-5.72-1.625C621.026,397.734,618.944,398.559,617.233,399.68z"/>
			<path fill="#C6C6C5" d="M620.065,402.059c-0.507,0.252-1.193,0.51-1.109,1.23c0.057,0.435,0.448,0.91,1.092,0.77
				c0.314-0.069,0.592-0.306,0.784-0.397c0.771-0.377,1.688-0.698,2.907-0.669c1.22,0.029,2.06,0.354,2.844,0.767
				c0.264,0.143,0.535,0.363,0.847,0.36c0.663,0,1.166-0.812,0.721-1.427c-0.155-0.214-0.526-0.395-0.827-0.558
				c-0.94-0.492-1.976-0.835-3.286-0.909C622.499,401.138,621.097,401.544,620.065,402.059z"/>
		</g>
		<g>
			<path fill="#C6C6C5" d="M545.821,399.68c-0.411,0.269-0.812,0.526-0.754,1.075c0.039,0.377,0.292,0.689,0.611,0.784
				c0.498,0.143,0.78-0.152,1.066-0.346c0.275-0.186,0.47-0.275,0.661-0.386c1.31-0.758,2.843-1.284,4.914-1.264
				c2.024,0.014,3.555,0.583,4.873,1.364c0.395,0.237,0.857,0.741,1.338,0.738c0.527-0.002,1.024-0.477,0.862-1.141
				c-0.121-0.492-0.862-0.832-1.319-1.109c-1.556-0.949-3.32-1.596-5.724-1.625C549.614,397.734,547.529,398.559,545.821,399.68z"/>
			<path fill="#C6C6C5" d="M548.647,402.059c-0.501,0.252-1.192,0.51-1.106,1.23c0.058,0.435,0.448,0.91,1.092,0.77
				c0.318-0.069,0.59-0.306,0.781-0.397c0.775-0.377,1.688-0.698,2.912-0.669c1.218,0.029,2.058,0.354,2.842,0.767
				c0.264,0.143,0.532,0.363,0.847,0.36c0.661,0,1.168-0.812,0.721-1.427c-0.153-0.214-0.523-0.395-0.826-0.558
				c-0.943-0.492-1.977-0.835-3.286-0.909C551.087,401.138,549.68,401.544,548.647,402.059z"/>
		</g>
	</g>
</g>
<g id="Layer_6">
	<text transform="matrix(1 0 0 1 247.6567 373.1694)"><tspan x="0" y="0" fill="#FFFFFF" font-family="'ArialRoundedMTBold'" font-size="18"> </tspan><tspan x="0" y="19.2" fill="#FFFFFF" font-family="'ArialRoundedMTBold'" font-size="16">2017 </tspan><tspan x="0" y="38.4" fill="#FFFFFF" font-family="'ArialRoundedMTBold'" font-size="16">GEDRAGS- </tspan><tspan x="0" y="57.6" fill="#FFFFFF" font-family="'ArialRoundedMTBold'" font-size="16">VERANDERING</tspan></text>
	<line fill="none" stroke="#FFFFFF" stroke-width="2" stroke-miterlimit="10" x1="293.462" y1="619.536" x2="416.75" y2="619.536"/>
	<text transform="matrix(1 0 0 1 293.7339 632.2822)"><tspan x="0" y="0" fill="#FFFFFF" font-family="'ArialRoundedMTBold'" font-size="10">In 2017 lag de nadruk op </tspan><tspan x="0" y="12" fill="#FFFFFF" font-family="'ArialRoundedMTBold'" font-size="10"> het structureel gebruik </tspan><tspan x="0" y="24" fill="#FFFFFF" font-family="'ArialRoundedMTBold'" font-size="10"> van de fiets en e-bike.  </tspan><tspan x="0" y="36" fill="#FFFFFF" font-family="'ArialRoundedMTBold'" font-size="10"> </tspan><tspan x="0" y="48" fill="#FFFFFF" font-family="'ArialRoundedMTBold'" font-size="10"> </tspan></text>
	<text transform="matrix(1 0 0 1 293.6611 552.666)"><tspan x="0" y="0" fill="#FFFFFF" font-family="'ArialRoundedMTBold'" font-size="18"> </tspan><tspan x="0" y="19.199" fill="#FFFFFF" font-family="'ArialRoundedMTBold'" font-size="16">2018-2021 </tspan><tspan x="0" y="38.399" fill="#FFFFFF" font-family="'ArialRoundedMTBold'" font-size="16">VERBETERING </tspan><tspan x="0" y="57.6" fill="#FFFFFF" font-family="'ArialRoundedMTBold'" font-size="16">PROGRAMMA</tspan></text>
</g>
</svg>
