<?xml version="1.0" encoding="utf-8"?>
<!-- Generator: Adobe Illustrator 16.0.0, SVG Export Plug-In . SVG Version: 6.00 Build 0)  -->
<!DOCTYPE svg PUBLIC "-//W3C//DTD SVG 1.1//EN" "http://www.w3.org/Graphics/SVG/1.1/DTD/svg11.dtd">
<svg version="1.1" id="Layer_1" xmlns="http://www.w3.org/2000/svg" xmlns:xlink="http://www.w3.org/1999/xlink" x="0px" y="0px"
	 width="109.25px" height="81px" viewBox="0 0 109.25 81" enable-background="new 0 0 109.25 81" xml:space="preserve">
<path d="M93.75,0H15.5C6.953,0,0,6.953,0,15.5v50C0,74.047,6.953,81,15.5,81h78.25c8.547,0,15.5-6.953,15.5-15.5v-50
	C109.25,6.953,102.297,0,93.75,0z M102.25,65.5c0,0.293-0.015,0.582-0.044,0.868C101.77,70.648,98.144,74,93.75,74H15.5
	C10.813,74,7,70.187,7,65.5v-50C7,10.813,10.813,7,15.5,7h78.25c4.394,0,8.02,3.352,8.456,7.632
	c0.029,0.286,0.044,0.575,0.044,0.868V65.5z M10.753,68.264c0.704,1.205,1.851,2.119,3.218,2.516l29.607-25.146l-3.093-2.622
	L10.753,68.264z M65.658,45.754l29.621,25.025c1.367-0.396,2.515-1.311,3.219-2.517l-29.722-25.11L65.658,45.754z M96.614,10.813
	L54.635,45.832L13.059,10.579c-1.229,0.612-2.196,1.669-2.691,2.962l42.965,36.43c0.373,0.316,0.832,0.475,1.293,0.475
	c0.455,0,0.91-0.154,1.281-0.464l43.131-35.979C98.656,12.659,97.778,11.527,96.614,10.813z"/>
</svg>
