<?xml version="1.0" encoding="utf-8"?>
<!-- Generator: Adobe Illustrator 16.0.0, SVG Export Plug-In . SVG Version: 6.00 Build 0)  -->
<!DOCTYPE svg PUBLIC "-//W3C//DTD SVG 1.1//EN" "http://www.w3.org/Graphics/SVG/1.1/DTD/svg11.dtd">
<svg version="1.1" xmlns="http://www.w3.org/2000/svg" xmlns:xlink="http://www.w3.org/1999/xlink" x="0px" y="0px"
	 width="64.909px" height="123.684px" viewBox="0 0 64.909 123.684" enable-background="new 0 0 64.909 123.684"
	 xml:space="preserve">
<g id="Capa_1">
	<rect x="-150.878" y="-110.462" display="none" fill="#FFFFFF" width="492.5" height="492.5"/>
	<path fill="#04A0ED" d="M16.366,24.43c0,0-0.145,0.216-0.505,0.577c-0.361,0.361-0.325,0.108-0.505,0.145
		c-0.18,0.036-0.686,0.433-1.238,0.866s-0.422,0.469-0.566,0.686c-0.144,0.216-0.974,0.577-0.974,0.577s-0.433-0.686-0.505-0.912
		s0.036-1.181,0.216-1.29c0.181-0.108,1.191-0.108,1.299-0.144c0.108-0.036,2.599-1.047,2.599-1.047L16.366,24.43z M17.773,24.43
		c0.144-0.072,0.469-0.505,0.613-0.542c0.145-0.036,0.686-0.469,0.686-0.469s0.577-0.144,0.938-0.036
		c0.361,0.108,0.614-0.469,0.614-0.469l0.614-0.505c0,0-0.397-0.289-0.578-0.325s-0.542-0.541-0.686-0.758
		c-0.145-0.216,0.18-0.361,0.18-0.361s1.155,0.361,1.444,0.397c0.289,0.036,0.794,0.758,0.794,0.758s0.433-0.18,0.505-0.289
		s0.144-0.938,0.18-1.148c0.036-0.21,1.227-1.522,1.444-1.775c0.216-0.253,1.552,0,1.552,0s0.866-0.794,1.372-1.335
		s0.614-0.975,0.65-1.155c0.036-0.18,1.155-1.299,1.155-1.299s0.072-0.649,0.181-0.854c0.108-0.205,0.541-0.806,0.541-0.806
		s0.686-0.649,0.83-0.722c0.145-0.072-0.072-5.161-0.072-5.161s0.072-0.758,0.216-0.938s0.361-0.614,0.361-0.614
		s-0.108-1.01-0.289-1.407c-0.181-0.397-1.732-1.841-1.769-2.202s0.072-0.83,0-1.047c-0.072-0.216-0.578-1.119-0.794-1.227
		c-0.217-0.108-1.011-0.252-1.191,0c-0.181,0.253-0.433,0.253-1.299,0.614s-1.588,2.67-1.769,2.933
		c-0.181,0.262-0.433,1.217-0.433,1.217s1.083-0.758,1.263-0.866c0.18-0.108,0.397,0.217,0.289,0.361
		c-0.108,0.145-0.289,0.325-0.578,0.69c-0.289,0.365-0.649,0.645-1.119,0.753s-0.289-0.753-0.289-0.753s-0.469,0.681-1.191,1.379
		c-0.722,0.697-1.516,2.948-1.805,3.2c-0.289,0.253-1.047,1.335-1.408,1.877c-0.361,0.541,0.108,1.119-0.686,2.718
		c-0.794,1.6-1.264,4.103-1.408,4.428c-0.145,0.325,0.144,1.696,0.18,1.992c0.036,0.295,0.253,1.401,0.181,1.69
		c-0.072,0.289,0,1.768,0,1.768C17.205,24.356,17.629,24.502,17.773,24.43z M5.28,106.027c0,0,0.396-0.371,0.595-0.421
		c0.198-0.049,0.47-0.099,0.867-0.148c0.396-0.05,0.768-0.099,1.015-0.099s0.966,0.594,0.966,0.768s-0.421,1.263-0.446,1.362
		c-0.025,0.099-0.396,0.693-0.446,0.792c-0.049,0.099-0.347,0.842-0.347,0.916s-0.173,1.188-0.173,1.188l-1.733,1.684l0.074,2.427
		c0,0-0.396,0.496-0.471,0.595S4.76,115.66,4.76,115.66s-0.223,0.223-0.173,0.322c0.05,0.099-0.049,0.644,0.099,0.842
		s0.322,0.916,0.545,0.966c0.223,0.049,0.693,0.148,0.892,0c0.198-0.148,0.569-0.669,0.668-0.693
		c0.099-0.025,0.495,0.347,0.668,0.372c0.173,0.024,0.396,0.297,0.595,0.297c0.198,0,1.436,0.182,1.51,0.104
		s0.421-0.128,0.644-0.178c0.223-0.049,0.421-0.272,0.644-0.372c0.223-0.099,1.016-0.396,1.214-0.545
		c0.198-0.148,0.272-0.223,0.371-0.248c0.099-0.024,0.842-0.124,0.842-0.124l0.718,0.396c0,0,0.495-0.47,0.619-0.52
		c0.124-0.049,0.446-0.545,0.668-0.619s0.297,0.074,0.842,0.074s0.817,0.124,0.892,0.223s0.198,0.322,0.297,0.52
		s0.173,0.792,0,0.941c-0.173,0.149-0.446,0.32-0.322,0.47c0.124,0.149,0.159,0.471,0.426,0.62c0.268,0.148,0.465,0.223,0.465,0.223
		l0.421-0.718c0,0-0.024-0.173,0.248-0.223c0.272-0.05,0.347,0.025,0.718-0.05c0.372-0.074,0.372,0.05,0.57-0.148
		s0.421-0.272,0.594-0.421s0.471-0.446,0.471-0.446l3.64-0.049c0,0,0.669-0.471,1.114-0.768c0.446-0.297,1.511-1.634,1.709-1.684
		c0.198-0.05,1.535-0.669,1.61-0.718c0.074-0.05,1.263-0.124,1.263,0.074s0.372,0,0.693-0.148c0.322-0.149,0.297-0.05,0.545-0.272
		c0.248-0.223,0.495-0.941,0.668-1.065s0.446-0.693,0.446-0.693l-0.421-0.842l0.421-0.619c0,0,0.917,0.817,1.61,0.668
		s0.916-0.173,0.991-0.198c0.074-0.025,0.47-0.347,0.842-0.693s0.792-0.892,0.867-0.892s0.182,0.421,0.5,0.372
		c0.318-0.049,0.417-0.421,0.268-0.619c-0.148-0.198-0.049-0.446,0.248-0.545c0.297-0.099,1.015-0.248,1.015-0.248h0.495v2.056
		l0.792-0.173c0,0,0.322,0.495,0.594,0.372c0.272-0.124,0.57-0.421,0.743-0.545c0.173-0.124-0.272-0.074,0.173-0.124
		c0.446-0.049,1.089,0.471,1.089,0.471s-0.965-0.05-1.263,0.099c-0.297,0.148-0.644,0.347-0.817,0.421s-0.396,0.173-0.594,0.372
		c-0.198,0.198-0.693,0.544-0.693,0.544s0.272,0.966,0.322,1.213c0.05,0.248-0.099,0.545,0.173,0.867
		c0.272,0.322,0.545,0.491,0.545,0.491l0.545-0.689c0,0,0.198,1.04,0.198,1.164c0,0.124,0.024,0.594,0.024,0.718
		c0,0.124,0.347,0.248,0.421,0.248c0.074,0,0.272,0.124,0.272,0.124s0.198,0.223,0.124,0.248c-0.074,0.025-0.495,0.223-0.594,0.248
		c-0.099,0.025-1.09,0.223-1.09,0.223l0.074,3.368l-1.164,0.174c0,0,0.743,0.47,0.842,0.495s0.297,0.173,0.297,0.322
		s0.099,1.56,0.099,1.56h0.495l0.198,2.001c0,0,0-0.169,0.718-0.367c0.718-0.198,1.536-0.445,1.684-0.445s0.991-0.174,1.337-0.322
		s1.412-0.569,1.585-0.619c0.173-0.05,0.248-0.124,0.47-0.05c0.223,0.074,1.362,0.421,1.61,0.446s0.644,0.074,0.792,0.124
		c0.148,0.049,0.049,0.148,0.322,0.124c0.272-0.025,1.808,0.024,1.808,0.024l0.619,0.05l0.445-0.025c0,0,1.601-3.665,1.717-3.739
		c0.116-0.074-0.033-0.941,0.116-1.114c0.148-0.173,0.421-0.991,0.544-1.164c0.124-0.173,0.322-1.56,0.322-1.56
		s0.668-0.718,0.668-0.99c0-0.273,0-1.907,0-1.907s0.966-1.288,1.164-1.609c0.198-0.322,0.668-0.669,0.817-0.694
		c0.149-0.024,1.065,0.149,1.164,0.173c0.099,0.025,1.188,0.421,1.263,0.396c0.074-0.025,0.248-0.025,0.248-0.025l0.368-0.319
		l-0.987-1.552l0.219-0.234l-0.072-0.343l-0.307,0.036l-0.704-0.451l-0.415-0.289c0,0-0.253,0-0.451-0.037
		c-0.199-0.036-1.57-1.389-1.696-1.461c-0.126-0.072-0.722,0.289-0.722,0.289s-3.285-0.054-3.339-0.054s-0.957,0.758-0.957,0.758
		l-0.397,0.613c0,0-0.884-0.018-1.046-0.036c-0.163-0.018-0.126-0.451-0.181-0.469s-1.209-1.407-1.408-1.642
		c-0.198-0.234-0.649-1.173-0.649-1.173l-2.238-0.181l-0.216-0.92c0,0-2.996-0.379-3.176-0.379c-0.181,0-0.253,0.668-0.253,0.668
		s-1.876,0.018-1.931,0.018s0.018-0.235,0.018-0.235l0.487-0.649l-1.011-1.011c0,0-0.271,0.307-0.469,0.505
		c-0.198,0.198-0.649,0.325-0.794,0.361s-0.65-0.289-0.65-0.289l0.56-0.325l-0.036-1.065l-0.884-0.542c0,0-0.523-0.126-0.649-0.054
		s-0.614,0.397-0.614,0.397l-0.198-0.198l-0.83-0.502l0.18-0.4c0,0,0,0,0.469-0.054s0.487,0.884,0.487,0.884l0.361-0.43l-0.09-0.323
		l0.145-0.673l-1.39-0.649c0,0-0.631-0.884-0.216-0.884s2.057,1.209,2.057,1.209s0.487-0.361,0.686-0.415
		c0.199-0.054,0.56,0.83,0.56,0.83l0.614-0.325l0.054-1.148c0,0,0.325-0.115,0.686-0.133s0.469-0.433,0.469-0.433l0.054-1.372
		c0,0,1.227-1.119,1.696-1.556s1.011,0,1.011,0s0.144-0.321,0.198-0.925c0.054-0.604,1.714-2.013,1.714-2.013l-0.884,0.036
		l-0.613-0.379l-1.335-0.162c0,0-0.343-0.938-0.361-1.426s0.505-0.307,0.505-0.307l0.126-1.114l-0.487-0.078
		c0,0-0.667,0.434-0.848,0.452c-0.18,0.018-0.054-0.631-0.054-0.631s0.542-0.217,0.668-0.271s1.064,0.018,1.064,0.018l0.325-0.361
		l-0.108-0.542l-0.523-0.902c0,0,0.271-0.758,0.433-0.884c0.163-0.126,0.812,0.216,0.812,0.216l0.054-0.367l0.812-1.482
		l-0.352-0.334l-0.054-0.92l-0.623-0.487l-0.162-0.73c0,0-0.623-1.922-1.164-2.382s-1.408-2.869-1.408-2.869l-0.135-0.542
		c0,0,0.135-0.596,0.135-0.758c0-0.163-1.299-1.841-1.299-1.841l0.542-0.812c0,0-0.271-0.433-0.352-0.542
		c-0.081-0.108,0.163-3.004,0.163-3.004l0.568-0.585l0.596-0.524l1.056-0.596c0,0,0.298,0.677,0.352,0.92s0.568,0.2,0.568,0.2
		l0.785-0.762c0,0,0.623-0.115,1.542,0c0.92,0.115,1.083,0.995,1.083,0.995l0.542,0.027l0.866,1.056l2.084,0.082l1.732-1.76
		l1.624,0.082l0.406-1.002l0.758-0.162l0.271-0.894l0.839-0.487c0,0,0.623-0.623,0.569-1.245c-0.055-0.623,0.325-2.138,0.866-2.382
		c0.541-0.244,2.057-0.46,2.057-0.46s0.108-0.758,0.189-0.785c0.081-0.027,1.516-1.016,1.516-1.016l-1.272-1.285v-3.465
		c0,0-1.895-0.893-2.058-0.92c-0.162-0.027-2.463-0.326-2.463-0.326l-0.376-0.296l-1.816-0.271l-0.325,0.92l-0.596,0.731
		l-0.487,0.568l-0.352-0.379c0,0-0.731-0.054-0.812-0.054c-0.082,0-1.029,0-1.029,0s-1.841-2.22-1.976-2.274s0.108-0.379,0.135-0.46
		c0.027-0.081,0.596-0.514,0.596-0.514l-0.433-0.217l-0.514-0.135c0,0-0.271-0.379-0.352-0.433s-0.731,0.081-0.677-0.054
		s0.65-6.009,0.839-6.523c0.189-0.515,0.027-2.084,0.027-2.084l-5.139-9.573l-0.267-0.547l0.26,0.027c0,0,0.451,0.253,0.458,0.287
		c0.007,0.035-0.062-1.012-0.062-1.012s0.582-0.096,0.705-0.116s0.506-0.636,0.506-0.636l9.746-8.752c0,0,0.831-0.692,1.119-0.801
		c0.289-0.108,5.403-5.505,5.919-5.619c0.517-0.113,0.396-0.377,1.119-0.409c0.723-0.031,0.974-0.216,0.974-0.216
		s0.145-0.289,0.036-0.289c-0.108,0-2.237,0.686-2.346,0.758S42.929,29.375,42.929,29.375s-0.289,0-0.649,0.108
		s-0.704,0.397-0.704,0.397l-0.451,0.126l-1.083,0.054l-0.56,0.542L37.84,29.97l-0.812,0.252c0,0-0.83,0.253-1.516,0.505
		c-0.686,0.253-0.975,2.184-0.975,2.184s-0.397,0.668-0.596,0.776c-0.198,0.108-4.547,2.491-4.602,2.418s-1.191-1.047-1.191-1.047
		l-1.137-0.613c0,0-0.722-0.253-2.129-1.011s-1.859-2.923-1.859-2.923s-0.271-1.299-0.144-1.606
		c0.126-0.307,0.902-2.292,0.902-2.292l-0.542-0.163l-0.433,1.119l-0.993,0.018l-0.036-1.047l-3.104-0.072l-1.227,1.624
		c0,0,0,2.959-0.289,3.519s-0.325,4.331-0.379,5.342s-1.769,5.594-1.931,6.334c-0.162,0.74-1.245,4.584-1.245,4.584
		s-0.577,1.66-0.866,2.237c-0.289,0.578-0.541,2.274-0.541,2.274s-0.74,2.274-0.794,2.292s0.018,4.782,0.018,4.782
		s-0.198,0.631-0.361,1.263c-0.163,0.631-0.896,8.444-0.896,8.444l-0.602,0.393c0,0-0.327,3.768-0.589,4.645
		c-0.261,0.876-0.968,6.49-1.479,8.047s-1.963,4.2-1.963,4.2l-0.118,0.602l0.485-0.002c0,0,0.866-0.108,1.119-0.108
		c0.253,0,1.408-0.807,1.408-0.807l-0.036,0.771l-0.83,0.253l-0.938,0.216l-0.613,0.722l-0.83-0.266c0,0-0.181,0.735-0.145,1.349
		s0.505,0.252,0.252,1.588C4.983,92.366,2.427,98.54,0,103.959c1.84,0.917,4.538,2.291,4.587,2.291
		C4.661,106.25,5.28,106.027,5.28,106.027z"/>
</g>
<g id="Layer_2">
	<circle fill="none" cx="17.691" cy="91.393" r="12.496"/>
	<circle opacity="0.7" fill="#E3E3E3" cx="19.789" cy="92.056" r="12.496"/>
	<circle opacity="0.7" fill="#DADAD9" cx="22.338" cy="93.373" r="12.496"/>
	<circle opacity="0.7" fill="#D0D0CF" cx="23.593" cy="94.282" r="11.587"/>
	<circle opacity="0.7" fill="#B2B2B1" cx="23.593" cy="94.282" r="9.607"/>
</g>
<g id="Layer_3">
</g>
<g id="Layer_4">
	<g>
		<path d="M6.181,90.551c0-0.4-0.008-0.728-0.032-1.048h0.616l0.032,0.624h0.024c0.216-0.368,0.576-0.712,1.215-0.712
			c0.528,0,0.928,0.32,1.096,0.776h0.016c0.12-0.216,0.271-0.384,0.432-0.504c0.232-0.176,0.488-0.272,0.855-0.272
			c0.512,0,1.271,0.336,1.271,1.679v2.279h-0.688v-2.191c0-0.744-0.272-1.191-0.839-1.191c-0.4,0-0.712,0.296-0.832,0.64
			c-0.032,0.096-0.056,0.224-0.056,0.352v2.391H8.604v-2.319c0-0.616-0.272-1.063-0.808-1.063c-0.439,0-0.76,0.352-0.872,0.704
			c-0.04,0.104-0.056,0.224-0.056,0.344v2.335H6.181V90.551z"/>
		<path d="M13.245,91.566c0.016,0.952,0.624,1.343,1.327,1.343c0.504,0,0.808-0.088,1.071-0.2l0.12,0.503
			c-0.248,0.112-0.672,0.24-1.288,0.24c-1.191,0-1.903-0.784-1.903-1.951c0-1.167,0.688-2.087,1.815-2.087
			c1.264,0,1.599,1.111,1.599,1.823c0,0.144-0.016,0.256-0.024,0.328H13.245z M15.308,91.063c0.008-0.448-0.184-1.144-0.976-1.144
			c-0.712,0-1.023,0.656-1.08,1.144H15.308z"/>
		<path d="M17.709,88.392v1.111h1.007v0.536h-1.007v2.087c0,0.479,0.136,0.751,0.528,0.751c0.184,0,0.32-0.024,0.408-0.048
			l0.032,0.528c-0.136,0.056-0.352,0.096-0.624,0.096c-0.328,0-0.591-0.104-0.759-0.296c-0.2-0.208-0.272-0.552-0.272-1.007v-2.111
			h-0.6v-0.536h0.6v-0.927L17.709,88.392z"/>
		<path d="M19.509,90.71c0-0.456-0.008-0.848-0.032-1.208h0.616l0.024,0.76h0.032c0.176-0.52,0.6-0.848,1.072-0.848
			c0.08,0,0.136,0.008,0.2,0.024v0.664c-0.072-0.016-0.144-0.024-0.24-0.024c-0.496,0-0.848,0.375-0.943,0.903
			c-0.016,0.096-0.032,0.208-0.032,0.328v2.063h-0.696V90.71z"/>
		<path d="M25.547,91.406c0,1.431-0.992,2.055-1.927,2.055c-1.047,0-1.855-0.768-1.855-1.991c0-1.295,0.848-2.055,1.919-2.055
			C24.795,89.415,25.547,90.223,25.547,91.406z M22.477,91.446c0,0.847,0.487,1.487,1.175,1.487c0.671,0,1.175-0.631,1.175-1.503
			c0-0.656-0.328-1.487-1.159-1.487C22.836,89.943,22.477,90.71,22.477,91.446z"/>
		<path d="M26.437,90.767c0-0.496-0.016-0.896-0.032-1.264h0.631l0.032,0.664h0.016c0.288-0.472,0.744-0.752,1.375-0.752
			c0.936,0,1.639,0.792,1.639,1.967c0,1.391-0.848,2.079-1.759,2.079c-0.512,0-0.959-0.224-1.191-0.607h-0.016v2.103h-0.696V90.767z
			 M27.133,91.798c0,0.104,0.016,0.2,0.032,0.288c0.128,0.487,0.552,0.823,1.056,0.823c0.744,0,1.175-0.607,1.175-1.495
			c0-0.775-0.408-1.439-1.151-1.439c-0.479,0-0.927,0.344-1.063,0.872c-0.024,0.088-0.048,0.191-0.048,0.288V91.798z"/>
		<path d="M34.491,91.406c0,1.431-0.992,2.055-1.927,2.055c-1.047,0-1.855-0.768-1.855-1.991c0-1.295,0.848-2.055,1.919-2.055
			C33.739,89.415,34.491,90.223,34.491,91.406z M31.421,91.446c0,0.847,0.488,1.487,1.175,1.487c0.671,0,1.175-0.631,1.175-1.503
			c0-0.656-0.328-1.487-1.16-1.487C31.781,89.943,31.421,90.71,31.421,91.446z"/>
		<path d="M38.883,91.406c0,1.431-0.992,2.055-1.927,2.055c-1.047,0-1.855-0.768-1.855-1.991c0-1.295,0.848-2.055,1.919-2.055
			C38.131,89.415,38.883,90.223,38.883,91.406z M35.813,91.446c0,0.847,0.487,1.487,1.175,1.487c0.671,0,1.175-0.631,1.175-1.503
			c0-0.656-0.328-1.487-1.159-1.487C36.172,89.943,35.813,90.71,35.813,91.446z"/>
		<path d="M39.773,87.696h0.704v5.677h-0.704V87.696z"/>
		<path d="M15.305,100.311c0-0.456-0.008-0.848-0.032-1.207h0.616l0.024,0.759h0.032c0.176-0.52,0.6-0.848,1.072-0.848
			c0.08,0,0.136,0.008,0.2,0.024v0.664c-0.072-0.016-0.144-0.024-0.24-0.024c-0.496,0-0.848,0.376-0.944,0.904
			c-0.016,0.096-0.032,0.208-0.032,0.328v2.063h-0.696V100.311z"/>
		<path d="M18.233,101.166c0.016,0.952,0.624,1.343,1.327,1.343c0.504,0,0.808-0.088,1.071-0.2l0.12,0.504
			c-0.248,0.112-0.672,0.24-1.288,0.24c-1.191,0-1.903-0.784-1.903-1.951s0.688-2.087,1.815-2.087c1.264,0,1.599,1.112,1.599,1.823
			c0,0.144-0.016,0.256-0.024,0.328H18.233z M20.296,100.663c0.008-0.448-0.184-1.144-0.976-1.144c-0.712,0-1.023,0.656-1.08,1.144
			H20.296z"/>
		<path d="M25.184,99.104c-0.016,0.28-0.032,0.591-0.032,1.063v2.247c0,0.887-0.176,1.431-0.552,1.767
			c-0.375,0.352-0.919,0.463-1.407,0.463c-0.463,0-0.975-0.112-1.287-0.32l0.176-0.536c0.256,0.16,0.656,0.304,1.135,0.304
			c0.72,0,1.248-0.376,1.248-1.352v-0.432h-0.016c-0.216,0.36-0.631,0.647-1.231,0.647c-0.959,0-1.647-0.815-1.647-1.887
			c0-1.312,0.855-2.055,1.743-2.055c0.671,0,1.04,0.352,1.208,0.672h0.016l0.032-0.583H25.184z M24.456,100.63
			c0-0.12-0.008-0.224-0.04-0.32c-0.128-0.408-0.472-0.744-0.983-0.744c-0.672,0-1.151,0.568-1.151,1.463
			c0,0.76,0.384,1.391,1.143,1.391c0.432,0,0.824-0.272,0.976-0.72c0.04-0.12,0.056-0.256,0.056-0.375V100.63z"/>
		<path d="M27.057,98.016c0.008,0.24-0.168,0.432-0.448,0.432c-0.248,0-0.424-0.192-0.424-0.432c0-0.248,0.184-0.439,0.44-0.439
			C26.889,97.576,27.057,97.768,27.057,98.016z M26.273,102.973v-3.87h0.704v3.87H26.273z"/>
		<path d="M31.647,101.006c0,1.431-0.992,2.055-1.927,2.055c-1.047,0-1.855-0.768-1.855-1.991c0-1.295,0.848-2.055,1.919-2.055
			C30.896,99.015,31.647,99.823,31.647,101.006z M28.577,101.046c0,0.847,0.488,1.487,1.175,1.487c0.671,0,1.175-0.631,1.175-1.503
			c0-0.656-0.328-1.487-1.16-1.487C28.937,99.543,28.577,100.311,28.577,101.046z"/>
	</g>
</g>
</svg>
