<?xml version="1.0" encoding="utf-8"?>
<!-- Generator: Adobe Illustrator 16.0.0, SVG Export Plug-In . SVG Version: 6.00 Build 0)  -->
<!DOCTYPE svg PUBLIC "-//W3C//DTD SVG 1.1//EN" "http://www.w3.org/Graphics/SVG/1.1/DTD/svg11.dtd">
<svg version="1.1" id="Layer_1" xmlns="http://www.w3.org/2000/svg" xmlns:xlink="http://www.w3.org/1999/xlink" x="0px" y="0px"
	 width="75.359px" height="75.119px" viewBox="0 0 75.359 75.119" style="enable-background:new 0 0 75.359 75.119;"
	 xml:space="preserve">
<g>
	<path style="fill-rule:evenodd;clip-rule:evenodd;fill:#009444;" d="M34.08,0c2.32,0,4.64,0,6.959,0
		c1.054,0.178,2.108,0.348,3.16,0.535c20.097,3.565,33.872,22.752,30.406,42.918c-2.657,15.463-11.87,25.51-26.813,30.236
		c-2.183,0.691-4.499,0.964-6.754,1.43c-2.32,0-4.64,0-6.959,0c-0.815-0.152-1.63-0.302-2.444-0.458
		C16.282,71.715,6.21,62.779,1.462,47.905C0.754,45.688,0.477,43.331,0,41.039c0-2.319,0-4.64,0-6.96
		c0.152-0.814,0.302-1.63,0.458-2.443C3.404,16.282,12.339,6.21,27.213,1.462C29.432,0.754,31.787,0.477,34.08,0z M58.283,43.919
		c-6.922-6.965-13.825-13.911-20.695-20.825c-6.922,6.96-13.848,13.923-20.731,20.844c1.275,1.271,2.627,2.618,4.172,4.159
		c5.437-5.526,10.947-11.127,16.602-16.874c5.638,5.693,11.148,11.257,16.587,16.748C55.635,46.559,56.987,45.211,58.283,43.919z"/>
</g>
</svg>
